<?xml version="1.0" encoding="UTF-8" standalone="no"?>
<!DOCTYPE svg PUBLIC "-//W3C//DTD SVG 1.1//EN"
 "http://www.w3.org/Graphics/SVG/1.1/DTD/svg11.dtd">
<!-- Generated by graphviz version 2.50.0 (20211204.2007)
 -->
<!-- Title: Annotationen Pages: 1 -->
<svg width="1106pt" height="597pt"
 viewBox="0.00 0.00 1105.50 597.00" xmlns="http://www.w3.org/2000/svg" xmlns:xlink="http://www.w3.org/1999/xlink">
<g id="graph0" class="graph" transform="scale(1 1) rotate(0) translate(4 593)">
<title>Annotationen</title>
<g id="clust2" class="cluster">
<title>cluster_net</title>
<polygon fill="transparent" stroke="black" points="53,-156 53,-581 1089.5,-581 1089.5,-156 53,-156"/>
<text text-anchor="middle" x="571.25" y="-569" font-family="sans-serif" font-size="10.00">Neighbourhood for Entity No. 11525 in Zoologisches Institut und zoologische Sammlung (1928)</text>
</g>
<!-- legend1 -->
<g id="node1" class="node">
<title>legend1</title>
<polygon fill="none" stroke="black" points="10.5,-121 10.5,-142 39.5,-142 39.5,-121 10.5,-121"/>
<text text-anchor="start" x="15.5" y="-129" font-family="sans-serif" font-size="10.00">P2</text>
<polygon fill="none" stroke="black" points="41.5,-121 41.5,-142 195.5,-142 195.5,-121 41.5,-121"/>
<text text-anchor="start" x="46.5" y="-129" font-family="sans-serif" font-size="10.00">has type</text>
<polygon fill="none" stroke="black" points="10.5,-98 10.5,-119 39.5,-119 39.5,-98 10.5,-98"/>
<text text-anchor="start" x="15.5" y="-106" font-family="sans-serif" font-size="10.00">P22</text>
<polygon fill="none" stroke="black" points="41.5,-98 41.5,-119 195.5,-119 195.5,-98 41.5,-98"/>
<text text-anchor="start" x="46.5" y="-106" font-family="sans-serif" font-size="10.00">transferred title to</text>
<polygon fill="none" stroke="black" points="10.5,-75 10.5,-96 39.5,-96 39.5,-75 10.5,-75"/>
<text text-anchor="start" x="15.5" y="-83" font-family="sans-serif" font-size="10.00">P23</text>
<polygon fill="none" stroke="black" points="41.5,-75 41.5,-96 195.5,-96 195.5,-75 41.5,-75"/>
<text text-anchor="start" x="46.5" y="-83" font-family="sans-serif" font-size="10.00">transferred title from</text>
<polygon fill="none" stroke="black" points="10.5,-52 10.5,-73 39.5,-73 39.5,-52 10.5,-52"/>
<text text-anchor="start" x="15.5" y="-60" font-family="sans-serif" font-size="10.00">P24</text>
<polygon fill="none" stroke="black" points="41.5,-52 41.5,-73 195.5,-73 195.5,-52 41.5,-52"/>
<text text-anchor="start" x="46.5" y="-60" font-family="sans-serif" font-size="10.00">transferred title of</text>
<polygon fill="none" stroke="black" points="10.5,-29 10.5,-50 39.5,-50 39.5,-29 10.5,-29"/>
<text text-anchor="start" x="15.5" y="-37" font-family="sans-serif" font-size="10.00">P43</text>
<polygon fill="none" stroke="black" points="41.5,-29 41.5,-50 195.5,-50 195.5,-29 41.5,-29"/>
<text text-anchor="start" x="46.5" y="-37" font-family="sans-serif" font-size="10.00">has dimension</text>
<polygon fill="none" stroke="black" points="10.5,-6 10.5,-27 39.5,-27 39.5,-6 10.5,-6"/>
<text text-anchor="start" x="15.5" y="-14" font-family="sans-serif" font-size="10.00">P53</text>
<polygon fill="none" stroke="black" points="41.5,-6 41.5,-27 195.5,-27 195.5,-6 41.5,-6"/>
<text text-anchor="start" x="46.5" y="-14" font-family="sans-serif" font-size="10.00">has former or current location</text>
</g>
<!-- N11525 -->
<g id="node2" class="node">
<title>N11525</title>
<polygon fill="none" stroke="red" stroke-width="2" points="354,-164.5 354,-213.5 472,-213.5 472,-164.5 354,-164.5"/>
<text text-anchor="start" x="385.5" y="-201.5" font-family="sans-serif" font-size="10.00">E21 Person</text>
<text text-anchor="start" x="394" y="-190.5" font-family="sans-serif" font-size="10.00">(11525)</text>
<polyline fill="none" stroke="red" stroke-width="2" points="354,-183.5 472,-183.5 "/>
<text text-anchor="start" x="362" y="-171.5" font-family="sans-serif" font-size="10.00">Professor Dr. Apstein</text>
</g>
<!-- N11517 -->
<g id="node3" class="node">
<title>N11517</title>
<polygon fill="none" stroke="#d65f5f" stroke-width="2" points="61,-334.5 61,-383.5 144,-383.5 144,-334.5 61,-334.5"/>
<text text-anchor="start" x="69" y="-371.5" font-family="sans-serif" font-size="10.00">E8 Acquisition</text>
<text text-anchor="start" x="83.5" y="-360.5" font-family="sans-serif" font-size="10.00">(11517)</text>
<polyline fill="none" stroke="#d65f5f" stroke-width="2" points="61,-353.5 144,-353.5 "/>
<text text-anchor="start" x="81" y="-341.5" font-family="sans-serif" font-size="10.00">Zuwachs</text>
</g>
<!-- N11517&#45;&gt;N11525 -->
<g id="edge4" class="edge">
<title>N11517&#45;&gt;N11525</title>
<path fill="none" stroke="black" d="M89.5,-334.28C89.5,-287.13 89.5,-189 89.5,-189 89.5,-189 343.67,-189 343.67,-189"/>
<polygon fill="black" stroke="black" points="343.67,-192.5 353.67,-189 343.67,-185.5 343.67,-192.5"/>
<text text-anchor="middle" x="134.44" y="-181" font-family="sans-serif" font-size="10.00">P23</text>
</g>
<!-- N11516 -->
<g id="node4" class="node">
<title>N11516</title>
<polygon fill="none" stroke="#797979" stroke-width="2" points="355.5,-232.5 355.5,-281.5 470.5,-281.5 470.5,-232.5 355.5,-232.5"/>
<text text-anchor="start" x="363.5" y="-269.5" font-family="sans-serif" font-size="10.00">E78 Curated Holding</text>
<text text-anchor="start" x="394" y="-258.5" font-family="sans-serif" font-size="10.00">(11516)</text>
<polyline fill="none" stroke="#797979" stroke-width="2" points="355.5,-251.5 470.5,-251.5 "/>
<text text-anchor="start" x="389.5" y="-239.5" font-family="sans-serif" font-size="10.00">Bibliothek</text>
</g>
<!-- N11517&#45;&gt;N11516 -->
<g id="edge3" class="edge">
<title>N11517&#45;&gt;N11516</title>
<path fill="none" stroke="black" d="M116.5,-334.31C116.5,-304.12 116.5,-257 116.5,-257 116.5,-257 345.48,-257 345.48,-257"/>
<polygon fill="black" stroke="black" points="345.48,-260.5 355.48,-257 345.48,-253.5 345.48,-260.5"/>
<text text-anchor="middle" x="182.84" y="-249" font-family="sans-serif" font-size="10.00">P22</text>
</g>
<!-- N11519 -->
<g id="node5" class="node">
<title>N11519</title>
<polygon fill="none" stroke="#ee854a" stroke-width="2" points="358,-300.5 358,-349.5 468,-349.5 468,-300.5 358,-300.5"/>
<text text-anchor="start" x="366" y="-337.5" font-family="sans-serif" font-size="10.00">E19 Physical Object</text>
<text text-anchor="start" x="394" y="-326.5" font-family="sans-serif" font-size="10.00">(11519)</text>
<polyline fill="none" stroke="#ee854a" stroke-width="2" points="358,-319.5 468,-319.5 "/>
<text text-anchor="start" x="388.5" y="-307.5" font-family="sans-serif" font-size="10.00">Nummern</text>
</g>
<!-- N11517&#45;&gt;N11519 -->
<g id="edge7" class="edge">
<title>N11517&#45;&gt;N11519</title>
<path fill="none" stroke="black" d="M144.05,-342C144.05,-342 347.82,-342 347.82,-342"/>
<polygon fill="black" stroke="black" points="347.82,-345.5 357.82,-342 347.82,-338.5 347.82,-345.5"/>
<text text-anchor="middle" x="236.44" y="-334" font-family="sans-serif" font-size="10.00">P24</text>
</g>
<!-- N11522 -->
<g id="node6" class="node">
<title>N11522</title>
<polygon fill="none" stroke="#4878d0" stroke-width="2" points="289,-368.5 289,-417.5 537,-417.5 537,-368.5 289,-368.5"/>
<text text-anchor="start" x="387.5" y="-405.5" font-family="sans-serif" font-size="10.00">E74 Group</text>
<text text-anchor="start" x="394" y="-394.5" font-family="sans-serif" font-size="10.00">(11522)</text>
<polyline fill="none" stroke="#4878d0" stroke-width="2" points="289,-387.5 537,-387.5 "/>
<text text-anchor="start" x="297" y="-375.5" font-family="sans-serif" font-size="10.00">Gesellschaft Naturforschender Freunde zu Berlin</text>
</g>
<!-- N11517&#45;&gt;N11522 -->
<g id="edge5" class="edge">
<title>N11517&#45;&gt;N11522</title>
<path fill="none" stroke="black" d="M144.05,-373.33C144.05,-373.33 278.92,-373.33 278.92,-373.33"/>
<polygon fill="black" stroke="black" points="278.92,-376.83 288.92,-373.33 278.92,-369.83 278.92,-376.83"/>
<text text-anchor="middle" x="201.99" y="-365.33" font-family="sans-serif" font-size="10.00">P23</text>
</g>
<!-- N11524 -->
<g id="node7" class="node">
<title>N11524</title>
<polygon fill="none" stroke="#4878d0" stroke-width="2" points="263,-436.5 263,-485.5 563,-485.5 563,-436.5 263,-436.5"/>
<text text-anchor="start" x="387.5" y="-473.5" font-family="sans-serif" font-size="10.00">E74 Group</text>
<text text-anchor="start" x="394" y="-462.5" font-family="sans-serif" font-size="10.00">(11524)</text>
<polyline fill="none" stroke="#4878d0" stroke-width="2" points="263,-455.5 563,-455.5 "/>
<text text-anchor="start" x="271" y="-443.5" font-family="sans-serif" font-size="10.00">Reichszentrale für naturwissenschaftliche Berichterstattung</text>
</g>
<!-- N11517&#45;&gt;N11524 -->
<g id="edge6" class="edge">
<title>N11517&#45;&gt;N11524</title>
<path fill="none" stroke="black" d="M144.18,-378.67C195.65,-378.67 276.5,-378.67 276.5,-378.67 276.5,-378.67 276.5,-426.3 276.5,-426.3"/>
<polygon fill="black" stroke="black" points="273,-426.3 276.5,-436.3 280,-426.3 273,-426.3"/>
<text text-anchor="middle" x="224.65" y="-370.67" font-family="sans-serif" font-size="10.00">P23</text>
</g>
<!-- N11526 -->
<g id="node8" class="node">
<title>N11526</title>
<polygon fill="none" stroke="#956cb4" stroke-width="2" points="383,-504.5 383,-553.5 443,-553.5 443,-504.5 383,-504.5"/>
<text text-anchor="start" x="391" y="-541.5" font-family="sans-serif" font-size="10.00">E55 Type</text>
<text text-anchor="start" x="394" y="-530.5" font-family="sans-serif" font-size="10.00">(11526)</text>
<polyline fill="none" stroke="#956cb4" stroke-width="2" points="383,-523.5 443,-523.5 "/>
<text text-anchor="start" x="391" y="-511.5" font-family="sans-serif" font-size="10.00">Donation</text>
</g>
<!-- N11517&#45;&gt;N11526 -->
<g id="edge1" class="edge">
<title>N11517&#45;&gt;N11526</title>
<path fill="none" stroke="black" d="M102.5,-383.72C102.5,-430.87 102.5,-529 102.5,-529 102.5,-529 372.95,-529 372.95,-529"/>
<polygon fill="black" stroke="black" points="372.95,-532.5 382.95,-529 372.95,-525.5 372.95,-532.5"/>
<text text-anchor="middle" x="158.58" y="-521" font-family="sans-serif" font-size="10.00">P2</text>
</g>
<!-- N11520 -->
<g id="node9" class="node">
<title>N11520</title>
<polygon fill="none" stroke="#8c613c" stroke-width="2" points="685,-232.5 685,-281.5 762,-281.5 762,-232.5 685,-232.5"/>
<text text-anchor="start" x="693" y="-269.5" font-family="sans-serif" font-size="10.00">E60 Number</text>
<text text-anchor="start" x="704.5" y="-258.5" font-family="sans-serif" font-size="10.00">(11520)</text>
<polyline fill="none" stroke="#8c613c" stroke-width="2" points="685,-251.5 762,-251.5 "/>
<text text-anchor="start" x="706.5" y="-239.5" font-family="sans-serif" font-size="10.00">54 399</text>
</g>
<!-- N11516&#45;&gt;N11520 -->
<g id="edge8" class="edge">
<title>N11516&#45;&gt;N11520</title>
<path fill="none" stroke="black" d="M470.67,-257C470.67,-257 674.78,-257 674.78,-257"/>
<polygon fill="black" stroke="black" points="674.78,-260.5 684.78,-257 674.78,-253.5 674.78,-260.5"/>
<text text-anchor="middle" x="563.23" y="-249" font-family="sans-serif" font-size="10.00">P43</text>
</g>
<!-- N11518 -->
<g id="node10" class="node">
<title>N11518</title>
<polygon fill="none" stroke="#dc7ec0" stroke-width="2" points="679,-300.5 679,-349.5 768,-349.5 768,-300.5 679,-300.5"/>
<text text-anchor="start" x="687" y="-337.5" font-family="sans-serif" font-size="10.00">E54 Dimension</text>
<text text-anchor="start" x="704.5" y="-326.5" font-family="sans-serif" font-size="10.00">(11518)</text>
<polyline fill="none" stroke="#dc7ec0" stroke-width="2" points="679,-319.5 768,-319.5 "/>
<text text-anchor="start" x="711" y="-307.5" font-family="sans-serif" font-size="10.00">1064</text>
</g>
<!-- N11519&#45;&gt;N11518 -->
<g id="edge9" class="edge">
<title>N11519&#45;&gt;N11518</title>
<path fill="none" stroke="black" d="M468.15,-325C468.15,-325 668.91,-325 668.91,-325"/>
<polygon fill="black" stroke="black" points="668.91,-328.5 678.91,-325 668.91,-321.5 668.91,-328.5"/>
<text text-anchor="middle" x="559.03" y="-317" font-family="sans-serif" font-size="10.00">P43</text>
</g>
<!-- N11523 -->
<g id="node11" class="node">
<title>N11523</title>
<polygon fill="none" stroke="#6acc64" stroke-width="2" points="692,-368.5 692,-417.5 755,-417.5 755,-368.5 692,-368.5"/>
<text text-anchor="start" x="700" y="-405.5" font-family="sans-serif" font-size="10.00">E53 Place</text>
<text text-anchor="start" x="704.5" y="-394.5" font-family="sans-serif" font-size="10.00">(11523)</text>
<polyline fill="none" stroke="#6acc64" stroke-width="2" points="692,-387.5 755,-387.5 "/>
<text text-anchor="start" x="709.5" y="-375.5" font-family="sans-serif" font-size="10.00">Berlin</text>
</g>
<!-- N11522&#45;&gt;N11523 -->
<g id="edge10" class="edge">
<title>N11522&#45;&gt;N11523</title>
<path fill="none" stroke="black" d="M537.06,-393C537.06,-393 681.69,-393 681.69,-393"/>
<polygon fill="black" stroke="black" points="681.69,-396.5 691.69,-393 681.69,-389.5 681.69,-396.5"/>
<text text-anchor="middle" x="599.88" y="-385" font-family="sans-serif" font-size="10.00">P53</text>
</g>
<!-- N11521 -->
<g id="node12" class="node">
<title>N11521</title>
<polygon fill="none" stroke="#956cb4" stroke-width="2" points="986.5,-232.5 986.5,-281.5 1081.5,-281.5 1081.5,-232.5 986.5,-232.5"/>
<text text-anchor="start" x="1012" y="-269.5" font-family="sans-serif" font-size="10.00">E55 Type</text>
<text text-anchor="start" x="1015" y="-258.5" font-family="sans-serif" font-size="10.00">(11521)</text>
<polyline fill="none" stroke="#956cb4" stroke-width="2" points="986.5,-251.5 1081.5,-251.5 "/>
<text text-anchor="start" x="994.5" y="-239.5" font-family="sans-serif" font-size="10.00">Schlussnummer</text>
</g>
<!-- N11520&#45;&gt;N11521 -->
<g id="edge2" class="edge">
<title>N11520&#45;&gt;N11521</title>
<path fill="none" stroke="black" d="M762.2,-257C762.2,-257 976.41,-257 976.41,-257"/>
<polygon fill="black" stroke="black" points="976.41,-260.5 986.41,-257 976.41,-253.5 976.41,-260.5"/>
<text text-anchor="middle" x="862.8" y="-249" font-family="sans-serif" font-size="10.00">P2</text>
</g>
</g>
</svg>
