<?xml version="1.0" encoding="UTF-8" standalone="no"?>
<!DOCTYPE svg PUBLIC "-//W3C//DTD SVG 1.1//EN"
 "http://www.w3.org/Graphics/SVG/1.1/DTD/svg11.dtd">
<!-- Generated by graphviz version 2.50.0 (20211204.2007)
 -->
<!-- Title: Annotationen Pages: 1 -->
<svg width="1106pt" height="529pt"
 viewBox="0.00 0.00 1105.50 529.00" xmlns="http://www.w3.org/2000/svg" xmlns:xlink="http://www.w3.org/1999/xlink">
<g id="graph0" class="graph" transform="scale(1 1) rotate(0) translate(4 525)">
<title>Annotationen</title>
<g id="clust2" class="cluster">
<title>cluster_net</title>
<polygon fill="transparent" stroke="black" points="53,-156 53,-513 1089.5,-513 1089.5,-156 53,-156"/>
<text text-anchor="middle" x="571.25" y="-501" font-family="sans-serif" font-size="10.00">Neighbourhood for Entity No. 11492 in Zoologisches Institut und zoologische Sammlung (1928)</text>
</g>
<!-- legend1 -->
<g id="node1" class="node">
<title>legend1</title>
<polygon fill="none" stroke="black" points="10.5,-121 10.5,-142 39.5,-142 39.5,-121 10.5,-121"/>
<text text-anchor="start" x="15.5" y="-129" font-family="sans-serif" font-size="10.00">P2</text>
<polygon fill="none" stroke="black" points="41.5,-121 41.5,-142 195.5,-142 195.5,-121 41.5,-121"/>
<text text-anchor="start" x="46.5" y="-129" font-family="sans-serif" font-size="10.00">has type</text>
<polygon fill="none" stroke="black" points="10.5,-98 10.5,-119 39.5,-119 39.5,-98 10.5,-98"/>
<text text-anchor="start" x="15.5" y="-106" font-family="sans-serif" font-size="10.00">P22</text>
<polygon fill="none" stroke="black" points="41.5,-98 41.5,-119 195.5,-119 195.5,-98 41.5,-98"/>
<text text-anchor="start" x="46.5" y="-106" font-family="sans-serif" font-size="10.00">transferred title to</text>
<polygon fill="none" stroke="black" points="10.5,-75 10.5,-96 39.5,-96 39.5,-75 10.5,-75"/>
<text text-anchor="start" x="15.5" y="-83" font-family="sans-serif" font-size="10.00">P23</text>
<polygon fill="none" stroke="black" points="41.5,-75 41.5,-96 195.5,-96 195.5,-75 41.5,-75"/>
<text text-anchor="start" x="46.5" y="-83" font-family="sans-serif" font-size="10.00">transferred title from</text>
<polygon fill="none" stroke="black" points="10.5,-52 10.5,-73 39.5,-73 39.5,-52 10.5,-52"/>
<text text-anchor="start" x="15.5" y="-60" font-family="sans-serif" font-size="10.00">P24</text>
<polygon fill="none" stroke="black" points="41.5,-52 41.5,-73 195.5,-73 195.5,-52 41.5,-52"/>
<text text-anchor="start" x="46.5" y="-60" font-family="sans-serif" font-size="10.00">transferred title of</text>
<polygon fill="none" stroke="black" points="10.5,-29 10.5,-50 39.5,-50 39.5,-29 10.5,-29"/>
<text text-anchor="start" x="15.5" y="-37" font-family="sans-serif" font-size="10.00">P43</text>
<polygon fill="none" stroke="black" points="41.5,-29 41.5,-50 195.5,-50 195.5,-29 41.5,-29"/>
<text text-anchor="start" x="46.5" y="-37" font-family="sans-serif" font-size="10.00">has dimension</text>
<polygon fill="none" stroke="black" points="10.5,-6 10.5,-27 39.5,-27 39.5,-6 10.5,-6"/>
<text text-anchor="start" x="15.5" y="-14" font-family="sans-serif" font-size="10.00">P53</text>
<polygon fill="none" stroke="black" points="41.5,-6 41.5,-27 195.5,-27 195.5,-6 41.5,-6"/>
<text text-anchor="start" x="46.5" y="-14" font-family="sans-serif" font-size="10.00">has former or current location</text>
</g>
<!-- N11492 -->
<g id="node2" class="node">
<title>N11492</title>
<polygon fill="none" stroke="red" stroke-width="2" points="354,-164.5 354,-213.5 472,-213.5 472,-164.5 354,-164.5"/>
<text text-anchor="start" x="385.5" y="-201.5" font-family="sans-serif" font-size="10.00">E21 Person</text>
<text text-anchor="start" x="394" y="-190.5" font-family="sans-serif" font-size="10.00">(11492)</text>
<polyline fill="none" stroke="red" stroke-width="2" points="354,-183.5 472,-183.5 "/>
<text text-anchor="start" x="362" y="-171.5" font-family="sans-serif" font-size="10.00">Professor Dr. Apstein</text>
</g>
<!-- N11484 -->
<g id="node3" class="node">
<title>N11484</title>
<polygon fill="none" stroke="black" points="61,-300.5 61,-349.5 144,-349.5 144,-300.5 61,-300.5"/>
<text text-anchor="start" x="69" y="-337.5" font-family="sans-serif" font-size="10.00">E8 Acquisition</text>
<text text-anchor="start" x="83.5" y="-326.5" font-family="sans-serif" font-size="10.00">(11484)</text>
<polyline fill="none" stroke="black" points="61,-319.5 144,-319.5 "/>
<text text-anchor="start" x="81" y="-307.5" font-family="sans-serif" font-size="10.00">Zuwachs</text>
</g>
<!-- N11484&#45;&gt;N11492 -->
<g id="edge3" class="edge">
<title>N11484&#45;&gt;N11492</title>
<path fill="none" stroke="black" d="M89.5,-300.37C89.5,-261.18 89.5,-189 89.5,-189 89.5,-189 343.67,-189 343.67,-189"/>
<polygon fill="black" stroke="black" points="343.67,-192.5 353.67,-189 343.67,-185.5 343.67,-192.5"/>
<text text-anchor="middle" x="151.4" y="-181" font-family="sans-serif" font-size="10.00">P23</text>
</g>
<!-- N11483 -->
<g id="node4" class="node">
<title>N11483</title>
<polygon fill="none" stroke="black" points="355.5,-232.5 355.5,-281.5 470.5,-281.5 470.5,-232.5 355.5,-232.5"/>
<text text-anchor="start" x="363.5" y="-269.5" font-family="sans-serif" font-size="10.00">E78 Curated Holding</text>
<text text-anchor="start" x="394" y="-258.5" font-family="sans-serif" font-size="10.00">(11483)</text>
<polyline fill="none" stroke="black" points="355.5,-251.5 470.5,-251.5 "/>
<text text-anchor="start" x="389.5" y="-239.5" font-family="sans-serif" font-size="10.00">Bibliothek</text>
</g>
<!-- N11484&#45;&gt;N11483 -->
<g id="edge2" class="edge">
<title>N11484&#45;&gt;N11483</title>
<path fill="none" stroke="black" d="M116.5,-300.45C116.5,-280.97 116.5,-257 116.5,-257 116.5,-257 345.48,-257 345.48,-257"/>
<polygon fill="black" stroke="black" points="345.48,-260.5 355.48,-257 345.48,-253.5 345.48,-260.5"/>
<text text-anchor="middle" x="199.76" y="-249" font-family="sans-serif" font-size="10.00">P22</text>
</g>
<!-- N11486 -->
<g id="node5" class="node">
<title>N11486</title>
<polygon fill="none" stroke="black" points="358,-300.5 358,-349.5 468,-349.5 468,-300.5 358,-300.5"/>
<text text-anchor="start" x="366" y="-337.5" font-family="sans-serif" font-size="10.00">E19 Physical Object</text>
<text text-anchor="start" x="394" y="-326.5" font-family="sans-serif" font-size="10.00">(11486)</text>
<polyline fill="none" stroke="black" points="358,-319.5 468,-319.5 "/>
<text text-anchor="start" x="388.5" y="-307.5" font-family="sans-serif" font-size="10.00">Nummern</text>
</g>
<!-- N11484&#45;&gt;N11486 -->
<g id="edge6" class="edge">
<title>N11484&#45;&gt;N11486</title>
<path fill="none" stroke="black" d="M144.05,-312.5C144.05,-312.5 347.82,-312.5 347.82,-312.5"/>
<polygon fill="black" stroke="black" points="347.82,-316 357.82,-312.5 347.82,-309 347.82,-316"/>
<text text-anchor="middle" x="236.44" y="-304.5" font-family="sans-serif" font-size="10.00">P24</text>
</g>
<!-- N11489 -->
<g id="node6" class="node">
<title>N11489</title>
<polygon fill="none" stroke="black" points="289,-368.5 289,-417.5 537,-417.5 537,-368.5 289,-368.5"/>
<text text-anchor="start" x="387.5" y="-405.5" font-family="sans-serif" font-size="10.00">E74 Group</text>
<text text-anchor="start" x="394" y="-394.5" font-family="sans-serif" font-size="10.00">(11489)</text>
<polyline fill="none" stroke="black" points="289,-387.5 537,-387.5 "/>
<text text-anchor="start" x="297" y="-375.5" font-family="sans-serif" font-size="10.00">Gesellschaft Naturforschender Freunde zu Berlin</text>
</g>
<!-- N11484&#45;&gt;N11489 -->
<g id="edge4" class="edge">
<title>N11484&#45;&gt;N11489</title>
<path fill="none" stroke="black" d="M144.21,-325C207.75,-325 321.5,-325 321.5,-325 321.5,-325 321.5,-358.45 321.5,-358.45"/>
<polygon fill="black" stroke="black" points="318,-358.45 321.5,-368.45 325,-358.45 318,-358.45"/>
<text text-anchor="middle" x="240.08" y="-317" font-family="sans-serif" font-size="10.00">P23</text>
</g>
<!-- N11491 -->
<g id="node7" class="node">
<title>N11491</title>
<polygon fill="none" stroke="black" points="263,-436.5 263,-485.5 563,-485.5 563,-436.5 263,-436.5"/>
<text text-anchor="start" x="387.5" y="-473.5" font-family="sans-serif" font-size="10.00">E74 Group</text>
<text text-anchor="start" x="394" y="-462.5" font-family="sans-serif" font-size="10.00">(11491)</text>
<polyline fill="none" stroke="black" points="263,-455.5 563,-455.5 "/>
<text text-anchor="start" x="271" y="-443.5" font-family="sans-serif" font-size="10.00">Reichszentrale für naturwissenschaftliche Berichterstattung</text>
</g>
<!-- N11484&#45;&gt;N11491 -->
<g id="edge5" class="edge">
<title>N11484&#45;&gt;N11491</title>
<path fill="none" stroke="black" d="M144.18,-337.5C195.65,-337.5 276.5,-337.5 276.5,-337.5 276.5,-337.5 276.5,-426.3 276.5,-426.3"/>
<polygon fill="black" stroke="black" points="273,-426.3 276.5,-436.3 280,-426.3 273,-426.3"/>
<text text-anchor="middle" x="245.24" y="-329.5" font-family="sans-serif" font-size="10.00">P23</text>
</g>
<!-- N11487 -->
<g id="node8" class="node">
<title>N11487</title>
<polygon fill="none" stroke="black" points="685,-232.5 685,-281.5 762,-281.5 762,-232.5 685,-232.5"/>
<text text-anchor="start" x="693" y="-269.5" font-family="sans-serif" font-size="10.00">E60 Number</text>
<text text-anchor="start" x="704.5" y="-258.5" font-family="sans-serif" font-size="10.00">(11487)</text>
<polyline fill="none" stroke="black" points="685,-251.5 762,-251.5 "/>
<text text-anchor="start" x="706.5" y="-239.5" font-family="sans-serif" font-size="10.00">54 399</text>
</g>
<!-- N11483&#45;&gt;N11487 -->
<g id="edge7" class="edge">
<title>N11483&#45;&gt;N11487</title>
<path fill="none" stroke="black" d="M470.67,-257C470.67,-257 674.78,-257 674.78,-257"/>
<polygon fill="black" stroke="black" points="674.78,-260.5 684.78,-257 674.78,-253.5 674.78,-260.5"/>
<text text-anchor="middle" x="563.23" y="-249" font-family="sans-serif" font-size="10.00">P43</text>
</g>
<!-- N11485 -->
<g id="node9" class="node">
<title>N11485</title>
<polygon fill="none" stroke="black" points="679,-300.5 679,-349.5 768,-349.5 768,-300.5 679,-300.5"/>
<text text-anchor="start" x="687" y="-337.5" font-family="sans-serif" font-size="10.00">E54 Dimension</text>
<text text-anchor="start" x="704.5" y="-326.5" font-family="sans-serif" font-size="10.00">(11485)</text>
<polyline fill="none" stroke="black" points="679,-319.5 768,-319.5 "/>
<text text-anchor="start" x="711" y="-307.5" font-family="sans-serif" font-size="10.00">1064</text>
</g>
<!-- N11486&#45;&gt;N11485 -->
<g id="edge8" class="edge">
<title>N11486&#45;&gt;N11485</title>
<path fill="none" stroke="black" d="M468.15,-325C468.15,-325 668.91,-325 668.91,-325"/>
<polygon fill="black" stroke="black" points="668.91,-328.5 678.91,-325 668.91,-321.5 668.91,-328.5"/>
<text text-anchor="middle" x="559.03" y="-317" font-family="sans-serif" font-size="10.00">P43</text>
</g>
<!-- N11490 -->
<g id="node10" class="node">
<title>N11490</title>
<polygon fill="none" stroke="black" points="692,-368.5 692,-417.5 755,-417.5 755,-368.5 692,-368.5"/>
<text text-anchor="start" x="700" y="-405.5" font-family="sans-serif" font-size="10.00">E53 Place</text>
<text text-anchor="start" x="704.5" y="-394.5" font-family="sans-serif" font-size="10.00">(11490)</text>
<polyline fill="none" stroke="black" points="692,-387.5 755,-387.5 "/>
<text text-anchor="start" x="709.5" y="-375.5" font-family="sans-serif" font-size="10.00">Berlin</text>
</g>
<!-- N11489&#45;&gt;N11490 -->
<g id="edge9" class="edge">
<title>N11489&#45;&gt;N11490</title>
<path fill="none" stroke="black" d="M537.06,-393C537.06,-393 681.69,-393 681.69,-393"/>
<polygon fill="black" stroke="black" points="681.69,-396.5 691.69,-393 681.69,-389.5 681.69,-396.5"/>
<text text-anchor="middle" x="599.88" y="-385" font-family="sans-serif" font-size="10.00">P53</text>
</g>
<!-- N11488 -->
<g id="node11" class="node">
<title>N11488</title>
<polygon fill="none" stroke="black" points="986.5,-232.5 986.5,-281.5 1081.5,-281.5 1081.5,-232.5 986.5,-232.5"/>
<text text-anchor="start" x="1012" y="-269.5" font-family="sans-serif" font-size="10.00">E55 Type</text>
<text text-anchor="start" x="1015" y="-258.5" font-family="sans-serif" font-size="10.00">(11488)</text>
<polyline fill="none" stroke="black" points="986.5,-251.5 1081.5,-251.5 "/>
<text text-anchor="start" x="994.5" y="-239.5" font-family="sans-serif" font-size="10.00">Schlussnummer</text>
</g>
<!-- N11487&#45;&gt;N11488 -->
<g id="edge1" class="edge">
<title>N11487&#45;&gt;N11488</title>
<path fill="none" stroke="black" d="M762.2,-257C762.2,-257 976.41,-257 976.41,-257"/>
<polygon fill="black" stroke="black" points="976.41,-260.5 986.41,-257 976.41,-253.5 976.41,-260.5"/>
<text text-anchor="middle" x="862.8" y="-249" font-family="sans-serif" font-size="10.00">P2</text>
</g>
</g>
</svg>
