<?xml version="1.0" encoding="UTF-8" standalone="no"?>
<!DOCTYPE svg PUBLIC "-//W3C//DTD SVG 1.1//EN"
 "http://www.w3.org/Graphics/SVG/1.1/DTD/svg11.dtd">
<!-- Generated by graphviz version 2.50.0 (20211204.2007)
 -->
<!-- Title: Annotationen Pages: 1 -->
<svg width="1231pt" height="623pt"
 viewBox="0.00 0.00 1231.00 623.00" xmlns="http://www.w3.org/2000/svg" xmlns:xlink="http://www.w3.org/1999/xlink">
<g id="graph0" class="graph" transform="scale(1 1) rotate(0) translate(4 619)">
<title>Annotationen</title>
<g id="clust3" class="cluster">
<title>cluster_net</title>
<polygon fill="transparent" stroke="transparent" points="62.5,-162 62.5,-607 1215,-607 1215,-162 62.5,-162"/>
<text text-anchor="middle" x="638.75" y="-594.2" font-family="sans-serif" font-size="11.00">Neighbourhood for Entity No. 11536 in Zoologisches Institut und zoologische Sammlung (1928) with depth 4</text>
</g>
<!-- legend1 -->
<g id="node1" class="node">
<title>legend1</title>
<polygon fill="none" stroke="black" points="10.5,-126 10.5,-148 42.5,-148 42.5,-126 10.5,-126"/>
<text text-anchor="start" x="15.5" y="-134.2" font-family="sans-serif" font-size="11.00">P2</text>
<polygon fill="none" stroke="black" points="44.5,-126 44.5,-148 223.5,-148 223.5,-126 44.5,-126"/>
<text text-anchor="start" x="49.5" y="-134.2" font-family="sans-serif" font-size="11.00"> has type</text>
<polygon fill="none" stroke="black" points="10.5,-102 10.5,-124 42.5,-124 42.5,-102 10.5,-102"/>
<text text-anchor="start" x="15.5" y="-110.2" font-family="sans-serif" font-size="11.00">P22</text>
<polygon fill="none" stroke="black" points="44.5,-102 44.5,-124 223.5,-124 223.5,-102 44.5,-102"/>
<text text-anchor="start" x="49.5" y="-110.2" font-family="sans-serif" font-size="11.00"> transferred title to</text>
<polygon fill="none" stroke="black" points="10.5,-78 10.5,-100 42.5,-100 42.5,-78 10.5,-78"/>
<text text-anchor="start" x="15.5" y="-86.2" font-family="sans-serif" font-size="11.00">P23</text>
<polygon fill="none" stroke="black" points="44.5,-78 44.5,-100 223.5,-100 223.5,-78 44.5,-78"/>
<text text-anchor="start" x="49.5" y="-86.2" font-family="sans-serif" font-size="11.00"> transferred title from</text>
<polygon fill="none" stroke="black" points="10.5,-54 10.5,-76 42.5,-76 42.5,-54 10.5,-54"/>
<text text-anchor="start" x="15.5" y="-62.2" font-family="sans-serif" font-size="11.00">P24</text>
<polygon fill="none" stroke="black" points="44.5,-54 44.5,-76 223.5,-76 223.5,-54 44.5,-54"/>
<text text-anchor="start" x="49.5" y="-62.2" font-family="sans-serif" font-size="11.00"> transferred title of</text>
<polygon fill="none" stroke="black" points="10.5,-30 10.5,-52 42.5,-52 42.5,-30 10.5,-30"/>
<text text-anchor="start" x="15.5" y="-38.2" font-family="sans-serif" font-size="11.00">P43</text>
<polygon fill="none" stroke="black" points="44.5,-30 44.5,-52 223.5,-52 223.5,-30 44.5,-30"/>
<text text-anchor="start" x="49.5" y="-38.2" font-family="sans-serif" font-size="11.00"> has dimension</text>
<polygon fill="none" stroke="black" points="10.5,-6 10.5,-28 42.5,-28 42.5,-6 10.5,-6"/>
<text text-anchor="start" x="15.5" y="-14.2" font-family="sans-serif" font-size="11.00">P53</text>
<polygon fill="none" stroke="black" points="44.5,-6 44.5,-28 223.5,-28 223.5,-6 44.5,-6"/>
<text text-anchor="start" x="49.5" y="-14.2" font-family="sans-serif" font-size="11.00"> has former or current location</text>
</g>
<!-- N11536 -->
<g id="node2" class="node">
<title>N11536</title>
<polygon fill="#3b95c4" fill-opacity="0.666667" stroke="black" points="396,-171 396,-223 529,-223 529,-171 396,-171"/>
<text text-anchor="start" x="430.5" y="-210.2" font-family="sans-serif" font-size="11.00">E21 Person</text>
<text text-anchor="start" x="439" y="-198.2" font-family="sans-serif" font-size="11.00">(11536)</text>
<polyline fill="none" stroke="black" points="396,-191 529,-191 "/>
<text text-anchor="start" x="404" y="-178.2" font-family="sans-serif" font-size="11.00">Professor Dr. Apstein</text>
</g>
<!-- N11528 -->
<g id="node3" class="node">
<title>N11528</title>
<polygon fill="#fc3915" fill-opacity="0.666667" stroke="white" points="70.5,-348 70.5,-400 162.5,-400 162.5,-348 70.5,-348"/>
<text text-anchor="start" x="78.5" y="-387.2" font-family="sans-serif" font-size="11.00">E8 Acquisition</text>
<text text-anchor="start" x="93" y="-375.2" font-family="sans-serif" font-size="11.00">(11528)</text>
<polyline fill="none" stroke="white" points="70.5,-368 162.5,-368 "/>
<text text-anchor="start" x="91" y="-355.2" font-family="sans-serif" font-size="11.00">Zuwachs</text>
</g>
<!-- N11528&#45;&gt;N11536 -->
<g id="edge4" class="edge">
<title>N11528&#45;&gt;N11536</title>
<path fill="none" stroke="black" d="M102,-347.88C102,-298.65 102,-197 102,-197 102,-197 385.96,-197 385.96,-197"/>
<polygon fill="black" stroke="black" points="385.96,-200.5 395.96,-197 385.96,-193.5 385.96,-200.5"/>
<text text-anchor="middle" x="159.04" y="-189" font-family="sans-serif" font-size="10.00">P23</text>
</g>
<!-- N11527 -->
<g id="node4" class="node">
<title>N11527</title>
<polygon fill="#b560d4" fill-opacity="0.666667" stroke="white" points="398,-242 398,-294 527,-294 527,-242 398,-242"/>
<text text-anchor="start" x="406" y="-281.2" font-family="sans-serif" font-size="11.00">E78 Curated Holding</text>
<text text-anchor="start" x="439" y="-269.2" font-family="sans-serif" font-size="11.00">(11527)</text>
<polyline fill="none" stroke="white" points="398,-262 527,-262 "/>
<text text-anchor="start" x="436.5" y="-249.2" font-family="sans-serif" font-size="11.00">Bibliothek</text>
</g>
<!-- N11528&#45;&gt;N11527 -->
<g id="edge3" class="edge">
<title>N11528&#45;&gt;N11527</title>
<path fill="none" stroke="black" d="M132,-347.8C132,-316.41 132,-268 132,-268 132,-268 387.99,-268 387.99,-268"/>
<polygon fill="black" stroke="black" points="387.99,-271.5 397.99,-268 387.99,-264.5 387.99,-271.5"/>
<text text-anchor="middle" x="210.6" y="-260" font-family="sans-serif" font-size="10.00">P22</text>
</g>
<!-- N11530 -->
<g id="node5" class="node">
<title>N11530</title>
<polygon fill="#5a50c4" fill-opacity="0.666667" stroke="white" points="400.5,-313 400.5,-365 524.5,-365 524.5,-313 400.5,-313"/>
<text text-anchor="start" x="408.5" y="-352.2" font-family="sans-serif" font-size="11.00">E19 Physical Object</text>
<text text-anchor="start" x="439" y="-340.2" font-family="sans-serif" font-size="11.00">(11530)</text>
<polyline fill="none" stroke="white" points="400.5,-333 524.5,-333 "/>
<text text-anchor="start" x="434.5" y="-320.2" font-family="sans-serif" font-size="11.00">Nummern</text>
</g>
<!-- N11528&#45;&gt;N11530 -->
<g id="edge7" class="edge">
<title>N11528&#45;&gt;N11530</title>
<path fill="none" stroke="black" d="M162.8,-356.5C162.8,-356.5 390.4,-356.5 390.4,-356.5"/>
<polygon fill="black" stroke="black" points="390.4,-360 400.4,-356.5 390.4,-353 390.4,-360"/>
<text text-anchor="middle" x="267.1" y="-348.5" font-family="sans-serif" font-size="10.00">P24</text>
</g>
<!-- N11533 -->
<g id="node6" class="node">
<title>N11533</title>
<polygon fill="#3b95c4" fill-opacity="0.666667" stroke="white" points="321.5,-384 321.5,-436 603.5,-436 603.5,-384 321.5,-384"/>
<text text-anchor="start" x="432.5" y="-423.2" font-family="sans-serif" font-size="11.00">E74 Group</text>
<text text-anchor="start" x="439" y="-411.2" font-family="sans-serif" font-size="11.00">(11533)</text>
<polyline fill="none" stroke="white" points="321.5,-404 603.5,-404 "/>
<text text-anchor="start" x="329.5" y="-391.2" font-family="sans-serif" font-size="11.00">Gesellschaft Naturforschender Freunde zu Berlin</text>
</g>
<!-- N11528&#45;&gt;N11533 -->
<g id="edge5" class="edge">
<title>N11528&#45;&gt;N11533</title>
<path fill="none" stroke="black" d="M162.8,-389.17C162.8,-389.17 311.17,-389.17 311.17,-389.17"/>
<polygon fill="black" stroke="black" points="311.17,-392.67 321.17,-389.17 311.17,-385.67 311.17,-392.67"/>
<text text-anchor="middle" x="227.49" y="-381.17" font-family="sans-serif" font-size="10.00">P23</text>
</g>
<!-- N11535 -->
<g id="node7" class="node">
<title>N11535</title>
<polygon fill="#3b95c4" fill-opacity="0.666667" stroke="white" points="291,-455 291,-507 634,-507 634,-455 291,-455"/>
<text text-anchor="start" x="432.5" y="-494.2" font-family="sans-serif" font-size="11.00">E74 Group</text>
<text text-anchor="start" x="439" y="-482.2" font-family="sans-serif" font-size="11.00">(11535)</text>
<polyline fill="none" stroke="white" points="291,-475 634,-475 "/>
<text text-anchor="start" x="299" y="-462.2" font-family="sans-serif" font-size="11.00">Reichszentrale für naturwissenschaftliche Berichterstattung</text>
</g>
<!-- N11528&#45;&gt;N11535 -->
<g id="edge6" class="edge">
<title>N11528&#45;&gt;N11535</title>
<path fill="none" stroke="black" d="M162.61,-394.83C218.99,-394.83 307,-394.83 307,-394.83 307,-394.83 307,-444.68 307,-444.68"/>
<polygon fill="black" stroke="black" points="303.5,-444.68 307,-454.68 310.5,-444.68 303.5,-444.68"/>
<text text-anchor="middle" x="250.23" y="-386.83" font-family="sans-serif" font-size="10.00">P23</text>
</g>
<!-- N11537 -->
<g id="node8" class="node">
<title>N11537</title>
<polygon fill="#06b67e" fill-opacity="0.666667" stroke="white" points="428.5,-526 428.5,-578 496.5,-578 496.5,-526 428.5,-526"/>
<text text-anchor="start" x="436.5" y="-565.2" font-family="sans-serif" font-size="11.00">E55 Type</text>
<text text-anchor="start" x="439" y="-553.2" font-family="sans-serif" font-size="11.00">(11537)</text>
<polyline fill="none" stroke="white" points="428.5,-546 496.5,-546 "/>
<text text-anchor="start" x="438" y="-533.2" font-family="sans-serif" font-size="11.00">Donation</text>
</g>
<!-- N11528&#45;&gt;N11537 -->
<g id="edge1" class="edge">
<title>N11528&#45;&gt;N11537</title>
<path fill="none" stroke="black" d="M117,-400.26C117,-449.78 117,-552 117,-552 117,-552 418.43,-552 418.43,-552"/>
<polygon fill="black" stroke="black" points="418.43,-555.5 428.43,-552 418.43,-548.5 418.43,-555.5"/>
<text text-anchor="middle" x="185.35" y="-544" font-family="sans-serif" font-size="10.00">P2</text>
</g>
<!-- N11531 -->
<g id="node9" class="node">
<title>N11531</title>
<polygon fill="#debb9b" stroke="white" points="765.5,-242 765.5,-294 851.5,-294 851.5,-242 765.5,-242"/>
<text text-anchor="start" x="773.5" y="-281.2" font-family="sans-serif" font-size="11.00">E60 Number</text>
<text text-anchor="start" x="785" y="-269.2" font-family="sans-serif" font-size="11.00">(11531)</text>
<polyline fill="none" stroke="white" points="765.5,-262 851.5,-262 "/>
<text text-anchor="start" x="787.5" y="-249.2" font-family="sans-serif" font-size="11.00">54 399</text>
</g>
<!-- N11527&#45;&gt;N11531 -->
<g id="edge8" class="edge">
<title>N11527&#45;&gt;N11531</title>
<path fill="none" stroke="black" d="M527.17,-268C527.17,-268 755.46,-268 755.46,-268"/>
<polygon fill="black" stroke="black" points="755.46,-271.5 765.46,-268 755.46,-264.5 755.46,-271.5"/>
<text text-anchor="middle" x="631.82" y="-260" font-family="sans-serif" font-size="10.00">P43</text>
</g>
<!-- N11529 -->
<g id="node10" class="node">
<title>N11529</title>
<polygon fill="#50c4c2" fill-opacity="0.666667" stroke="white" points="759,-313 759,-365 858,-365 858,-313 759,-313"/>
<text text-anchor="start" x="767" y="-352.2" font-family="sans-serif" font-size="11.00">E54 Dimension</text>
<text text-anchor="start" x="785" y="-340.2" font-family="sans-serif" font-size="11.00">(11529)</text>
<polyline fill="none" stroke="white" points="759,-333 858,-333 "/>
<text text-anchor="start" x="793" y="-320.2" font-family="sans-serif" font-size="11.00">1064</text>
</g>
<!-- N11530&#45;&gt;N11529 -->
<g id="edge9" class="edge">
<title>N11530&#45;&gt;N11529</title>
<path fill="none" stroke="black" d="M524.76,-339C524.76,-339 748.79,-339 748.79,-339"/>
<polygon fill="black" stroke="black" points="748.79,-342.5 758.79,-339 748.79,-335.5 748.79,-342.5"/>
<text text-anchor="middle" x="627.27" y="-331" font-family="sans-serif" font-size="10.00">P43</text>
</g>
<!-- N11534 -->
<g id="node11" class="node">
<title>N11534</title>
<polygon fill="#fc7715" fill-opacity="0.666667" stroke="white" points="773,-384 773,-436 844,-436 844,-384 773,-384"/>
<text text-anchor="start" x="781" y="-423.2" font-family="sans-serif" font-size="11.00">E53 Place</text>
<text text-anchor="start" x="785" y="-411.2" font-family="sans-serif" font-size="11.00">(11534)</text>
<polyline fill="none" stroke="white" points="773,-404 844,-404 "/>
<text text-anchor="start" x="793" y="-391.2" font-family="sans-serif" font-size="11.00">Berlin</text>
</g>
<!-- N11533&#45;&gt;N11534 -->
<g id="edge10" class="edge">
<title>N11533&#45;&gt;N11534</title>
<path fill="none" stroke="black" d="M603.73,-410C603.73,-410 762.65,-410 762.65,-410"/>
<polygon fill="black" stroke="black" points="762.65,-413.5 772.65,-410 762.65,-406.5 762.65,-413.5"/>
<text text-anchor="middle" x="673.69" y="-402" font-family="sans-serif" font-size="10.00">P53</text>
</g>
<!-- N11532 -->
<g id="node12" class="node">
<title>N11532</title>
<polygon fill="#06b67e" fill-opacity="0.666667" stroke="white" points="1102,-242 1102,-294 1207,-294 1207,-242 1102,-242"/>
<text text-anchor="start" x="1128.5" y="-281.2" font-family="sans-serif" font-size="11.00">E55 Type</text>
<text text-anchor="start" x="1131" y="-269.2" font-family="sans-serif" font-size="11.00">(11532)</text>
<polyline fill="none" stroke="white" points="1102,-262 1207,-262 "/>
<text text-anchor="start" x="1110" y="-249.2" font-family="sans-serif" font-size="11.00">Schlussnummer</text>
</g>
<!-- N11531&#45;&gt;N11532 -->
<g id="edge2" class="edge">
<title>N11531&#45;&gt;N11532</title>
<path fill="none" stroke="black" d="M851.62,-268C851.62,-268 1091.76,-268 1091.76,-268"/>
<polygon fill="black" stroke="black" points="1091.76,-271.5 1101.76,-268 1091.76,-264.5 1091.76,-271.5"/>
<text text-anchor="middle" x="965.19" y="-260" font-family="sans-serif" font-size="10.00">P2</text>
</g>
</g>
</svg>
