<?xml version="1.0" encoding="UTF-8" standalone="no"?>
<!DOCTYPE svg PUBLIC "-//W3C//DTD SVG 1.1//EN"
 "http://www.w3.org/Graphics/SVG/1.1/DTD/svg11.dtd">
<!-- Generated by graphviz version 2.50.0 (20211204.2007)
 -->
<!-- Title: Annotationen Pages: 1 -->
<svg width="1138pt" height="610pt"
 viewBox="0.00 0.00 1137.50 609.50" xmlns="http://www.w3.org/2000/svg" xmlns:xlink="http://www.w3.org/1999/xlink">
<g id="graph0" class="graph" transform="scale(1 1) rotate(0) translate(4 605.5)">
<title>Annotationen</title>
<polygon fill="transparent" stroke="transparent" points="-4,4 -4,-605.5 1133.5,-605.5 1133.5,4 -4,4"/>
<text text-anchor="middle" x="564.75" y="-7.2" font-family="Titillium Web" font-size="11.00">Neighbourhood for Entity No. 12647 in Zoologisches Institut und zoologische Sammlung (1914) with depth 3</text>
<!-- legend1 -->
<g id="node1" class="node">
<title>legend1</title>
<polygon fill="none" stroke="black" points="10.5,-194 10.5,-216 45.5,-216 45.5,-194 10.5,-194"/>
<text text-anchor="start" x="15.5" y="-202.2" font-family="Titillium Web" font-size="11.00">...</text>
<polygon fill="none" stroke="black" points="47.5,-194 47.5,-216 201.5,-216 201.5,-194 47.5,-194"/>
<text text-anchor="start" x="52.5" y="-202.2" font-family="Titillium Web" font-size="11.00">too many neighbours to draw</text>
<polygon fill="none" stroke="black" points="10.5,-170 10.5,-192 45.5,-192 45.5,-170 10.5,-170"/>
<text text-anchor="start" x="15.5" y="-178.2" font-family="Titillium Web" font-size="11.00">P2</text>
<polygon fill="none" stroke="black" points="47.5,-170 47.5,-192 201.5,-192 201.5,-170 47.5,-170"/>
<text text-anchor="start" x="52.5" y="-178.2" font-family="Titillium Web" font-size="11.00"> has type</text>
<polygon fill="none" stroke="black" points="10.5,-146 10.5,-168 45.5,-168 45.5,-146 10.5,-146"/>
<text text-anchor="start" x="15.5" y="-154.2" font-family="Titillium Web" font-size="11.00">P22</text>
<polygon fill="none" stroke="black" points="47.5,-146 47.5,-168 201.5,-168 201.5,-146 47.5,-146"/>
<text text-anchor="start" x="52.5" y="-154.2" font-family="Titillium Web" font-size="11.00"> transferred title to</text>
<polygon fill="none" stroke="black" points="10.5,-122 10.5,-144 45.5,-144 45.5,-122 10.5,-122"/>
<text text-anchor="start" x="15.5" y="-130.2" font-family="Titillium Web" font-size="11.00">P23</text>
<polygon fill="none" stroke="black" points="47.5,-122 47.5,-144 201.5,-144 201.5,-122 47.5,-122"/>
<text text-anchor="start" x="52.5" y="-130.2" font-family="Titillium Web" font-size="11.00"> transferred title from</text>
<polygon fill="none" stroke="black" points="10.5,-98 10.5,-120 45.5,-120 45.5,-98 10.5,-98"/>
<text text-anchor="start" x="15.5" y="-106.2" font-family="Titillium Web" font-size="11.00">P24</text>
<polygon fill="none" stroke="black" points="47.5,-98 47.5,-120 201.5,-120 201.5,-98 47.5,-98"/>
<text text-anchor="start" x="52.5" y="-106.2" font-family="Titillium Web" font-size="11.00"> transferred title of</text>
<polygon fill="none" stroke="black" points="10.5,-74 10.5,-96 45.5,-96 45.5,-74 10.5,-74"/>
<text text-anchor="start" x="15.5" y="-82.2" font-family="Titillium Web" font-size="11.00">P43</text>
<polygon fill="none" stroke="black" points="47.5,-74 47.5,-96 201.5,-96 201.5,-74 47.5,-74"/>
<text text-anchor="start" x="52.5" y="-82.2" font-family="Titillium Web" font-size="11.00"> has dimension</text>
<polygon fill="none" stroke="black" points="10.5,-50 10.5,-72 45.5,-72 45.5,-50 10.5,-50"/>
<text text-anchor="start" x="15.5" y="-58.2" font-family="Titillium Web" font-size="11.00">P53</text>
<polygon fill="none" stroke="black" points="47.5,-50 47.5,-72 201.5,-72 201.5,-50 47.5,-50"/>
<text text-anchor="start" x="52.5" y="-58.2" font-family="Titillium Web" font-size="11.00"> has former or current location</text>
<polygon fill="none" stroke="black" points="10.5,-26 10.5,-48 45.5,-48 45.5,-26 10.5,-26"/>
<text text-anchor="start" x="15.5" y="-34.2" font-family="Titillium Web" font-size="11.00">P130</text>
<polygon fill="none" stroke="black" points="47.5,-26 47.5,-48 201.5,-48 201.5,-26 47.5,-26"/>
<text text-anchor="start" x="52.5" y="-34.2" font-family="Titillium Web" font-size="11.00"> shows features of</text>
</g>
<!-- N12647 -->
<g id="N12647" class="node semanticentity">
<title>N12647</title>
<polygon fill="#50c4c2" fill-opacity="0.666667" stroke="black" points="553.5,-549 553.5,-601 641.5,-601 641.5,-549 553.5,-549"/>
<text text-anchor="start" x="561.5" y="-588.2" font-family="Titillium Web" font-size="11.00">E54 Dimension</text>
<text text-anchor="start" x="579" y="-576.2" font-family="Titillium Web" font-size="11.00">(12647)</text>
<polyline fill="none" stroke="black" points="553.5,-569 641.5,-569 "/>
<text text-anchor="start" x="582" y="-556.2" font-family="Titillium Web" font-size="11.00">36000</text>
</g>
<!-- N12648 -->
<g id="N12648" class="node semanticentity">
<title>N12648</title>
<polygon fill="#5a50c4" fill-opacity="0.666667" stroke="white" points="297,-407 297,-459 406,-459 406,-407 297,-407"/>
<text text-anchor="start" x="305" y="-446.2" font-family="Titillium Web" font-size="11.00">E19 Physical Object</text>
<text text-anchor="start" x="333" y="-434.2" font-family="Titillium Web" font-size="11.00">(12648)</text>
<polyline fill="none" stroke="white" points="297,-427 406,-427 "/>
<text text-anchor="start" x="338" y="-414.2" font-family="Titillium Web" font-size="11.00">Stück</text>
</g>
<!-- N12648&#45;&gt;N12647 -->
<g id="edge10" class="edge">
<title>N12648&#45;&gt;N12647</title>
<path fill="none" stroke="black" d="M333.5,-459.04C333.5,-500.04 333.5,-575 333.5,-575 333.5,-575 543.31,-575 543.31,-575"/>
<polygon fill="black" stroke="black" points="543.31,-578.5 553.31,-575 543.31,-571.5 543.31,-578.5"/>
<text text-anchor="middle" x="371.93" y="-567" font-family="Titillium Web" font-size="10.00">P43</text>
</g>
<!-- N12645 -->
<g id="N12645" class="node semanticentity">
<title>N12645</title>
<polygon fill="#06b67e" fill-opacity="0.666667" stroke="white" points="536,-478 536,-530 659,-530 659,-478 536,-478"/>
<text text-anchor="start" x="544" y="-517.2" font-family="Titillium Web" font-size="11.00">E28 Conceptual Object</text>
<text text-anchor="start" x="579" y="-505.2" font-family="Titillium Web" font-size="11.00">(12645)</text>
<polyline fill="none" stroke="white" points="536,-498 659,-498 "/>
<text text-anchor="start" x="561" y="-485.2" font-family="Titillium Web" font-size="11.00">Schmetterlings</text>
</g>
<!-- N12648&#45;&gt;N12645 -->
<g id="edge13" class="edge">
<title>N12648&#45;&gt;N12645</title>
<path fill="none" stroke="black" d="M370.5,-459.03C370.5,-479.3 370.5,-504 370.5,-504 370.5,-504 525.77,-504 525.77,-504"/>
<polygon fill="black" stroke="black" points="525.77,-507.5 535.77,-504 525.77,-500.5 525.77,-507.5"/>
<text text-anchor="middle" x="414.65" y="-496" font-family="Titillium Web" font-size="10.00">P130</text>
</g>
<!-- N12650 -->
<g id="N12650" class="node semanticentity">
<title>N12650</title>
<polygon fill="#06b67e" fill-opacity="0.666667" stroke="white" points="536,-407 536,-459 659,-459 659,-407 536,-407"/>
<text text-anchor="start" x="544" y="-446.2" font-family="Titillium Web" font-size="11.00">E28 Conceptual Object</text>
<text text-anchor="start" x="579" y="-434.2" font-family="Titillium Web" font-size="11.00">(12650)</text>
<polyline fill="none" stroke="white" points="536,-427 659,-427 "/>
<text text-anchor="start" x="584" y="-414.2" font-family="Titillium Web" font-size="11.00">Arten</text>
</g>
<!-- N12648&#45;&gt;N12650 -->
<g id="edge14" class="edge">
<title>N12648&#45;&gt;N12650</title>
<path fill="none" stroke="black" d="M406.1,-433C406.1,-433 525.7,-433 525.7,-433"/>
<polygon fill="black" stroke="black" points="525.7,-436.5 535.7,-433 525.7,-429.5 525.7,-436.5"/>
<text text-anchor="middle" x="454.9" y="-425" font-family="Titillium Web" font-size="10.00">P130</text>
</g>
<!-- N12651 -->
<g id="N12651" class="node semanticentity">
<title>N12651</title>
<polygon fill="#fc7715" fill-opacity="0.666667" stroke="white" points="556,-336 556,-388 639,-388 639,-336 556,-336"/>
<text text-anchor="start" x="574" y="-375.2" font-family="Titillium Web" font-size="11.00">E53 Place</text>
<text text-anchor="start" x="579" y="-363.2" font-family="Titillium Web" font-size="11.00">(12651)</text>
<polyline fill="none" stroke="white" points="556,-356 639,-356 "/>
<text text-anchor="start" x="564" y="-343.2" font-family="Titillium Web" font-size="11.00">allen Erdteilen</text>
</g>
<!-- N12648&#45;&gt;N12651 -->
<g id="edge12" class="edge">
<title>N12648&#45;&gt;N12651</title>
<path fill="none" stroke="black" d="M351.5,-406.97C351.5,-386.7 351.5,-362 351.5,-362 351.5,-362 545.77,-362 545.77,-362"/>
<polygon fill="black" stroke="black" points="545.77,-365.5 555.77,-362 545.77,-358.5 545.77,-365.5"/>
<text text-anchor="middle" x="417.65" y="-354" font-family="Titillium Web" font-size="10.00">P53</text>
</g>
<!-- N12633 -->
<g id="N12633" class="node semanticentity">
<title>N12633</title>
<polygon fill="#06b67e" fill-opacity="0.666667" stroke="white" points="813.5,-478 813.5,-530 873.5,-530 873.5,-478 813.5,-478"/>
<text text-anchor="start" x="821.5" y="-517.2" font-family="Titillium Web" font-size="11.00">E55 Type</text>
<text text-anchor="start" x="825" y="-505.2" font-family="Titillium Web" font-size="11.00">(12633)</text>
<polyline fill="none" stroke="white" points="813.5,-498 873.5,-498 "/>
<text text-anchor="start" x="828.5" y="-485.2" font-family="Titillium Web" font-size="11.00">Taxon</text>
</g>
<!-- N12645&#45;&gt;N12633 -->
<g id="edge5" class="edge">
<title>N12645&#45;&gt;N12633</title>
<path fill="none" stroke="black" d="M659.26,-504C659.26,-504 803.49,-504 803.49,-504"/>
<polygon fill="black" stroke="black" points="803.49,-507.5 813.49,-504 803.49,-500.5 803.49,-507.5"/>
<text text-anchor="middle" x="725.37" y="-496" font-family="Titillium Web" font-size="10.00">P2</text>
</g>
<!-- N12649 -->
<g id="N12649" class="node semanticentity">
<title>N12649</title>
<polygon fill="#50c4c2" fill-opacity="0.666667" stroke="white" points="799.5,-407 799.5,-459 887.5,-459 887.5,-407 799.5,-407"/>
<text text-anchor="start" x="807.5" y="-446.2" font-family="Titillium Web" font-size="11.00">E54 Dimension</text>
<text text-anchor="start" x="825" y="-434.2" font-family="Titillium Web" font-size="11.00">(12649)</text>
<polyline fill="none" stroke="white" points="799.5,-427 887.5,-427 "/>
<text text-anchor="start" x="827" y="-414.2" font-family="Titillium Web" font-size="11.00">10 000</text>
</g>
<!-- N12650&#45;&gt;N12649 -->
<g id="edge11" class="edge">
<title>N12650&#45;&gt;N12649</title>
<path fill="none" stroke="black" d="M659.26,-433C659.26,-433 789.17,-433 789.17,-433"/>
<polygon fill="black" stroke="black" points="789.17,-436.5 799.17,-433 789.17,-429.5 789.17,-436.5"/>
<text text-anchor="middle" x="715.72" y="-425" font-family="Titillium Web" font-size="10.00">P43</text>
</g>
<!-- N12644 -->
<g id="N12644" class="node semanticentity">
<title>N12644</title>
<polygon fill="#fc3915" fill-opacity="0.666667" stroke="white" points="64,-241 64,-293 147,-293 147,-241 64,-241"/>
<text text-anchor="start" x="72" y="-280.2" font-family="Titillium Web" font-size="11.00">E8 Acquisition</text>
<text text-anchor="start" x="87" y="-268.2" font-family="Titillium Web" font-size="11.00">(12644)</text>
<polyline fill="none" stroke="white" points="64,-261 147,-261 "/>
<text text-anchor="start" x="90" y="-248.2" font-family="Titillium Web" font-size="11.00">erhielt</text>
</g>
<!-- N12644&#45;&gt;N12648 -->
<g id="edge9" class="edge">
<title>N12644&#45;&gt;N12648</title>
<path fill="none" stroke="black" d="M105.5,-293.3C105.5,-340.11 105.5,-433 105.5,-433 105.5,-433 286.9,-433 286.9,-433"/>
<polygon fill="black" stroke="black" points="286.9,-436.5 296.9,-433 286.9,-429.5 286.9,-436.5"/>
<text text-anchor="middle" x="117.85" y="-425" font-family="Titillium Web" font-size="10.00">P24</text>
</g>
<!-- N12616 -->
<g id="N12616" class="node semanticentity">
<title>N12616</title>
<polygon fill="#b560d4" fill-opacity="0.666667" stroke="white" points="295,-277 295,-329 408,-329 408,-277 295,-277"/>
<text text-anchor="start" x="303" y="-316.2" font-family="Titillium Web" font-size="11.00">E78 Curated Holding</text>
<text text-anchor="start" x="333" y="-304.2" font-family="Titillium Web" font-size="11.00">(12616)</text>
<polyline fill="none" stroke="white" points="295,-297 408,-297 "/>
<text text-anchor="start" x="311" y="-284.2" font-family="Titillium Web" font-size="11.00">Hauptsammlung</text>
</g>
<!-- N12644&#45;&gt;N12616 -->
<g id="edge7" class="edge">
<title>N12644&#45;&gt;N12616</title>
<path fill="none" stroke="black" d="M147.23,-285C147.23,-285 284.77,-285 284.77,-285"/>
<polygon fill="black" stroke="black" points="284.77,-288.5 294.77,-285 284.77,-281.5 284.77,-288.5"/>
<text text-anchor="middle" x="207.5" y="-277" font-family="Titillium Web" font-size="10.00">P22</text>
</g>
<!-- N12628 -->
<g id="N12628" class="node semanticentity">
<title>N12628</title>
<polygon fill="#3b95c4" fill-opacity="0.666667" stroke="white" points="269,-206 269,-258 434,-258 434,-206 269,-206"/>
<text text-anchor="start" x="324" y="-245.2" font-family="Titillium Web" font-size="11.00">E21 Person</text>
<text text-anchor="start" x="333" y="-233.2" font-family="Titillium Web" font-size="11.00">(12628)</text>
<polyline fill="none" stroke="white" points="269,-226 434,-226 "/>
<text text-anchor="start" x="277" y="-213.2" font-family="Titillium Web" font-size="11.00">Rechnungsrats a. D. G. Weymer</text>
</g>
<!-- N12644&#45;&gt;N12628 -->
<g id="edge8" class="edge">
<title>N12644&#45;&gt;N12628</title>
<path fill="none" stroke="black" d="M147.23,-252.5C147.23,-252.5 258.92,-252.5 258.92,-252.5"/>
<polygon fill="black" stroke="black" points="258.92,-256 268.92,-252.5 258.92,-249 258.92,-256"/>
<text text-anchor="middle" x="194.58" y="-244.5" font-family="Titillium Web" font-size="10.00">P23</text>
</g>
<!-- N12652 -->
<g id="N12652" class="node semanticentity">
<title>N12652</title>
<polygon fill="#06b67e" fill-opacity="0.666667" stroke="white" points="321.5,-135 321.5,-187 381.5,-187 381.5,-135 321.5,-135"/>
<text text-anchor="start" x="329.5" y="-174.2" font-family="Titillium Web" font-size="11.00">E55 Type</text>
<text text-anchor="start" x="333" y="-162.2" font-family="Titillium Web" font-size="11.00">(12652)</text>
<polyline fill="none" stroke="white" points="321.5,-155 381.5,-155 "/>
<text text-anchor="start" x="329.5" y="-142.2" font-family="Titillium Web" font-size="11.00">Donation</text>
</g>
<!-- N12644&#45;&gt;N12652 -->
<g id="edge6" class="edge">
<title>N12644&#45;&gt;N12652</title>
<path fill="none" stroke="black" d="M147.11,-246.5C186.77,-246.5 240.5,-246.5 240.5,-246.5 240.5,-246.5 240.5,-161 240.5,-161 240.5,-161 311.46,-161 311.46,-161"/>
<polygon fill="black" stroke="black" points="311.46,-164.5 321.46,-161 311.46,-157.5 311.46,-164.5"/>
<text text-anchor="middle" x="234.5" y="-206.97" font-family="Titillium Web" font-size="10.00">P2</text>
</g>
<!-- V_12633 -->
<g id="V_12633" class="node semanticentity">
<title>V_12633</title>
<polygon fill="lightgrey" stroke="white" points="1049.5,-484 1049.5,-524 1129.5,-524 1129.5,-484 1049.5,-484"/>
<text text-anchor="start" x="1086" y="-511.2" font-family="Titillium Web" font-size="11.00">...</text>
<polyline fill="none" stroke="white" points="1049.5,-504 1129.5,-504 "/>
<text text-anchor="start" x="1057.5" y="-491.2" font-family="Titillium Web" font-size="11.00">4 Neighbours</text>
</g>
<!-- N12633&#45;&gt;V_12633 -->
<g id="edge1" class="edge">
<title>N12633&#45;&gt;V_12633</title>
<path fill="none" stroke="black" d="M873.66,-504C873.66,-504 1039.29,-504 1039.29,-504"/>
<polygon fill="black" stroke="black" points="1039.29,-507.5 1049.29,-504 1039.29,-500.5 1039.29,-507.5"/>
<text text-anchor="middle" x="952.98" y="-496" font-family="Titillium Web" font-size="10.00">...</text>
</g>
<!-- V_12616 -->
<g id="V_12616" class="node semanticentity">
<title>V_12616</title>
<polygon fill="lightgrey" stroke="white" points="557.5,-277 557.5,-317 637.5,-317 637.5,-277 557.5,-277"/>
<text text-anchor="start" x="594" y="-304.2" font-family="Titillium Web" font-size="11.00">...</text>
<polyline fill="none" stroke="white" points="557.5,-297 637.5,-297 "/>
<text text-anchor="start" x="565.5" y="-284.2" font-family="Titillium Web" font-size="11.00">3 Neighbours</text>
</g>
<!-- N12616&#45;&gt;V_12616 -->
<g id="edge2" class="edge">
<title>N12616&#45;&gt;V_12616</title>
<path fill="none" stroke="black" d="M408.25,-297C408.25,-297 547.15,-297 547.15,-297"/>
<polygon fill="black" stroke="black" points="547.15,-300.5 557.15,-297 547.15,-293.5 547.15,-300.5"/>
<text text-anchor="middle" x="474.2" y="-289" font-family="Titillium Web" font-size="10.00">...</text>
</g>
<!-- V_12628 -->
<g id="V_12628" class="node semanticentity">
<title>V_12628</title>
<polygon fill="lightgrey" stroke="white" points="557.5,-212 557.5,-252 637.5,-252 637.5,-212 557.5,-212"/>
<text text-anchor="start" x="594" y="-239.2" font-family="Titillium Web" font-size="11.00">...</text>
<polyline fill="none" stroke="white" points="557.5,-232 637.5,-232 "/>
<text text-anchor="start" x="565.5" y="-219.2" font-family="Titillium Web" font-size="11.00">6 Neighbours</text>
</g>
<!-- N12628&#45;&gt;V_12628 -->
<g id="edge3" class="edge">
<title>N12628&#45;&gt;V_12628</title>
<path fill="none" stroke="black" d="M434.1,-232C434.1,-232 547.19,-232 547.19,-232"/>
<polygon fill="black" stroke="black" points="547.19,-235.5 557.19,-232 547.19,-228.5 547.19,-235.5"/>
<text text-anchor="middle" x="487.14" y="-224" font-family="Titillium Web" font-size="10.00">...</text>
</g>
<!-- V_12652 -->
<g id="V_12652" class="node semanticentity">
<title>V_12652</title>
<polygon fill="lightgrey" stroke="white" points="557.5,-141 557.5,-181 637.5,-181 637.5,-141 557.5,-141"/>
<text text-anchor="start" x="594" y="-168.2" font-family="Titillium Web" font-size="11.00">...</text>
<polyline fill="none" stroke="white" points="557.5,-161 637.5,-161 "/>
<text text-anchor="start" x="565.5" y="-148.2" font-family="Titillium Web" font-size="11.00">5 Neighbours</text>
</g>
<!-- N12652&#45;&gt;V_12652 -->
<g id="edge4" class="edge">
<title>N12652&#45;&gt;V_12652</title>
<path fill="none" stroke="black" d="M381.66,-161C381.66,-161 547.29,-161 547.29,-161"/>
<polygon fill="black" stroke="black" points="547.29,-164.5 557.29,-161 547.29,-157.5 547.29,-164.5"/>
<text text-anchor="middle" x="460.98" y="-153" font-family="Titillium Web" font-size="10.00">...</text>
</g>
</g>
</svg>
