<?xml version="1.0" encoding="UTF-8" standalone="no"?>
<!DOCTYPE svg PUBLIC "-//W3C//DTD SVG 1.1//EN"
 "http://www.w3.org/Graphics/SVG/1.1/DTD/svg11.dtd">
<!-- Generated by graphviz version 3.0.0 (20220226.1711)
 -->
<!-- Title: Annotationen Pages: 1 -->
<svg width="598pt" height="337pt"
 viewBox="0.00 0.00 598.00 336.50" xmlns="http://www.w3.org/2000/svg" xmlns:xlink="http://www.w3.org/1999/xlink">
<g id="graph0" class="graph" transform="scale(1 1) rotate(0) translate(4 332.5)">
<title>Annotationen</title>
<polygon fill="transparent" stroke="transparent" points="-4,4 -4,-332.5 594,-332.5 594,4 -4,4"/>
<text text-anchor="middle" x="295" y="-315.7" font-family="Titillium Web" font-size="11.00">Neighbourhood for Entity No. 6820 in Zoologisches Institut und zoologische Sammlung (1897) with depth 1</text>
<!-- legend1 -->
<g id="node1" class="node">
<title>legend1</title>
<polygon fill="none" stroke="black" points="10,-102 10,-124 39,-124 39,-102 10,-102"/>
<text text-anchor="start" x="15" y="-110.2" font-family="Titillium Web" font-size="11.00">...</text>
<polygon fill="none" stroke="black" points="41,-102 41,-124 190,-124 190,-102 41,-102"/>
<text text-anchor="start" x="46" y="-110.2" font-family="Titillium Web" font-size="11.00">too many neighbours to draw</text>
<polygon fill="none" stroke="black" points="10,-78 10,-100 39,-100 39,-78 10,-78"/>
<text text-anchor="start" x="15" y="-86.2" font-family="Titillium Web" font-size="11.00">P2</text>
<polygon fill="none" stroke="black" points="41,-78 41,-100 190,-100 190,-78 41,-78"/>
<text text-anchor="start" x="46" y="-86.2" font-family="Titillium Web" font-size="11.00"> has type</text>
<polygon fill="none" stroke="black" points="10,-54 10,-76 39,-76 39,-54 10,-54"/>
<text text-anchor="start" x="15" y="-62.2" font-family="Titillium Web" font-size="11.00">P22</text>
<polygon fill="none" stroke="black" points="41,-54 41,-76 190,-76 190,-54 41,-54"/>
<text text-anchor="start" x="46" y="-62.2" font-family="Titillium Web" font-size="11.00"> transferred title to</text>
<polygon fill="none" stroke="black" points="10,-30 10,-52 39,-52 39,-30 10,-30"/>
<text text-anchor="start" x="15" y="-38.2" font-family="Titillium Web" font-size="11.00">P23</text>
<polygon fill="none" stroke="black" points="41,-30 41,-52 190,-52 190,-30 41,-30"/>
<text text-anchor="start" x="46" y="-38.2" font-family="Titillium Web" font-size="11.00"> transferred title from</text>
<polygon fill="none" stroke="black" points="10,-6 10,-28 39,-28 39,-6 10,-6"/>
<text text-anchor="start" x="15" y="-14.2" font-family="Titillium Web" font-size="11.00">P24</text>
<polygon fill="none" stroke="black" points="41,-6 41,-28 190,-28 190,-6 41,-6"/>
<text text-anchor="start" x="46" y="-14.2" font-family="Titillium Web" font-size="11.00"> transferred title of</text>
</g>
<!-- N6820 -->
<g id="N6820" class="node entityNode">
<title>N6820</title>
<polygon fill="#fc3915" fill-opacity="0.666667" stroke="black" points="48,-149 48,-201 152,-201 152,-149 48,-149"/>
<text text-anchor="start" x="66.5" y="-188.2" font-family="Titillium Web" font-size="11.00">E8 Acquisition</text>
<text text-anchor="start" x="84.5" y="-176.2" font-family="Titillium Web" font-size="11.00">(6820)</text>
<polyline fill="none" stroke="black" points="48,-169 152,-169 "/>
<text text-anchor="start" x="56" y="-156.2" font-family="Titillium Web" font-size="11.00">(implicit) Unknown</text>
</g>
<!-- N6772 -->
<g id="N6772" class="node entityNode">
<title>N6772</title>
<polygon fill="#b560d4" fill-opacity="0.666667" stroke="white" points="258,-256 258,-308 389,-308 389,-256 258,-256"/>
<text text-anchor="start" x="275" y="-295.2" font-family="Titillium Web" font-size="11.00">E78 Curated Holding</text>
<text text-anchor="start" x="308" y="-283.2" font-family="Titillium Web" font-size="11.00">(6772)</text>
<polyline fill="none" stroke="white" points="258,-276 389,-276 "/>
<text text-anchor="start" x="266" y="-263.2" font-family="Titillium Web" font-size="11.00">Reptilien und Amphibien</text>
</g>
<!-- N6820&#45;&gt;N6772 -->
<g id="edge6" class="edge">
<title>N6820&#45;&gt;N6772</title>
<path fill="none" stroke="black" d="M152.34,-195.83C200.34,-195.83 264,-195.83 264,-195.83 264,-195.83 264,-245.68 264,-245.68"/>
<polygon fill="black" stroke="black" points="260.5,-245.68 264,-255.68 267.5,-245.68 260.5,-245.68"/>
<text text-anchor="middle" x="224.59" y="-187.83" font-family="Titillium Web" font-size="10.00">P22</text>
</g>
<!-- N6821 -->
<g id="N6821" class="node entityNode">
<title>N6821</title>
<polygon fill="#5a50c4" fill-opacity="0.666667" stroke="white" points="269,-185 269,-237 378,-237 378,-185 269,-185"/>
<text text-anchor="start" x="277" y="-224.2" font-family="Titillium Web" font-size="11.00">E19 Physical Object</text>
<text text-anchor="start" x="308" y="-212.2" font-family="Titillium Web" font-size="11.00">(6821)</text>
<polyline fill="none" stroke="white" points="269,-205 378,-205 "/>
<text text-anchor="start" x="279.5" y="-192.2" font-family="Titillium Web" font-size="11.00">(implicit) Unknown</text>
</g>
<!-- N6820&#45;&gt;N6821 -->
<g id="edge8" class="edge">
<title>N6820&#45;&gt;N6821</title>
<path fill="none" stroke="black" d="M152.12,-190.17C152.12,-190.17 258.96,-190.17 258.96,-190.17"/>
<polygon fill="black" stroke="black" points="258.96,-193.67 268.96,-190.17 258.96,-186.67 258.96,-193.67"/>
<text text-anchor="middle" x="197.04" y="-182.17" font-family="Titillium Web" font-size="10.00">P24</text>
</g>
<!-- N6819 -->
<g id="N6819" class="node entityNode">
<title>N6819</title>
<polygon fill="#3b95c4" fill-opacity="0.666667" stroke="white" points="288,-114 288,-166 359,-166 359,-114 288,-114"/>
<text text-anchor="start" x="296" y="-153.2" font-family="Titillium Web" font-size="11.00">E21 Person</text>
<text text-anchor="start" x="308" y="-141.2" font-family="Titillium Web" font-size="11.00">(6819)</text>
<polyline fill="none" stroke="white" points="288,-134 359,-134 "/>
<text text-anchor="start" x="301" y="-121.2" font-family="Titillium Web" font-size="11.00">Fülleborn</text>
</g>
<!-- N6820&#45;&gt;N6819 -->
<g id="edge7" class="edge">
<title>N6820&#45;&gt;N6819</title>
<path fill="none" stroke="black" d="M152.12,-160.5C152.12,-160.5 277.71,-160.5 277.71,-160.5"/>
<polygon fill="black" stroke="black" points="277.71,-164 287.71,-160.5 277.71,-157 277.71,-164"/>
<text text-anchor="middle" x="206.42" y="-152.5" font-family="Titillium Web" font-size="10.00">P23</text>
</g>
<!-- N7438 -->
<g id="N7438" class="node entityNode">
<title>N7438</title>
<polygon fill="#06b67e" fill-opacity="0.666667" stroke="white" points="293.5,-43 293.5,-95 353.5,-95 353.5,-43 293.5,-43"/>
<text text-anchor="start" x="301.5" y="-82.2" font-family="Titillium Web" font-size="11.00">E55 Type</text>
<text text-anchor="start" x="308" y="-70.2" font-family="Titillium Web" font-size="11.00">(7438)</text>
<polyline fill="none" stroke="white" points="293.5,-63 353.5,-63 "/>
<text text-anchor="start" x="301.5" y="-50.2" font-family="Titillium Web" font-size="11.00">Donation</text>
</g>
<!-- N6820&#45;&gt;N7438 -->
<g id="edge5" class="edge">
<title>N6820&#45;&gt;N7438</title>
<path fill="none" stroke="black" d="M152.1,-154.5C187.9,-154.5 229,-154.5 229,-154.5 229,-154.5 229,-69 229,-69 229,-69 283.34,-69 283.34,-69"/>
<polygon fill="black" stroke="black" points="283.34,-72.5 293.34,-69 283.34,-65.5 283.34,-72.5"/>
<text text-anchor="middle" x="223" y="-115.03" font-family="Titillium Web" font-size="10.00">P2</text>
</g>
<!-- V_6772 -->
<g id="V_6772" class="node entityNode">
<title>V_6772</title>
<polygon fill="lightgrey" stroke="white" points="504,-262 504,-302 590,-302 590,-262 504,-262"/>
<text text-anchor="start" x="543.5" y="-289.2" font-family="Titillium Web" font-size="11.00">...</text>
<polyline fill="none" stroke="white" points="504,-282 590,-282 "/>
<text text-anchor="start" x="512" y="-269.2" font-family="Titillium Web" font-size="11.00">27 Neighbours</text>
</g>
<!-- N6772&#45;&gt;V_6772 -->
<g id="edge1" class="edge">
<title>N6772&#45;&gt;V_6772</title>
<path fill="none" stroke="black" d="M389.05,-282C389.05,-282 493.72,-282 493.72,-282"/>
<polygon fill="black" stroke="black" points="493.72,-285.5 503.72,-282 493.72,-278.5 493.72,-285.5"/>
<text text-anchor="middle" x="437.88" y="-274" font-family="Titillium Web" font-size="10.00">...</text>
</g>
<!-- V_6821 -->
<g id="V_6821" class="node entityNode">
<title>V_6821</title>
<polygon fill="lightgrey" stroke="white" points="507,-191 507,-231 587,-231 587,-191 507,-191"/>
<text text-anchor="start" x="543.5" y="-218.2" font-family="Titillium Web" font-size="11.00">...</text>
<polyline fill="none" stroke="white" points="507,-211 587,-211 "/>
<text text-anchor="start" x="515" y="-198.2" font-family="Titillium Web" font-size="11.00">2 Neighbours</text>
</g>
<!-- N6821&#45;&gt;V_6821 -->
<g id="edge2" class="edge">
<title>N6821&#45;&gt;V_6821</title>
<path fill="none" stroke="black" d="M378.17,-211C378.17,-211 496.91,-211 496.91,-211"/>
<polygon fill="black" stroke="black" points="496.91,-214.5 506.91,-211 496.91,-207.5 496.91,-214.5"/>
<text text-anchor="middle" x="434.04" y="-203" font-family="Titillium Web" font-size="10.00">...</text>
</g>
<!-- V_6819 -->
<g id="V_6819" class="node entityNode">
<title>V_6819</title>
<polygon fill="lightgrey" stroke="white" points="507,-120 507,-160 587,-160 587,-120 507,-120"/>
<text text-anchor="start" x="543.5" y="-147.2" font-family="Titillium Web" font-size="11.00">...</text>
<polyline fill="none" stroke="white" points="507,-140 587,-140 "/>
<text text-anchor="start" x="515" y="-127.2" font-family="Titillium Web" font-size="11.00">4 Neighbours</text>
</g>
<!-- N6819&#45;&gt;V_6819 -->
<g id="edge3" class="edge">
<title>N6819&#45;&gt;V_6819</title>
<path fill="none" stroke="black" d="M359.41,-140C359.41,-140 496.64,-140 496.64,-140"/>
<polygon fill="black" stroke="black" points="496.64,-143.5 506.64,-140 496.64,-136.5 496.64,-143.5"/>
<text text-anchor="middle" x="424.53" y="-132" font-family="Titillium Web" font-size="10.00">...</text>
</g>
<!-- V_7438 -->
<g id="V_7438" class="node entityNode">
<title>V_7438</title>
<polygon fill="lightgrey" stroke="white" points="504,-49 504,-89 590,-89 590,-49 504,-49"/>
<text text-anchor="start" x="543.5" y="-76.2" font-family="Titillium Web" font-size="11.00">...</text>
<polyline fill="none" stroke="white" points="504,-69 590,-69 "/>
<text text-anchor="start" x="512" y="-56.2" font-family="Titillium Web" font-size="11.00">75 Neighbours</text>
</g>
<!-- N7438&#45;&gt;V_7438 -->
<g id="edge4" class="edge">
<title>N7438&#45;&gt;V_7438</title>
<path fill="none" stroke="black" d="M353.64,-69C353.64,-69 493.96,-69 493.96,-69"/>
<polygon fill="black" stroke="black" points="493.96,-72.5 503.96,-69 493.96,-65.5 493.96,-72.5"/>
<text text-anchor="middle" x="420.3" y="-61" font-family="Titillium Web" font-size="10.00">...</text>
</g>
</g>
</svg>
