<?xml version="1.0" encoding="UTF-8" standalone="no"?>
<!DOCTYPE svg PUBLIC "-//W3C//DTD SVG 1.1//EN"
 "http://www.w3.org/Graphics/SVG/1.1/DTD/svg11.dtd">
<!-- Generated by graphviz version 3.0.0 (20220226.1711)
 -->
<!-- Title: Annotationen Pages: 1 -->
<svg width="832pt" height="385pt"
 viewBox="0.00 0.00 831.50 384.50" xmlns="http://www.w3.org/2000/svg" xmlns:xlink="http://www.w3.org/1999/xlink">
<g id="graph0" class="graph" transform="scale(1 1) rotate(0) translate(4 380.5)">
<title>Annotationen</title>
<polygon fill="transparent" stroke="transparent" points="-4,4 -4,-380.5 827.5,-380.5 827.5,4 -4,4"/>
<text text-anchor="middle" x="411.75" y="-363.7" font-family="Titillium Web" font-size="11.00">Neighbourhood for Entity No. 6824 in Zoologisches Institut und zoologische Sammlung (1897) with depth 2</text>
<!-- legend1 -->
<g id="node1" class="node">
<title>legend1</title>
<polygon fill="none" stroke="black" points="10.5,-150 10.5,-172 39.5,-172 39.5,-150 10.5,-150"/>
<text text-anchor="start" x="15.5" y="-158.2" font-family="Titillium Web" font-size="11.00">...</text>
<polygon fill="none" stroke="black" points="41.5,-150 41.5,-172 195.5,-172 195.5,-150 41.5,-150"/>
<text text-anchor="start" x="46.5" y="-158.2" font-family="Titillium Web" font-size="11.00">too many neighbours to draw</text>
<polygon fill="none" stroke="black" points="10.5,-126 10.5,-148 39.5,-148 39.5,-126 10.5,-126"/>
<text text-anchor="start" x="15.5" y="-134.2" font-family="Titillium Web" font-size="11.00">P1</text>
<polygon fill="none" stroke="black" points="41.5,-126 41.5,-148 195.5,-148 195.5,-126 41.5,-126"/>
<text text-anchor="start" x="46.5" y="-134.2" font-family="Titillium Web" font-size="11.00"> is identified by</text>
<polygon fill="none" stroke="black" points="10.5,-102 10.5,-124 39.5,-124 39.5,-102 10.5,-102"/>
<text text-anchor="start" x="15.5" y="-110.2" font-family="Titillium Web" font-size="11.00">P2</text>
<polygon fill="none" stroke="black" points="41.5,-102 41.5,-124 195.5,-124 195.5,-102 41.5,-102"/>
<text text-anchor="start" x="46.5" y="-110.2" font-family="Titillium Web" font-size="11.00"> has type</text>
<polygon fill="none" stroke="black" points="10.5,-78 10.5,-100 39.5,-100 39.5,-78 10.5,-78"/>
<text text-anchor="start" x="15.5" y="-86.2" font-family="Titillium Web" font-size="11.00">P22</text>
<polygon fill="none" stroke="black" points="41.5,-78 41.5,-100 195.5,-100 195.5,-78 41.5,-78"/>
<text text-anchor="start" x="46.5" y="-86.2" font-family="Titillium Web" font-size="11.00"> transferred title to</text>
<polygon fill="none" stroke="black" points="10.5,-54 10.5,-76 39.5,-76 39.5,-54 10.5,-54"/>
<text text-anchor="start" x="15.5" y="-62.2" font-family="Titillium Web" font-size="11.00">P23</text>
<polygon fill="none" stroke="black" points="41.5,-54 41.5,-76 195.5,-76 195.5,-54 41.5,-54"/>
<text text-anchor="start" x="46.5" y="-62.2" font-family="Titillium Web" font-size="11.00"> transferred title from</text>
<polygon fill="none" stroke="black" points="10.5,-30 10.5,-52 39.5,-52 39.5,-30 10.5,-30"/>
<text text-anchor="start" x="15.5" y="-38.2" font-family="Titillium Web" font-size="11.00">P24</text>
<polygon fill="none" stroke="black" points="41.5,-30 41.5,-52 195.5,-52 195.5,-30 41.5,-30"/>
<text text-anchor="start" x="46.5" y="-38.2" font-family="Titillium Web" font-size="11.00"> transferred title of</text>
<polygon fill="none" stroke="black" points="10.5,-6 10.5,-28 39.5,-28 39.5,-6 10.5,-6"/>
<text text-anchor="start" x="15.5" y="-14.2" font-family="Titillium Web" font-size="11.00">P53</text>
<polygon fill="none" stroke="black" points="41.5,-6 41.5,-28 195.5,-28 195.5,-6 41.5,-6"/>
<text text-anchor="start" x="46.5" y="-14.2" font-family="Titillium Web" font-size="11.00"> has former or current location</text>
</g>
<!-- N6824 -->
<g id="N6824" class="node entityNode">
<title>N6824</title>
<polygon fill="#fc3915" fill-opacity="0.666667" stroke="black" points="50.5,-197 50.5,-249 154.5,-249 154.5,-197 50.5,-197"/>
<text text-anchor="start" x="69" y="-236.2" font-family="Titillium Web" font-size="11.00">E8 Acquisition</text>
<text text-anchor="start" x="87" y="-224.2" font-family="Titillium Web" font-size="11.00">(6824)</text>
<polyline fill="none" stroke="black" points="50.5,-217 154.5,-217 "/>
<text text-anchor="start" x="58.5" y="-204.2" font-family="Titillium Web" font-size="11.00">(implicit) Unknown</text>
</g>
<!-- N6772 -->
<g id="N6772" class="node entityNode">
<title>N6772</title>
<polygon fill="#b560d4" fill-opacity="0.666667" stroke="white" points="263,-304 263,-356 394,-356 394,-304 263,-304"/>
<text text-anchor="start" x="280" y="-343.2" font-family="Titillium Web" font-size="11.00">E78 Curated Holding</text>
<text text-anchor="start" x="313" y="-331.2" font-family="Titillium Web" font-size="11.00">(6772)</text>
<polyline fill="none" stroke="white" points="263,-324 394,-324 "/>
<text text-anchor="start" x="271" y="-311.2" font-family="Titillium Web" font-size="11.00">Reptilien und Amphibien</text>
</g>
<!-- N6824&#45;&gt;N6772 -->
<g id="edge7" class="edge">
<title>N6824&#45;&gt;N6772</title>
<path fill="none" stroke="black" d="M154.57,-243.83C203.25,-243.83 268.5,-243.83 268.5,-243.83 268.5,-243.83 268.5,-293.68 268.5,-293.68"/>
<polygon fill="black" stroke="black" points="265,-293.68 268.5,-303.68 272,-293.68 265,-293.68"/>
<text text-anchor="middle" x="227.96" y="-235.83" font-family="Titillium Web" font-size="10.00">P22</text>
</g>
<!-- N6823 -->
<g id="N6823" class="node entityNode">
<title>N6823</title>
<polygon fill="#3b95c4" fill-opacity="0.666667" stroke="white" points="274,-233 274,-285 383,-285 383,-233 274,-233"/>
<text text-anchor="start" x="301" y="-272.2" font-family="Titillium Web" font-size="11.00">E21 Person</text>
<text text-anchor="start" x="313" y="-260.2" font-family="Titillium Web" font-size="11.00">(6823)</text>
<polyline fill="none" stroke="white" points="274,-253 383,-253 "/>
<text text-anchor="start" x="282" y="-240.2" font-family="Titillium Web" font-size="11.00">Lieutenant Werther</text>
</g>
<!-- N6824&#45;&gt;N6823 -->
<g id="edge8" class="edge">
<title>N6824&#45;&gt;N6823</title>
<path fill="none" stroke="black" d="M154.63,-238.17C154.63,-238.17 263.87,-238.17 263.87,-238.17"/>
<polygon fill="black" stroke="black" points="263.87,-241.67 273.87,-238.17 263.87,-234.67 263.87,-241.67"/>
<text text-anchor="middle" x="200.75" y="-230.17" font-family="Titillium Web" font-size="10.00">P23</text>
</g>
<!-- N6825 -->
<g id="N6825" class="node entityNode">
<title>N6825</title>
<polygon fill="#5a50c4" fill-opacity="0.666667" stroke="white" points="274,-162 274,-214 383,-214 383,-162 274,-162"/>
<text text-anchor="start" x="282" y="-201.2" font-family="Titillium Web" font-size="11.00">E19 Physical Object</text>
<text text-anchor="start" x="313" y="-189.2" font-family="Titillium Web" font-size="11.00">(6825)</text>
<polyline fill="none" stroke="white" points="274,-182 383,-182 "/>
<text text-anchor="start" x="284.5" y="-169.2" font-family="Titillium Web" font-size="11.00">(implicit) Unknown</text>
</g>
<!-- N6824&#45;&gt;N6825 -->
<g id="edge9" class="edge">
<title>N6824&#45;&gt;N6825</title>
<path fill="none" stroke="black" d="M154.63,-208.5C154.63,-208.5 263.87,-208.5 263.87,-208.5"/>
<polygon fill="black" stroke="black" points="263.87,-212 273.87,-208.5 263.87,-205 263.87,-212"/>
<text text-anchor="middle" x="200.75" y="-200.5" font-family="Titillium Web" font-size="10.00">P24</text>
</g>
<!-- N7438 -->
<g id="N7438" class="node entityNode">
<title>N7438</title>
<polygon fill="#06b67e" fill-opacity="0.666667" stroke="white" points="298.5,-91 298.5,-143 358.5,-143 358.5,-91 298.5,-91"/>
<text text-anchor="start" x="306.5" y="-130.2" font-family="Titillium Web" font-size="11.00">E55 Type</text>
<text text-anchor="start" x="313" y="-118.2" font-family="Titillium Web" font-size="11.00">(7438)</text>
<polyline fill="none" stroke="white" points="298.5,-111 358.5,-111 "/>
<text text-anchor="start" x="306.5" y="-98.2" font-family="Titillium Web" font-size="11.00">Donation</text>
</g>
<!-- N6824&#45;&gt;N7438 -->
<g id="edge6" class="edge">
<title>N6824&#45;&gt;N7438</title>
<path fill="none" stroke="black" d="M154.67,-202.5C191.57,-202.5 234.5,-202.5 234.5,-202.5 234.5,-202.5 234.5,-117 234.5,-117 234.5,-117 288.5,-117 288.5,-117"/>
<polygon fill="black" stroke="black" points="288.5,-120.5 298.5,-117 288.5,-113.5 288.5,-120.5"/>
<text text-anchor="middle" x="228.5" y="-164.67" font-family="Titillium Web" font-size="10.00">P2</text>
</g>
<!-- V_6772 -->
<g id="V_6772" class="node entityNode">
<title>V_6772</title>
<polygon fill="lightgrey" stroke="white" points="511.5,-310 511.5,-350 597.5,-350 597.5,-310 511.5,-310"/>
<text text-anchor="start" x="551" y="-337.2" font-family="Titillium Web" font-size="11.00">...</text>
<polyline fill="none" stroke="white" points="511.5,-330 597.5,-330 "/>
<text text-anchor="start" x="519.5" y="-317.2" font-family="Titillium Web" font-size="11.00">27 Neighbours</text>
</g>
<!-- N6772&#45;&gt;V_6772 -->
<g id="edge1" class="edge">
<title>N6772&#45;&gt;V_6772</title>
<path fill="none" stroke="black" d="M394.17,-330C394.17,-330 501.19,-330 501.19,-330"/>
<polygon fill="black" stroke="black" points="501.19,-333.5 511.19,-330 501.19,-326.5 501.19,-333.5"/>
<text text-anchor="middle" x="444.18" y="-322" font-family="Titillium Web" font-size="10.00">...</text>
</g>
<!-- N14127 -->
<g id="N14127" class="node entityNode">
<title>N14127</title>
<polygon fill="#debb9b" stroke="white" points="509.5,-233 509.5,-285 599.5,-285 599.5,-233 509.5,-233"/>
<text text-anchor="start" x="517.5" y="-272.2" font-family="Titillium Web" font-size="11.00">E41 Appellation</text>
<text text-anchor="start" x="536" y="-260.2" font-family="Titillium Web" font-size="11.00">(14127)</text>
<polyline fill="none" stroke="white" points="509.5,-253 599.5,-253 "/>
<text text-anchor="start" x="534.5" y="-240.2" font-family="Titillium Web" font-size="11.00">Werther</text>
</g>
<!-- N6823&#45;&gt;N14127 -->
<g id="edge5" class="edge">
<title>N6823&#45;&gt;N14127</title>
<path fill="none" stroke="black" d="M383.21,-259C383.21,-259 499.41,-259 499.41,-259"/>
<polygon fill="black" stroke="black" points="499.41,-262.5 509.41,-259 499.41,-255.5 499.41,-262.5"/>
<text text-anchor="middle" x="435.31" y="-251" font-family="Titillium Web" font-size="10.00">P1</text>
</g>
<!-- N6615 -->
<g id="N6615" class="node entityNode">
<title>N6615</title>
<polygon fill="#fc7715" fill-opacity="0.666667" stroke="white" points="514.5,-162 514.5,-214 594.5,-214 594.5,-162 514.5,-162"/>
<text text-anchor="start" x="531" y="-201.2" font-family="Titillium Web" font-size="11.00">E53 Place</text>
<text text-anchor="start" x="539" y="-189.2" font-family="Titillium Web" font-size="11.00">(6615)</text>
<polyline fill="none" stroke="white" points="514.5,-182 594.5,-182 "/>
<text text-anchor="start" x="522.5" y="-169.2" font-family="Titillium Web" font-size="11.00">Massai&#45;Land</text>
</g>
<!-- N6825&#45;&gt;N6615 -->
<g id="edge10" class="edge">
<title>N6825&#45;&gt;N6615</title>
<path fill="none" stroke="black" d="M383.21,-188C383.21,-188 504.46,-188 504.46,-188"/>
<polygon fill="black" stroke="black" points="504.46,-191.5 514.46,-188 504.46,-184.5 504.46,-191.5"/>
<text text-anchor="middle" x="435.34" y="-180" font-family="Titillium Web" font-size="10.00">P53</text>
</g>
<!-- V_7438 -->
<g id="V_7438" class="node entityNode">
<title>V_7438</title>
<polygon fill="lightgrey" stroke="white" points="511.5,-97 511.5,-137 597.5,-137 597.5,-97 511.5,-97"/>
<text text-anchor="start" x="551" y="-124.2" font-family="Titillium Web" font-size="11.00">...</text>
<polyline fill="none" stroke="white" points="511.5,-117 597.5,-117 "/>
<text text-anchor="start" x="519.5" y="-104.2" font-family="Titillium Web" font-size="11.00">75 Neighbours</text>
</g>
<!-- N7438&#45;&gt;V_7438 -->
<g id="edge4" class="edge">
<title>N7438&#45;&gt;V_7438</title>
<path fill="none" stroke="black" d="M358.51,-117C358.51,-117 501.19,-117 501.19,-117"/>
<polygon fill="black" stroke="black" points="501.19,-120.5 511.19,-117 501.19,-113.5 501.19,-120.5"/>
<text text-anchor="middle" x="426.35" y="-109" font-family="Titillium Web" font-size="10.00">...</text>
</g>
<!-- V_14127 -->
<g id="V_14127" class="node entityNode">
<title>V_14127</title>
<polygon fill="lightgrey" stroke="white" points="737.5,-239 737.5,-279 823.5,-279 823.5,-239 737.5,-239"/>
<text text-anchor="start" x="777" y="-266.2" font-family="Titillium Web" font-size="11.00">...</text>
<polyline fill="none" stroke="white" points="737.5,-259 823.5,-259 "/>
<text text-anchor="start" x="745.5" y="-246.2" font-family="Titillium Web" font-size="11.00">10 Neighbours</text>
</g>
<!-- N14127&#45;&gt;V_14127 -->
<g id="edge2" class="edge">
<title>N14127&#45;&gt;V_14127</title>
<path fill="none" stroke="black" d="M599.69,-259C599.69,-259 727.3,-259 727.3,-259"/>
<polygon fill="black" stroke="black" points="727.3,-262.5 737.3,-259 727.3,-255.5 727.3,-262.5"/>
<text text-anchor="middle" x="660" y="-251" font-family="Titillium Web" font-size="10.00">...</text>
</g>
<!-- V_6615 -->
<g id="V_6615" class="node entityNode">
<title>V_6615</title>
<polygon fill="lightgrey" stroke="white" points="740.5,-168 740.5,-208 820.5,-208 820.5,-168 740.5,-168"/>
<text text-anchor="start" x="777" y="-195.2" font-family="Titillium Web" font-size="11.00">...</text>
<polyline fill="none" stroke="white" points="740.5,-188 820.5,-188 "/>
<text text-anchor="start" x="748.5" y="-175.2" font-family="Titillium Web" font-size="11.00">3 Neighbours</text>
</g>
<!-- N6615&#45;&gt;V_6615 -->
<g id="edge3" class="edge">
<title>N6615&#45;&gt;V_6615</title>
<path fill="none" stroke="black" d="M594.64,-188C594.64,-188 730.35,-188 730.35,-188"/>
<polygon fill="black" stroke="black" points="730.35,-191.5 740.35,-188 730.35,-184.5 730.35,-191.5"/>
<text text-anchor="middle" x="659" y="-180" font-family="Titillium Web" font-size="10.00">...</text>
</g>
</g>
</svg>
