<?xml version="1.0" encoding="UTF-8" standalone="no"?>
<!DOCTYPE svg PUBLIC "-//W3C//DTD SVG 1.1//EN"
 "http://www.w3.org/Graphics/SVG/1.1/DTD/svg11.dtd">
<!-- Generated by graphviz version 2.50.0 (20211204.2007)
 -->
<!-- Title: CIDOC Pages: 1 -->
<svg width="2165pt" height="870pt"
 viewBox="0.00 0.00 2164.50 870.40" xmlns="http://www.w3.org/2000/svg" xmlns:xlink="http://www.w3.org/1999/xlink">
<g id="graph0" class="graph" transform="scale(1 1) rotate(0) translate(4 866.4)">
<title>CIDOC</title>
<!-- E2 -->
<g id="node1" class="node">
<title>E2</title>
<polygon fill="lightgrey" stroke="black" stroke-width="0" points="1457,-715 1307,-715 1307,-679 1457,-679 1457,-715"/>
<text text-anchor="middle" x="1382" y="-693.3" font-family="sans-serif" font-size="14.00">E2 Temporal Entity</text>
</g>
<!-- E3 -->
<g id="node2" class="node">
<title>E3</title>
<polygon fill="#48658c" stroke="black" stroke-width="0" points="1422.5,-582 1275.5,-582 1275.5,-546 1422.5,-546 1422.5,-582"/>
<text text-anchor="middle" x="1349" y="-560.3" font-family="sans-serif" font-size="14.00" fill="#f8f5ee">E3 Condition State</text>
</g>
<!-- E2&#45;&gt;E3 -->
<g id="edge2" class="edge">
<title>E2&#45;&gt;E3</title>
<path fill="none" stroke="black" d="M1364.75,-678.79C1364.75,-678.79 1364.75,-592.42 1364.75,-592.42"/>
<polygon fill="black" stroke="black" points="1368.25,-592.42 1364.75,-582.42 1361.25,-592.42 1368.25,-592.42"/>
</g>
<!-- E4 -->
<g id="node3" class="node">
<title>E4</title>
<polygon fill="#6699dc" stroke="black" stroke-width="0" points="1523.5,-582 1440.5,-582 1440.5,-546 1523.5,-546 1523.5,-582"/>
<text text-anchor="middle" x="1482" y="-560.3" font-family="sans-serif" font-size="14.00" fill="#f3f0eb">E4 Period</text>
</g>
<!-- E2&#45;&gt;E4 -->
<g id="edge3" class="edge">
<title>E2&#45;&gt;E4</title>
<path fill="none" stroke="black" d="M1448.75,-678.79C1448.75,-678.79 1448.75,-592.42 1448.75,-592.42"/>
<polygon fill="black" stroke="black" points="1452.25,-592.42 1448.75,-582.42 1445.25,-592.42 1452.25,-592.42"/>
</g>
<!-- E5 -->
<g id="node4" class="node">
<title>E5</title>
<polygon fill="#6699dc" stroke="black" stroke-width="0" points="1522,-449 1442,-449 1442,-413 1522,-413 1522,-449"/>
<text text-anchor="middle" x="1482" y="-427.3" font-family="sans-serif" font-size="14.00" fill="#f3f0eb">E5 Event</text>
</g>
<!-- E4&#45;&gt;E5 -->
<g id="edge5" class="edge">
<title>E4&#45;&gt;E5</title>
<path fill="none" stroke="black" d="M1482,-545.79C1482,-545.79 1482,-459.42 1482,-459.42"/>
<polygon fill="black" stroke="black" points="1485.5,-459.42 1482,-449.42 1478.5,-459.42 1485.5,-459.42"/>
</g>
<!-- E7 -->
<g id="node5" class="node">
<title>E7</title>
<polygon fill="#5f8cc9" stroke="black" stroke-width="0" points="872,-317 780,-317 780,-281 872,-281 872,-317"/>
<text text-anchor="middle" x="826" y="-295.3" font-family="sans-serif" font-size="14.00" fill="#f4f1ec">E7 Activity</text>
</g>
<!-- E5&#45;&gt;E7 -->
<g id="edge7" class="edge">
<title>E5&#45;&gt;E7</title>
<path fill="none" stroke="black" d="M1441.95,-431C1299.52,-431 826,-431 826,-431 826,-431 826,-327.08 826,-327.08"/>
<polygon fill="black" stroke="black" points="829.5,-327.08 826,-317.08 822.5,-327.08 829.5,-327.08"/>
</g>
<!-- E63 -->
<g id="node25" class="node">
<title>E63</title>
<polygon fill="#6495d7" stroke="black" stroke-width="0" points="1584.5,-317 1379.5,-317 1379.5,-281 1584.5,-281 1584.5,-317"/>
<text text-anchor="middle" x="1482" y="-295.3" font-family="sans-serif" font-size="14.00" fill="#f3f1ec">E63 Beginning of Existence</text>
</g>
<!-- E5&#45;&gt;E63 -->
<g id="edge21" class="edge">
<title>E5&#45;&gt;E63</title>
<path fill="none" stroke="black" d="M1482,-412.92C1482,-412.92 1482,-327.28 1482,-327.28"/>
<polygon fill="black" stroke="black" points="1485.5,-327.28 1482,-317.28 1478.5,-327.28 1485.5,-327.28"/>
</g>
<!-- E64 -->
<g id="node28" class="node">
<title>E64</title>
<polygon fill="lightgrey" stroke="black" stroke-width="0" points="1925,-317 1763,-317 1763,-281 1925,-281 1925,-317"/>
<text text-anchor="middle" x="1844" y="-295.3" font-family="sans-serif" font-size="14.00">E64 End of Existence</text>
</g>
<!-- E5&#45;&gt;E64 -->
<g id="edge22" class="edge">
<title>E5&#45;&gt;E64</title>
<path fill="none" stroke="black" d="M1522.19,-431C1602.09,-431 1773.25,-431 1773.25,-431 1773.25,-431 1773.25,-327.08 1773.25,-327.08"/>
<polygon fill="black" stroke="black" points="1776.75,-327.08 1773.25,-317.08 1769.75,-327.08 1776.75,-327.08"/>
</g>
<!-- E8 -->
<g id="node6" class="node">
<title>E8</title>
<polygon fill="#242629" stroke="black" stroke-width="0" points="620,-184 506,-184 506,-148 620,-148 620,-184"/>
<text text-anchor="middle" x="563" y="-162.3" font-family="sans-serif" font-size="14.00" fill="#fffaf0">E8 Acquisition</text>
</g>
<!-- E7&#45;&gt;E8 -->
<g id="edge8" class="edge">
<title>E7&#45;&gt;E8</title>
<path fill="none" stroke="black" d="M779.89,-288C704.46,-288 563,-288 563,-288 563,-288 563,-194 563,-194"/>
<polygon fill="black" stroke="black" points="566.5,-194 563,-184 559.5,-194 566.5,-194"/>
</g>
<!-- E9 -->
<g id="node8" class="node">
<title>E9</title>
<polygon fill="#5d89c4" stroke="black" stroke-width="0" points="864,-184 788,-184 788,-148 864,-148 864,-184"/>
<text text-anchor="middle" x="826" y="-162.3" font-family="sans-serif" font-size="14.00" fill="#f5f2ec">E9 Move</text>
</g>
<!-- E7&#45;&gt;E9 -->
<g id="edge9" class="edge">
<title>E7&#45;&gt;E9</title>
<path fill="none" stroke="black" d="M826,-280.79C826,-280.79 826,-194.42 826,-194.42"/>
<polygon fill="black" stroke="black" points="829.5,-194.42 826,-184.42 822.5,-194.42 829.5,-194.42"/>
</g>
<!-- E10 -->
<g id="node9" class="node">
<title>E10</title>
<polygon fill="lightgrey" stroke="black" stroke-width="0" points="488,-184 304,-184 304,-148 488,-148 488,-184"/>
<text text-anchor="middle" x="396" y="-162.3" font-family="sans-serif" font-size="14.00">E10 Transfer of Custody</text>
</g>
<!-- E7&#45;&gt;E10 -->
<g id="edge10" class="edge">
<title>E7&#45;&gt;E10</title>
<path fill="none" stroke="black" d="M779.98,-295C669.05,-295 396,-295 396,-295 396,-295 396,-194.21 396,-194.21"/>
<polygon fill="black" stroke="black" points="399.5,-194.21 396,-184.21 392.5,-194.21 399.5,-194.21"/>
</g>
<!-- E11 -->
<g id="node10" class="node">
<title>E11</title>
<polygon fill="#6393d4" stroke="black" stroke-width="0" points="769.5,-184 638.5,-184 638.5,-148 769.5,-148 769.5,-184"/>
<text text-anchor="middle" x="704" y="-162.3" font-family="sans-serif" font-size="14.00" fill="#f4f1ec">E11 Modification</text>
</g>
<!-- E7&#45;&gt;E11 -->
<g id="edge11" class="edge">
<title>E7&#45;&gt;E11</title>
<path fill="none" stroke="black" d="M784,-280.79C784,-244.36 784,-166 784,-166 784,-166 779.7,-166 779.7,-166"/>
<polygon fill="black" stroke="black" points="779.7,-162.5 769.7,-166 779.7,-169.5 779.7,-162.5"/>
</g>
<!-- E13 -->
<g id="node14" class="node">
<title>E13</title>
<polygon fill="lightgrey" stroke="black" stroke-width="0" points="1078,-184 882,-184 882,-148 1078,-148 1078,-184"/>
<text text-anchor="middle" x="980" y="-162.3" font-family="sans-serif" font-size="14.00">E13 Attribute Assignment</text>
</g>
<!-- E7&#45;&gt;E13 -->
<g id="edge14" class="edge">
<title>E7&#45;&gt;E13</title>
<path fill="none" stroke="black" d="M869.33,-280.79C869.33,-244.36 869.33,-166 869.33,-166 869.33,-166 871.6,-166 871.6,-166"/>
<polygon fill="black" stroke="black" points="871.6,-169.5 881.6,-166 871.6,-162.5 871.6,-169.5"/>
</g>
<!-- E65 -->
<g id="node19" class="node">
<title>E65</title>
<polygon fill="#6699dc" stroke="black" stroke-width="0" points="1316.5,-184 1209.5,-184 1209.5,-148 1316.5,-148 1316.5,-184"/>
<text text-anchor="middle" x="1263" y="-162.3" font-family="sans-serif" font-size="14.00" fill="#f3f0eb">E65 Creation</text>
</g>
<!-- E7&#45;&gt;E65 -->
<g id="edge23" class="edge">
<title>E7&#45;&gt;E65</title>
<path fill="none" stroke="black" d="M872.16,-299C980.61,-299 1242.5,-299 1242.5,-299 1242.5,-299 1242.5,-194.21 1242.5,-194.21"/>
<polygon fill="black" stroke="black" points="1246,-194.21 1242.5,-184.21 1239,-194.21 1246,-194.21"/>
</g>
<!-- E66 -->
<g id="node21" class="node">
<title>E66</title>
<polygon fill="#6597d9" stroke="black" stroke-width="0" points="1453.5,-184 1334.5,-184 1334.5,-148 1453.5,-148 1453.5,-184"/>
<text text-anchor="middle" x="1394" y="-162.3" font-family="sans-serif" font-size="14.00" fill="#f3f1ec">E66 Formation</text>
</g>
<!-- E7&#45;&gt;E66 -->
<g id="edge25" class="edge">
<title>E7&#45;&gt;E66</title>
<path fill="none" stroke="black" d="M872.19,-305C1001.38,-305 1357,-305 1357,-305 1357,-305 1357,-194.17 1357,-194.17"/>
<polygon fill="black" stroke="black" points="1360.5,-194.17 1357,-184.17 1353.5,-194.17 1360.5,-194.17"/>
</g>
<!-- E85 -->
<g id="node22" class="node">
<title>E85</title>
<polygon fill="#6291d1" stroke="black" stroke-width="0" points="1191.5,-184 1096.5,-184 1096.5,-148 1191.5,-148 1191.5,-184"/>
<text text-anchor="middle" x="1144" y="-162.3" font-family="sans-serif" font-size="14.00" fill="#f4f1ec">E85 Joining</text>
</g>
<!-- E7&#45;&gt;E85 -->
<g id="edge35" class="edge">
<title>E7&#45;&gt;E85</title>
<path fill="none" stroke="black" d="M872.24,-293C960.44,-293 1144,-293 1144,-293 1144,-293 1144,-194.2 1144,-194.2"/>
<polygon fill="black" stroke="black" points="1147.5,-194.2 1144,-184.2 1140.5,-194.2 1147.5,-194.2"/>
</g>
<!-- E86 -->
<g id="node23" class="node">
<title>E86</title>
<polygon fill="#6393d4" stroke="black" stroke-width="0" points="102,-184 0,-184 0,-148 102,-148 102,-184"/>
<text text-anchor="middle" x="51" y="-162.3" font-family="sans-serif" font-size="14.00" fill="#f4f1ec">E86 Leaving</text>
</g>
<!-- E7&#45;&gt;E86 -->
<g id="edge36" class="edge">
<title>E7&#45;&gt;E86</title>
<path fill="none" stroke="black" d="M779.84,-309C613,-309 51,-309 51,-309 51,-309 51,-194.11 51,-194.11"/>
<polygon fill="black" stroke="black" points="54.5,-194.11 51,-184.11 47.5,-194.11 54.5,-194.11"/>
</g>
<!-- E87 -->
<g id="node24" class="node">
<title>E87</title>
<polygon fill="#5276a6" stroke="black" stroke-width="0" points="285.5,-184 120.5,-184 120.5,-148 285.5,-148 285.5,-184"/>
<text text-anchor="middle" x="203" y="-162.3" font-family="sans-serif" font-size="14.00" fill="#f7f3ed">E87 Curation Activity</text>
</g>
<!-- E7&#45;&gt;E87 -->
<g id="edge37" class="edge">
<title>E7&#45;&gt;E87</title>
<path fill="none" stroke="black" d="M779.94,-302C635.81,-302 203,-302 203,-302 203,-302 203,-194.06 203,-194.06"/>
<polygon fill="black" stroke="black" points="206.5,-194.06 203,-184.06 199.5,-194.06 206.5,-194.06"/>
</g>
<!-- E96 -->
<g id="node7" class="node">
<title>E96</title>
<polygon fill="#36455b" stroke="black" stroke-width="0" points="339.5,-51 228.5,-51 228.5,-15 339.5,-15 339.5,-51"/>
<text text-anchor="middle" x="284" y="-29.3" font-family="sans-serif" font-size="14.00" fill="#fcf7ef">E96 Purchase</text>
</g>
<!-- E8&#45;&gt;E96 -->
<g id="edge40" class="edge">
<title>E8&#45;&gt;E96</title>
<path fill="none" stroke="black" d="M510.25,-147.69C510.25,-127.85 510.25,-99 510.25,-99 510.25,-99 321.75,-99 321.75,-99 321.75,-99 321.75,-61.03 321.75,-61.03"/>
<polygon fill="black" stroke="black" points="325.25,-61.03 321.75,-51.03 318.25,-61.03 325.25,-61.03"/>
</g>
<!-- E12 -->
<g id="node11" class="node">
<title>E12</title>
<polygon fill="#6293d3" stroke="black" stroke-width="0" points="981,-51 859,-51 859,-15 981,-15 981,-51"/>
<text text-anchor="middle" x="920" y="-29.3" font-family="sans-serif" font-size="14.00" fill="#f4f1ec">E12 Production</text>
</g>
<!-- E11&#45;&gt;E12 -->
<g id="edge12" class="edge">
<title>E11&#45;&gt;E12</title>
<path fill="none" stroke="black" d="M721.5,-147.59C721.5,-117.96 721.5,-63 721.5,-63 721.5,-63 866.67,-63 866.67,-63 866.67,-63 866.67,-61.14 866.67,-61.14"/>
<polygon fill="black" stroke="black" points="870.17,-61.14 866.67,-51.14 863.17,-61.14 870.17,-61.14"/>
</g>
<!-- E79 -->
<g id="node12" class="node">
<title>E79</title>
<polygon fill="#6598db" stroke="black" stroke-width="0" points="496.5,-51 357.5,-51 357.5,-15 496.5,-15 496.5,-51"/>
<text text-anchor="middle" x="427" y="-29.3" font-family="sans-serif" font-size="14.00" fill="#f3f1ec">E79 Part Addition</text>
</g>
<!-- E11&#45;&gt;E79 -->
<g id="edge30" class="edge">
<title>E11&#45;&gt;E79</title>
<path fill="none" stroke="black" d="M644.17,-147.68C644.17,-124.34 644.17,-87 644.17,-87 644.17,-87 492.25,-87 492.25,-87 492.25,-87 492.25,-61.28 492.25,-61.28"/>
<polygon fill="black" stroke="black" points="495.75,-61.28 492.25,-51.28 488.75,-61.28 495.75,-61.28"/>
</g>
<!-- E80 -->
<g id="node13" class="node">
<title>E80</title>
<polygon fill="lightgrey" stroke="black" stroke-width="0" points="655.5,-51 514.5,-51 514.5,-15 655.5,-15 655.5,-51"/>
<text text-anchor="middle" x="585" y="-29.3" font-family="sans-serif" font-size="14.00">E80 Part Removal</text>
</g>
<!-- E11&#45;&gt;E80 -->
<g id="edge31" class="edge">
<title>E11&#45;&gt;E80</title>
<path fill="none" stroke="black" d="M649.83,-147.79C649.83,-147.79 649.83,-61.42 649.83,-61.42"/>
<polygon fill="black" stroke="black" points="653.33,-61.42 649.83,-51.42 646.33,-61.42 653.33,-61.42"/>
</g>
<!-- E14 -->
<g id="node15" class="node">
<title>E14</title>
<polygon fill="#6394d5" stroke="black" stroke-width="0" points="1199,-51 999,-51 999,-15 1199,-15 1199,-51"/>
<text text-anchor="middle" x="1099" y="-29.3" font-family="sans-serif" font-size="14.00" fill="#f3f1ec">E14 Condition Assessment</text>
</g>
<!-- E13&#45;&gt;E14 -->
<g id="edge15" class="edge">
<title>E13&#45;&gt;E14</title>
<path fill="none" stroke="black" d="M1018.75,-147.79C1018.75,-147.79 1018.75,-61.42 1018.75,-61.42"/>
<polygon fill="black" stroke="black" points="1022.25,-61.42 1018.75,-51.42 1015.25,-61.42 1022.25,-61.42"/>
</g>
<!-- E15 -->
<g id="node16" class="node">
<title>E15</title>
<polygon fill="lightgrey" stroke="black" stroke-width="0" points="1412.5,-51 1217.5,-51 1217.5,-15 1412.5,-15 1412.5,-51"/>
<text text-anchor="middle" x="1315" y="-29.3" font-family="sans-serif" font-size="14.00">E15 Identifier Assignment</text>
</g>
<!-- E13&#45;&gt;E15 -->
<g id="edge16" class="edge">
<title>E13&#45;&gt;E15</title>
<path fill="none" stroke="black" d="M1038.5,-147.99C1038.5,-131.95 1038.5,-111 1038.5,-111 1038.5,-111 1250.5,-111 1250.5,-111 1250.5,-111 1250.5,-61.09 1250.5,-61.09"/>
<polygon fill="black" stroke="black" points="1254,-61.09 1250.5,-51.09 1247,-61.09 1254,-61.09"/>
</g>
<!-- E16 -->
<g id="node17" class="node">
<title>E16</title>
<polygon fill="lightgrey" stroke="black" stroke-width="0" points="1573.5,-51 1430.5,-51 1430.5,-15 1573.5,-15 1573.5,-51"/>
<text text-anchor="middle" x="1502" y="-29.3" font-family="sans-serif" font-size="14.00">E16 Measurement</text>
</g>
<!-- E13&#45;&gt;E16 -->
<g id="edge17" class="edge">
<title>E13&#45;&gt;E16</title>
<path fill="none" stroke="black" d="M1058.25,-147.51C1058.25,-135.86 1058.25,-123 1058.25,-123 1058.25,-123 1442,-123 1442,-123 1442,-123 1442,-61.21 1442,-61.21"/>
<polygon fill="black" stroke="black" points="1445.5,-61.21 1442,-51.21 1438.5,-61.21 1445.5,-61.21"/>
</g>
<!-- E17 -->
<g id="node18" class="node">
<title>E17</title>
<polygon fill="lightgrey" stroke="black" stroke-width="0" points="840.5,-51 673.5,-51 673.5,-15 840.5,-15 840.5,-51"/>
<text text-anchor="middle" x="757" y="-29.3" font-family="sans-serif" font-size="14.00">E17 Type Assignment</text>
</g>
<!-- E13&#45;&gt;E17 -->
<g id="edge18" class="edge">
<title>E13&#45;&gt;E17</title>
<path fill="none" stroke="black" d="M931.5,-147.58C931.5,-120.99 931.5,-75 931.5,-75 931.5,-75 814.25,-75 814.25,-75 814.25,-75 814.25,-61.06 814.25,-61.06"/>
<polygon fill="black" stroke="black" points="817.75,-61.06 814.25,-51.06 810.75,-61.06 817.75,-61.06"/>
</g>
<!-- E83 -->
<g id="node20" class="node">
<title>E83</title>
<polygon fill="lightgrey" stroke="black" stroke-width="0" points="1738,-51 1592,-51 1592,-15 1738,-15 1738,-51"/>
<text text-anchor="middle" x="1665" y="-29.3" font-family="sans-serif" font-size="14.00">E83 Type Creation</text>
</g>
<!-- E65&#45;&gt;E83 -->
<g id="edge34" class="edge">
<title>E65&#45;&gt;E83</title>
<path fill="none" stroke="black" d="M1283.5,-147.97C1283.5,-141.15 1283.5,-135 1283.5,-135 1283.5,-135 1602.75,-135 1602.75,-135 1602.75,-135 1602.75,-61.24 1602.75,-61.24"/>
<polygon fill="black" stroke="black" points="1606.25,-61.24 1602.75,-51.24 1599.25,-61.24 1606.25,-61.24"/>
</g>
<!-- E63&#45;&gt;E12 -->
<g id="edge13" class="edge">
<title>E63&#45;&gt;E12</title>
<path fill="none" stroke="black" d="M1379.37,-311C1206.76,-311 877,-311 877,-311 877,-311 877,-61.24 877,-61.24"/>
<polygon fill="black" stroke="black" points="880.5,-61.24 877,-51.24 873.5,-61.24 880.5,-61.24"/>
</g>
<!-- E63&#45;&gt;E65 -->
<g id="edge24" class="edge">
<title>E63&#45;&gt;E65</title>
<path fill="none" stroke="black" d="M1379.48,-287C1336.36,-287 1296,-287 1296,-287 1296,-287 1296,-194.11 1296,-194.11"/>
<polygon fill="black" stroke="black" points="1299.5,-194.11 1296,-184.11 1292.5,-194.11 1299.5,-194.11"/>
</g>
<!-- E63&#45;&gt;E66 -->
<g id="edge26" class="edge">
<title>E63&#45;&gt;E66</title>
<path fill="none" stroke="black" d="M1416.5,-280.79C1416.5,-280.79 1416.5,-194.42 1416.5,-194.42"/>
<polygon fill="black" stroke="black" points="1420,-194.42 1416.5,-184.42 1413,-194.42 1420,-194.42"/>
</g>
<!-- E67 -->
<g id="node26" class="node">
<title>E67</title>
<polygon fill="lightgrey" stroke="black" stroke-width="0" points="1593.5,-184 1510.5,-184 1510.5,-148 1593.5,-148 1593.5,-184"/>
<text text-anchor="middle" x="1552" y="-162.3" font-family="sans-serif" font-size="14.00">E67 Birth</text>
</g>
<!-- E63&#45;&gt;E67 -->
<g id="edge27" class="edge">
<title>E63&#45;&gt;E67</title>
<path fill="none" stroke="black" d="M1547.5,-280.79C1547.5,-280.79 1547.5,-194.42 1547.5,-194.42"/>
<polygon fill="black" stroke="black" points="1551,-194.42 1547.5,-184.42 1544,-194.42 1551,-194.42"/>
</g>
<!-- E81 -->
<g id="node27" class="node">
<title>E81</title>
<polygon fill="#6699dc" stroke="black" stroke-width="0" points="1766,-184 1612,-184 1612,-148 1766,-148 1766,-184"/>
<text text-anchor="middle" x="1689" y="-162.3" font-family="sans-serif" font-size="14.00" fill="#f3f0eb">E81 Transformation</text>
</g>
<!-- E63&#45;&gt;E81 -->
<g id="edge32" class="edge">
<title>E63&#45;&gt;E81</title>
<path fill="none" stroke="black" d="M1584.54,-299C1610.91,-299 1632,-299 1632,-299 1632,-299 1632,-194.21 1632,-194.21"/>
<polygon fill="black" stroke="black" points="1635.5,-194.21 1632,-184.21 1628.5,-194.21 1635.5,-194.21"/>
</g>
<!-- E64&#45;&gt;E81 -->
<g id="edge33" class="edge">
<title>E64&#45;&gt;E81</title>
<path fill="none" stroke="black" d="M1775,-280.79C1775,-244.36 1775,-166 1775,-166 1775,-166 1774.11,-166 1774.11,-166"/>
<polygon fill="black" stroke="black" points="1776.12,-162.5 1766.12,-166 1776.12,-169.5 1776.12,-162.5"/>
</g>
<!-- E6 -->
<g id="node29" class="node">
<title>E6</title>
<polygon fill="lightgrey" stroke="black" stroke-width="0" points="1904,-184 1784,-184 1784,-148 1904,-148 1904,-184"/>
<text text-anchor="middle" x="1844" y="-162.3" font-family="sans-serif" font-size="14.00">E6 Destruction</text>
</g>
<!-- E64&#45;&gt;E6 -->
<g id="edge6" class="edge">
<title>E64&#45;&gt;E6</title>
<path fill="none" stroke="black" d="M1844,-280.79C1844,-280.79 1844,-194.42 1844,-194.42"/>
<polygon fill="black" stroke="black" points="1847.5,-194.42 1844,-184.42 1840.5,-194.42 1847.5,-194.42"/>
</g>
<!-- E68 -->
<g id="node30" class="node">
<title>E68</title>
<polygon fill="lightgrey" stroke="black" stroke-width="0" points="2047.5,-184 1922.5,-184 1922.5,-148 2047.5,-148 2047.5,-184"/>
<text text-anchor="middle" x="1985" y="-162.3" font-family="sans-serif" font-size="14.00">E68 Dissolution</text>
</g>
<!-- E64&#45;&gt;E68 -->
<g id="edge28" class="edge">
<title>E64&#45;&gt;E68</title>
<path fill="none" stroke="black" d="M1913.25,-280.79C1913.25,-244.36 1913.25,-166 1913.25,-166 1913.25,-166 1914.16,-166 1914.16,-166"/>
<polygon fill="black" stroke="black" points="1912.34,-169.5 1922.34,-166 1912.34,-162.5 1912.34,-169.5"/>
</g>
<!-- E69 -->
<g id="node31" class="node">
<title>E69</title>
<polygon fill="lightgrey" stroke="black" stroke-width="0" points="2156.5,-184 2065.5,-184 2065.5,-148 2156.5,-148 2156.5,-184"/>
<text text-anchor="middle" x="2111" y="-162.3" font-family="sans-serif" font-size="14.00">E69 Death</text>
</g>
<!-- E64&#45;&gt;E69 -->
<g id="edge29" class="edge">
<title>E64&#45;&gt;E69</title>
<path fill="none" stroke="black" d="M1925.2,-299C2003.75,-299 2111,-299 2111,-299 2111,-299 2111,-194.21 2111,-194.21"/>
<polygon fill="black" stroke="black" points="2114.5,-194.21 2111,-184.21 2107.5,-194.21 2114.5,-194.21"/>
</g>
<!-- E92 -->
<g id="node32" class="node">
<title>E92</title>
<polygon fill="lightgrey" stroke="black" stroke-width="0" points="1651,-715 1475,-715 1475,-679 1651,-679 1651,-715"/>
<text text-anchor="middle" x="1563" y="-693.3" font-family="sans-serif" font-size="14.00">E92 Spacetime Volume</text>
</g>
<!-- E92&#45;&gt;E4 -->
<g id="edge4" class="edge">
<title>E92&#45;&gt;E4</title>
<path fill="none" stroke="black" d="M1499.25,-678.79C1499.25,-678.79 1499.25,-592.42 1499.25,-592.42"/>
<polygon fill="black" stroke="black" points="1502.75,-592.42 1499.25,-582.42 1495.75,-592.42 1502.75,-592.42"/>
</g>
<!-- E93 -->
<g id="node33" class="node">
<title>E93</title>
<polygon fill="lightgrey" stroke="black" stroke-width="0" points="1652,-582 1542,-582 1542,-546 1652,-546 1652,-582"/>
<text text-anchor="middle" x="1597" y="-560.3" font-family="sans-serif" font-size="14.00">E93 Presence</text>
</g>
<!-- E92&#45;&gt;E93 -->
<g id="edge39" class="edge">
<title>E92&#45;&gt;E93</title>
<path fill="none" stroke="black" d="M1596.5,-678.79C1596.5,-678.79 1596.5,-592.42 1596.5,-592.42"/>
<polygon fill="black" stroke="black" points="1600,-592.42 1596.5,-582.42 1593,-592.42 1600,-592.42"/>
</g>
<!-- E52 -->
<g id="node34" class="node">
<title>E52</title>
<polygon fill="#557baf" stroke="black" stroke-width="0" points="1791,-715 1669,-715 1669,-679 1791,-679 1791,-715"/>
<text text-anchor="middle" x="1730" y="-693.3" font-family="sans-serif" font-size="14.00" fill="#f6f3ed">E52 Time&#45;Span</text>
</g>
<!-- E54 -->
<g id="node35" class="node">
<title>E54</title>
<polygon fill="#242629" stroke="black" stroke-width="0" points="1930.5,-715 1809.5,-715 1809.5,-679 1930.5,-679 1930.5,-715"/>
<text text-anchor="middle" x="1870" y="-693.3" font-family="sans-serif" font-size="14.00" fill="#fffaf0">E54 Dimension</text>
</g>
<!-- E97 -->
<g id="node36" class="node">
<title>E97</title>
<polygon fill="lightgrey" stroke="black" stroke-width="0" points="1956.5,-582 1783.5,-582 1783.5,-546 1956.5,-546 1956.5,-582"/>
<text text-anchor="middle" x="1870" y="-560.3" font-family="sans-serif" font-size="14.00">E97 Monetary Amount</text>
</g>
<!-- E54&#45;&gt;E97 -->
<g id="edge41" class="edge">
<title>E54&#45;&gt;E97</title>
<path fill="none" stroke="black" d="M1870,-678.79C1870,-678.79 1870,-592.42 1870,-592.42"/>
<polygon fill="black" stroke="black" points="1873.5,-592.42 1870,-582.42 1866.5,-592.42 1873.5,-592.42"/>
</g>
<!-- E1 -->
<g id="node37" class="node">
<title>E1</title>
<polygon fill="lightgrey" stroke="black" stroke-width="0" points="1704.5,-847 1587.5,-847 1587.5,-811 1704.5,-811 1704.5,-847"/>
<text text-anchor="middle" x="1646" y="-825.3" font-family="sans-serif" font-size="14.00">E1 CRM Entity</text>
</g>
<!-- E1&#45;&gt;E2 -->
<g id="edge1" class="edge">
<title>E1&#45;&gt;E2</title>
<path fill="none" stroke="black" d="M1587.41,-829C1509.63,-829 1382,-829 1382,-829 1382,-829 1382,-725.08 1382,-725.08"/>
<polygon fill="black" stroke="black" points="1385.5,-725.08 1382,-715.08 1378.5,-725.08 1385.5,-725.08"/>
</g>
<!-- E1&#45;&gt;E92 -->
<g id="edge38" class="edge">
<title>E1&#45;&gt;E92</title>
<path fill="none" stroke="black" d="M1619.25,-810.92C1619.25,-810.92 1619.25,-725.28 1619.25,-725.28"/>
<polygon fill="black" stroke="black" points="1622.75,-725.28 1619.25,-715.28 1615.75,-725.28 1622.75,-725.28"/>
</g>
<!-- E1&#45;&gt;E52 -->
<g id="edge19" class="edge">
<title>E1&#45;&gt;E52</title>
<path fill="none" stroke="black" d="M1686.75,-810.92C1686.75,-810.92 1686.75,-725.28 1686.75,-725.28"/>
<polygon fill="black" stroke="black" points="1690.25,-725.28 1686.75,-715.28 1683.25,-725.28 1690.25,-725.28"/>
</g>
<!-- E1&#45;&gt;E54 -->
<g id="edge20" class="edge">
<title>E1&#45;&gt;E54</title>
<path fill="none" stroke="black" d="M1704.56,-829C1770.93,-829 1870,-829 1870,-829 1870,-829 1870,-725.08 1870,-725.08"/>
<polygon fill="black" stroke="black" points="1873.5,-725.08 1870,-715.08 1866.5,-725.08 1873.5,-725.08"/>
</g>
</g>
</svg>
