<?xml version="1.0" encoding="UTF-8" standalone="no"?>
<!DOCTYPE svg PUBLIC "-//W3C//DTD SVG 1.1//EN"
 "http://www.w3.org/Graphics/SVG/1.1/DTD/svg11.dtd">
<!-- Generated by graphviz version 2.50.0 (20211204.2007)
 -->
<!-- Title: CIDOC Pages: 1 -->
<svg width="2857pt" height="692pt"
 viewBox="0.00 0.00 2857.00 692.00" xmlns="http://www.w3.org/2000/svg" xmlns:xlink="http://www.w3.org/1999/xlink">
<g id="graph0" class="graph" transform="scale(1 1) rotate(0) translate(4 688)">
<title>CIDOC</title>
<!-- E53 -->
<g id="node1" class="node">
<title>E53</title>
<polygon fill="#242629" stroke="black" stroke-width="0" points="707,-612 623,-612 623,-576 707,-576 707,-612"/>
<text text-anchor="middle" x="665" y="-590.3" font-family="sans-serif" font-size="14.00" fill="#fffaf0">E53 Place</text>
</g>
<!-- E77 -->
<g id="node2" class="node">
<title>E77</title>
<polygon fill="#6496d8" stroke="black" stroke-width="0" points="1911,-612 1757,-612 1757,-576 1911,-576 1911,-612"/>
<text text-anchor="middle" x="1834" y="-590.3" font-family="sans-serif" font-size="14.00" fill="#f3f1ec">E77 Persistent Item</text>
</g>
<!-- E39 -->
<g id="node3" class="node">
<title>E39</title>
<polygon fill="#6495d7" stroke="black" stroke-width="0" points="2550.5,-540 2465.5,-540 2465.5,-504 2550.5,-504 2550.5,-540"/>
<text text-anchor="middle" x="2508" y="-518.3" font-family="sans-serif" font-size="14.00" fill="#f3f1ec">E39 Actor</text>
</g>
<!-- E77&#45;&gt;E39 -->
<g id="edge26" class="edge">
<title>E77&#45;&gt;E39</title>
<path fill="none" stroke="black" d="M1894.25,-575.83C1894.25,-554.5 1894.25,-522 1894.25,-522 1894.25,-522 2455.33,-522 2455.33,-522"/>
<polygon fill="black" stroke="black" points="2455.33,-525.5 2465.33,-522 2455.33,-518.5 2455.33,-525.5"/>
</g>
<!-- E70 -->
<g id="node6" class="node">
<title>E70</title>
<polygon fill="lightgrey" stroke="black" stroke-width="0" points="1877.5,-540 1790.5,-540 1790.5,-504 1877.5,-504 1877.5,-540"/>
<text text-anchor="middle" x="1834" y="-518.3" font-family="sans-serif" font-size="14.00">E70 Thing</text>
</g>
<!-- E77&#45;&gt;E70 -->
<g id="edge39" class="edge">
<title>E77&#45;&gt;E70</title>
<path fill="none" stroke="black" d="M1834,-575.83C1834,-575.83 1834,-550.41 1834,-550.41"/>
<polygon fill="black" stroke="black" points="1837.5,-550.41 1834,-540.41 1830.5,-550.41 1837.5,-550.41"/>
</g>
<!-- E21 -->
<g id="node4" class="node">
<title>E21</title>
<polygon fill="#242629" stroke="black" stroke-width="0" points="2569.5,-180 2474.5,-180 2474.5,-144 2569.5,-144 2569.5,-180"/>
<text text-anchor="middle" x="2522" y="-158.3" font-family="sans-serif" font-size="14.00" fill="#fffaf0">E21 Person</text>
</g>
<!-- E39&#45;&gt;E21 -->
<g id="edge5" class="edge">
<title>E39&#45;&gt;E21</title>
<path fill="none" stroke="black" d="M2550.52,-522C2601.45,-522 2680,-522 2680,-522 2680,-522 2680,-162 2680,-162 2680,-162 2579.83,-162 2579.83,-162"/>
<polygon fill="black" stroke="black" points="2579.83,-158.5 2569.83,-162 2579.83,-165.5 2579.83,-158.5"/>
</g>
<!-- E74 -->
<g id="node5" class="node">
<title>E74</title>
<polygon fill="#354458" stroke="black" stroke-width="0" points="2553.5,-468 2462.5,-468 2462.5,-432 2553.5,-432 2553.5,-468"/>
<text text-anchor="middle" x="2508" y="-446.3" font-family="sans-serif" font-size="14.00" fill="#fcf8ef">E74 Group</text>
</g>
<!-- E39&#45;&gt;E74 -->
<g id="edge44" class="edge">
<title>E39&#45;&gt;E74</title>
<path fill="none" stroke="black" d="M2508,-503.83C2508,-503.83 2508,-478.41 2508,-478.41"/>
<polygon fill="black" stroke="black" points="2511.5,-478.41 2508,-468.41 2504.5,-478.41 2511.5,-478.41"/>
</g>
<!-- E71 -->
<g id="node7" class="node">
<title>E71</title>
<polygon fill="lightgrey" stroke="black" stroke-width="0" points="2014.5,-468 1831.5,-468 1831.5,-432 2014.5,-432 2014.5,-468"/>
<text text-anchor="middle" x="1923" y="-446.3" font-family="sans-serif" font-size="14.00">E71 Human&#45;Made Thing</text>
</g>
<!-- E70&#45;&gt;E71 -->
<g id="edge40" class="edge">
<title>E70&#45;&gt;E71</title>
<path fill="none" stroke="black" d="M1854.5,-503.83C1854.5,-503.83 1854.5,-478.41 1854.5,-478.41"/>
<polygon fill="black" stroke="black" points="1858,-478.41 1854.5,-468.41 1851,-478.41 1858,-478.41"/>
</g>
<!-- E72 -->
<g id="node36" class="node">
<title>E72</title>
<polygon fill="lightgrey" stroke="black" stroke-width="0" points="1813,-468 1679,-468 1679,-432 1813,-432 1813,-468"/>
<text text-anchor="middle" x="1746" y="-446.3" font-family="sans-serif" font-size="14.00">E72 Legal Object</text>
</g>
<!-- E70&#45;&gt;E72 -->
<g id="edge41" class="edge">
<title>E70&#45;&gt;E72</title>
<path fill="none" stroke="black" d="M1801.75,-503.83C1801.75,-503.83 1801.75,-478.41 1801.75,-478.41"/>
<polygon fill="black" stroke="black" points="1805.25,-478.41 1801.75,-468.41 1798.25,-478.41 1805.25,-478.41"/>
</g>
<!-- E24 -->
<g id="node8" class="node">
<title>E24</title>
<polygon fill="lightgrey" stroke="black" stroke-width="0" points="2544.5,-324 2301.5,-324 2301.5,-288 2544.5,-288 2544.5,-324"/>
<text text-anchor="middle" x="2423" y="-302.3" font-family="sans-serif" font-size="14.00">E24 Physical Human&#45;Made Thing</text>
</g>
<!-- E71&#45;&gt;E24 -->
<g id="edge9" class="edge">
<title>E71&#45;&gt;E24</title>
<path fill="none" stroke="black" d="M2014.67,-450C2155.46,-450 2408.83,-450 2408.83,-450 2408.83,-450 2408.83,-334.24 2408.83,-334.24"/>
<polygon fill="black" stroke="black" points="2412.33,-334.24 2408.83,-324.24 2405.33,-334.24 2412.33,-334.24"/>
</g>
<!-- E28 -->
<g id="node12" class="node">
<title>E28</title>
<polygon fill="#242629" stroke="black" stroke-width="0" points="1589,-396 1415,-396 1415,-360 1589,-360 1589,-396"/>
<text text-anchor="middle" x="1502" y="-374.3" font-family="sans-serif" font-size="14.00" fill="#fffaf0">E28 Conceptual Object</text>
</g>
<!-- E71&#45;&gt;E28 -->
<g id="edge14" class="edge">
<title>E71&#45;&gt;E28</title>
<path fill="none" stroke="black" d="M1874.33,-431.97C1874.33,-412.42 1874.33,-384 1874.33,-384 1874.33,-384 1599.3,-384 1599.3,-384"/>
<polygon fill="black" stroke="black" points="1599.3,-380.5 1589.3,-384 1599.3,-387.5 1599.3,-380.5"/>
</g>
<!-- E22 -->
<g id="node9" class="node">
<title>E22</title>
<polygon fill="lightgrey" stroke="black" stroke-width="0" points="2671,-252 2483,-252 2483,-216 2671,-216 2671,-252"/>
<text text-anchor="middle" x="2577" y="-230.3" font-family="sans-serif" font-size="14.00">E22 Human&#45;Made Object</text>
</g>
<!-- E24&#45;&gt;E22 -->
<g id="edge7" class="edge">
<title>E24&#45;&gt;E22</title>
<path fill="none" stroke="black" d="M2524,-287.83C2524,-287.83 2524,-262.41 2524,-262.41"/>
<polygon fill="black" stroke="black" points="2527.5,-262.41 2524,-252.41 2520.5,-262.41 2527.5,-262.41"/>
</g>
<!-- E25 -->
<g id="node10" class="node">
<title>E25</title>
<polygon fill="lightgrey" stroke="black" stroke-width="0" points="2465,-252 2267,-252 2267,-216 2465,-216 2465,-252"/>
<text text-anchor="middle" x="2366" y="-230.3" font-family="sans-serif" font-size="14.00">E25 Human&#45;Made Feature</text>
</g>
<!-- E24&#45;&gt;E25 -->
<g id="edge10" class="edge">
<title>E24&#45;&gt;E25</title>
<path fill="none" stroke="black" d="M2383.25,-287.83C2383.25,-287.83 2383.25,-262.41 2383.25,-262.41"/>
<polygon fill="black" stroke="black" points="2386.75,-262.41 2383.25,-252.41 2379.75,-262.41 2386.75,-262.41"/>
</g>
<!-- E78 -->
<g id="node11" class="node">
<title>E78</title>
<polygon fill="#242629" stroke="black" stroke-width="0" points="2849,-252 2689,-252 2689,-216 2849,-216 2849,-252"/>
<text text-anchor="middle" x="2769" y="-230.3" font-family="sans-serif" font-size="14.00" fill="#fffaf0">E78 Curated Holding</text>
</g>
<!-- E24&#45;&gt;E78 -->
<g id="edge46" class="edge">
<title>E24&#45;&gt;E78</title>
<path fill="none" stroke="black" d="M2544.5,-306C2644.2,-306 2769,-306 2769,-306 2769,-306 2769,-262.17 2769,-262.17"/>
<polygon fill="black" stroke="black" points="2772.5,-262.17 2769,-252.17 2765.5,-262.17 2772.5,-262.17"/>
</g>
<!-- E55 -->
<g id="node13" class="node">
<title>E55</title>
<polygon fill="#2f3846" stroke="black" stroke-width="0" points="1679,-324 1597,-324 1597,-288 1679,-288 1679,-324"/>
<text text-anchor="middle" x="1638" y="-302.3" font-family="sans-serif" font-size="14.00" fill="#fdf8ef">E55 Type</text>
</g>
<!-- E28&#45;&gt;E55 -->
<g id="edge30" class="edge">
<title>E28&#45;&gt;E55</title>
<path fill="none" stroke="black" d="M1584.5,-359.97C1584.5,-340.42 1584.5,-312 1584.5,-312 1584.5,-312 1586.91,-312 1586.91,-312"/>
<polygon fill="black" stroke="black" points="1586.91,-315.5 1596.91,-312 1586.91,-308.5 1586.91,-315.5"/>
</g>
<!-- E89 -->
<g id="node19" class="node">
<title>E89</title>
<polygon fill="lightgrey" stroke="black" stroke-width="0" points="1459,-324 1273,-324 1273,-288 1459,-288 1459,-324"/>
<text text-anchor="middle" x="1366" y="-302.3" font-family="sans-serif" font-size="14.00">E89 Propositional Object</text>
</g>
<!-- E28&#45;&gt;E89 -->
<g id="edge47" class="edge">
<title>E28&#45;&gt;E89</title>
<path fill="none" stroke="black" d="M1437,-359.83C1437,-359.83 1437,-334.41 1437,-334.41"/>
<polygon fill="black" stroke="black" points="1440.5,-334.41 1437,-324.41 1433.5,-334.41 1440.5,-334.41"/>
</g>
<!-- E90 -->
<g id="node30" class="node">
<title>E90</title>
<polygon fill="lightgrey" stroke="black" stroke-width="0" points="1255,-324 1097,-324 1097,-288 1255,-288 1255,-324"/>
<text text-anchor="middle" x="1176" y="-302.3" font-family="sans-serif" font-size="14.00">E90 Symbolic Object</text>
</g>
<!-- E28&#45;&gt;E90 -->
<g id="edge48" class="edge">
<title>E28&#45;&gt;E90</title>
<path fill="none" stroke="black" d="M1414.92,-378C1326.44,-378 1202.33,-378 1202.33,-378 1202.33,-378 1202.33,-334.17 1202.33,-334.17"/>
<polygon fill="black" stroke="black" points="1205.83,-334.17 1202.33,-324.17 1198.83,-334.17 1205.83,-334.17"/>
</g>
<!-- E56 -->
<g id="node14" class="node">
<title>E56</title>
<polygon fill="lightgrey" stroke="black" stroke-width="0" points="1696,-252 1580,-252 1580,-216 1696,-216 1696,-252"/>
<text text-anchor="middle" x="1638" y="-230.3" font-family="sans-serif" font-size="14.00">E56 Language</text>
</g>
<!-- E55&#45;&gt;E56 -->
<g id="edge31" class="edge">
<title>E55&#45;&gt;E56</title>
<path fill="none" stroke="black" d="M1638,-287.83C1638,-287.83 1638,-262.41 1638,-262.41"/>
<polygon fill="black" stroke="black" points="1641.5,-262.41 1638,-252.41 1634.5,-262.41 1641.5,-262.41"/>
</g>
<!-- E57 -->
<g id="node15" class="node">
<title>E57</title>
<polygon fill="#6598db" stroke="black" stroke-width="0" points="1818,-252 1714,-252 1714,-216 1818,-216 1818,-252"/>
<text text-anchor="middle" x="1766" y="-230.3" font-family="sans-serif" font-size="14.00" fill="#f3f1ec">E57 Material</text>
</g>
<!-- E55&#45;&gt;E57 -->
<g id="edge32" class="edge">
<title>E55&#45;&gt;E57</title>
<path fill="none" stroke="black" d="M1679.07,-300C1721.01,-300 1780,-300 1780,-300 1780,-300 1780,-262.03 1780,-262.03"/>
<polygon fill="black" stroke="black" points="1783.5,-262.03 1780,-252.03 1776.5,-262.03 1783.5,-262.03"/>
</g>
<!-- E58 -->
<g id="node16" class="node">
<title>E58</title>
<polygon fill="lightgrey" stroke="black" stroke-width="0" points="1562,-252 1386,-252 1386,-216 1562,-216 1562,-252"/>
<text text-anchor="middle" x="1474" y="-230.3" font-family="sans-serif" font-size="14.00">E58 Measurement Unit</text>
</g>
<!-- E55&#45;&gt;E58 -->
<g id="edge33" class="edge">
<title>E55&#45;&gt;E58</title>
<path fill="none" stroke="black" d="M1596.96,-300C1559.68,-300 1510.5,-300 1510.5,-300 1510.5,-300 1510.5,-262.03 1510.5,-262.03"/>
<polygon fill="black" stroke="black" points="1514,-262.03 1510.5,-252.03 1507,-262.03 1514,-262.03"/>
</g>
<!-- E99 -->
<g id="node18" class="node">
<title>E99</title>
<polygon fill="#6699dc" stroke="black" stroke-width="0" points="1976,-252 1836,-252 1836,-216 1976,-216 1976,-252"/>
<text text-anchor="middle" x="1906" y="-230.3" font-family="sans-serif" font-size="14.00" fill="#f3f0eb">E99 Product Type</text>
</g>
<!-- E55&#45;&gt;E99 -->
<g id="edge55" class="edge">
<title>E55&#45;&gt;E99</title>
<path fill="none" stroke="black" d="M1679.12,-312C1755.74,-312 1912.67,-312 1912.67,-312 1912.67,-312 1912.67,-262.09 1912.67,-262.09"/>
<polygon fill="black" stroke="black" points="1916.17,-262.09 1912.67,-252.09 1909.17,-262.09 1916.17,-262.09"/>
</g>
<!-- E98 -->
<g id="node17" class="node">
<title>E98</title>
<polygon fill="lightgrey" stroke="black" stroke-width="0" points="1716.5,-180 1605.5,-180 1605.5,-144 1716.5,-144 1716.5,-180"/>
<text text-anchor="middle" x="1661" y="-158.3" font-family="sans-serif" font-size="14.00">E98 Currency</text>
</g>
<!-- E58&#45;&gt;E98 -->
<g id="edge54" class="edge">
<title>E58&#45;&gt;E98</title>
<path fill="none" stroke="black" d="M1530.83,-215.58C1530.83,-206.72 1530.83,-198 1530.83,-198 1530.83,-198 1650.75,-198 1650.75,-198 1650.75,-198 1650.75,-190.42 1650.75,-190.42"/>
<polygon fill="black" stroke="black" points="1654.25,-190.42 1650.75,-180.42 1647.25,-190.42 1654.25,-190.42"/>
</g>
<!-- E30 -->
<g id="node20" class="node">
<title>E30</title>
<polygon fill="lightgrey" stroke="black" stroke-width="0" points="1367.5,-252 1282.5,-252 1282.5,-216 1367.5,-216 1367.5,-252"/>
<text text-anchor="middle" x="1325" y="-230.3" font-family="sans-serif" font-size="14.00">E30 Right</text>
</g>
<!-- E89&#45;&gt;E30 -->
<g id="edge16" class="edge">
<title>E89&#45;&gt;E30</title>
<path fill="none" stroke="black" d="M1325,-287.83C1325,-287.83 1325,-262.41 1325,-262.41"/>
<polygon fill="black" stroke="black" points="1328.5,-262.41 1325,-252.41 1321.5,-262.41 1328.5,-262.41"/>
</g>
<!-- E73 -->
<g id="node21" class="node">
<title>E73</title>
<polygon fill="#5881b7" stroke="black" stroke-width="0" points="1264.5,-252 1087.5,-252 1087.5,-216 1264.5,-216 1264.5,-252"/>
<text text-anchor="middle" x="1176" y="-230.3" font-family="sans-serif" font-size="14.00" fill="#f5f2ec">E73 Information Object</text>
</g>
<!-- E89&#45;&gt;E73 -->
<g id="edge42" class="edge">
<title>E89&#45;&gt;E73</title>
<path fill="none" stroke="black" d="M1279.33,-287.97C1279.33,-268.42 1279.33,-240 1279.33,-240 1279.33,-240 1274.53,-240 1274.53,-240"/>
<polygon fill="black" stroke="black" points="1274.53,-236.5 1264.53,-240 1274.53,-243.5 1274.53,-236.5"/>
</g>
<!-- E29 -->
<g id="node22" class="node">
<title>E29</title>
<polygon fill="#6394d5" stroke="black" stroke-width="0" points="1270,-180 1082,-180 1082,-144 1270,-144 1270,-180"/>
<text text-anchor="middle" x="1176" y="-158.3" font-family="sans-serif" font-size="14.00" fill="#f3f1ec">E29 Design or Procedure</text>
</g>
<!-- E73&#45;&gt;E29 -->
<g id="edge15" class="edge">
<title>E73&#45;&gt;E29</title>
<path fill="none" stroke="black" d="M1146.5,-215.83C1146.5,-215.83 1146.5,-190.41 1146.5,-190.41"/>
<polygon fill="black" stroke="black" points="1150,-190.41 1146.5,-180.41 1143,-190.41 1150,-190.41"/>
</g>
<!-- E31 -->
<g id="node23" class="node">
<title>E31</title>
<polygon fill="#6598dc" stroke="black" stroke-width="0" points="1587.5,-180 1468.5,-180 1468.5,-144 1587.5,-144 1587.5,-180"/>
<text text-anchor="middle" x="1528" y="-158.3" font-family="sans-serif" font-size="14.00" fill="#f3f0ec">E31 Document</text>
</g>
<!-- E73&#45;&gt;E31 -->
<g id="edge17" class="edge">
<title>E73&#45;&gt;E31</title>
<path fill="none" stroke="black" d="M1205.5,-215.96C1205.5,-203.44 1205.5,-189 1205.5,-189 1205.5,-189 1499.67,-189 1499.67,-189 1499.67,-189 1499.67,-188.12 1499.67,-188.12"/>
<polygon fill="black" stroke="black" points="1503.17,-190.16 1499.67,-180.16 1496.17,-190.16 1503.17,-190.16"/>
</g>
<!-- E33 -->
<g id="node25" class="node">
<title>E33</title>
<polygon fill="lightgrey" stroke="black" stroke-width="0" points="1450,-180 1288,-180 1288,-144 1450,-144 1450,-180"/>
<text text-anchor="middle" x="1369" y="-158.3" font-family="sans-serif" font-size="14.00">E33 Linguistic Object</text>
</g>
<!-- E73&#45;&gt;E33 -->
<g id="edge19" class="edge">
<title>E73&#45;&gt;E33</title>
<path fill="none" stroke="black" d="M1264.68,-228C1271.71,-228 1276.17,-228 1276.17,-228 1276.17,-228 1276.17,-162 1276.17,-162 1276.17,-162 1277.92,-162 1277.92,-162"/>
<polygon fill="black" stroke="black" points="1277.92,-165.5 1287.92,-162 1277.92,-158.5 1277.92,-165.5"/>
</g>
<!-- E36 -->
<g id="node28" class="node">
<title>E36</title>
<polygon fill="lightgrey" stroke="black" stroke-width="0" points="1063.5,-180 938.5,-180 938.5,-144 1063.5,-144 1063.5,-180"/>
<text text-anchor="middle" x="1001" y="-158.3" font-family="sans-serif" font-size="14.00">E36 Visual Item</text>
</g>
<!-- E73&#45;&gt;E36 -->
<g id="edge24" class="edge">
<title>E73&#45;&gt;E36</title>
<path fill="none" stroke="black" d="M1087.47,-228C1044.07,-228 1001,-228 1001,-228 1001,-228 1001,-190.03 1001,-190.03"/>
<polygon fill="black" stroke="black" points="1004.5,-190.03 1001,-180.03 997.5,-190.03 1004.5,-190.03"/>
</g>
<!-- E32 -->
<g id="node24" class="node">
<title>E32</title>
<polygon fill="lightgrey" stroke="black" stroke-width="0" points="1623,-108 1433,-108 1433,-72 1623,-72 1623,-108"/>
<text text-anchor="middle" x="1528" y="-86.3" font-family="sans-serif" font-size="14.00">E32 Authority Document</text>
</g>
<!-- E31&#45;&gt;E32 -->
<g id="edge18" class="edge">
<title>E31&#45;&gt;E32</title>
<path fill="none" stroke="black" d="M1528,-143.83C1528,-143.83 1528,-118.41 1528,-118.41"/>
<polygon fill="black" stroke="black" points="1531.5,-118.41 1528,-108.41 1524.5,-118.41 1531.5,-118.41"/>
</g>
<!-- E34 -->
<g id="node26" class="node">
<title>E34</title>
<polygon fill="lightgrey" stroke="black" stroke-width="0" points="1231,-36 1111,-36 1111,0 1231,0 1231,-36"/>
<text text-anchor="middle" x="1171" y="-14.3" font-family="sans-serif" font-size="14.00">E34 Inscription</text>
</g>
<!-- E33&#45;&gt;E34 -->
<g id="edge20" class="edge">
<title>E33&#45;&gt;E34</title>
<path fill="none" stroke="black" d="M1384.67,-143.76C1384.67,-105.01 1384.67,-18 1384.67,-18 1384.67,-18 1241.09,-18 1241.09,-18"/>
<polygon fill="black" stroke="black" points="1241.09,-14.5 1231.09,-18 1241.09,-21.5 1241.09,-14.5"/>
</g>
<!-- E35 -->
<g id="node27" class="node">
<title>E35</title>
<polygon fill="#3d526e" stroke="black" stroke-width="0" points="986.5,-108 907.5,-108 907.5,-72 986.5,-72 986.5,-108"/>
<text text-anchor="middle" x="947" y="-86.3" font-family="sans-serif" font-size="14.00" fill="#faf6ee">E35 Title</text>
</g>
<!-- E33&#45;&gt;E35 -->
<g id="edge22" class="edge">
<title>E33&#45;&gt;E35</title>
<path fill="none" stroke="black" d="M1336.33,-143.58C1336.33,-134.72 1336.33,-126 1336.33,-126 1336.33,-126 962.5,-126 962.5,-126 962.5,-126 962.5,-118.42 962.5,-118.42"/>
<polygon fill="black" stroke="black" points="966,-118.42 962.5,-108.42 959,-118.42 966,-118.42"/>
</g>
<!-- E37 -->
<g id="node29" class="node">
<title>E37</title>
<polygon fill="lightgrey" stroke="black" stroke-width="0" points="1159.5,-108 1076.5,-108 1076.5,-72 1159.5,-72 1159.5,-108"/>
<text text-anchor="middle" x="1118" y="-86.3" font-family="sans-serif" font-size="14.00">E37 Mark</text>
</g>
<!-- E36&#45;&gt;E37 -->
<g id="edge25" class="edge">
<title>E36&#45;&gt;E37</title>
<path fill="none" stroke="black" d="M1025,-143.83C1025,-122.5 1025,-90 1025,-90 1025,-90 1066.4,-90 1066.4,-90"/>
<polygon fill="black" stroke="black" points="1066.4,-93.5 1076.4,-90 1066.4,-86.5 1066.4,-93.5"/>
</g>
<!-- E37&#45;&gt;E34 -->
<g id="edge21" class="edge">
<title>E37&#45;&gt;E34</title>
<path fill="none" stroke="black" d="M1135.25,-71.83C1135.25,-71.83 1135.25,-46.41 1135.25,-46.41"/>
<polygon fill="black" stroke="black" points="1138.75,-46.41 1135.25,-36.41 1131.75,-46.41 1138.75,-46.41"/>
</g>
<!-- E90&#45;&gt;E73 -->
<g id="edge43" class="edge">
<title>E90&#45;&gt;E73</title>
<path fill="none" stroke="black" d="M1176,-287.83C1176,-287.83 1176,-262.41 1176,-262.41"/>
<polygon fill="black" stroke="black" points="1179.5,-262.41 1176,-252.41 1172.5,-262.41 1179.5,-262.41"/>
</g>
<!-- E41 -->
<g id="node31" class="node">
<title>E41</title>
<polygon fill="#4b6a93" stroke="black" stroke-width="0" points="815.5,-252 690.5,-252 690.5,-216 815.5,-216 815.5,-252"/>
<text text-anchor="middle" x="753" y="-230.3" font-family="sans-serif" font-size="14.00" fill="#f8f4ed">E41 Appellation</text>
</g>
<!-- E90&#45;&gt;E41 -->
<g id="edge27" class="edge">
<title>E90&#45;&gt;E41</title>
<path fill="none" stroke="black" d="M1096.76,-306C987.65,-306 804.5,-306 804.5,-306 804.5,-306 804.5,-262.17 804.5,-262.17"/>
<polygon fill="black" stroke="black" points="808,-262.17 804.5,-252.17 801,-262.17 808,-262.17"/>
</g>
<!-- E41&#45;&gt;E35 -->
<g id="edge23" class="edge">
<title>E41&#45;&gt;E35</title>
<path fill="none" stroke="black" d="M815.82,-240C864.25,-240 923,-240 923,-240 923,-240 923,-118.09 923,-118.09"/>
<polygon fill="black" stroke="black" points="926.5,-118.09 923,-108.09 919.5,-118.09 926.5,-118.09"/>
</g>
<!-- E42 -->
<g id="node32" class="node">
<title>E42</title>
<polygon fill="lightgrey" stroke="black" stroke-width="0" points="882,-180 772,-180 772,-144 882,-144 882,-180"/>
<text text-anchor="middle" x="827" y="-158.3" font-family="sans-serif" font-size="14.00">E42 Identifier</text>
</g>
<!-- E41&#45;&gt;E42 -->
<g id="edge28" class="edge">
<title>E41&#45;&gt;E42</title>
<path fill="none" stroke="black" d="M793.75,-215.83C793.75,-215.83 793.75,-190.41 793.75,-190.41"/>
<polygon fill="black" stroke="black" points="797.25,-190.41 793.75,-180.41 790.25,-190.41 797.25,-190.41"/>
</g>
<!-- E61 -->
<g id="node33" class="node">
<title>E61</title>
<polygon fill="lightgrey" stroke="black" stroke-width="0" points="754,-180 606,-180 606,-144 754,-144 754,-180"/>
<text text-anchor="middle" x="680" y="-158.3" font-family="sans-serif" font-size="14.00">E61 Time Primitive</text>
</g>
<!-- E41&#45;&gt;E61 -->
<g id="edge36" class="edge">
<title>E41&#45;&gt;E61</title>
<path fill="none" stroke="black" d="M732.83,-215.83C732.83,-215.83 732.83,-190.41 732.83,-190.41"/>
<polygon fill="black" stroke="black" points="736.33,-190.41 732.83,-180.41 729.33,-190.41 736.33,-190.41"/>
</g>
<!-- E94 -->
<g id="node34" class="node">
<title>E94</title>
<polygon fill="lightgrey" stroke="black" stroke-width="0" points="384.5,-180 229.5,-180 229.5,-144 384.5,-144 384.5,-180"/>
<text text-anchor="middle" x="307" y="-158.3" font-family="sans-serif" font-size="14.00">E94 Space Primitive</text>
</g>
<!-- E41&#45;&gt;E94 -->
<g id="edge50" class="edge">
<title>E41&#45;&gt;E94</title>
<path fill="none" stroke="black" d="M711.67,-215.84C711.67,-210.96 711.67,-207 711.67,-207 711.67,-207 364.5,-207 364.5,-207 364.5,-207 364.5,-190.04 364.5,-190.04"/>
<polygon fill="black" stroke="black" points="368,-190.04 364.5,-180.04 361,-190.04 368,-190.04"/>
</g>
<!-- E95 -->
<g id="node35" class="node">
<title>E95</title>
<polygon fill="lightgrey" stroke="black" stroke-width="0" points="587.5,-180 402.5,-180 402.5,-144 587.5,-144 587.5,-180"/>
<text text-anchor="middle" x="495" y="-158.3" font-family="sans-serif" font-size="14.00">E95 Spacetime Primitive</text>
</g>
<!-- E41&#45;&gt;E95 -->
<g id="edge52" class="edge">
<title>E41&#45;&gt;E95</title>
<path fill="none" stroke="black" d="M690.4,-240C625.21,-240 532.5,-240 532.5,-240 532.5,-240 532.5,-190.09 532.5,-190.09"/>
<polygon fill="black" stroke="black" points="536,-190.09 532.5,-180.09 529,-190.09 536,-190.09"/>
</g>
<!-- E72&#45;&gt;E90 -->
<g id="edge49" class="edge">
<title>E72&#45;&gt;E90</title>
<path fill="none" stroke="black" d="M1678.75,-450C1522.8,-450 1149.67,-450 1149.67,-450 1149.67,-450 1149.67,-334.24 1149.67,-334.24"/>
<polygon fill="black" stroke="black" points="1153.17,-334.24 1149.67,-324.24 1146.17,-334.24 1153.17,-334.24"/>
</g>
<!-- E18 -->
<g id="node37" class="node">
<title>E18</title>
<polygon fill="lightgrey" stroke="black" stroke-width="0" points="2177.5,-396 2030.5,-396 2030.5,-360 2177.5,-360 2177.5,-396"/>
<text text-anchor="middle" x="2104" y="-374.3" font-family="sans-serif" font-size="14.00">E18 Physical Thing</text>
</g>
<!-- E72&#45;&gt;E18 -->
<g id="edge1" class="edge">
<title>E72&#45;&gt;E18</title>
<path fill="none" stroke="black" d="M1747,-431.91C1747,-408.87 1747,-372 1747,-372 1747,-372 2020.46,-372 2020.46,-372"/>
<polygon fill="black" stroke="black" points="2020.46,-375.5 2030.46,-372 2020.46,-368.5 2020.46,-375.5"/>
</g>
<!-- E18&#45;&gt;E24 -->
<g id="edge8" class="edge">
<title>E18&#45;&gt;E24</title>
<path fill="none" stroke="black" d="M2177.66,-378C2251.77,-378 2355.17,-378 2355.17,-378 2355.17,-378 2355.17,-334.17 2355.17,-334.17"/>
<polygon fill="black" stroke="black" points="2358.67,-334.17 2355.17,-324.17 2351.67,-334.17 2358.67,-334.17"/>
</g>
<!-- E19 -->
<g id="node38" class="node">
<title>E19</title>
<polygon fill="#242629" stroke="black" stroke-width="0" points="2283,-324 2131,-324 2131,-288 2283,-288 2283,-324"/>
<text text-anchor="middle" x="2207" y="-302.3" font-family="sans-serif" font-size="14.00" fill="#fffaf0">E19 Physical Object</text>
</g>
<!-- E18&#45;&gt;E19 -->
<g id="edge2" class="edge">
<title>E18&#45;&gt;E19</title>
<path fill="none" stroke="black" d="M2154.25,-359.83C2154.25,-359.83 2154.25,-334.41 2154.25,-334.41"/>
<polygon fill="black" stroke="black" points="2157.75,-334.41 2154.25,-324.41 2150.75,-334.41 2157.75,-334.41"/>
</g>
<!-- E26 -->
<g id="node40" class="node">
<title>E26</title>
<polygon fill="lightgrey" stroke="black" stroke-width="0" points="2113,-324 1951,-324 1951,-288 2113,-288 2113,-324"/>
<text text-anchor="middle" x="2032" y="-302.3" font-family="sans-serif" font-size="14.00">E26 Physical Feature</text>
</g>
<!-- E18&#45;&gt;E26 -->
<g id="edge12" class="edge">
<title>E18&#45;&gt;E26</title>
<path fill="none" stroke="black" d="M2071.75,-359.83C2071.75,-359.83 2071.75,-334.41 2071.75,-334.41"/>
<polygon fill="black" stroke="black" points="2075.25,-334.41 2071.75,-324.41 2068.25,-334.41 2075.25,-334.41"/>
</g>
<!-- E19&#45;&gt;E22 -->
<g id="edge6" class="edge">
<title>E19&#45;&gt;E22</title>
<path fill="none" stroke="black" d="M2277.67,-287.86C2277.67,-281.54 2277.67,-276 2277.67,-276 2277.67,-276 2503.5,-276 2503.5,-276 2503.5,-276 2503.5,-262.06 2503.5,-262.06"/>
<polygon fill="black" stroke="black" points="2507,-262.06 2503.5,-252.06 2500,-262.06 2507,-262.06"/>
</g>
<!-- E20 -->
<g id="node39" class="node">
<title>E20</title>
<polygon fill="#242629" stroke="black" stroke-width="0" points="2248.5,-252 2087.5,-252 2087.5,-216 2248.5,-216 2248.5,-252"/>
<text text-anchor="middle" x="2168" y="-230.3" font-family="sans-serif" font-size="14.00" fill="#fffaf0">E20 Biological Object</text>
</g>
<!-- E19&#45;&gt;E20 -->
<g id="edge3" class="edge">
<title>E19&#45;&gt;E20</title>
<path fill="none" stroke="black" d="M2189.75,-287.83C2189.75,-287.83 2189.75,-262.41 2189.75,-262.41"/>
<polygon fill="black" stroke="black" points="2193.25,-262.41 2189.75,-252.41 2186.25,-262.41 2193.25,-262.41"/>
</g>
<!-- E20&#45;&gt;E21 -->
<g id="edge4" class="edge">
<title>E20&#45;&gt;E21</title>
<path fill="none" stroke="black" d="M2168,-215.83C2168,-194.5 2168,-162 2168,-162 2168,-162 2464.26,-162 2464.26,-162"/>
<polygon fill="black" stroke="black" points="2464.26,-165.5 2474.26,-162 2464.26,-158.5 2464.26,-165.5"/>
</g>
<!-- E26&#45;&gt;E25 -->
<g id="edge11" class="edge">
<title>E26&#45;&gt;E25</title>
<path fill="none" stroke="black" d="M2100.25,-287.94C2100.25,-276.56 2100.25,-264 2100.25,-264 2100.25,-264 2272.33,-264 2272.33,-264 2272.33,-264 2272.33,-262.14 2272.33,-262.14"/>
<polygon fill="black" stroke="black" points="2275.83,-262.14 2272.33,-252.14 2268.83,-262.14 2275.83,-262.14"/>
</g>
<!-- E27 -->
<g id="node41" class="node">
<title>E27</title>
<polygon fill="lightgrey" stroke="black" stroke-width="0" points="2069.5,-252 1994.5,-252 1994.5,-216 2069.5,-216 2069.5,-252"/>
<text text-anchor="middle" x="2032" y="-230.3" font-family="sans-serif" font-size="14.00">E27 Site</text>
</g>
<!-- E26&#45;&gt;E27 -->
<g id="edge13" class="edge">
<title>E26&#45;&gt;E27</title>
<path fill="none" stroke="black" d="M2032,-287.83C2032,-287.83 2032,-262.41 2032,-262.41"/>
<polygon fill="black" stroke="black" points="2035.5,-262.41 2032,-252.41 2028.5,-262.41 2035.5,-262.41"/>
</g>
<!-- E59 -->
<g id="node42" class="node">
<title>E59</title>
<polygon fill="lightgrey" stroke="black" stroke-width="0" points="477.5,-252 324.5,-252 324.5,-216 477.5,-216 477.5,-252"/>
<text text-anchor="middle" x="401" y="-230.3" font-family="sans-serif" font-size="14.00">E59 Primitive Value</text>
</g>
<!-- E59&#45;&gt;E61 -->
<g id="edge37" class="edge">
<title>E59&#45;&gt;E61</title>
<path fill="none" stroke="black" d="M477.78,-228C538.99,-228 614.5,-228 614.5,-228 614.5,-228 614.5,-190.03 614.5,-190.03"/>
<polygon fill="black" stroke="black" points="618,-190.03 614.5,-180.03 611,-190.03 618,-190.03"/>
</g>
<!-- E59&#45;&gt;E94 -->
<g id="edge51" class="edge">
<title>E59&#45;&gt;E94</title>
<path fill="none" stroke="black" d="M344.5,-215.83C344.5,-215.83 344.5,-190.41 344.5,-190.41"/>
<polygon fill="black" stroke="black" points="348,-190.41 344.5,-180.41 341,-190.41 348,-190.41"/>
</g>
<!-- E59&#45;&gt;E95 -->
<g id="edge53" class="edge">
<title>E59&#45;&gt;E95</title>
<path fill="none" stroke="black" d="M440,-215.83C440,-215.83 440,-190.41 440,-190.41"/>
<polygon fill="black" stroke="black" points="443.5,-190.41 440,-180.41 436.5,-190.41 443.5,-190.41"/>
</g>
<!-- E60 -->
<g id="node43" class="node">
<title>E60</title>
<polygon fill="#242629" stroke="black" stroke-width="0" points="211.5,-180 108.5,-180 108.5,-144 211.5,-144 211.5,-180"/>
<text text-anchor="middle" x="160" y="-158.3" font-family="sans-serif" font-size="14.00" fill="#fffaf0">E60 Number</text>
</g>
<!-- E59&#45;&gt;E60 -->
<g id="edge35" class="edge">
<title>E59&#45;&gt;E60</title>
<path fill="none" stroke="black" d="M324.41,-228C253.85,-228 160,-228 160,-228 160,-228 160,-190.03 160,-190.03"/>
<polygon fill="black" stroke="black" points="163.5,-190.03 160,-180.03 156.5,-190.03 163.5,-190.03"/>
</g>
<!-- E62 -->
<g id="node44" class="node">
<title>E62</title>
<polygon fill="lightgrey" stroke="black" stroke-width="0" points="90,-180 0,-180 0,-144 90,-144 90,-180"/>
<text text-anchor="middle" x="45" y="-158.3" font-family="sans-serif" font-size="14.00">E62 String</text>
</g>
<!-- E59&#45;&gt;E62 -->
<g id="edge38" class="edge">
<title>E59&#45;&gt;E62</title>
<path fill="none" stroke="black" d="M324.19,-240C219.54,-240 45,-240 45,-240 45,-240 45,-190.09 45,-190.09"/>
<polygon fill="black" stroke="black" points="48.5,-190.09 45,-180.09 41.5,-190.09 48.5,-190.09"/>
</g>
<!-- E1 -->
<g id="node45" class="node">
<title>E1</title>
<polygon fill="lightgrey" stroke="black" stroke-width="0" points="793.5,-684 676.5,-684 676.5,-648 793.5,-648 793.5,-684"/>
<text text-anchor="middle" x="735" y="-662.3" font-family="sans-serif" font-size="14.00">E1 CRM Entity</text>
</g>
<!-- E1&#45;&gt;E53 -->
<g id="edge29" class="edge">
<title>E1&#45;&gt;E53</title>
<path fill="none" stroke="black" d="M691.75,-647.83C691.75,-647.83 691.75,-622.41 691.75,-622.41"/>
<polygon fill="black" stroke="black" points="695.25,-622.41 691.75,-612.41 688.25,-622.41 695.25,-622.41"/>
</g>
<!-- E1&#45;&gt;E77 -->
<g id="edge45" class="edge">
<title>E1&#45;&gt;E77</title>
<path fill="none" stroke="black" d="M750.25,-647.83C750.25,-626.5 750.25,-594 750.25,-594 750.25,-594 1746.93,-594 1746.93,-594"/>
<polygon fill="black" stroke="black" points="1746.93,-597.5 1756.93,-594 1746.93,-590.5 1746.93,-597.5"/>
</g>
<!-- E1&#45;&gt;E59 -->
<g id="edge34" class="edge">
<title>E1&#45;&gt;E59</title>
<path fill="none" stroke="black" d="M676.44,-666C580.65,-666 401,-666 401,-666 401,-666 401,-262.01 401,-262.01"/>
<polygon fill="black" stroke="black" points="404.5,-262.01 401,-252.01 397.5,-262.01 404.5,-262.01"/>
</g>
</g>
</svg>
