<?xml version="1.0" encoding="UTF-8" standalone="no"?>
<!DOCTYPE svg PUBLIC "-//W3C//DTD SVG 1.1//EN"
 "http://www.w3.org/Graphics/SVG/1.1/DTD/svg11.dtd">
<!-- Generated by graphviz version 2.50.0 (20211204.2007)
 -->
<!-- Title: CIDOC Pages: 1 -->
<svg width="2857pt" height="1148pt"
 viewBox="0.00 0.00 2857.00 1147.60" xmlns="http://www.w3.org/2000/svg" xmlns:xlink="http://www.w3.org/1999/xlink">
<g id="graph0" class="graph" transform="scale(1 1) rotate(0) translate(4 1143.6)">
<title>CIDOC</title>
<!-- E53 -->
<g id="node1" class="node">
<title>E53</title>
<polygon fill="#242629" stroke="black" stroke-width="0" points="707,-1008 623,-1008 623,-972 707,-972 707,-1008"/>
<text text-anchor="middle" x="665" y="-986.3" font-family="sans-serif" font-size="14.00" fill="#fffaf0">E53 Place</text>
</g>
<!-- E77 -->
<g id="node2" class="node">
<title>E77</title>
<polygon fill="#6496d8" stroke="black" stroke-width="0" points="1911,-1008 1757,-1008 1757,-972 1911,-972 1911,-1008"/>
<text text-anchor="middle" x="1834" y="-986.3" font-family="sans-serif" font-size="14.00" fill="#f3f1ec">E77 Persistent Item</text>
</g>
<!-- E39 -->
<g id="node3" class="node">
<title>E39</title>
<polygon fill="#6495d7" stroke="black" stroke-width="0" points="2550.5,-888 2465.5,-888 2465.5,-852 2550.5,-852 2550.5,-888"/>
<text text-anchor="middle" x="2508" y="-866.3" font-family="sans-serif" font-size="14.00" fill="#f3f1ec">E39 Actor</text>
</g>
<!-- E77&#45;&gt;E39 -->
<g id="edge26" class="edge">
<title>E77&#45;&gt;E39</title>
<path fill="none" stroke="black" d="M1894.25,-971.77C1894.25,-938.2 1894.25,-870 1894.25,-870 1894.25,-870 2455.33,-870 2455.33,-870"/>
<polygon fill="black" stroke="black" points="2455.33,-873.5 2465.33,-870 2455.33,-866.5 2455.33,-873.5"/>
</g>
<!-- E70 -->
<g id="node6" class="node">
<title>E70</title>
<polygon fill="lightgrey" stroke="black" stroke-width="0" points="1877.5,-888 1790.5,-888 1790.5,-852 1877.5,-852 1877.5,-888"/>
<text text-anchor="middle" x="1834" y="-866.3" font-family="sans-serif" font-size="14.00">E70 Thing</text>
</g>
<!-- E77&#45;&gt;E70 -->
<g id="edge39" class="edge">
<title>E77&#45;&gt;E70</title>
<path fill="none" stroke="black" d="M1834,-971.77C1834,-971.77 1834,-898 1834,-898"/>
<polygon fill="black" stroke="black" points="1837.5,-898 1834,-888 1830.5,-898 1837.5,-898"/>
</g>
<!-- E21 -->
<g id="node4" class="node">
<title>E21</title>
<polygon fill="#242629" stroke="black" stroke-width="0" points="2569.5,-288 2474.5,-288 2474.5,-252 2569.5,-252 2569.5,-288"/>
<text text-anchor="middle" x="2522" y="-266.3" font-family="sans-serif" font-size="14.00" fill="#fffaf0">E21 Person</text>
</g>
<!-- E39&#45;&gt;E21 -->
<g id="edge5" class="edge">
<title>E39&#45;&gt;E21</title>
<path fill="none" stroke="black" d="M2550.52,-870C2601.45,-870 2680,-870 2680,-870 2680,-870 2680,-270 2680,-270 2680,-270 2579.83,-270 2579.83,-270"/>
<polygon fill="black" stroke="black" points="2579.83,-266.5 2569.83,-270 2579.83,-273.5 2579.83,-266.5"/>
</g>
<!-- E74 -->
<g id="node5" class="node">
<title>E74</title>
<polygon fill="#354459" stroke="black" stroke-width="0" points="2553.5,-768 2462.5,-768 2462.5,-732 2553.5,-732 2553.5,-768"/>
<text text-anchor="middle" x="2508" y="-746.3" font-family="sans-serif" font-size="14.00" fill="#fcf7ef">E74 Group</text>
</g>
<!-- E39&#45;&gt;E74 -->
<g id="edge44" class="edge">
<title>E39&#45;&gt;E74</title>
<path fill="none" stroke="black" d="M2508,-851.77C2508,-851.77 2508,-778 2508,-778"/>
<polygon fill="black" stroke="black" points="2511.5,-778 2508,-768 2504.5,-778 2511.5,-778"/>
</g>
<!-- E71 -->
<g id="node7" class="node">
<title>E71</title>
<polygon fill="lightgrey" stroke="black" stroke-width="0" points="2014.5,-768 1831.5,-768 1831.5,-732 2014.5,-732 2014.5,-768"/>
<text text-anchor="middle" x="1923" y="-746.3" font-family="sans-serif" font-size="14.00">E71 Human&#45;Made Thing</text>
</g>
<!-- E70&#45;&gt;E71 -->
<g id="edge40" class="edge">
<title>E70&#45;&gt;E71</title>
<path fill="none" stroke="black" d="M1854.5,-851.77C1854.5,-851.77 1854.5,-778 1854.5,-778"/>
<polygon fill="black" stroke="black" points="1858,-778 1854.5,-768 1851,-778 1858,-778"/>
</g>
<!-- E72 -->
<g id="node36" class="node">
<title>E72</title>
<polygon fill="lightgrey" stroke="black" stroke-width="0" points="1813,-768 1679,-768 1679,-732 1813,-732 1813,-768"/>
<text text-anchor="middle" x="1746" y="-746.3" font-family="sans-serif" font-size="14.00">E72 Legal Object</text>
</g>
<!-- E70&#45;&gt;E72 -->
<g id="edge41" class="edge">
<title>E70&#45;&gt;E72</title>
<path fill="none" stroke="black" d="M1801.75,-851.77C1801.75,-851.77 1801.75,-778 1801.75,-778"/>
<polygon fill="black" stroke="black" points="1805.25,-778 1801.75,-768 1798.25,-778 1805.25,-778"/>
</g>
<!-- E24 -->
<g id="node8" class="node">
<title>E24</title>
<polygon fill="lightgrey" stroke="black" stroke-width="0" points="2544.5,-528 2301.5,-528 2301.5,-492 2544.5,-492 2544.5,-528"/>
<text text-anchor="middle" x="2423" y="-506.3" font-family="sans-serif" font-size="14.00">E24 Physical Human&#45;Made Thing</text>
</g>
<!-- E71&#45;&gt;E24 -->
<g id="edge9" class="edge">
<title>E71&#45;&gt;E24</title>
<path fill="none" stroke="black" d="M2014.67,-750C2155.46,-750 2408.83,-750 2408.83,-750 2408.83,-750 2408.83,-538.04 2408.83,-538.04"/>
<polygon fill="black" stroke="black" points="2412.33,-538.04 2408.83,-528.04 2405.33,-538.04 2412.33,-538.04"/>
</g>
<!-- E28 -->
<g id="node12" class="node">
<title>E28</title>
<polygon fill="#242629" stroke="black" stroke-width="0" points="1589,-648 1415,-648 1415,-612 1589,-612 1589,-648"/>
<text text-anchor="middle" x="1502" y="-626.3" font-family="sans-serif" font-size="14.00" fill="#fffaf0">E28 Conceptual Object</text>
</g>
<!-- E71&#45;&gt;E28 -->
<g id="edge14" class="edge">
<title>E71&#45;&gt;E28</title>
<path fill="none" stroke="black" d="M1874.33,-731.94C1874.33,-699.79 1874.33,-636 1874.33,-636 1874.33,-636 1599.3,-636 1599.3,-636"/>
<polygon fill="black" stroke="black" points="1599.3,-632.5 1589.3,-636 1599.3,-639.5 1599.3,-632.5"/>
</g>
<!-- E22 -->
<g id="node9" class="node">
<title>E22</title>
<polygon fill="lightgrey" stroke="black" stroke-width="0" points="2671,-408 2483,-408 2483,-372 2671,-372 2671,-408"/>
<text text-anchor="middle" x="2577" y="-386.3" font-family="sans-serif" font-size="14.00">E22 Human&#45;Made Object</text>
</g>
<!-- E24&#45;&gt;E22 -->
<g id="edge7" class="edge">
<title>E24&#45;&gt;E22</title>
<path fill="none" stroke="black" d="M2524,-491.77C2524,-491.77 2524,-418 2524,-418"/>
<polygon fill="black" stroke="black" points="2527.5,-418 2524,-408 2520.5,-418 2527.5,-418"/>
</g>
<!-- E25 -->
<g id="node10" class="node">
<title>E25</title>
<polygon fill="lightgrey" stroke="black" stroke-width="0" points="2465,-408 2267,-408 2267,-372 2465,-372 2465,-408"/>
<text text-anchor="middle" x="2366" y="-386.3" font-family="sans-serif" font-size="14.00">E25 Human&#45;Made Feature</text>
</g>
<!-- E24&#45;&gt;E25 -->
<g id="edge10" class="edge">
<title>E24&#45;&gt;E25</title>
<path fill="none" stroke="black" d="M2383.25,-491.77C2383.25,-491.77 2383.25,-418 2383.25,-418"/>
<polygon fill="black" stroke="black" points="2386.75,-418 2383.25,-408 2379.75,-418 2386.75,-418"/>
</g>
<!-- E78 -->
<g id="node11" class="node">
<title>E78</title>
<polygon fill="#242629" stroke="black" stroke-width="0" points="2849,-408 2689,-408 2689,-372 2849,-372 2849,-408"/>
<text text-anchor="middle" x="2769" y="-386.3" font-family="sans-serif" font-size="14.00" fill="#fffaf0">E78 Curated Holding</text>
</g>
<!-- E24&#45;&gt;E78 -->
<g id="edge46" class="edge">
<title>E24&#45;&gt;E78</title>
<path fill="none" stroke="black" d="M2544.5,-510C2644.2,-510 2769,-510 2769,-510 2769,-510 2769,-418.23 2769,-418.23"/>
<polygon fill="black" stroke="black" points="2772.5,-418.23 2769,-408.23 2765.5,-418.23 2772.5,-418.23"/>
</g>
<!-- E55 -->
<g id="node13" class="node">
<title>E55</title>
<polygon fill="#2f3846" stroke="black" stroke-width="0" points="1679,-528 1597,-528 1597,-492 1679,-492 1679,-528"/>
<text text-anchor="middle" x="1638" y="-506.3" font-family="sans-serif" font-size="14.00" fill="#fdf8ef">E55 Type</text>
</g>
<!-- E28&#45;&gt;E55 -->
<g id="edge30" class="edge">
<title>E28&#45;&gt;E55</title>
<path fill="none" stroke="black" d="M1584.5,-611.94C1584.5,-579.79 1584.5,-516 1584.5,-516 1584.5,-516 1586.91,-516 1586.91,-516"/>
<polygon fill="black" stroke="black" points="1586.91,-519.5 1596.91,-516 1586.91,-512.5 1586.91,-519.5"/>
</g>
<!-- E89 -->
<g id="node19" class="node">
<title>E89</title>
<polygon fill="lightgrey" stroke="black" stroke-width="0" points="1459,-528 1273,-528 1273,-492 1459,-492 1459,-528"/>
<text text-anchor="middle" x="1366" y="-506.3" font-family="sans-serif" font-size="14.00">E89 Propositional Object</text>
</g>
<!-- E28&#45;&gt;E89 -->
<g id="edge47" class="edge">
<title>E28&#45;&gt;E89</title>
<path fill="none" stroke="black" d="M1437,-611.77C1437,-611.77 1437,-538 1437,-538"/>
<polygon fill="black" stroke="black" points="1440.5,-538 1437,-528 1433.5,-538 1440.5,-538"/>
</g>
<!-- E90 -->
<g id="node30" class="node">
<title>E90</title>
<polygon fill="lightgrey" stroke="black" stroke-width="0" points="1255,-528 1097,-528 1097,-492 1255,-492 1255,-528"/>
<text text-anchor="middle" x="1176" y="-506.3" font-family="sans-serif" font-size="14.00">E90 Symbolic Object</text>
</g>
<!-- E28&#45;&gt;E90 -->
<g id="edge48" class="edge">
<title>E28&#45;&gt;E90</title>
<path fill="none" stroke="black" d="M1414.92,-630C1326.44,-630 1202.33,-630 1202.33,-630 1202.33,-630 1202.33,-538.23 1202.33,-538.23"/>
<polygon fill="black" stroke="black" points="1205.83,-538.23 1202.33,-528.23 1198.83,-538.23 1205.83,-538.23"/>
</g>
<!-- E56 -->
<g id="node14" class="node">
<title>E56</title>
<polygon fill="lightgrey" stroke="black" stroke-width="0" points="1696,-408 1580,-408 1580,-372 1696,-372 1696,-408"/>
<text text-anchor="middle" x="1638" y="-386.3" font-family="sans-serif" font-size="14.00">E56 Language</text>
</g>
<!-- E55&#45;&gt;E56 -->
<g id="edge31" class="edge">
<title>E55&#45;&gt;E56</title>
<path fill="none" stroke="black" d="M1638,-491.77C1638,-491.77 1638,-418 1638,-418"/>
<polygon fill="black" stroke="black" points="1641.5,-418 1638,-408 1634.5,-418 1641.5,-418"/>
</g>
<!-- E57 -->
<g id="node15" class="node">
<title>E57</title>
<polygon fill="#6598db" stroke="black" stroke-width="0" points="1818,-408 1714,-408 1714,-372 1818,-372 1818,-408"/>
<text text-anchor="middle" x="1766" y="-386.3" font-family="sans-serif" font-size="14.00" fill="#f3f1ec">E57 Material</text>
</g>
<!-- E55&#45;&gt;E57 -->
<g id="edge32" class="edge">
<title>E55&#45;&gt;E57</title>
<path fill="none" stroke="black" d="M1679.07,-504C1721.01,-504 1780,-504 1780,-504 1780,-504 1780,-418.06 1780,-418.06"/>
<polygon fill="black" stroke="black" points="1783.5,-418.06 1780,-408.06 1776.5,-418.06 1783.5,-418.06"/>
</g>
<!-- E58 -->
<g id="node16" class="node">
<title>E58</title>
<polygon fill="lightgrey" stroke="black" stroke-width="0" points="1562,-408 1386,-408 1386,-372 1562,-372 1562,-408"/>
<text text-anchor="middle" x="1474" y="-386.3" font-family="sans-serif" font-size="14.00">E58 Measurement Unit</text>
</g>
<!-- E55&#45;&gt;E58 -->
<g id="edge33" class="edge">
<title>E55&#45;&gt;E58</title>
<path fill="none" stroke="black" d="M1596.96,-504C1559.68,-504 1510.5,-504 1510.5,-504 1510.5,-504 1510.5,-418.06 1510.5,-418.06"/>
<polygon fill="black" stroke="black" points="1514,-418.06 1510.5,-408.06 1507,-418.06 1514,-418.06"/>
</g>
<!-- E99 -->
<g id="node18" class="node">
<title>E99</title>
<polygon fill="#6699dc" stroke="black" stroke-width="0" points="1976,-408 1836,-408 1836,-372 1976,-372 1976,-408"/>
<text text-anchor="middle" x="1906" y="-386.3" font-family="sans-serif" font-size="14.00" fill="#f3f0eb">E99 Product Type</text>
</g>
<!-- E55&#45;&gt;E99 -->
<g id="edge55" class="edge">
<title>E55&#45;&gt;E99</title>
<path fill="none" stroke="black" d="M1679.12,-516C1755.74,-516 1912.67,-516 1912.67,-516 1912.67,-516 1912.67,-418.05 1912.67,-418.05"/>
<polygon fill="black" stroke="black" points="1916.17,-418.05 1912.67,-408.05 1909.17,-418.05 1916.17,-418.05"/>
</g>
<!-- E98 -->
<g id="node17" class="node">
<title>E98</title>
<polygon fill="lightgrey" stroke="black" stroke-width="0" points="1716.5,-288 1605.5,-288 1605.5,-252 1716.5,-252 1716.5,-288"/>
<text text-anchor="middle" x="1661" y="-266.3" font-family="sans-serif" font-size="14.00">E98 Currency</text>
</g>
<!-- E58&#45;&gt;E98 -->
<g id="edge54" class="edge">
<title>E58&#45;&gt;E98</title>
<path fill="none" stroke="black" d="M1530.83,-372C1530.83,-354.32 1530.83,-330 1530.83,-330 1530.83,-330 1650.75,-330 1650.75,-330 1650.75,-330 1650.75,-298 1650.75,-298"/>
<polygon fill="black" stroke="black" points="1654.25,-298 1650.75,-288 1647.25,-298 1654.25,-298"/>
</g>
<!-- E30 -->
<g id="node20" class="node">
<title>E30</title>
<polygon fill="lightgrey" stroke="black" stroke-width="0" points="1367.5,-408 1282.5,-408 1282.5,-372 1367.5,-372 1367.5,-408"/>
<text text-anchor="middle" x="1325" y="-386.3" font-family="sans-serif" font-size="14.00">E30 Right</text>
</g>
<!-- E89&#45;&gt;E30 -->
<g id="edge16" class="edge">
<title>E89&#45;&gt;E30</title>
<path fill="none" stroke="black" d="M1325,-491.77C1325,-491.77 1325,-418 1325,-418"/>
<polygon fill="black" stroke="black" points="1328.5,-418 1325,-408 1321.5,-418 1328.5,-418"/>
</g>
<!-- E73 -->
<g id="node21" class="node">
<title>E73</title>
<polygon fill="#5881b7" stroke="black" stroke-width="0" points="1264.5,-408 1087.5,-408 1087.5,-372 1264.5,-372 1264.5,-408"/>
<text text-anchor="middle" x="1176" y="-386.3" font-family="sans-serif" font-size="14.00" fill="#f5f2ec">E73 Information Object</text>
</g>
<!-- E89&#45;&gt;E73 -->
<g id="edge42" class="edge">
<title>E89&#45;&gt;E73</title>
<path fill="none" stroke="black" d="M1272.78,-510C1264.83,-510 1259.75,-510 1259.75,-510 1259.75,-510 1259.75,-418.23 1259.75,-418.23"/>
<polygon fill="black" stroke="black" points="1263.25,-418.23 1259.75,-408.23 1256.25,-418.23 1263.25,-418.23"/>
</g>
<!-- E29 -->
<g id="node22" class="node">
<title>E29</title>
<polygon fill="#6394d5" stroke="black" stroke-width="0" points="1270,-288 1082,-288 1082,-252 1270,-252 1270,-288"/>
<text text-anchor="middle" x="1176" y="-266.3" font-family="sans-serif" font-size="14.00" fill="#f3f1ec">E29 Design or Procedure</text>
</g>
<!-- E73&#45;&gt;E29 -->
<g id="edge15" class="edge">
<title>E73&#45;&gt;E29</title>
<path fill="none" stroke="black" d="M1146.5,-371.77C1146.5,-371.77 1146.5,-298 1146.5,-298"/>
<polygon fill="black" stroke="black" points="1150,-298 1146.5,-288 1143,-298 1150,-298"/>
</g>
<!-- E31 -->
<g id="node23" class="node">
<title>E31</title>
<polygon fill="#6699dc" stroke="black" stroke-width="0" points="1587.5,-288 1468.5,-288 1468.5,-252 1587.5,-252 1587.5,-288"/>
<text text-anchor="middle" x="1528" y="-266.3" font-family="sans-serif" font-size="14.00" fill="#f3f0eb">E31 Document</text>
</g>
<!-- E73&#45;&gt;E31 -->
<g id="edge17" class="edge">
<title>E73&#45;&gt;E31</title>
<path fill="none" stroke="black" d="M1205.5,-371.62C1205.5,-347.72 1205.5,-309 1205.5,-309 1205.5,-309 1499.67,-309 1499.67,-309 1499.67,-309 1499.67,-298.13 1499.67,-298.13"/>
<polygon fill="black" stroke="black" points="1503.17,-298.13 1499.67,-288.13 1496.17,-298.13 1503.17,-298.13"/>
</g>
<!-- E33 -->
<g id="node25" class="node">
<title>E33</title>
<polygon fill="lightgrey" stroke="black" stroke-width="0" points="1450,-288 1288,-288 1288,-252 1450,-252 1450,-288"/>
<text text-anchor="middle" x="1369" y="-266.3" font-family="sans-serif" font-size="14.00">E33 Linguistic Object</text>
</g>
<!-- E73&#45;&gt;E33 -->
<g id="edge19" class="edge">
<title>E73&#45;&gt;E33</title>
<path fill="none" stroke="black" d="M1264.86,-390C1272.71,-390 1277.75,-390 1277.75,-390 1277.75,-390 1277.75,-270 1277.75,-270 1277.75,-270 1278.76,-270 1278.76,-270"/>
<polygon fill="black" stroke="black" points="1277.86,-273.5 1287.86,-270 1277.86,-266.5 1277.86,-273.5"/>
</g>
<!-- E36 -->
<g id="node28" class="node">
<title>E36</title>
<polygon fill="lightgrey" stroke="black" stroke-width="0" points="1063.5,-288 938.5,-288 938.5,-252 1063.5,-252 1063.5,-288"/>
<text text-anchor="middle" x="1001" y="-266.3" font-family="sans-serif" font-size="14.00">E36 Visual Item</text>
</g>
<!-- E73&#45;&gt;E36 -->
<g id="edge24" class="edge">
<title>E73&#45;&gt;E36</title>
<path fill="none" stroke="black" d="M1087.47,-384C1044.07,-384 1001,-384 1001,-384 1001,-384 1001,-298.06 1001,-298.06"/>
<polygon fill="black" stroke="black" points="1004.5,-298.06 1001,-288.06 997.5,-298.06 1004.5,-298.06"/>
</g>
<!-- E32 -->
<g id="node24" class="node">
<title>E32</title>
<polygon fill="lightgrey" stroke="black" stroke-width="0" points="1623,-168 1433,-168 1433,-132 1623,-132 1623,-168"/>
<text text-anchor="middle" x="1528" y="-146.3" font-family="sans-serif" font-size="14.00">E32 Authority Document</text>
</g>
<!-- E31&#45;&gt;E32 -->
<g id="edge18" class="edge">
<title>E31&#45;&gt;E32</title>
<path fill="none" stroke="black" d="M1528,-251.77C1528,-251.77 1528,-178 1528,-178"/>
<polygon fill="black" stroke="black" points="1531.5,-178 1528,-168 1524.5,-178 1531.5,-178"/>
</g>
<!-- E34 -->
<g id="node26" class="node">
<title>E34</title>
<polygon fill="lightgrey" stroke="black" stroke-width="0" points="1231,-48 1111,-48 1111,-12 1231,-12 1231,-48"/>
<text text-anchor="middle" x="1171" y="-26.3" font-family="sans-serif" font-size="14.00">E34 Inscription</text>
</g>
<!-- E33&#45;&gt;E34 -->
<g id="edge20" class="edge">
<title>E33&#45;&gt;E34</title>
<path fill="none" stroke="black" d="M1384.67,-251.96C1384.67,-196.15 1384.67,-30 1384.67,-30 1384.67,-30 1241.09,-30 1241.09,-30"/>
<polygon fill="black" stroke="black" points="1241.09,-26.5 1231.09,-30 1241.09,-33.5 1241.09,-26.5"/>
</g>
<!-- E35 -->
<g id="node27" class="node">
<title>E35</title>
<polygon fill="#3d526e" stroke="black" stroke-width="0" points="986.5,-168 907.5,-168 907.5,-132 986.5,-132 986.5,-168"/>
<text text-anchor="middle" x="947" y="-146.3" font-family="sans-serif" font-size="14.00" fill="#faf6ee">E35 Title</text>
</g>
<!-- E33&#45;&gt;E35 -->
<g id="edge22" class="edge">
<title>E33&#45;&gt;E35</title>
<path fill="none" stroke="black" d="M1336.33,-252C1336.33,-234.32 1336.33,-210 1336.33,-210 1336.33,-210 962.5,-210 962.5,-210 962.5,-210 962.5,-178 962.5,-178"/>
<polygon fill="black" stroke="black" points="966,-178 962.5,-168 959,-178 966,-178"/>
</g>
<!-- E37 -->
<g id="node29" class="node">
<title>E37</title>
<polygon fill="lightgrey" stroke="black" stroke-width="0" points="1159.5,-168 1076.5,-168 1076.5,-132 1159.5,-132 1159.5,-168"/>
<text text-anchor="middle" x="1118" y="-146.3" font-family="sans-serif" font-size="14.00">E37 Mark</text>
</g>
<!-- E36&#45;&gt;E37 -->
<g id="edge25" class="edge">
<title>E36&#45;&gt;E37</title>
<path fill="none" stroke="black" d="M1025,-251.77C1025,-218.2 1025,-150 1025,-150 1025,-150 1066.4,-150 1066.4,-150"/>
<polygon fill="black" stroke="black" points="1066.4,-153.5 1076.4,-150 1066.4,-146.5 1066.4,-153.5"/>
</g>
<!-- E37&#45;&gt;E34 -->
<g id="edge21" class="edge">
<title>E37&#45;&gt;E34</title>
<path fill="none" stroke="black" d="M1135.25,-131.77C1135.25,-131.77 1135.25,-58 1135.25,-58"/>
<polygon fill="black" stroke="black" points="1138.75,-58 1135.25,-48 1131.75,-58 1138.75,-58"/>
</g>
<!-- E90&#45;&gt;E73 -->
<g id="edge43" class="edge">
<title>E90&#45;&gt;E73</title>
<path fill="none" stroke="black" d="M1176,-491.77C1176,-491.77 1176,-418 1176,-418"/>
<polygon fill="black" stroke="black" points="1179.5,-418 1176,-408 1172.5,-418 1179.5,-418"/>
</g>
<!-- E41 -->
<g id="node31" class="node">
<title>E41</title>
<polygon fill="#4b6a93" stroke="black" stroke-width="0" points="815.5,-408 690.5,-408 690.5,-372 815.5,-372 815.5,-408"/>
<text text-anchor="middle" x="753" y="-386.3" font-family="sans-serif" font-size="14.00" fill="#f8f4ed">E41 Appellation</text>
</g>
<!-- E90&#45;&gt;E41 -->
<g id="edge27" class="edge">
<title>E90&#45;&gt;E41</title>
<path fill="none" stroke="black" d="M1096.76,-510C987.65,-510 804.5,-510 804.5,-510 804.5,-510 804.5,-418.23 804.5,-418.23"/>
<polygon fill="black" stroke="black" points="808,-418.23 804.5,-408.23 801,-418.23 808,-418.23"/>
</g>
<!-- E41&#45;&gt;E35 -->
<g id="edge23" class="edge">
<title>E41&#45;&gt;E35</title>
<path fill="none" stroke="black" d="M815.82,-396C864.25,-396 923,-396 923,-396 923,-396 923,-178.09 923,-178.09"/>
<polygon fill="black" stroke="black" points="926.5,-178.09 923,-168.09 919.5,-178.09 926.5,-178.09"/>
</g>
<!-- E42 -->
<g id="node32" class="node">
<title>E42</title>
<polygon fill="lightgrey" stroke="black" stroke-width="0" points="882,-288 772,-288 772,-252 882,-252 882,-288"/>
<text text-anchor="middle" x="827" y="-266.3" font-family="sans-serif" font-size="14.00">E42 Identifier</text>
</g>
<!-- E41&#45;&gt;E42 -->
<g id="edge28" class="edge">
<title>E41&#45;&gt;E42</title>
<path fill="none" stroke="black" d="M793.75,-371.77C793.75,-371.77 793.75,-298 793.75,-298"/>
<polygon fill="black" stroke="black" points="797.25,-298 793.75,-288 790.25,-298 797.25,-298"/>
</g>
<!-- E61 -->
<g id="node33" class="node">
<title>E61</title>
<polygon fill="lightgrey" stroke="black" stroke-width="0" points="754,-288 606,-288 606,-252 754,-252 754,-288"/>
<text text-anchor="middle" x="680" y="-266.3" font-family="sans-serif" font-size="14.00">E61 Time Primitive</text>
</g>
<!-- E41&#45;&gt;E61 -->
<g id="edge36" class="edge">
<title>E41&#45;&gt;E61</title>
<path fill="none" stroke="black" d="M732.83,-371.77C732.83,-371.77 732.83,-298 732.83,-298"/>
<polygon fill="black" stroke="black" points="736.33,-298 732.83,-288 729.33,-298 736.33,-298"/>
</g>
<!-- E94 -->
<g id="node34" class="node">
<title>E94</title>
<polygon fill="lightgrey" stroke="black" stroke-width="0" points="384.5,-288 229.5,-288 229.5,-252 384.5,-252 384.5,-288"/>
<text text-anchor="middle" x="307" y="-266.3" font-family="sans-serif" font-size="14.00">E94 Space Primitive</text>
</g>
<!-- E41&#45;&gt;E94 -->
<g id="edge50" class="edge">
<title>E41&#45;&gt;E94</title>
<path fill="none" stroke="black" d="M711.67,-371.87C711.67,-361.69 711.67,-351 711.67,-351 711.67,-351 364.5,-351 364.5,-351 364.5,-351 364.5,-298.38 364.5,-298.38"/>
<polygon fill="black" stroke="black" points="368,-298.38 364.5,-288.38 361,-298.38 368,-298.38"/>
</g>
<!-- E95 -->
<g id="node35" class="node">
<title>E95</title>
<polygon fill="lightgrey" stroke="black" stroke-width="0" points="587.5,-288 402.5,-288 402.5,-252 587.5,-252 587.5,-288"/>
<text text-anchor="middle" x="495" y="-266.3" font-family="sans-serif" font-size="14.00">E95 Spacetime Primitive</text>
</g>
<!-- E41&#45;&gt;E95 -->
<g id="edge52" class="edge">
<title>E41&#45;&gt;E95</title>
<path fill="none" stroke="black" d="M690.4,-396C625.21,-396 532.5,-396 532.5,-396 532.5,-396 532.5,-298.05 532.5,-298.05"/>
<polygon fill="black" stroke="black" points="536,-298.05 532.5,-288.05 529,-298.05 536,-298.05"/>
</g>
<!-- E72&#45;&gt;E90 -->
<g id="edge49" class="edge">
<title>E72&#45;&gt;E90</title>
<path fill="none" stroke="black" d="M1678.75,-750C1522.8,-750 1149.67,-750 1149.67,-750 1149.67,-750 1149.67,-538.04 1149.67,-538.04"/>
<polygon fill="black" stroke="black" points="1153.17,-538.04 1149.67,-528.04 1146.17,-538.04 1153.17,-538.04"/>
</g>
<!-- E18 -->
<g id="node37" class="node">
<title>E18</title>
<polygon fill="lightgrey" stroke="black" stroke-width="0" points="2177.5,-648 2030.5,-648 2030.5,-612 2177.5,-612 2177.5,-648"/>
<text text-anchor="middle" x="2104" y="-626.3" font-family="sans-serif" font-size="14.00">E18 Physical Thing</text>
</g>
<!-- E72&#45;&gt;E18 -->
<g id="edge1" class="edge">
<title>E72&#45;&gt;E18</title>
<path fill="none" stroke="black" d="M1747,-731.95C1747,-697.11 1747,-624 1747,-624 1747,-624 2020.46,-624 2020.46,-624"/>
<polygon fill="black" stroke="black" points="2020.46,-627.5 2030.46,-624 2020.46,-620.5 2020.46,-627.5"/>
</g>
<!-- E18&#45;&gt;E24 -->
<g id="edge8" class="edge">
<title>E18&#45;&gt;E24</title>
<path fill="none" stroke="black" d="M2177.66,-630C2251.77,-630 2355.17,-630 2355.17,-630 2355.17,-630 2355.17,-538.23 2355.17,-538.23"/>
<polygon fill="black" stroke="black" points="2358.67,-538.23 2355.17,-528.23 2351.67,-538.23 2358.67,-538.23"/>
</g>
<!-- E19 -->
<g id="node38" class="node">
<title>E19</title>
<polygon fill="#242629" stroke="black" stroke-width="0" points="2283,-528 2131,-528 2131,-492 2283,-492 2283,-528"/>
<text text-anchor="middle" x="2207" y="-506.3" font-family="sans-serif" font-size="14.00" fill="#fffaf0">E19 Physical Object</text>
</g>
<!-- E18&#45;&gt;E19 -->
<g id="edge2" class="edge">
<title>E18&#45;&gt;E19</title>
<path fill="none" stroke="black" d="M2154.25,-611.77C2154.25,-611.77 2154.25,-538 2154.25,-538"/>
<polygon fill="black" stroke="black" points="2157.75,-538 2154.25,-528 2150.75,-538 2157.75,-538"/>
</g>
<!-- E26 -->
<g id="node40" class="node">
<title>E26</title>
<polygon fill="lightgrey" stroke="black" stroke-width="0" points="2113,-528 1951,-528 1951,-492 2113,-492 2113,-528"/>
<text text-anchor="middle" x="2032" y="-506.3" font-family="sans-serif" font-size="14.00">E26 Physical Feature</text>
</g>
<!-- E18&#45;&gt;E26 -->
<g id="edge12" class="edge">
<title>E18&#45;&gt;E26</title>
<path fill="none" stroke="black" d="M2071.75,-611.77C2071.75,-611.77 2071.75,-538 2071.75,-538"/>
<polygon fill="black" stroke="black" points="2075.25,-538 2071.75,-528 2068.25,-538 2075.25,-538"/>
</g>
<!-- E19&#45;&gt;E22 -->
<g id="edge6" class="edge">
<title>E19&#45;&gt;E22</title>
<path fill="none" stroke="black" d="M2277.67,-491.82C2277.67,-478.96 2277.67,-464 2277.67,-464 2277.67,-464 2503.5,-464 2503.5,-464 2503.5,-464 2503.5,-418.29 2503.5,-418.29"/>
<polygon fill="black" stroke="black" points="2507,-418.29 2503.5,-408.29 2500,-418.29 2507,-418.29"/>
</g>
<!-- E20 -->
<g id="node39" class="node">
<title>E20</title>
<polygon fill="#242629" stroke="black" stroke-width="0" points="2248.5,-408 2087.5,-408 2087.5,-372 2248.5,-372 2248.5,-408"/>
<text text-anchor="middle" x="2168" y="-386.3" font-family="sans-serif" font-size="14.00" fill="#fffaf0">E20 Biological Object</text>
</g>
<!-- E19&#45;&gt;E20 -->
<g id="edge3" class="edge">
<title>E19&#45;&gt;E20</title>
<path fill="none" stroke="black" d="M2189.75,-491.77C2189.75,-491.77 2189.75,-418 2189.75,-418"/>
<polygon fill="black" stroke="black" points="2193.25,-418 2189.75,-408 2186.25,-418 2193.25,-418"/>
</g>
<!-- E20&#45;&gt;E21 -->
<g id="edge4" class="edge">
<title>E20&#45;&gt;E21</title>
<path fill="none" stroke="black" d="M2168,-371.77C2168,-338.2 2168,-270 2168,-270 2168,-270 2464.26,-270 2464.26,-270"/>
<polygon fill="black" stroke="black" points="2464.26,-273.5 2474.26,-270 2464.26,-266.5 2464.26,-273.5"/>
</g>
<!-- E26&#45;&gt;E25 -->
<g id="edge11" class="edge">
<title>E26&#45;&gt;E25</title>
<path fill="none" stroke="black" d="M2100.25,-491.71C2100.25,-469.79 2100.25,-436 2100.25,-436 2100.25,-436 2272.33,-436 2272.33,-436 2272.33,-436 2272.33,-418.18 2272.33,-418.18"/>
<polygon fill="black" stroke="black" points="2275.83,-418.18 2272.33,-408.18 2268.83,-418.18 2275.83,-418.18"/>
</g>
<!-- E27 -->
<g id="node41" class="node">
<title>E27</title>
<polygon fill="lightgrey" stroke="black" stroke-width="0" points="2069.5,-408 1994.5,-408 1994.5,-372 2069.5,-372 2069.5,-408"/>
<text text-anchor="middle" x="2032" y="-386.3" font-family="sans-serif" font-size="14.00">E27 Site</text>
</g>
<!-- E26&#45;&gt;E27 -->
<g id="edge13" class="edge">
<title>E26&#45;&gt;E27</title>
<path fill="none" stroke="black" d="M2032,-491.77C2032,-491.77 2032,-418 2032,-418"/>
<polygon fill="black" stroke="black" points="2035.5,-418 2032,-408 2028.5,-418 2035.5,-418"/>
</g>
<!-- E59 -->
<g id="node42" class="node">
<title>E59</title>
<polygon fill="lightgrey" stroke="black" stroke-width="0" points="477.5,-408 324.5,-408 324.5,-372 477.5,-372 477.5,-408"/>
<text text-anchor="middle" x="401" y="-386.3" font-family="sans-serif" font-size="14.00">E59 Primitive Value</text>
</g>
<!-- E59&#45;&gt;E61 -->
<g id="edge37" class="edge">
<title>E59&#45;&gt;E61</title>
<path fill="none" stroke="black" d="M477.78,-384C538.99,-384 614.5,-384 614.5,-384 614.5,-384 614.5,-298.06 614.5,-298.06"/>
<polygon fill="black" stroke="black" points="618,-298.06 614.5,-288.06 611,-298.06 618,-298.06"/>
</g>
<!-- E59&#45;&gt;E94 -->
<g id="edge51" class="edge">
<title>E59&#45;&gt;E94</title>
<path fill="none" stroke="black" d="M344.5,-371.77C344.5,-371.77 344.5,-298 344.5,-298"/>
<polygon fill="black" stroke="black" points="348,-298 344.5,-288 341,-298 348,-298"/>
</g>
<!-- E59&#45;&gt;E95 -->
<g id="edge53" class="edge">
<title>E59&#45;&gt;E95</title>
<path fill="none" stroke="black" d="M440,-371.77C440,-371.77 440,-298 440,-298"/>
<polygon fill="black" stroke="black" points="443.5,-298 440,-288 436.5,-298 443.5,-298"/>
</g>
<!-- E60 -->
<g id="node43" class="node">
<title>E60</title>
<polygon fill="#242629" stroke="black" stroke-width="0" points="211.5,-288 108.5,-288 108.5,-252 211.5,-252 211.5,-288"/>
<text text-anchor="middle" x="160" y="-266.3" font-family="sans-serif" font-size="14.00" fill="#fffaf0">E60 Number</text>
</g>
<!-- E59&#45;&gt;E60 -->
<g id="edge35" class="edge">
<title>E59&#45;&gt;E60</title>
<path fill="none" stroke="black" d="M324.41,-384C253.85,-384 160,-384 160,-384 160,-384 160,-298.06 160,-298.06"/>
<polygon fill="black" stroke="black" points="163.5,-298.06 160,-288.06 156.5,-298.06 163.5,-298.06"/>
</g>
<!-- E62 -->
<g id="node44" class="node">
<title>E62</title>
<polygon fill="lightgrey" stroke="black" stroke-width="0" points="90,-288 0,-288 0,-252 90,-252 90,-288"/>
<text text-anchor="middle" x="45" y="-266.3" font-family="sans-serif" font-size="14.00">E62 String</text>
</g>
<!-- E59&#45;&gt;E62 -->
<g id="edge38" class="edge">
<title>E59&#45;&gt;E62</title>
<path fill="none" stroke="black" d="M324.19,-396C219.54,-396 45,-396 45,-396 45,-396 45,-298.05 45,-298.05"/>
<polygon fill="black" stroke="black" points="48.5,-298.05 45,-288.05 41.5,-298.05 48.5,-298.05"/>
</g>
<!-- E1 -->
<g id="node45" class="node">
<title>E1</title>
<polygon fill="lightgrey" stroke="black" stroke-width="0" points="793.5,-1128 676.5,-1128 676.5,-1092 793.5,-1092 793.5,-1128"/>
<text text-anchor="middle" x="735" y="-1106.3" font-family="sans-serif" font-size="14.00">E1 CRM Entity</text>
</g>
<!-- E1&#45;&gt;E53 -->
<g id="edge29" class="edge">
<title>E1&#45;&gt;E53</title>
<path fill="none" stroke="black" d="M691.75,-1091.77C691.75,-1091.77 691.75,-1018 691.75,-1018"/>
<polygon fill="black" stroke="black" points="695.25,-1018 691.75,-1008 688.25,-1018 695.25,-1018"/>
</g>
<!-- E1&#45;&gt;E77 -->
<g id="edge45" class="edge">
<title>E1&#45;&gt;E77</title>
<path fill="none" stroke="black" d="M750.25,-1091.77C750.25,-1058.2 750.25,-990 750.25,-990 750.25,-990 1746.93,-990 1746.93,-990"/>
<polygon fill="black" stroke="black" points="1746.93,-993.5 1756.93,-990 1746.93,-986.5 1746.93,-993.5"/>
</g>
<!-- E1&#45;&gt;E59 -->
<g id="edge34" class="edge">
<title>E1&#45;&gt;E59</title>
<path fill="none" stroke="black" d="M676.44,-1110C580.65,-1110 401,-1110 401,-1110 401,-1110 401,-418.16 401,-418.16"/>
<polygon fill="black" stroke="black" points="404.5,-418.16 401,-408.16 397.5,-418.16 404.5,-418.16"/>
</g>
</g>
</svg>
