<?xml version="1.0" encoding="UTF-8" standalone="no"?>
<!DOCTYPE svg PUBLIC "-//W3C//DTD SVG 1.1//EN"
 "http://www.w3.org/Graphics/SVG/1.1/DTD/svg11.dtd">
<!-- Generated by graphviz version 2.50.0 (20211204.2007)
 -->
<!-- Title: Acquisitions_Schema Pages: 1 -->
<svg width="779pt" height="262pt"
 viewBox="0.00 0.00 779.00 262.00" xmlns="http://www.w3.org/2000/svg" xmlns:xlink="http://www.w3.org/1999/xlink">
<g id="graph0" class="graph" transform="scale(1 1) rotate(0) translate(4 258)">
<title>Acquisitions_Schema</title>
<!-- E19 -->
<g id="node1" class="node">
<title>E19</title>
<polygon fill="none" stroke="black" points="419,-144 270,-144 270,-106 419,-106 419,-144"/>
<text text-anchor="start" x="281" y="-128.8" font-family="Source Serif Pro" font-size="14.00">E19 Physical Object/</text>
<text text-anchor="start" x="278" y="-113.8" font-family="Source Serif Pro" font-size="14.00">E20 Biological Object</text>
</g>
<!-- P53_2 -->
<g id="node14" class="node">
<title>P53_2</title>
<polygon fill="none" stroke="black" stroke-dasharray="5,2" points="563.5,-198 468.5,-198 468.5,-162 563.5,-162 563.5,-198"/>
<text text-anchor="start" x="476.5" y="-183" font-family="Source Serif Pro" font-size="10.00">P53 has former or</text>
<text text-anchor="start" x="481" y="-172" font-family="Source Serif Pro" font-size="10.00">current location</text>
</g>
<!-- E19&#45;&gt;P53_2 -->
<g id="edge11" class="edge">
<title>E19&#45;&gt;P53_2</title>
<path fill="none" stroke="black" d="M419.17,-132C429.68,-132 437,-132 437,-132 437,-132 437,-180 437,-180 437,-180 451.59,-180 468.22,-180"/>
</g>
<!-- P128 -->
<g id="node15" class="node">
<title>P128</title>
<polygon fill="none" stroke="black" stroke-dasharray="5,2" points="577,-144 455,-144 455,-108 577,-108 577,-144"/>
<text text-anchor="start" x="463" y="-129" font-family="Source Serif Pro" font-size="10.00">P130 shows features of/</text>
<text text-anchor="start" x="488.5" y="-118" font-family="Source Serif Pro" font-size="10.00">P128 carries</text>
</g>
<!-- E19&#45;&gt;P128 -->
<g id="edge9" class="edge">
<title>E19&#45;&gt;P128</title>
<path fill="none" stroke="black" d="M419.22,-120C431.14,-120 443.34,-120 454.89,-120"/>
</g>
<!-- P43 -->
<g id="node16" class="node">
<title>P43</title>
<polygon fill="none" stroke="black" stroke-dasharray="5,2" points="566.5,-90 465.5,-90 465.5,-54 566.5,-54 566.5,-90"/>
<text text-anchor="start" x="473.5" y="-69.5" font-family="Source Serif Pro" font-size="10.00">P43 has dimension</text>
</g>
<!-- E19&#45;&gt;P43 -->
<g id="edge13" class="edge">
<title>E19&#45;&gt;P43</title>
<path fill="none" stroke="black" d="M370,-105.87C370,-90.68 370,-72 370,-72 370,-72 423.18,-72 465.35,-72"/>
</g>
<!-- P44 -->
<g id="node17" class="node">
<title>P44</title>
<polygon fill="none" stroke="black" stroke-dasharray="5,2" points="563.5,-36 468.5,-36 468.5,0 563.5,0 563.5,-36"/>
<text text-anchor="start" x="476.5" y="-15.5" font-family="Source Serif Pro" font-size="10.00">P44 has condition</text>
</g>
<!-- E19&#45;&gt;P44 -->
<g id="edge15" class="edge">
<title>E19&#45;&gt;P44</title>
<path fill="none" stroke="black" d="M320,-105.87C320,-75.09 320,-18 320,-18 320,-18 410.29,-18 468.3,-18"/>
</g>
<!-- E21 -->
<g id="node2" class="node">
<title>E21</title>
<polygon fill="none" stroke="black" points="389.5,-254 299.5,-254 299.5,-216 389.5,-216 389.5,-254"/>
<text text-anchor="start" x="307.5" y="-238.8" font-family="Source Serif Pro" font-size="14.00">E21 Person/</text>
<text text-anchor="start" x="312" y="-223.8" font-family="Source Serif Pro" font-size="14.00">E74 Group</text>
</g>
<!-- P53_1 -->
<g id="node12" class="node">
<title>P53_1</title>
<polygon fill="none" stroke="black" stroke-dasharray="5,2" points="563.5,-253 468.5,-253 468.5,-217 563.5,-217 563.5,-253"/>
<text text-anchor="start" x="476.5" y="-238" font-family="Source Serif Pro" font-size="10.00">P53 has former or</text>
<text text-anchor="start" x="481" y="-227" font-family="Source Serif Pro" font-size="10.00">current location</text>
</g>
<!-- E21&#45;&gt;P53_1 -->
<g id="edge7" class="edge">
<title>E21&#45;&gt;P53_1</title>
<path fill="none" stroke="black" d="M389.56,-235C413.77,-235 443.63,-235 468.24,-235"/>
</g>
<!-- E8 -->
<g id="node3" class="node">
<title>E8</title>
<polygon fill="none" stroke="red" points="113,-199 0,-199 0,-161 113,-161 113,-199"/>
<text text-anchor="start" x="8" y="-183.8" font-family="Source Serif Pro" font-size="14.00">E8 Acquisition/</text>
<text text-anchor="start" x="14.5" y="-168.8" font-family="Source Serif Pro" font-size="14.00">E96 Purchase</text>
</g>
<!-- P23 -->
<g id="node10" class="node">
<title>P23</title>
<polygon fill="none" stroke="black" stroke-dasharray="5,2" points="234,-252 149,-252 149,-216 234,-216 234,-252"/>
<text text-anchor="start" x="157" y="-237" font-family="Source Serif Pro" font-size="10.00">P23 transferred</text>
<text text-anchor="start" x="170.5" y="-226" font-family="Source Serif Pro" font-size="10.00">title from</text>
</g>
<!-- E8&#45;&gt;P23 -->
<g id="edge1" class="edge">
<title>E8&#45;&gt;P23</title>
<path fill="none" stroke="black" d="M57,-199.19C57,-214.71 57,-234 57,-234 57,-234 109.54,-234 148.94,-234"/>
</g>
<!-- P22 -->
<g id="node11" class="node">
<title>P22</title>
<polygon fill="none" stroke="black" stroke-dasharray="5,2" points="234,-198 149,-198 149,-162 234,-162 234,-198"/>
<text text-anchor="start" x="157" y="-183" font-family="Source Serif Pro" font-size="10.00">P22 transferred</text>
<text text-anchor="start" x="177.5" y="-172" font-family="Source Serif Pro" font-size="10.00">title to</text>
</g>
<!-- E8&#45;&gt;P22 -->
<g id="edge5" class="edge">
<title>E8&#45;&gt;P22</title>
<path fill="none" stroke="black" d="M113.36,-180C125.18,-180 137.44,-180 148.65,-180"/>
</g>
<!-- P24 -->
<g id="node13" class="node">
<title>P24</title>
<polygon fill="none" stroke="black" stroke-dasharray="5,2" points="234,-144 149,-144 149,-108 234,-108 234,-144"/>
<text text-anchor="start" x="157" y="-129" font-family="Source Serif Pro" font-size="10.00">P24 transferred</text>
<text text-anchor="start" x="177" y="-118" font-family="Source Serif Pro" font-size="10.00">title of</text>
</g>
<!-- E8&#45;&gt;P24 -->
<g id="edge3" class="edge">
<title>E8&#45;&gt;P24</title>
<path fill="none" stroke="black" d="M57,-160.81C57,-145.29 57,-126 57,-126 57,-126 109.54,-126 148.94,-126"/>
</g>
<!-- E78 -->
<g id="node4" class="node">
<title>E78</title>
<polygon fill="none" stroke="limegreen" points="418.5,-198 270.5,-198 270.5,-162 418.5,-162 418.5,-198"/>
<text text-anchor="start" x="278.5" y="-176.3" font-family="Source Serif Pro" font-size="14.00">E78 Curated Holding</text>
</g>
<!-- E53_1 -->
<g id="node5" class="node">
<title>E53_1</title>
<polygon fill="none" stroke="black" points="730,-253 654,-253 654,-217 730,-217 730,-253"/>
<text text-anchor="start" x="662" y="-231.3" font-family="Source Serif Pro" font-size="14.00">E53 Place</text>
</g>
<!-- E3 -->
<g id="node6" class="node">
<title>E3</title>
<polygon fill="none" stroke="black" points="758.5,-36 625.5,-36 625.5,0 758.5,0 758.5,-36"/>
<text text-anchor="start" x="633.5" y="-14.3" font-family="Source Serif Pro" font-size="14.00">E3 Condition State</text>
</g>
<!-- E53_2 -->
<g id="node7" class="node">
<title>E53_2</title>
<polygon fill="none" stroke="black" points="730,-198 654,-198 654,-162 730,-162 730,-198"/>
<text text-anchor="start" x="662" y="-176.3" font-family="Source Serif Pro" font-size="14.00">E53 Place</text>
</g>
<!-- E28 -->
<g id="node8" class="node">
<title>E28</title>
<polygon fill="none" stroke="black" points="771,-144 613,-144 613,-108 771,-108 771,-144"/>
<text text-anchor="start" x="621" y="-122.3" font-family="Source Serif Pro" font-size="14.00">E28 Conceptual Object</text>
</g>
<!-- E54 -->
<g id="node9" class="node">
<title>E54</title>
<polygon fill="none" stroke="black" points="748,-90 636,-90 636,-54 748,-54 748,-90"/>
<text text-anchor="start" x="644" y="-68.3" font-family="Source Serif Pro" font-size="14.00">E54 Dimension</text>
</g>
<!-- P23&#45;&gt;E21 -->
<g id="edge2" class="edge">
<title>P23&#45;&gt;E21</title>
<path fill="none" stroke="black" d="M234.12,-234C234.12,-234 289.44,-234 289.44,-234"/>
<polygon fill="black" stroke="black" points="289.44,-237.5 299.44,-234 289.44,-230.5 289.44,-237.5"/>
</g>
<!-- P22&#45;&gt;E78 -->
<g id="edge6" class="edge">
<title>P22&#45;&gt;E78</title>
<path fill="none" stroke="black" d="M234.12,-180C234.12,-180 260.46,-180 260.46,-180"/>
<polygon fill="black" stroke="black" points="260.46,-183.5 270.46,-180 260.46,-176.5 260.46,-183.5"/>
</g>
<!-- P53_1&#45;&gt;E53_1 -->
<g id="edge8" class="edge">
<title>P53_1&#45;&gt;E53_1</title>
<path fill="none" stroke="black" d="M563.63,-235C563.63,-235 643.8,-235 643.8,-235"/>
<polygon fill="black" stroke="black" points="643.8,-238.5 653.8,-235 643.8,-231.5 643.8,-238.5"/>
</g>
<!-- P24&#45;&gt;E19 -->
<g id="edge4" class="edge">
<title>P24&#45;&gt;E19</title>
<path fill="none" stroke="black" d="M234.12,-126C234.12,-126 259.88,-126 259.88,-126"/>
<polygon fill="black" stroke="black" points="259.88,-129.5 269.88,-126 259.88,-122.5 259.88,-129.5"/>
</g>
<!-- P53_2&#45;&gt;E53_2 -->
<g id="edge12" class="edge">
<title>P53_2&#45;&gt;E53_2</title>
<path fill="none" stroke="black" d="M563.63,-180C563.63,-180 643.8,-180 643.8,-180"/>
<polygon fill="black" stroke="black" points="643.8,-183.5 653.8,-180 643.8,-176.5 643.8,-183.5"/>
</g>
<!-- P128&#45;&gt;E28 -->
<g id="edge10" class="edge">
<title>P128&#45;&gt;E28</title>
<path fill="none" stroke="black" d="M577.06,-126C577.06,-126 602.76,-126 602.76,-126"/>
<polygon fill="black" stroke="black" points="602.76,-129.5 612.76,-126 602.76,-122.5 602.76,-129.5"/>
</g>
<!-- P43&#45;&gt;E54 -->
<g id="edge14" class="edge">
<title>P43&#45;&gt;E54</title>
<path fill="none" stroke="black" d="M566.91,-72C566.91,-72 625.97,-72 625.97,-72"/>
<polygon fill="black" stroke="black" points="625.97,-75.5 635.97,-72 625.97,-68.5 625.97,-75.5"/>
</g>
<!-- P44&#45;&gt;E3 -->
<g id="edge16" class="edge">
<title>P44&#45;&gt;E3</title>
<path fill="none" stroke="black" d="M563.63,-18C563.63,-18 615.17,-18 615.17,-18"/>
<polygon fill="black" stroke="black" points="615.17,-21.5 625.17,-18 615.17,-14.5 615.17,-21.5"/>
</g>
</g>
</svg>
