<?xml version="1.0" encoding="UTF-8" standalone="no"?>
<!DOCTYPE svg PUBLIC "-//W3C//DTD SVG 1.1//EN"
 "http://www.w3.org/Graphics/SVG/1.1/DTD/svg11.dtd">
<!-- Generated by graphviz version 2.50.0 (20211204.2007)
 -->
<!-- Title: Acquisitions_Schema Pages: 1 -->
<svg width="828pt" height="262pt"
 viewBox="0.00 0.00 828.00 262.00" xmlns="http://www.w3.org/2000/svg" xmlns:xlink="http://www.w3.org/1999/xlink">
<g id="graph0" class="graph" transform="scale(1 1) rotate(0) translate(4 258)">
<title>Acquisitions_Schema</title>
<!-- E19 -->
<g id="node1" class="node">
<title>E19</title>
<polygon fill="none" stroke="black" points="443,-144 282,-144 282,-106 443,-106 443,-144"/>
<text text-anchor="start" x="292" y="-128.8" font-family="sans-serif" font-size="14.00">E19 Physical Object/</text>
<text text-anchor="start" x="290" y="-113.8" font-family="sans-serif" font-size="14.00">E20 Biological Object</text>
</g>
<!-- P53_2 -->
<g id="node14" class="node">
<title>P53_2</title>
<polygon fill="none" stroke="black" stroke-dasharray="5,2" points="596,-198 493,-198 493,-162 596,-162 596,-198"/>
<text text-anchor="start" x="501" y="-183" font-family="sans-serif" font-size="10.00">P53 has former or</text>
<text text-anchor="start" x="506.5" y="-172" font-family="sans-serif" font-size="10.00">current location</text>
</g>
<!-- E19&#45;&gt;P53_2 -->
<g id="edge11" class="edge">
<title>E19&#45;&gt;P53_2</title>
<path fill="none" stroke="black" d="M443.39,-132C453.84,-132 461,-132 461,-132 461,-132 461,-180 461,-180 461,-180 475.59,-180 492.57,-180"/>
</g>
<!-- P128 -->
<g id="node15" class="node">
<title>P128</title>
<polygon fill="none" stroke="black" stroke-dasharray="5,2" points="610,-144 479,-144 479,-108 610,-108 610,-144"/>
<text text-anchor="start" x="487" y="-129" font-family="sans-serif" font-size="10.00">P130 shows features of/</text>
<text text-anchor="start" x="514.5" y="-118" font-family="sans-serif" font-size="10.00">P128 carries</text>
</g>
<!-- E19&#45;&gt;P128 -->
<g id="edge9" class="edge">
<title>E19&#45;&gt;P128</title>
<path fill="none" stroke="black" d="M443.12,-120C455.1,-120 467.33,-120 478.95,-120"/>
</g>
<!-- P43 -->
<g id="node16" class="node">
<title>P43</title>
<polygon fill="none" stroke="black" stroke-dasharray="5,2" points="598,-90 491,-90 491,-54 598,-54 598,-90"/>
<text text-anchor="start" x="499" y="-69.5" font-family="sans-serif" font-size="10.00">P43 has dimension</text>
</g>
<!-- E19&#45;&gt;P43 -->
<g id="edge13" class="edge">
<title>E19&#45;&gt;P43</title>
<path fill="none" stroke="black" d="M390,-105.87C390,-90.68 390,-72 390,-72 390,-72 446.27,-72 490.9,-72"/>
</g>
<!-- P44 -->
<g id="node17" class="node">
<title>P44</title>
<polygon fill="none" stroke="black" stroke-dasharray="5,2" points="595,-36 494,-36 494,0 595,0 595,-36"/>
<text text-anchor="start" x="502" y="-15.5" font-family="sans-serif" font-size="10.00">P44 has condition</text>
</g>
<!-- E19&#45;&gt;P44 -->
<g id="edge15" class="edge">
<title>E19&#45;&gt;P44</title>
<path fill="none" stroke="black" d="M336,-105.87C336,-75.09 336,-18 336,-18 336,-18 432.05,-18 493.76,-18"/>
</g>
<!-- E21 -->
<g id="node2" class="node">
<title>E21</title>
<polygon fill="none" stroke="black" points="412.5,-254 312.5,-254 312.5,-216 412.5,-216 412.5,-254"/>
<text text-anchor="start" x="320.5" y="-238.8" font-family="sans-serif" font-size="14.00">E21 Person/</text>
<text text-anchor="start" x="325" y="-223.8" font-family="sans-serif" font-size="14.00">E74 Group</text>
</g>
<!-- P53_1 -->
<g id="node12" class="node">
<title>P53_1</title>
<polygon fill="none" stroke="black" stroke-dasharray="5,2" points="596,-253 493,-253 493,-217 596,-217 596,-253"/>
<text text-anchor="start" x="501" y="-238" font-family="sans-serif" font-size="10.00">P53 has former or</text>
<text text-anchor="start" x="506.5" y="-227" font-family="sans-serif" font-size="10.00">current location</text>
</g>
<!-- E21&#45;&gt;P53_1 -->
<g id="edge7" class="edge">
<title>E21&#45;&gt;P53_1</title>
<path fill="none" stroke="black" d="M412.71,-235C437.65,-235 467.74,-235 492.87,-235"/>
</g>
<!-- E8 -->
<g id="node3" class="node">
<title>E8</title>
<polygon fill="none" stroke="red" points="119,-199 0,-199 0,-161 119,-161 119,-199"/>
<text text-anchor="start" x="8" y="-183.8" font-family="sans-serif" font-size="14.00">E8 Acquisition/</text>
<text text-anchor="start" x="12" y="-168.8" font-family="sans-serif" font-size="14.00">E96 Purchase</text>
</g>
<!-- P23 -->
<g id="node10" class="node">
<title>P23</title>
<polygon fill="none" stroke="black" stroke-dasharray="5,2" points="246,-252 155,-252 155,-216 246,-216 246,-252"/>
<text text-anchor="start" x="163" y="-237" font-family="sans-serif" font-size="10.00">P23 transferred</text>
<text text-anchor="start" x="178.5" y="-226" font-family="sans-serif" font-size="10.00">title from</text>
</g>
<!-- E8&#45;&gt;P23 -->
<g id="edge1" class="edge">
<title>E8&#45;&gt;P23</title>
<path fill="none" stroke="black" d="M60,-199.19C60,-214.71 60,-234 60,-234 60,-234 113.86,-234 154.88,-234"/>
</g>
<!-- P22 -->
<g id="node11" class="node">
<title>P22</title>
<polygon fill="none" stroke="black" stroke-dasharray="5,2" points="246,-198 155,-198 155,-162 246,-162 246,-198"/>
<text text-anchor="start" x="163" y="-183" font-family="sans-serif" font-size="10.00">P22 transferred</text>
<text text-anchor="start" x="185" y="-172" font-family="sans-serif" font-size="10.00">title to</text>
</g>
<!-- E8&#45;&gt;P22 -->
<g id="edge5" class="edge">
<title>E8&#45;&gt;P22</title>
<path fill="none" stroke="black" d="M119.3,-180C131.16,-180 143.43,-180 154.73,-180"/>
</g>
<!-- P24 -->
<g id="node13" class="node">
<title>P24</title>
<polygon fill="none" stroke="black" stroke-dasharray="5,2" points="246,-144 155,-144 155,-108 246,-108 246,-144"/>
<text text-anchor="start" x="163" y="-129" font-family="sans-serif" font-size="10.00">P24 transferred</text>
<text text-anchor="start" x="185" y="-118" font-family="sans-serif" font-size="10.00">title of</text>
</g>
<!-- E8&#45;&gt;P24 -->
<g id="edge3" class="edge">
<title>E8&#45;&gt;P24</title>
<path fill="none" stroke="black" d="M60,-160.81C60,-145.29 60,-126 60,-126 60,-126 113.86,-126 154.88,-126"/>
</g>
<!-- E78 -->
<g id="node4" class="node">
<title>E78</title>
<polygon fill="none" stroke="green" points="442.5,-198 282.5,-198 282.5,-162 442.5,-162 442.5,-198"/>
<text text-anchor="start" x="290.5" y="-176.3" font-family="sans-serif" font-size="14.00">E78 Curated Holding</text>
</g>
<!-- E53_1 -->
<g id="node5" class="node">
<title>E53_1</title>
<polygon fill="none" stroke="black" points="775,-253 691,-253 691,-217 775,-217 775,-253"/>
<text text-anchor="start" x="699" y="-231.3" font-family="sans-serif" font-size="14.00">E53 Place</text>
</g>
<!-- E3 -->
<g id="node6" class="node">
<title>E3</title>
<polygon fill="none" stroke="black" points="806.5,-36 659.5,-36 659.5,0 806.5,0 806.5,-36"/>
<text text-anchor="start" x="667.5" y="-14.3" font-family="sans-serif" font-size="14.00">E3 Condition State</text>
</g>
<!-- E53_2 -->
<g id="node7" class="node">
<title>E53_2</title>
<polygon fill="none" stroke="black" points="775,-198 691,-198 691,-162 775,-162 775,-198"/>
<text text-anchor="start" x="699" y="-176.3" font-family="sans-serif" font-size="14.00">E53 Place</text>
</g>
<!-- E28 -->
<g id="node8" class="node">
<title>E28</title>
<polygon fill="none" stroke="black" points="820,-144 646,-144 646,-108 820,-108 820,-144"/>
<text text-anchor="start" x="654" y="-122.3" font-family="sans-serif" font-size="14.00">E28 Conceptual Object</text>
</g>
<!-- E54 -->
<g id="node9" class="node">
<title>E54</title>
<polygon fill="none" stroke="black" points="793.5,-90 672.5,-90 672.5,-54 793.5,-54 793.5,-90"/>
<text text-anchor="start" x="680.5" y="-68.3" font-family="sans-serif" font-size="14.00">E54 Dimension</text>
</g>
<!-- P23&#45;&gt;E21 -->
<g id="edge2" class="edge">
<title>P23&#45;&gt;E21</title>
<path fill="none" stroke="black" d="M246.06,-234C246.06,-234 302.46,-234 302.46,-234"/>
<polygon fill="black" stroke="black" points="302.46,-237.5 312.46,-234 302.46,-230.5 302.46,-237.5"/>
</g>
<!-- P22&#45;&gt;E78 -->
<g id="edge6" class="edge">
<title>P22&#45;&gt;E78</title>
<path fill="none" stroke="black" d="M246.06,-180C246.06,-180 272.31,-180 272.31,-180"/>
<polygon fill="black" stroke="black" points="272.31,-183.5 282.31,-180 272.31,-176.5 272.31,-183.5"/>
</g>
<!-- P53_1&#45;&gt;E53_1 -->
<g id="edge8" class="edge">
<title>P53_1&#45;&gt;E53_1</title>
<path fill="none" stroke="black" d="M596.01,-235C596.01,-235 680.77,-235 680.77,-235"/>
<polygon fill="black" stroke="black" points="680.77,-238.5 690.77,-235 680.77,-231.5 680.77,-238.5"/>
</g>
<!-- P24&#45;&gt;E19 -->
<g id="edge4" class="edge">
<title>P24&#45;&gt;E19</title>
<path fill="none" stroke="black" d="M246.06,-126C246.06,-126 272,-126 272,-126"/>
<polygon fill="black" stroke="black" points="272,-129.5 282,-126 272,-122.5 272,-129.5"/>
</g>
<!-- P53_2&#45;&gt;E53_2 -->
<g id="edge12" class="edge">
<title>P53_2&#45;&gt;E53_2</title>
<path fill="none" stroke="black" d="M596.01,-180C596.01,-180 680.77,-180 680.77,-180"/>
<polygon fill="black" stroke="black" points="680.77,-183.5 690.77,-180 680.77,-176.5 680.77,-183.5"/>
</g>
<!-- P128&#45;&gt;E28 -->
<g id="edge10" class="edge">
<title>P128&#45;&gt;E28</title>
<path fill="none" stroke="black" d="M610.16,-126C610.16,-126 635.69,-126 635.69,-126"/>
<polygon fill="black" stroke="black" points="635.69,-129.5 645.69,-126 635.69,-122.5 635.69,-129.5"/>
</g>
<!-- P43&#45;&gt;E54 -->
<g id="edge14" class="edge">
<title>P43&#45;&gt;E54</title>
<path fill="none" stroke="black" d="M598.01,-72C598.01,-72 662.38,-72 662.38,-72"/>
<polygon fill="black" stroke="black" points="662.38,-75.5 672.38,-72 662.38,-68.5 662.38,-75.5"/>
</g>
<!-- P44&#45;&gt;E3 -->
<g id="edge16" class="edge">
<title>P44&#45;&gt;E3</title>
<path fill="none" stroke="black" d="M595.01,-18C595.01,-18 649.3,-18 649.3,-18"/>
<polygon fill="black" stroke="black" points="649.3,-21.5 659.3,-18 649.3,-14.5 649.3,-21.5"/>
</g>
</g>
</svg>
