<?xml version="1.0" encoding="UTF-8" standalone="no"?>
<!DOCTYPE svg PUBLIC "-//W3C//DTD SVG 1.1//EN"
 "http://www.w3.org/Graphics/SVG/1.1/DTD/svg11.dtd">
<!-- Generated by graphviz version 3.0.0 (20220226.1711)
 -->
<!-- Title: CIDOC Pages: 1 -->
<svg width="2165pt" height="476pt"
 viewBox="0.00 0.00 2164.50 476.00" xmlns="http://www.w3.org/2000/svg" xmlns:xlink="http://www.w3.org/1999/xlink">
<g id="graph0" class="graph" transform="scale(1 1) rotate(0) translate(4 472)">
<title>CIDOC</title>
<!-- E2 -->
<g id="node1" class="node">
<title>E2</title>
<polygon fill="lightgrey" stroke="black" stroke-width="0" points="1457,-396 1307,-396 1307,-360 1457,-360 1457,-396"/>
<text text-anchor="middle" x="1382" y="-374.3" font-family="sans-serif" font-size="14.00">E2 Temporal Entity</text>
</g>
<!-- E3 -->
<g id="node2" class="node">
<title>E3</title>
<polygon fill="#435c7d" stroke="black" stroke-width="0" points="1422.5,-324 1275.5,-324 1275.5,-288 1422.5,-288 1422.5,-324"/>
<text text-anchor="middle" x="1349" y="-302.3" font-family="sans-serif" font-size="14.00" fill="#f9f6ee">E3 Condition State</text>
</g>
<!-- E2&#45;&gt;E3 -->
<g id="edge2" class="edge">
<title>E2&#45;&gt;E3</title>
<path fill="none" stroke="black" d="M1364.75,-359.83C1364.75,-359.83 1364.75,-334.41 1364.75,-334.41"/>
<polygon fill="black" stroke="black" points="1368.25,-334.41 1364.75,-324.41 1361.25,-334.41 1368.25,-334.41"/>
</g>
<!-- E4 -->
<g id="node3" class="node">
<title>E4</title>
<polygon fill="#6699dc" stroke="black" stroke-width="0" points="1523.5,-324 1440.5,-324 1440.5,-288 1523.5,-288 1523.5,-324"/>
<text text-anchor="middle" x="1482" y="-302.3" font-family="sans-serif" font-size="14.00" fill="#f3f0eb">E4 Period</text>
</g>
<!-- E2&#45;&gt;E4 -->
<g id="edge3" class="edge">
<title>E2&#45;&gt;E4</title>
<path fill="none" stroke="black" d="M1448.75,-359.83C1448.75,-359.83 1448.75,-334.41 1448.75,-334.41"/>
<polygon fill="black" stroke="black" points="1452.25,-334.41 1448.75,-324.41 1445.25,-334.41 1452.25,-334.41"/>
</g>
<!-- E5 -->
<g id="node4" class="node">
<title>E5</title>
<polygon fill="#6699dc" stroke="black" stroke-width="0" points="1522,-252 1442,-252 1442,-216 1522,-216 1522,-252"/>
<text text-anchor="middle" x="1482" y="-230.3" font-family="sans-serif" font-size="14.00" fill="#f3f0eb">E5 Event</text>
</g>
<!-- E4&#45;&gt;E5 -->
<g id="edge5" class="edge">
<title>E4&#45;&gt;E5</title>
<path fill="none" stroke="black" d="M1482,-287.83C1482,-287.83 1482,-262.41 1482,-262.41"/>
<polygon fill="black" stroke="black" points="1485.5,-262.41 1482,-252.41 1478.5,-262.41 1485.5,-262.41"/>
</g>
<!-- E7 -->
<g id="node5" class="node">
<title>E7</title>
<polygon fill="#5d8ac5" stroke="black" stroke-width="0" points="872,-180 780,-180 780,-144 872,-144 872,-180"/>
<text text-anchor="middle" x="826" y="-158.3" font-family="sans-serif" font-size="14.00" fill="#f5f2ec">E7 Activity</text>
</g>
<!-- E5&#45;&gt;E7 -->
<g id="edge7" class="edge">
<title>E5&#45;&gt;E7</title>
<path fill="none" stroke="black" d="M1441.95,-234C1299.52,-234 826,-234 826,-234 826,-234 826,-190.17 826,-190.17"/>
<polygon fill="black" stroke="black" points="829.5,-190.17 826,-180.17 822.5,-190.17 829.5,-190.17"/>
</g>
<!-- E63 -->
<g id="node25" class="node">
<title>E63</title>
<polygon fill="#6495d7" stroke="black" stroke-width="0" points="1584.5,-180 1379.5,-180 1379.5,-144 1584.5,-144 1584.5,-180"/>
<text text-anchor="middle" x="1482" y="-158.3" font-family="sans-serif" font-size="14.00" fill="#f3f1ec">E63 Beginning of Existence</text>
</g>
<!-- E5&#45;&gt;E63 -->
<g id="edge21" class="edge">
<title>E5&#45;&gt;E63</title>
<path fill="none" stroke="black" d="M1482,-215.83C1482,-215.83 1482,-190.41 1482,-190.41"/>
<polygon fill="black" stroke="black" points="1485.5,-190.41 1482,-180.41 1478.5,-190.41 1485.5,-190.41"/>
</g>
<!-- E64 -->
<g id="node28" class="node">
<title>E64</title>
<polygon fill="lightgrey" stroke="black" stroke-width="0" points="1925,-180 1763,-180 1763,-144 1925,-144 1925,-180"/>
<text text-anchor="middle" x="1844" y="-158.3" font-family="sans-serif" font-size="14.00">E64 End of Existence</text>
</g>
<!-- E5&#45;&gt;E64 -->
<g id="edge22" class="edge">
<title>E5&#45;&gt;E64</title>
<path fill="none" stroke="black" d="M1522.19,-234C1602.09,-234 1773.25,-234 1773.25,-234 1773.25,-234 1773.25,-190.17 1773.25,-190.17"/>
<polygon fill="black" stroke="black" points="1776.75,-190.17 1773.25,-180.17 1769.75,-190.17 1776.75,-190.17"/>
</g>
<!-- E8 -->
<g id="node6" class="node">
<title>E8</title>
<polygon fill="#242629" stroke="black" stroke-width="0" points="620,-108 506,-108 506,-72 620,-72 620,-108"/>
<text text-anchor="middle" x="563" y="-86.3" font-family="sans-serif" font-size="14.00" fill="#fffaf0">E8 Acquisition</text>
</g>
<!-- E7&#45;&gt;E8 -->
<g id="edge8" class="edge">
<title>E7&#45;&gt;E8</title>
<path fill="none" stroke="black" d="M779.89,-151C704.46,-151 563,-151 563,-151 563,-151 563,-118.3 563,-118.3"/>
<polygon fill="black" stroke="black" points="566.5,-118.3 563,-108.3 559.5,-118.3 566.5,-118.3"/>
</g>
<!-- E9 -->
<g id="node8" class="node">
<title>E9</title>
<polygon fill="#5d89c4" stroke="black" stroke-width="0" points="864,-108 788,-108 788,-72 864,-72 864,-108"/>
<text text-anchor="middle" x="826" y="-86.3" font-family="sans-serif" font-size="14.00" fill="#f5f2ec">E9 Move</text>
</g>
<!-- E7&#45;&gt;E9 -->
<g id="edge9" class="edge">
<title>E7&#45;&gt;E9</title>
<path fill="none" stroke="black" d="M826,-143.83C826,-143.83 826,-118.41 826,-118.41"/>
<polygon fill="black" stroke="black" points="829.5,-118.41 826,-108.41 822.5,-118.41 829.5,-118.41"/>
</g>
<!-- E10 -->
<g id="node9" class="node">
<title>E10</title>
<polygon fill="lightgrey" stroke="black" stroke-width="0" points="488,-108 304,-108 304,-72 488,-72 488,-108"/>
<text text-anchor="middle" x="396" y="-86.3" font-family="sans-serif" font-size="14.00">E10 Transfer of Custody</text>
</g>
<!-- E7&#45;&gt;E10 -->
<g id="edge10" class="edge">
<title>E7&#45;&gt;E10</title>
<path fill="none" stroke="black" d="M779.98,-158C669.05,-158 396,-158 396,-158 396,-158 396,-118.22 396,-118.22"/>
<polygon fill="black" stroke="black" points="399.5,-118.22 396,-108.22 392.5,-118.22 399.5,-118.22"/>
</g>
<!-- E11 -->
<g id="node10" class="node">
<title>E11</title>
<polygon fill="#6292d2" stroke="black" stroke-width="0" points="769.5,-108 638.5,-108 638.5,-72 769.5,-72 769.5,-108"/>
<text text-anchor="middle" x="704" y="-86.3" font-family="sans-serif" font-size="14.00" fill="#f4f1ec">E11 Modification</text>
</g>
<!-- E7&#45;&gt;E11 -->
<g id="edge11" class="edge">
<title>E7&#45;&gt;E11</title>
<path fill="none" stroke="black" d="M784,-143.83C784,-122.5 784,-90 784,-90 784,-90 779.7,-90 779.7,-90"/>
<polygon fill="black" stroke="black" points="779.7,-86.5 769.7,-90 779.7,-93.5 779.7,-86.5"/>
</g>
<!-- E13 -->
<g id="node14" class="node">
<title>E13</title>
<polygon fill="lightgrey" stroke="black" stroke-width="0" points="1078,-108 882,-108 882,-72 1078,-72 1078,-108"/>
<text text-anchor="middle" x="980" y="-86.3" font-family="sans-serif" font-size="14.00">E13 Attribute Assignment</text>
</g>
<!-- E7&#45;&gt;E13 -->
<g id="edge14" class="edge">
<title>E7&#45;&gt;E13</title>
<path fill="none" stroke="black" d="M869.33,-143.83C869.33,-122.5 869.33,-90 869.33,-90 869.33,-90 871.6,-90 871.6,-90"/>
<polygon fill="black" stroke="black" points="871.6,-93.5 881.6,-90 871.6,-86.5 871.6,-93.5"/>
</g>
<!-- E65 -->
<g id="node19" class="node">
<title>E65</title>
<polygon fill="#6699dc" stroke="black" stroke-width="0" points="1316.5,-108 1209.5,-108 1209.5,-72 1316.5,-72 1316.5,-108"/>
<text text-anchor="middle" x="1263" y="-86.3" font-family="sans-serif" font-size="14.00" fill="#f3f0eb">E65 Creation</text>
</g>
<!-- E7&#45;&gt;E65 -->
<g id="edge23" class="edge">
<title>E7&#45;&gt;E65</title>
<path fill="none" stroke="black" d="M872.16,-162C980.61,-162 1242.5,-162 1242.5,-162 1242.5,-162 1242.5,-118.17 1242.5,-118.17"/>
<polygon fill="black" stroke="black" points="1246,-118.17 1242.5,-108.17 1239,-118.17 1246,-118.17"/>
</g>
<!-- E66 -->
<g id="node21" class="node">
<title>E66</title>
<polygon fill="#6597d9" stroke="black" stroke-width="0" points="1453.5,-108 1334.5,-108 1334.5,-72 1453.5,-72 1453.5,-108"/>
<text text-anchor="middle" x="1394" y="-86.3" font-family="sans-serif" font-size="14.00" fill="#f3f1ec">E66 Formation</text>
</g>
<!-- E7&#45;&gt;E66 -->
<g id="edge25" class="edge">
<title>E7&#45;&gt;E66</title>
<path fill="none" stroke="black" d="M872.19,-168C1001.38,-168 1357,-168 1357,-168 1357,-168 1357,-118.09 1357,-118.09"/>
<polygon fill="black" stroke="black" points="1360.5,-118.09 1357,-108.09 1353.5,-118.09 1360.5,-118.09"/>
</g>
<!-- E85 -->
<g id="node22" class="node">
<title>E85</title>
<polygon fill="#6291d1" stroke="black" stroke-width="0" points="1191.5,-108 1096.5,-108 1096.5,-72 1191.5,-72 1191.5,-108"/>
<text text-anchor="middle" x="1144" y="-86.3" font-family="sans-serif" font-size="14.00" fill="#f4f1ec">E85 Joining</text>
</g>
<!-- E7&#45;&gt;E85 -->
<g id="edge35" class="edge">
<title>E7&#45;&gt;E85</title>
<path fill="none" stroke="black" d="M872.24,-156C960.44,-156 1144,-156 1144,-156 1144,-156 1144,-118.03 1144,-118.03"/>
<polygon fill="black" stroke="black" points="1147.5,-118.03 1144,-108.03 1140.5,-118.03 1147.5,-118.03"/>
</g>
<!-- E86 -->
<g id="node23" class="node">
<title>E86</title>
<polygon fill="#6393d4" stroke="black" stroke-width="0" points="102,-108 0,-108 0,-72 102,-72 102,-108"/>
<text text-anchor="middle" x="51" y="-86.3" font-family="sans-serif" font-size="14.00" fill="#f4f1ec">E86 Leaving</text>
</g>
<!-- E7&#45;&gt;E86 -->
<g id="edge36" class="edge">
<title>E7&#45;&gt;E86</title>
<path fill="none" stroke="black" d="M779.84,-172C613,-172 51,-172 51,-172 51,-172 51,-118.2 51,-118.2"/>
<polygon fill="black" stroke="black" points="54.5,-118.2 51,-108.2 47.5,-118.2 54.5,-118.2"/>
</g>
<!-- E87 -->
<g id="node24" class="node">
<title>E87</title>
<polygon fill="#5276a6" stroke="black" stroke-width="0" points="285.5,-108 120.5,-108 120.5,-72 285.5,-72 285.5,-108"/>
<text text-anchor="middle" x="203" y="-86.3" font-family="sans-serif" font-size="14.00" fill="#f7f3ed">E87 Curation Activity</text>
</g>
<!-- E7&#45;&gt;E87 -->
<g id="edge37" class="edge">
<title>E7&#45;&gt;E87</title>
<path fill="none" stroke="black" d="M779.94,-165C635.81,-165 203,-165 203,-165 203,-165 203,-118.16 203,-118.16"/>
<polygon fill="black" stroke="black" points="206.5,-118.16 203,-108.16 199.5,-118.16 206.5,-118.16"/>
</g>
<!-- E96 -->
<g id="node7" class="node">
<title>E96</title>
<polygon fill="#242629" stroke="black" stroke-width="0" points="339.5,-36 228.5,-36 228.5,0 339.5,0 339.5,-36"/>
<text text-anchor="middle" x="284" y="-14.3" font-family="sans-serif" font-size="14.00" fill="#fffaf0">E96 Purchase</text>
</g>
<!-- E8&#45;&gt;E96 -->
<g id="edge40" class="edge">
<title>E8&#45;&gt;E96</title>
<path fill="none" stroke="black" d="M510.25,-71.58C510.25,-62.72 510.25,-54 510.25,-54 510.25,-54 321.75,-54 321.75,-54 321.75,-54 321.75,-46.42 321.75,-46.42"/>
<polygon fill="black" stroke="black" points="325.25,-46.42 321.75,-36.42 318.25,-46.42 325.25,-46.42"/>
</g>
<!-- E12 -->
<g id="node11" class="node">
<title>E12</title>
<polygon fill="#6292d2" stroke="black" stroke-width="0" points="981,-36 859,-36 859,0 981,0 981,-36"/>
<text text-anchor="middle" x="920" y="-14.3" font-family="sans-serif" font-size="14.00" fill="#f4f1ec">E12 Production</text>
</g>
<!-- E11&#45;&gt;E12 -->
<g id="edge12" class="edge">
<title>E11&#45;&gt;E12</title>
<path fill="none" stroke="black" d="M721.5,-71.95C721.5,-57.63 721.5,-40 721.5,-40 721.5,-40 866.67,-40 866.67,-40 866.67,-40 866.67,-39.62 866.67,-39.62"/>
<polygon fill="black" stroke="black" points="870.17,-46.17 866.67,-36.17 863.17,-46.17 870.17,-46.17"/>
</g>
<!-- E79 -->
<g id="node12" class="node">
<title>E79</title>
<polygon fill="#6598db" stroke="black" stroke-width="0" points="496.5,-36 357.5,-36 357.5,0 496.5,0 496.5,-36"/>
<text text-anchor="middle" x="427" y="-14.3" font-family="sans-serif" font-size="14.00" fill="#f3f1ec">E79 Part Addition</text>
</g>
<!-- E11&#45;&gt;E79 -->
<g id="edge30" class="edge">
<title>E11&#45;&gt;E79</title>
<path fill="none" stroke="black" d="M644.17,-71.9C644.17,-60.91 644.17,-49 644.17,-49 644.17,-49 492.25,-49 492.25,-49 492.25,-49 492.25,-46.03 492.25,-46.03"/>
<polygon fill="black" stroke="black" points="495.75,-46.03 492.25,-36.03 488.75,-46.03 495.75,-46.03"/>
</g>
<!-- E80 -->
<g id="node13" class="node">
<title>E80</title>
<polygon fill="lightgrey" stroke="black" stroke-width="0" points="655.5,-36 514.5,-36 514.5,0 655.5,0 655.5,-36"/>
<text text-anchor="middle" x="585" y="-14.3" font-family="sans-serif" font-size="14.00">E80 Part Removal</text>
</g>
<!-- E11&#45;&gt;E80 -->
<g id="edge31" class="edge">
<title>E11&#45;&gt;E80</title>
<path fill="none" stroke="black" d="M649.83,-71.83C649.83,-71.83 649.83,-46.41 649.83,-46.41"/>
<polygon fill="black" stroke="black" points="653.33,-46.41 649.83,-36.41 646.33,-46.41 653.33,-46.41"/>
</g>
<!-- E14 -->
<g id="node15" class="node">
<title>E14</title>
<polygon fill="#6292d2" stroke="black" stroke-width="0" points="1199,-36 999,-36 999,0 1199,0 1199,-36"/>
<text text-anchor="middle" x="1099" y="-14.3" font-family="sans-serif" font-size="14.00" fill="#f4f1ec">E14 Condition Assessment</text>
</g>
<!-- E13&#45;&gt;E14 -->
<g id="edge15" class="edge">
<title>E13&#45;&gt;E14</title>
<path fill="none" stroke="black" d="M1018.75,-71.83C1018.75,-71.83 1018.75,-46.41 1018.75,-46.41"/>
<polygon fill="black" stroke="black" points="1022.25,-46.41 1018.75,-36.41 1015.25,-46.41 1022.25,-46.41"/>
</g>
<!-- E15 -->
<g id="node16" class="node">
<title>E15</title>
<polygon fill="lightgrey" stroke="black" stroke-width="0" points="1412.5,-36 1217.5,-36 1217.5,0 1412.5,0 1412.5,-36"/>
<text text-anchor="middle" x="1315" y="-14.3" font-family="sans-serif" font-size="14.00">E15 Identifier Assignment</text>
</g>
<!-- E13&#45;&gt;E15 -->
<g id="edge16" class="edge">
<title>E13&#45;&gt;E15</title>
<path fill="none" stroke="black" d="M1038.5,-71.76C1038.5,-64.57 1038.5,-58 1038.5,-58 1038.5,-58 1250.5,-58 1250.5,-58 1250.5,-58 1250.5,-46.13 1250.5,-46.13"/>
<polygon fill="black" stroke="black" points="1254,-46.13 1250.5,-36.13 1247,-46.13 1254,-46.13"/>
</g>
<!-- E16 -->
<g id="node17" class="node">
<title>E16</title>
<polygon fill="lightgrey" stroke="black" stroke-width="0" points="1573.5,-36 1430.5,-36 1430.5,0 1573.5,0 1573.5,-36"/>
<text text-anchor="middle" x="1502" y="-14.3" font-family="sans-serif" font-size="14.00">E16 Measurement</text>
</g>
<!-- E13&#45;&gt;E16 -->
<g id="edge17" class="edge">
<title>E13&#45;&gt;E16</title>
<path fill="none" stroke="black" d="M1058.25,-71.84C1058.25,-66.96 1058.25,-63 1058.25,-63 1058.25,-63 1442,-63 1442,-63 1442,-63 1442,-46.04 1442,-46.04"/>
<polygon fill="black" stroke="black" points="1445.5,-46.04 1442,-36.04 1438.5,-46.04 1445.5,-46.04"/>
</g>
<!-- E17 -->
<g id="node18" class="node">
<title>E17</title>
<polygon fill="lightgrey" stroke="black" stroke-width="0" points="840.5,-36 673.5,-36 673.5,0 840.5,0 840.5,-36"/>
<text text-anchor="middle" x="757" y="-14.3" font-family="sans-serif" font-size="14.00">E17 Type Assignment</text>
</g>
<!-- E13&#45;&gt;E17 -->
<g id="edge18" class="edge">
<title>E13&#45;&gt;E17</title>
<path fill="none" stroke="black" d="M931.5,-71.96C931.5,-59.44 931.5,-45 931.5,-45 931.5,-45 814.25,-45 814.25,-45 814.25,-45 814.25,-44.12 814.25,-44.12"/>
<polygon fill="black" stroke="black" points="817.75,-46.16 814.25,-36.16 810.75,-46.16 817.75,-46.16"/>
</g>
<!-- E83 -->
<g id="node20" class="node">
<title>E83</title>
<polygon fill="lightgrey" stroke="black" stroke-width="0" points="1738,-36 1592,-36 1592,0 1738,0 1738,-36"/>
<text text-anchor="middle" x="1665" y="-14.3" font-family="sans-serif" font-size="14.00">E83 Type Creation</text>
</g>
<!-- E65&#45;&gt;E83 -->
<g id="edge34" class="edge">
<title>E65&#45;&gt;E83</title>
<path fill="none" stroke="black" d="M1283.5,-71.88C1283.5,-69.03 1283.5,-67 1283.5,-67 1283.5,-67 1602.75,-67 1602.75,-67 1602.75,-67 1602.75,-46.25 1602.75,-46.25"/>
<polygon fill="black" stroke="black" points="1606.25,-46.25 1602.75,-36.25 1599.25,-46.25 1606.25,-46.25"/>
</g>
<!-- E63&#45;&gt;E12 -->
<g id="edge13" class="edge">
<title>E63&#45;&gt;E12</title>
<path fill="none" stroke="black" d="M1379.37,-174C1206.76,-174 877,-174 877,-174 877,-174 877,-46.2 877,-46.2"/>
<polygon fill="black" stroke="black" points="880.5,-46.2 877,-36.2 873.5,-46.2 880.5,-46.2"/>
</g>
<!-- E63&#45;&gt;E65 -->
<g id="edge24" class="edge">
<title>E63&#45;&gt;E65</title>
<path fill="none" stroke="black" d="M1379.48,-150C1336.36,-150 1296,-150 1296,-150 1296,-150 1296,-118 1296,-118"/>
<polygon fill="black" stroke="black" points="1299.5,-118 1296,-108 1292.5,-118 1299.5,-118"/>
</g>
<!-- E63&#45;&gt;E66 -->
<g id="edge26" class="edge">
<title>E63&#45;&gt;E66</title>
<path fill="none" stroke="black" d="M1416.5,-143.83C1416.5,-143.83 1416.5,-118.41 1416.5,-118.41"/>
<polygon fill="black" stroke="black" points="1420,-118.41 1416.5,-108.41 1413,-118.41 1420,-118.41"/>
</g>
<!-- E67 -->
<g id="node26" class="node">
<title>E67</title>
<polygon fill="lightgrey" stroke="black" stroke-width="0" points="1593.5,-108 1510.5,-108 1510.5,-72 1593.5,-72 1593.5,-108"/>
<text text-anchor="middle" x="1552" y="-86.3" font-family="sans-serif" font-size="14.00">E67 Birth</text>
</g>
<!-- E63&#45;&gt;E67 -->
<g id="edge27" class="edge">
<title>E63&#45;&gt;E67</title>
<path fill="none" stroke="black" d="M1547.5,-143.83C1547.5,-143.83 1547.5,-118.41 1547.5,-118.41"/>
<polygon fill="black" stroke="black" points="1551,-118.41 1547.5,-108.41 1544,-118.41 1551,-118.41"/>
</g>
<!-- E81 -->
<g id="node27" class="node">
<title>E81</title>
<polygon fill="#6699dc" stroke="black" stroke-width="0" points="1766,-108 1612,-108 1612,-72 1766,-72 1766,-108"/>
<text text-anchor="middle" x="1689" y="-86.3" font-family="sans-serif" font-size="14.00" fill="#f3f0eb">E81 Transformation</text>
</g>
<!-- E63&#45;&gt;E81 -->
<g id="edge32" class="edge">
<title>E63&#45;&gt;E81</title>
<path fill="none" stroke="black" d="M1584.54,-162C1610.91,-162 1632,-162 1632,-162 1632,-162 1632,-118.17 1632,-118.17"/>
<polygon fill="black" stroke="black" points="1635.5,-118.17 1632,-108.17 1628.5,-118.17 1635.5,-118.17"/>
</g>
<!-- E64&#45;&gt;E81 -->
<g id="edge33" class="edge">
<title>E64&#45;&gt;E81</title>
<path fill="none" stroke="black" d="M1775,-143.83C1775,-122.5 1775,-90 1775,-90 1775,-90 1774.11,-90 1774.11,-90"/>
<polygon fill="black" stroke="black" points="1776.12,-86.5 1766.12,-90 1776.12,-93.5 1776.12,-86.5"/>
</g>
<!-- E6 -->
<g id="node29" class="node">
<title>E6</title>
<polygon fill="lightgrey" stroke="black" stroke-width="0" points="1904,-108 1784,-108 1784,-72 1904,-72 1904,-108"/>
<text text-anchor="middle" x="1844" y="-86.3" font-family="sans-serif" font-size="14.00">E6 Destruction</text>
</g>
<!-- E64&#45;&gt;E6 -->
<g id="edge6" class="edge">
<title>E64&#45;&gt;E6</title>
<path fill="none" stroke="black" d="M1844,-143.83C1844,-143.83 1844,-118.41 1844,-118.41"/>
<polygon fill="black" stroke="black" points="1847.5,-118.41 1844,-108.41 1840.5,-118.41 1847.5,-118.41"/>
</g>
<!-- E68 -->
<g id="node30" class="node">
<title>E68</title>
<polygon fill="lightgrey" stroke="black" stroke-width="0" points="2047.5,-108 1922.5,-108 1922.5,-72 2047.5,-72 2047.5,-108"/>
<text text-anchor="middle" x="1985" y="-86.3" font-family="sans-serif" font-size="14.00">E68 Dissolution</text>
</g>
<!-- E64&#45;&gt;E68 -->
<g id="edge28" class="edge">
<title>E64&#45;&gt;E68</title>
<path fill="none" stroke="black" d="M1913.25,-143.83C1913.25,-122.5 1913.25,-90 1913.25,-90 1913.25,-90 1914.16,-90 1914.16,-90"/>
<polygon fill="black" stroke="black" points="1912.34,-93.5 1922.34,-90 1912.34,-86.5 1912.34,-93.5"/>
</g>
<!-- E69 -->
<g id="node31" class="node">
<title>E69</title>
<polygon fill="lightgrey" stroke="black" stroke-width="0" points="2156.5,-108 2065.5,-108 2065.5,-72 2156.5,-72 2156.5,-108"/>
<text text-anchor="middle" x="2111" y="-86.3" font-family="sans-serif" font-size="14.00">E69 Death</text>
</g>
<!-- E64&#45;&gt;E69 -->
<g id="edge29" class="edge">
<title>E64&#45;&gt;E69</title>
<path fill="none" stroke="black" d="M1925.2,-162C2003.75,-162 2111,-162 2111,-162 2111,-162 2111,-118.17 2111,-118.17"/>
<polygon fill="black" stroke="black" points="2114.5,-118.17 2111,-108.17 2107.5,-118.17 2114.5,-118.17"/>
</g>
<!-- E92 -->
<g id="node32" class="node">
<title>E92</title>
<polygon fill="lightgrey" stroke="black" stroke-width="0" points="1651,-396 1475,-396 1475,-360 1651,-360 1651,-396"/>
<text text-anchor="middle" x="1563" y="-374.3" font-family="sans-serif" font-size="14.00">E92 Spacetime Volume</text>
</g>
<!-- E92&#45;&gt;E4 -->
<g id="edge4" class="edge">
<title>E92&#45;&gt;E4</title>
<path fill="none" stroke="black" d="M1499.25,-359.83C1499.25,-359.83 1499.25,-334.41 1499.25,-334.41"/>
<polygon fill="black" stroke="black" points="1502.75,-334.41 1499.25,-324.41 1495.75,-334.41 1502.75,-334.41"/>
</g>
<!-- E93 -->
<g id="node33" class="node">
<title>E93</title>
<polygon fill="lightgrey" stroke="black" stroke-width="0" points="1652,-324 1542,-324 1542,-288 1652,-288 1652,-324"/>
<text text-anchor="middle" x="1597" y="-302.3" font-family="sans-serif" font-size="14.00">E93 Presence</text>
</g>
<!-- E92&#45;&gt;E93 -->
<g id="edge39" class="edge">
<title>E92&#45;&gt;E93</title>
<path fill="none" stroke="black" d="M1596.5,-359.83C1596.5,-359.83 1596.5,-334.41 1596.5,-334.41"/>
<polygon fill="black" stroke="black" points="1600,-334.41 1596.5,-324.41 1593,-334.41 1600,-334.41"/>
</g>
<!-- E52 -->
<g id="node34" class="node">
<title>E52</title>
<polygon fill="#557baf" stroke="black" stroke-width="0" points="1791,-396 1669,-396 1669,-360 1791,-360 1791,-396"/>
<text text-anchor="middle" x="1730" y="-374.3" font-family="sans-serif" font-size="14.00" fill="#f6f3ed">E52 Time&#45;Span</text>
</g>
<!-- E54 -->
<g id="node35" class="node">
<title>E54</title>
<polygon fill="#242629" stroke="black" stroke-width="0" points="1930.5,-396 1809.5,-396 1809.5,-360 1930.5,-360 1930.5,-396"/>
<text text-anchor="middle" x="1870" y="-374.3" font-family="sans-serif" font-size="14.00" fill="#fffaf0">E54 Dimension</text>
</g>
<!-- E97 -->
<g id="node36" class="node">
<title>E97</title>
<polygon fill="lightgrey" stroke="black" stroke-width="0" points="1956.5,-324 1783.5,-324 1783.5,-288 1956.5,-288 1956.5,-324"/>
<text text-anchor="middle" x="1870" y="-302.3" font-family="sans-serif" font-size="14.00">E97 Monetary Amount</text>
</g>
<!-- E54&#45;&gt;E97 -->
<g id="edge41" class="edge">
<title>E54&#45;&gt;E97</title>
<path fill="none" stroke="black" d="M1870,-359.83C1870,-359.83 1870,-334.41 1870,-334.41"/>
<polygon fill="black" stroke="black" points="1873.5,-334.41 1870,-324.41 1866.5,-334.41 1873.5,-334.41"/>
</g>
<!-- E1 -->
<g id="node37" class="node">
<title>E1</title>
<polygon fill="lightgrey" stroke="black" stroke-width="0" points="1704.5,-468 1587.5,-468 1587.5,-432 1704.5,-432 1704.5,-468"/>
<text text-anchor="middle" x="1646" y="-446.3" font-family="sans-serif" font-size="14.00">E1 CRM Entity</text>
</g>
<!-- E1&#45;&gt;E2 -->
<g id="edge1" class="edge">
<title>E1&#45;&gt;E2</title>
<path fill="none" stroke="black" d="M1587.41,-450C1509.63,-450 1382,-450 1382,-450 1382,-450 1382,-406.17 1382,-406.17"/>
<polygon fill="black" stroke="black" points="1385.5,-406.17 1382,-396.17 1378.5,-406.17 1385.5,-406.17"/>
</g>
<!-- E1&#45;&gt;E92 -->
<g id="edge38" class="edge">
<title>E1&#45;&gt;E92</title>
<path fill="none" stroke="black" d="M1619.25,-431.83C1619.25,-431.83 1619.25,-406.41 1619.25,-406.41"/>
<polygon fill="black" stroke="black" points="1622.75,-406.41 1619.25,-396.41 1615.75,-406.41 1622.75,-406.41"/>
</g>
<!-- E1&#45;&gt;E52 -->
<g id="edge19" class="edge">
<title>E1&#45;&gt;E52</title>
<path fill="none" stroke="black" d="M1686.75,-431.83C1686.75,-431.83 1686.75,-406.41 1686.75,-406.41"/>
<polygon fill="black" stroke="black" points="1690.25,-406.41 1686.75,-396.41 1683.25,-406.41 1690.25,-406.41"/>
</g>
<!-- E1&#45;&gt;E54 -->
<g id="edge20" class="edge">
<title>E1&#45;&gt;E54</title>
<path fill="none" stroke="black" d="M1704.56,-450C1770.93,-450 1870,-450 1870,-450 1870,-450 1870,-406.17 1870,-406.17"/>
<polygon fill="black" stroke="black" points="1873.5,-406.17 1870,-396.17 1866.5,-406.17 1873.5,-406.17"/>
</g>
</g>
</svg>
