<?xml version="1.0" encoding="UTF-8" standalone="no"?>
<!DOCTYPE svg PUBLIC "-//W3C//DTD SVG 1.1//EN"
 "http://www.w3.org/Graphics/SVG/1.1/DTD/svg11.dtd">
<!-- Generated by graphviz version 3.0.0 (20220226.1711)
 -->
<!-- Title: Annotationen Pages: 1 -->
<svg width="829pt" height="580pt"
 viewBox="0.00 0.00 829.00 580.00" xmlns="http://www.w3.org/2000/svg" xmlns:xlink="http://www.w3.org/1999/xlink">
<g id="graph0" class="graph" transform="scale(1 1) rotate(0) translate(4 576)">
<title>Annotationen</title>
<!-- N0 -->
<g id="node1" class="node semanticentity">
<title>N0</title>
<polygon fill="#fc3915" fill-opacity="0.666667" stroke="black" points="2.5,-209.5 2.5,-245.5 87.5,-245.5 87.5,-209.5 2.5,-209.5"/>
<text text-anchor="start" x="10.5" y="-224.7" font-family="Roboto" font-size="11.00">E96 Purchase</text>
</g>
<!-- P0 -->
<g id="node12" class="node semanticentity">
<title>P0</title>
<path fill="#105ba4" stroke="black" d="M145,-295.5C145,-295.5 250,-295.5 250,-295.5 256,-295.5 262,-301.5 262,-307.5 262,-307.5 262,-323.5 262,-323.5 262,-329.5 256,-335.5 250,-335.5 250,-335.5 145,-335.5 145,-335.5 139,-335.5 133,-329.5 133,-323.5 133,-323.5 133,-307.5 133,-307.5 133,-301.5 139,-295.5 145,-295.5"/>
<text text-anchor="start" x="141" y="-322.7" font-family="Roboto" font-size="11.00" fill="white">P22 transferred title to</text>
<polyline fill="none" stroke="black" points="133,-315.5 262,-315.5 "/>
<text text-anchor="start" x="182.5" y="-302.7" font-family="Roboto" font-size="11.00" fill="white">95.3%</text>
</g>
<!-- N0&#45;&gt;P0 -->
<g id="edge1" class="edge">
<title>N0&#45;&gt;P0</title>
<path fill="none" stroke="black" d="M45,-245.73C45,-271.51 45,-315.5 45,-315.5 45,-315.5 122.83,-315.5 122.83,-315.5"/>
<polygon fill="black" stroke="black" points="122.83,-319 132.83,-315.5 122.83,-312 122.83,-319"/>
</g>
<!-- P4 -->
<g id="node16" class="node semanticentity">
<title>P4</title>
<path fill="#3787c0" stroke="white" d="M145,-118.5C145,-118.5 250,-118.5 250,-118.5 256,-118.5 262,-124.5 262,-130.5 262,-130.5 262,-146.5 262,-146.5 262,-152.5 256,-158.5 250,-158.5 250,-158.5 145,-158.5 145,-158.5 139,-158.5 133,-152.5 133,-146.5 133,-146.5 133,-130.5 133,-130.5 133,-124.5 139,-118.5 145,-118.5"/>
<text text-anchor="start" x="141" y="-145.7" font-family="Roboto" font-size="11.00" fill="white">P24 transferred title of</text>
<polyline fill="none" stroke="white" points="133,-138.5 262,-138.5 "/>
<text text-anchor="start" x="182.5" y="-125.7" font-family="Roboto" font-size="11.00" fill="white">71.8%</text>
</g>
<!-- N0&#45;&gt;P4 -->
<g id="edge9" class="edge">
<title>N0&#45;&gt;P4</title>
<path fill="none" stroke="black" d="M45,-209.49C45,-183.48 45,-138.5 45,-138.5 45,-138.5 122.83,-138.5 122.83,-138.5"/>
<polygon fill="black" stroke="black" points="122.83,-142 132.83,-138.5 122.83,-135 122.83,-142"/>
</g>
<!-- P6 -->
<g id="node18" class="node semanticentity">
<title>P6</title>
<path fill="#6aaed6" stroke="white" d="M138,-236.5C138,-236.5 257,-236.5 257,-236.5 263,-236.5 269,-242.5 269,-248.5 269,-248.5 269,-264.5 269,-264.5 269,-270.5 263,-276.5 257,-276.5 257,-276.5 138,-276.5 138,-276.5 132,-276.5 126,-270.5 126,-264.5 126,-264.5 126,-248.5 126,-248.5 126,-242.5 132,-236.5 138,-236.5"/>
<text text-anchor="start" x="134" y="-263.7" font-family="Roboto" font-size="11.00">P23 transferred title from</text>
<polyline fill="none" stroke="white" points="126,-256.5 269,-256.5 "/>
<text text-anchor="start" x="182.5" y="-243.7" font-family="Roboto" font-size="11.00">50.1%</text>
</g>
<!-- N0&#45;&gt;P6 -->
<g id="edge13" class="edge">
<title>N0&#45;&gt;P6</title>
<path fill="none" stroke="black" d="M87.89,-241C87.89,-241 115.78,-241 115.78,-241"/>
<polygon fill="black" stroke="black" points="115.78,-244.5 125.78,-241 115.78,-237.5 115.78,-244.5"/>
</g>
<!-- P8 -->
<g id="node20" class="node semanticentity">
<title>P8</title>
<path fill="#c6dbef" stroke="white" d="M145,-177.5C145,-177.5 250,-177.5 250,-177.5 256,-177.5 262,-183.5 262,-189.5 262,-189.5 262,-205.5 262,-205.5 262,-211.5 256,-217.5 250,-217.5 250,-217.5 145,-217.5 145,-217.5 139,-217.5 133,-211.5 133,-205.5 133,-205.5 133,-189.5 133,-189.5 133,-183.5 139,-177.5 145,-177.5"/>
<text text-anchor="start" x="141" y="-204.7" font-family="Roboto" font-size="11.00">P24 transferred title of</text>
<polyline fill="none" stroke="white" points="133,-197.5 262,-197.5 "/>
<text text-anchor="start" x="182.5" y="-184.7" font-family="Roboto" font-size="11.00">24.2%</text>
</g>
<!-- N0&#45;&gt;P8 -->
<g id="edge17" class="edge">
<title>N0&#45;&gt;P8</title>
<path fill="none" stroke="black" d="M87.89,-213.5C87.89,-213.5 122.72,-213.5 122.72,-213.5"/>
<polygon fill="black" stroke="black" points="122.72,-217 132.72,-213.5 122.72,-210 122.72,-217"/>
</g>
<!-- N1 -->
<g id="node2" class="node semanticentity">
<title>N1</title>
<polygon fill="#5a50c4" fill-opacity="0.666667" stroke="white" points="309,-91.5 309,-127.5 425,-127.5 425,-91.5 309,-91.5"/>
<text text-anchor="start" x="317" y="-106.7" font-family="Roboto" font-size="11.00">E19 Physical Object</text>
</g>
<!-- P5 -->
<g id="node17" class="node semanticentity">
<title>P5</title>
<path fill="#4f9bcb" stroke="white" d="M477,-118.5C477,-118.5 642,-118.5 642,-118.5 648,-118.5 654,-124.5 654,-130.5 654,-130.5 654,-146.5 654,-146.5 654,-152.5 648,-158.5 642,-158.5 642,-158.5 477,-158.5 477,-158.5 471,-158.5 465,-152.5 465,-146.5 465,-146.5 465,-130.5 465,-130.5 465,-124.5 471,-118.5 477,-118.5"/>
<text text-anchor="start" x="473" y="-145.7" font-family="Roboto" font-size="11.00">P53 has former or current location</text>
<polyline fill="none" stroke="white" points="465,-138.5 654,-138.5 "/>
<text text-anchor="start" x="544.5" y="-125.7" font-family="Roboto" font-size="11.00">62.3%</text>
</g>
<!-- N1&#45;&gt;P5 -->
<g id="edge11" class="edge">
<title>N1&#45;&gt;P5</title>
<path fill="none" stroke="black" d="M425.02,-123C425.02,-123 454.93,-123 454.93,-123"/>
<polygon fill="black" stroke="black" points="454.93,-126.5 464.93,-123 454.93,-119.5 454.93,-126.5"/>
</g>
<!-- P10 -->
<g id="node22" class="node semanticentity">
<title>P10</title>
<path fill="#d6e6f4" stroke="white" d="M515.5,-0.5C515.5,-0.5 603.5,-0.5 603.5,-0.5 609.5,-0.5 615.5,-6.5 615.5,-12.5 615.5,-12.5 615.5,-28.5 615.5,-28.5 615.5,-34.5 609.5,-40.5 603.5,-40.5 603.5,-40.5 515.5,-40.5 515.5,-40.5 509.5,-40.5 503.5,-34.5 503.5,-28.5 503.5,-28.5 503.5,-12.5 503.5,-12.5 503.5,-6.5 509.5,-0.5 515.5,-0.5"/>
<text text-anchor="start" x="511.5" y="-27.7" font-family="Roboto" font-size="11.00">P43 has dimension</text>
<polyline fill="none" stroke="white" points="503.5,-20.5 615.5,-20.5 "/>
<text text-anchor="start" x="544.5" y="-7.7" font-family="Roboto" font-size="11.00">11.0%</text>
</g>
<!-- N1&#45;&gt;P10 -->
<g id="edge21" class="edge">
<title>N1&#45;&gt;P10</title>
<path fill="none" stroke="black" d="M367,-91.49C367,-65.48 367,-20.5 367,-20.5 367,-20.5 493.3,-20.5 493.3,-20.5"/>
<polygon fill="black" stroke="black" points="493.3,-24 503.3,-20.5 493.3,-17 493.3,-24"/>
</g>
<!-- P11 -->
<g id="node23" class="node semanticentity">
<title>P11</title>
<path fill="#e7f0fa" stroke="white" d="M504,-59.5C504,-59.5 615,-59.5 615,-59.5 621,-59.5 627,-65.5 627,-71.5 627,-71.5 627,-87.5 627,-87.5 627,-93.5 621,-99.5 615,-99.5 615,-99.5 504,-99.5 504,-99.5 498,-99.5 492,-93.5 492,-87.5 492,-87.5 492,-71.5 492,-71.5 492,-65.5 498,-59.5 504,-59.5"/>
<text text-anchor="start" x="500" y="-86.7" font-family="Roboto" font-size="11.00">P130 shows features of</text>
<polyline fill="none" stroke="white" points="492,-79.5 627,-79.5 "/>
<text text-anchor="start" x="547.5" y="-66.7" font-family="Roboto" font-size="11.00">9.5%</text>
</g>
<!-- N1&#45;&gt;P11 -->
<g id="edge23" class="edge">
<title>N1&#45;&gt;P11</title>
<path fill="none" stroke="black" d="M425.02,-95.5C425.02,-95.5 481.79,-95.5 481.79,-95.5"/>
<polygon fill="black" stroke="black" points="481.79,-99 491.79,-95.5 481.79,-92 481.79,-99"/>
</g>
<!-- N2 -->
<g id="node3" class="node semanticentity">
<title>N2</title>
<polygon fill="#3b95c4" fill-opacity="0.666667" stroke="white" points="330,-327.5 330,-363.5 404,-363.5 404,-327.5 330,-327.5"/>
<text text-anchor="start" x="338" y="-342.7" font-family="Roboto" font-size="11.00">E21 Person</text>
</g>
<!-- P7 -->
<g id="node19" class="node semanticentity">
<title>P7</title>
<path fill="#abd0e6" stroke="white" d="M519,-354.5C519,-354.5 600,-354.5 600,-354.5 606,-354.5 612,-360.5 612,-366.5 612,-366.5 612,-382.5 612,-382.5 612,-388.5 606,-394.5 600,-394.5 600,-394.5 519,-394.5 519,-394.5 513,-394.5 507,-388.5 507,-382.5 507,-382.5 507,-366.5 507,-366.5 507,-360.5 513,-354.5 519,-354.5"/>
<text text-anchor="start" x="515" y="-381.7" font-family="Roboto" font-size="11.00">P1 is identified by</text>
<polyline fill="none" stroke="white" points="507,-374.5 612,-374.5 "/>
<text text-anchor="start" x="544.5" y="-361.7" font-family="Roboto" font-size="11.00">35.7%</text>
</g>
<!-- N2&#45;&gt;P7 -->
<g id="edge15" class="edge">
<title>N2&#45;&gt;P7</title>
<path fill="none" stroke="black" d="M404.12,-359C404.12,-359 496.85,-359 496.85,-359"/>
<polygon fill="black" stroke="black" points="496.85,-362.5 506.85,-359 496.85,-355.5 496.85,-362.5"/>
</g>
<!-- P14 -->
<g id="node26" class="node semanticentity">
<title>P14</title>
<path fill="#e7f0fa" stroke="white" d="M477,-295.5C477,-295.5 642,-295.5 642,-295.5 648,-295.5 654,-301.5 654,-307.5 654,-307.5 654,-323.5 654,-323.5 654,-329.5 648,-335.5 642,-335.5 642,-335.5 477,-335.5 477,-335.5 471,-335.5 465,-329.5 465,-323.5 465,-323.5 465,-307.5 465,-307.5 465,-301.5 471,-295.5 477,-295.5"/>
<text text-anchor="start" x="473" y="-322.7" font-family="Roboto" font-size="11.00">P53 has former or current location</text>
<polyline fill="none" stroke="white" points="465,-315.5 654,-315.5 "/>
<text text-anchor="start" x="547.5" y="-302.7" font-family="Roboto" font-size="11.00">6.7%</text>
</g>
<!-- N2&#45;&gt;P14 -->
<g id="edge29" class="edge">
<title>N2&#45;&gt;P14</title>
<path fill="none" stroke="black" d="M404.12,-331.5C404.12,-331.5 454.94,-331.5 454.94,-331.5"/>
<polygon fill="black" stroke="black" points="454.94,-335 464.94,-331.5 454.94,-328 454.94,-335"/>
</g>
<!-- N3 -->
<g id="node4" class="node semanticentity">
<title>N3</title>
<polygon fill="#fc7715" fill-opacity="0.666667" stroke="white" points="722.5,-238.5 722.5,-274.5 788.5,-274.5 788.5,-238.5 722.5,-238.5"/>
<text text-anchor="start" x="730.5" y="-253.7" font-family="Roboto" font-size="11.00">E53 Place</text>
</g>
<!-- N4 -->
<g id="node5" class="node semanticentity">
<title>N4</title>
<polygon fill="#debb9b" stroke="white" points="708,-415.5 708,-451.5 803,-451.5 803,-415.5 708,-415.5"/>
<text text-anchor="start" x="716" y="-430.7" font-family="Roboto" font-size="11.00">E41 Appellation</text>
</g>
<!-- N5 -->
<g id="node6" class="node semanticentity">
<title>N5</title>
<polygon fill="#06b67e" fill-opacity="0.666667" stroke="white" points="690,-120.5 690,-156.5 821,-156.5 821,-120.5 690,-120.5"/>
<text text-anchor="start" x="698" y="-135.7" font-family="Roboto" font-size="11.00">E28 Conceptual Object</text>
</g>
<!-- N6 -->
<g id="node7" class="node semanticentity">
<title>N6</title>
<polygon fill="#b560d4" fill-opacity="0.666667" stroke="white" points="307.5,-415.5 307.5,-451.5 426.5,-451.5 426.5,-415.5 307.5,-415.5"/>
<text text-anchor="start" x="315.5" y="-430.7" font-family="Roboto" font-size="11.00">E78 Curated Holding</text>
</g>
<!-- P1 -->
<g id="node13" class="node semanticentity">
<title>P1</title>
<path fill="#105ba4" stroke="white" d="M519,-472.5C519,-472.5 600,-472.5 600,-472.5 606,-472.5 612,-478.5 612,-484.5 612,-484.5 612,-500.5 612,-500.5 612,-506.5 606,-512.5 600,-512.5 600,-512.5 519,-512.5 519,-512.5 513,-512.5 507,-506.5 507,-500.5 507,-500.5 507,-484.5 507,-484.5 507,-478.5 513,-472.5 519,-472.5"/>
<text text-anchor="start" x="515" y="-499.7" font-family="Roboto" font-size="11.00" fill="white">P1 is identified by</text>
<polyline fill="none" stroke="white" points="507,-492.5 612,-492.5 "/>
<text text-anchor="start" x="544.5" y="-479.7" font-family="Roboto" font-size="11.00" fill="white">91.5%</text>
</g>
<!-- N6&#45;&gt;P1 -->
<g id="edge3" class="edge">
<title>N6&#45;&gt;P1</title>
<path fill="none" stroke="black" d="M387,-451.52C387,-468.87 387,-492.5 387,-492.5 387,-492.5 496.81,-492.5 496.81,-492.5"/>
<polygon fill="black" stroke="black" points="496.81,-496 506.81,-492.5 496.81,-489 496.81,-496"/>
</g>
<!-- P2 -->
<g id="node14" class="node semanticentity">
<title>P2</title>
<path fill="#105ba4" stroke="white" d="M513,-413.5C513,-413.5 606,-413.5 606,-413.5 612,-413.5 618,-419.5 618,-425.5 618,-425.5 618,-441.5 618,-441.5 618,-447.5 612,-453.5 606,-453.5 606,-453.5 513,-453.5 513,-453.5 507,-453.5 501,-447.5 501,-441.5 501,-441.5 501,-425.5 501,-425.5 501,-419.5 507,-413.5 513,-413.5"/>
<text text-anchor="start" x="509" y="-440.7" font-family="Roboto" font-size="11.00" fill="white">P46 is composed of</text>
<polyline fill="none" stroke="white" points="501,-433.5 618,-433.5 "/>
<text text-anchor="start" x="544.5" y="-420.7" font-family="Roboto" font-size="11.00" fill="white">90.0%</text>
</g>
<!-- N6&#45;&gt;P2 -->
<g id="edge5" class="edge">
<title>N6&#45;&gt;P2</title>
<path fill="none" stroke="black" d="M426.59,-427.33C426.59,-427.33 490.85,-427.33 490.85,-427.33"/>
<polygon fill="black" stroke="black" points="490.85,-430.83 500.85,-427.33 490.85,-423.83 490.85,-430.83"/>
</g>
<!-- P13 -->
<g id="node25" class="node semanticentity">
<title>P13</title>
<path fill="#e7f0fa" stroke="white" d="M515.5,-531.5C515.5,-531.5 603.5,-531.5 603.5,-531.5 609.5,-531.5 615.5,-537.5 615.5,-543.5 615.5,-543.5 615.5,-559.5 615.5,-559.5 615.5,-565.5 609.5,-571.5 603.5,-571.5 603.5,-571.5 515.5,-571.5 515.5,-571.5 509.5,-571.5 503.5,-565.5 503.5,-559.5 503.5,-559.5 503.5,-543.5 503.5,-543.5 503.5,-537.5 509.5,-531.5 515.5,-531.5"/>
<text text-anchor="start" x="511.5" y="-558.7" font-family="Roboto" font-size="11.00">P43 has dimension</text>
<polyline fill="none" stroke="white" points="503.5,-551.5 615.5,-551.5 "/>
<text text-anchor="start" x="547.5" y="-538.7" font-family="Roboto" font-size="11.00">7.2%</text>
</g>
<!-- N6&#45;&gt;P13 -->
<g id="edge27" class="edge">
<title>N6&#45;&gt;P13</title>
<path fill="none" stroke="black" d="M348,-451.68C348,-484.78 348,-551.5 348,-551.5 348,-551.5 493.38,-551.5 493.38,-551.5"/>
<polygon fill="black" stroke="black" points="493.38,-555 503.38,-551.5 493.38,-548 493.38,-555"/>
</g>
<!-- N7 -->
<g id="node8" class="node semanticentity">
<title>N7</title>
<polygon fill="#5a50c4" fill-opacity="0.666667" stroke="white" points="305,-179.5 305,-215.5 429,-215.5 429,-179.5 305,-179.5"/>
<text text-anchor="start" x="313" y="-194.7" font-family="Roboto" font-size="11.00">E20 Biological Object</text>
</g>
<!-- P9 -->
<g id="node21" class="node semanticentity">
<title>P9</title>
<path fill="#d6e6f4" stroke="white" d="M477,-236.5C477,-236.5 642,-236.5 642,-236.5 648,-236.5 654,-242.5 654,-248.5 654,-248.5 654,-264.5 654,-264.5 654,-270.5 648,-276.5 642,-276.5 642,-276.5 477,-276.5 477,-276.5 471,-276.5 465,-270.5 465,-264.5 465,-264.5 465,-248.5 465,-248.5 465,-242.5 471,-236.5 477,-236.5"/>
<text text-anchor="start" x="473" y="-263.7" font-family="Roboto" font-size="11.00">P53 has former or current location</text>
<polyline fill="none" stroke="white" points="465,-256.5 654,-256.5 "/>
<text text-anchor="start" x="544.5" y="-243.7" font-family="Roboto" font-size="11.00">19.5%</text>
</g>
<!-- N7&#45;&gt;P9 -->
<g id="edge19" class="edge">
<title>N7&#45;&gt;P9</title>
<path fill="none" stroke="black" d="M429.22,-203.67C455,-203.67 479,-203.67 479,-203.67 479,-203.67 479,-226.22 479,-226.22"/>
<polygon fill="black" stroke="black" points="475.5,-226.22 479,-236.22 482.5,-226.22 475.5,-226.22"/>
</g>
<!-- P15 -->
<g id="node27" class="node semanticentity">
<title>P15</title>
<path fill="#e7f0fa" stroke="white" d="M504,-177.5C504,-177.5 615,-177.5 615,-177.5 621,-177.5 627,-183.5 627,-189.5 627,-189.5 627,-205.5 627,-205.5 627,-211.5 621,-217.5 615,-217.5 615,-217.5 504,-217.5 504,-217.5 498,-217.5 492,-211.5 492,-205.5 492,-205.5 492,-189.5 492,-189.5 492,-183.5 498,-177.5 504,-177.5"/>
<text text-anchor="start" x="500" y="-204.7" font-family="Roboto" font-size="11.00">P130 shows features of</text>
<polyline fill="none" stroke="white" points="492,-197.5 627,-197.5 "/>
<text text-anchor="start" x="547.5" y="-184.7" font-family="Roboto" font-size="11.00">6.0%</text>
</g>
<!-- N7&#45;&gt;P15 -->
<g id="edge31" class="edge">
<title>N7&#45;&gt;P15</title>
<path fill="none" stroke="black" d="M429.23,-191.33C429.23,-191.33 481.83,-191.33 481.83,-191.33"/>
<polygon fill="black" stroke="black" points="481.83,-194.83 491.83,-191.33 481.83,-187.83 481.83,-194.83"/>
</g>
<!-- N8 -->
<g id="node9" class="node semanticentity">
<title>N8</title>
<polygon fill="#fc3915" fill-opacity="0.666667" stroke="white" points="0,-385.5 0,-421.5 90,-421.5 90,-385.5 0,-385.5"/>
<text text-anchor="start" x="8" y="-400.7" font-family="Roboto" font-size="11.00">E8 Acquisition</text>
</g>
<!-- P3 -->
<g id="node15" class="node semanticentity">
<title>P3</title>
<path fill="#2070b4" stroke="white" d="M145,-413.5C145,-413.5 250,-413.5 250,-413.5 256,-413.5 262,-419.5 262,-425.5 262,-425.5 262,-441.5 262,-441.5 262,-447.5 256,-453.5 250,-453.5 250,-453.5 145,-453.5 145,-453.5 139,-453.5 133,-447.5 133,-441.5 133,-441.5 133,-425.5 133,-425.5 133,-419.5 139,-413.5 145,-413.5"/>
<text text-anchor="start" x="141" y="-440.7" font-family="Roboto" font-size="11.00" fill="white">P22 transferred title to</text>
<polyline fill="none" stroke="white" points="133,-433.5 262,-433.5 "/>
<text text-anchor="start" x="182.5" y="-420.7" font-family="Roboto" font-size="11.00" fill="white">85.8%</text>
</g>
<!-- N8&#45;&gt;P3 -->
<g id="edge7" class="edge">
<title>N8&#45;&gt;P3</title>
<path fill="none" stroke="black" d="M90.34,-417.5C90.34,-417.5 122.86,-417.5 122.86,-417.5"/>
<polygon fill="black" stroke="black" points="122.86,-421 132.86,-417.5 122.86,-414 122.86,-421"/>
</g>
<!-- P12 -->
<g id="node24" class="node semanticentity">
<title>P12</title>
<path fill="#e7f0fa" stroke="white" d="M138,-354.5C138,-354.5 257,-354.5 257,-354.5 263,-354.5 269,-360.5 269,-366.5 269,-366.5 269,-382.5 269,-382.5 269,-388.5 263,-394.5 257,-394.5 257,-394.5 138,-394.5 138,-394.5 132,-394.5 126,-388.5 126,-382.5 126,-382.5 126,-366.5 126,-366.5 126,-360.5 132,-354.5 138,-354.5"/>
<text text-anchor="start" x="134" y="-381.7" font-family="Roboto" font-size="11.00">P23 transferred title from</text>
<polyline fill="none" stroke="white" points="126,-374.5 269,-374.5 "/>
<text text-anchor="start" x="185.5" y="-361.7" font-family="Roboto" font-size="11.00">7.7%</text>
</g>
<!-- N8&#45;&gt;P12 -->
<g id="edge25" class="edge">
<title>N8&#45;&gt;P12</title>
<path fill="none" stroke="black" d="M90.34,-390C90.34,-390 115.77,-390 115.77,-390"/>
<polygon fill="black" stroke="black" points="115.77,-393.5 125.77,-390 115.77,-386.5 115.77,-393.5"/>
</g>
<!-- N9 -->
<g id="node10" class="node semanticentity">
<title>N9</title>
<polygon fill="#50c4c2" fill-opacity="0.666667" stroke="white" points="709.5,-2.5 709.5,-38.5 801.5,-38.5 801.5,-2.5 709.5,-2.5"/>
<text text-anchor="start" x="717.5" y="-17.7" font-family="Roboto" font-size="11.00">E54 Dimension</text>
</g>
<!-- N10 -->
<g id="node11" class="node semanticentity">
<title>N10</title>
<polygon fill="#debb9b" stroke="white" points="716.5,-533.5 716.5,-569.5 794.5,-569.5 794.5,-533.5 716.5,-533.5"/>
<text text-anchor="start" x="724.5" y="-548.7" font-family="Roboto" font-size="11.00">E60 Number</text>
</g>
<!-- P0&#45;&gt;N6 -->
<g id="edge2" class="edge">
<title>P0&#45;&gt;N6</title>
<path fill="none" stroke="black" d="M262.16,-333C291.18,-333 319,-333 319,-333 319,-333 319,-405.07 319,-405.07"/>
<polygon fill="black" stroke="black" points="315.5,-405.07 319,-415.07 322.5,-405.07 315.5,-405.07"/>
</g>
<!-- P1&#45;&gt;N4 -->
<g id="edge4" class="edge">
<title>P1&#45;&gt;N4</title>
<path fill="none" stroke="black" d="M612.33,-492.5C656.73,-492.5 713,-492.5 713,-492.5 713,-492.5 713,-461.52 713,-461.52"/>
<polygon fill="black" stroke="black" points="716.5,-461.52 713,-451.52 709.5,-461.52 716.5,-461.52"/>
</g>
<!-- P2&#45;&gt;N6 -->
<g id="edge6" class="edge">
<title>P2&#45;&gt;N6</title>
<path fill="none" stroke="black" d="M500.96,-439.67C500.96,-439.67 436.59,-439.67 436.59,-439.67"/>
<polygon fill="black" stroke="black" points="436.59,-436.17 426.59,-439.67 436.59,-443.17 436.59,-436.17"/>
</g>
<!-- P3&#45;&gt;N6 -->
<g id="edge8" class="edge">
<title>P3&#45;&gt;N6</title>
<path fill="none" stroke="black" d="M262.06,-433.5C262.06,-433.5 297.35,-433.5 297.35,-433.5"/>
<polygon fill="black" stroke="black" points="297.35,-437 307.35,-433.5 297.35,-430 297.35,-437"/>
</g>
<!-- P4&#45;&gt;N1 -->
<g id="edge10" class="edge">
<title>P4&#45;&gt;N1</title>
<path fill="none" stroke="black" d="M262.06,-123C262.06,-123 298.73,-123 298.73,-123"/>
<polygon fill="black" stroke="black" points="298.73,-126.5 308.73,-123 298.73,-119.5 298.73,-126.5"/>
</g>
<!-- P5&#45;&gt;N3 -->
<g id="edge12" class="edge">
<title>P5&#45;&gt;N3</title>
<path fill="none" stroke="black" d="M654.17,-138.5C664.86,-138.5 672,-138.5 672,-138.5 672,-138.5 672,-250.33 672,-250.33 672,-250.33 712.5,-250.33 712.5,-250.33"/>
<polygon fill="black" stroke="black" points="712.5,-253.83 722.5,-250.33 712.5,-246.83 712.5,-253.83"/>
</g>
<!-- P6&#45;&gt;N2 -->
<g id="edge14" class="edge">
<title>P6&#45;&gt;N2</title>
<path fill="none" stroke="black" d="M266,-276.58C266,-298.35 266,-330 266,-330 266,-330 319.96,-330 319.96,-330"/>
<polygon fill="black" stroke="black" points="319.96,-333.5 329.96,-330 319.96,-326.5 319.96,-333.5"/>
</g>
<!-- P7&#45;&gt;N4 -->
<g id="edge16" class="edge">
<title>P7&#45;&gt;N4</title>
<path fill="none" stroke="black" d="M612.05,-374.5C657.51,-374.5 716,-374.5 716,-374.5 716,-374.5 716,-405.48 716,-405.48"/>
<polygon fill="black" stroke="black" points="712.5,-405.48 716,-415.48 719.5,-405.48 712.5,-405.48"/>
</g>
<!-- P8&#45;&gt;N7 -->
<g id="edge18" class="edge">
<title>P8&#45;&gt;N7</title>
<path fill="none" stroke="black" d="M262.06,-197.5C262.06,-197.5 294.85,-197.5 294.85,-197.5"/>
<polygon fill="black" stroke="black" points="294.85,-201 304.85,-197.5 294.85,-194 294.85,-201"/>
</g>
<!-- P9&#45;&gt;N3 -->
<g id="edge20" class="edge">
<title>P9&#45;&gt;N3</title>
<path fill="none" stroke="black" d="M654.06,-262.67C654.06,-262.67 712.22,-262.67 712.22,-262.67"/>
<polygon fill="black" stroke="black" points="712.22,-266.17 722.22,-262.67 712.22,-259.17 712.22,-266.17"/>
</g>
<!-- P10&#45;&gt;N9 -->
<g id="edge22" class="edge">
<title>P10&#45;&gt;N9</title>
<path fill="none" stroke="black" d="M615.67,-20.5C615.67,-20.5 699.24,-20.5 699.24,-20.5"/>
<polygon fill="black" stroke="black" points="699.24,-24 709.24,-20.5 699.24,-17 699.24,-24"/>
</g>
<!-- P11&#45;&gt;N5 -->
<g id="edge24" class="edge">
<title>P11&#45;&gt;N5</title>
<path fill="none" stroke="black" d="M627.28,-79.5C663.21,-79.5 700,-79.5 700,-79.5 700,-79.5 700,-110.48 700,-110.48"/>
<polygon fill="black" stroke="black" points="696.5,-110.48 700,-120.48 703.5,-110.48 696.5,-110.48"/>
</g>
<!-- P12&#45;&gt;N2 -->
<g id="edge26" class="edge">
<title>P12&#45;&gt;N2</title>
<path fill="none" stroke="black" d="M269.38,-359C269.38,-359 319.67,-359 319.67,-359"/>
<polygon fill="black" stroke="black" points="319.67,-362.5 329.67,-359 319.67,-355.5 319.67,-362.5"/>
</g>
<!-- P13&#45;&gt;N10 -->
<g id="edge28" class="edge">
<title>P13&#45;&gt;N10</title>
<path fill="none" stroke="black" d="M615.67,-551.5C615.67,-551.5 706.42,-551.5 706.42,-551.5"/>
<polygon fill="black" stroke="black" points="706.42,-555 716.42,-551.5 706.42,-548 706.42,-555"/>
</g>
<!-- P14&#45;&gt;N3 -->
<g id="edge30" class="edge">
<title>P14&#45;&gt;N3</title>
<path fill="none" stroke="black" d="M654.01,-315.5C704.35,-315.5 756,-315.5 756,-315.5 756,-315.5 756,-284.52 756,-284.52"/>
<polygon fill="black" stroke="black" points="759.5,-284.52 756,-274.52 752.5,-284.52 759.5,-284.52"/>
</g>
<!-- P15&#45;&gt;N5 -->
<g id="edge32" class="edge">
<title>P15&#45;&gt;N5</title>
<path fill="none" stroke="black" d="M627.21,-197.5C662.75,-197.5 699,-197.5 699,-197.5 699,-197.5 699,-166.52 699,-166.52"/>
<polygon fill="black" stroke="black" points="702.5,-166.52 699,-156.52 695.5,-166.52 702.5,-166.52"/>
</g>
</g>
</svg>
