<?xml version="1.0" encoding="UTF-8" standalone="no"?>
<!DOCTYPE svg PUBLIC "-//W3C//DTD SVG 1.1//EN"
 "http://www.w3.org/Graphics/SVG/1.1/DTD/svg11.dtd">
<!-- Generated by graphviz version 3.0.0 (20220226.1711)
 -->
<!-- Title: Annotationen Pages: 1 -->
<svg width="829pt" height="580pt"
 viewBox="0.00 0.00 829.00 580.00" xmlns="http://www.w3.org/2000/svg" xmlns:xlink="http://www.w3.org/1999/xlink">
<g id="graph0" class="graph" transform="scale(1 1) rotate(0) translate(4 576)">
<title>Annotationen</title>
<!-- N0 -->
<g id="node1" class="node semanticentity">
<title>N0</title>
<polygon fill="#fc3915" fill-opacity="0.666667" stroke="black" points="0,-356.5 0,-392.5 90,-392.5 90,-356.5 0,-356.5"/>
<text text-anchor="start" x="8" y="-371.7" font-family="Roboto" font-size="11.00">E8 Acquisition</text>
</g>
<!-- P0 -->
<g id="node12" class="node semanticentity">
<title>P0</title>
<path fill="#105ba4" stroke="black" d="M145,-531.5C145,-531.5 250,-531.5 250,-531.5 256,-531.5 262,-537.5 262,-543.5 262,-543.5 262,-559.5 262,-559.5 262,-565.5 256,-571.5 250,-571.5 250,-571.5 145,-571.5 145,-571.5 139,-571.5 133,-565.5 133,-559.5 133,-559.5 133,-543.5 133,-543.5 133,-537.5 139,-531.5 145,-531.5"/>
<text text-anchor="start" x="141" y="-558.7" font-family="Roboto" font-size="11.00" fill="white">P22 transferred title to</text>
<polyline fill="none" stroke="black" points="133,-551.5 262,-551.5 "/>
<text text-anchor="start" x="182.5" y="-538.7" font-family="Roboto" font-size="11.00" fill="white">99.7%</text>
</g>
<!-- N0&#45;&gt;P0 -->
<g id="edge1" class="edge">
<title>N0&#45;&gt;P0</title>
<path fill="none" stroke="black" d="M30,-392.78C30,-438 30,-551.5 30,-551.5 30,-551.5 122.74,-551.5 122.74,-551.5"/>
<polygon fill="black" stroke="black" points="122.74,-555 132.74,-551.5 122.74,-548 122.74,-555"/>
</g>
<!-- P4 -->
<g id="node16" class="node semanticentity">
<title>P4</title>
<path fill="#3787c0" stroke="white" d="M172.5,-413.5C172.5,-413.5 222.5,-413.5 222.5,-413.5 228.5,-413.5 234.5,-419.5 234.5,-425.5 234.5,-425.5 234.5,-441.5 234.5,-441.5 234.5,-447.5 228.5,-453.5 222.5,-453.5 222.5,-453.5 172.5,-453.5 172.5,-453.5 166.5,-453.5 160.5,-447.5 160.5,-441.5 160.5,-441.5 160.5,-425.5 160.5,-425.5 160.5,-419.5 166.5,-413.5 172.5,-413.5"/>
<text text-anchor="start" x="168.5" y="-440.7" font-family="Roboto" font-size="11.00" fill="white">P2 has type</text>
<polyline fill="none" stroke="white" points="160.5,-433.5 234.5,-433.5 "/>
<text text-anchor="start" x="182.5" y="-420.7" font-family="Roboto" font-size="11.00" fill="white">78.6%</text>
</g>
<!-- N0&#45;&gt;P4 -->
<g id="edge9" class="edge">
<title>N0&#45;&gt;P4</title>
<path fill="none" stroke="black" d="M60,-392.52C60,-409.87 60,-433.5 60,-433.5 60,-433.5 150.29,-433.5 150.29,-433.5"/>
<polygon fill="black" stroke="black" points="150.29,-437 160.29,-433.5 150.29,-430 150.29,-437"/>
</g>
<!-- P6 -->
<g id="node18" class="node semanticentity">
<title>P6</title>
<path fill="#3787c0" stroke="white" d="M138,-295.5C138,-295.5 257,-295.5 257,-295.5 263,-295.5 269,-301.5 269,-307.5 269,-307.5 269,-323.5 269,-323.5 269,-329.5 263,-335.5 257,-335.5 257,-335.5 138,-335.5 138,-335.5 132,-335.5 126,-329.5 126,-323.5 126,-323.5 126,-307.5 126,-307.5 126,-301.5 132,-295.5 138,-295.5"/>
<text text-anchor="start" x="134" y="-322.7" font-family="Roboto" font-size="11.00" fill="white">P23 transferred title from</text>
<polyline fill="none" stroke="white" points="126,-315.5 269,-315.5 "/>
<text text-anchor="start" x="182.5" y="-302.7" font-family="Roboto" font-size="11.00" fill="white">70.1%</text>
</g>
<!-- N0&#45;&gt;P6 -->
<g id="edge13" class="edge">
<title>N0&#45;&gt;P6</title>
<path fill="none" stroke="black" d="M90.01,-378.2C110.82,-378.2 131,-378.2 131,-378.2 131,-378.2 131,-345.68 131,-345.68"/>
<polygon fill="black" stroke="black" points="134.5,-345.68 131,-335.68 127.5,-345.68 134.5,-345.68"/>
</g>
<!-- P9 -->
<g id="node21" class="node semanticentity">
<title>P9</title>
<path fill="#6aaed6" stroke="white" d="M145,-118.5C145,-118.5 250,-118.5 250,-118.5 256,-118.5 262,-124.5 262,-130.5 262,-130.5 262,-146.5 262,-146.5 262,-152.5 256,-158.5 250,-158.5 250,-158.5 145,-158.5 145,-158.5 139,-158.5 133,-152.5 133,-146.5 133,-146.5 133,-130.5 133,-130.5 133,-124.5 139,-118.5 145,-118.5"/>
<text text-anchor="start" x="141" y="-145.7" font-family="Roboto" font-size="11.00">P24 transferred title of</text>
<polyline fill="none" stroke="white" points="133,-138.5 262,-138.5 "/>
<text text-anchor="start" x="182.5" y="-125.7" font-family="Roboto" font-size="11.00">57.0%</text>
</g>
<!-- N0&#45;&gt;P9 -->
<g id="edge19" class="edge">
<title>N0&#45;&gt;P9</title>
<path fill="none" stroke="black" d="M90.25,-370.8C103.26,-370.8 114,-370.8 114,-370.8 114,-370.8 114,-147.75 114,-147.75 114,-147.75 122.95,-147.75 122.95,-147.75"/>
<polygon fill="black" stroke="black" points="122.95,-151.25 132.95,-147.75 122.95,-144.25 122.95,-151.25"/>
</g>
<!-- P12 -->
<g id="node24" class="node semanticentity">
<title>P12</title>
<path fill="#d6e6f4" stroke="white" d="M138,-472.5C138,-472.5 257,-472.5 257,-472.5 263,-472.5 269,-478.5 269,-484.5 269,-484.5 269,-500.5 269,-500.5 269,-506.5 263,-512.5 257,-512.5 257,-512.5 138,-512.5 138,-512.5 132,-512.5 126,-506.5 126,-500.5 126,-500.5 126,-484.5 126,-484.5 126,-478.5 132,-472.5 138,-472.5"/>
<text text-anchor="start" x="134" y="-499.7" font-family="Roboto" font-size="11.00">P23 transferred title from</text>
<polyline fill="none" stroke="white" points="126,-492.5 269,-492.5 "/>
<text text-anchor="start" x="182.5" y="-479.7" font-family="Roboto" font-size="11.00">10.6%</text>
</g>
<!-- N0&#45;&gt;P12 -->
<g id="edge25" class="edge">
<title>N0&#45;&gt;P12</title>
<path fill="none" stroke="black" d="M90.44,-385.6C110.23,-385.6 129,-385.6 129,-385.6 129,-385.6 129,-462.39 129,-462.39"/>
<polygon fill="black" stroke="black" points="125.5,-462.39 129,-472.39 132.5,-462.39 125.5,-462.39"/>
</g>
<!-- P14 -->
<g id="node26" class="node semanticentity">
<title>P14</title>
<path fill="#e7f0fa" stroke="white" d="M145,-236.5C145,-236.5 250,-236.5 250,-236.5 256,-236.5 262,-242.5 262,-248.5 262,-248.5 262,-264.5 262,-264.5 262,-270.5 256,-276.5 250,-276.5 250,-276.5 145,-276.5 145,-276.5 139,-276.5 133,-270.5 133,-264.5 133,-264.5 133,-248.5 133,-248.5 133,-242.5 139,-236.5 145,-236.5"/>
<text text-anchor="start" x="141" y="-263.7" font-family="Roboto" font-size="11.00">P24 transferred title of</text>
<polyline fill="none" stroke="white" points="133,-256.5 262,-256.5 "/>
<text text-anchor="start" x="185.5" y="-243.7" font-family="Roboto" font-size="11.00">6.2%</text>
</g>
<!-- N0&#45;&gt;P14 -->
<g id="edge29" class="edge">
<title>N0&#45;&gt;P14</title>
<path fill="none" stroke="black" d="M45,-356.32C45,-323.22 45,-256.5 45,-256.5 45,-256.5 122.83,-256.5 122.83,-256.5"/>
<polygon fill="black" stroke="black" points="122.83,-260 132.83,-256.5 122.83,-253 122.83,-260"/>
</g>
<!-- N1 -->
<g id="node2" class="node semanticentity">
<title>N1</title>
<polygon fill="#b560d4" fill-opacity="0.666667" stroke="white" points="307.5,-503.5 307.5,-539.5 426.5,-539.5 426.5,-503.5 307.5,-503.5"/>
<text text-anchor="start" x="315.5" y="-518.7" font-family="Roboto" font-size="11.00">E78 Curated Holding</text>
</g>
<!-- P1 -->
<g id="node13" class="node semanticentity">
<title>P1</title>
<path fill="#105ba4" stroke="white" d="M513,-516.5C513,-516.5 606,-516.5 606,-516.5 612,-516.5 618,-522.5 618,-528.5 618,-528.5 618,-544.5 618,-544.5 618,-550.5 612,-556.5 606,-556.5 606,-556.5 513,-556.5 513,-556.5 507,-556.5 501,-550.5 501,-544.5 501,-544.5 501,-528.5 501,-528.5 501,-522.5 507,-516.5 513,-516.5"/>
<text text-anchor="start" x="509" y="-543.7" font-family="Roboto" font-size="11.00" fill="white">P46 is composed of</text>
<polyline fill="none" stroke="white" points="501,-536.5 618,-536.5 "/>
<text text-anchor="start" x="544.5" y="-523.7" font-family="Roboto" font-size="11.00" fill="white">99.3%</text>
</g>
<!-- N1&#45;&gt;P1 -->
<g id="edge3" class="edge">
<title>N1&#45;&gt;P1</title>
<path fill="none" stroke="black" d="M426.59,-532C426.59,-532 490.85,-532 490.85,-532"/>
<polygon fill="black" stroke="black" points="490.85,-535.5 500.85,-532 490.85,-528.5 490.85,-535.5"/>
</g>
<!-- P2 -->
<g id="node14" class="node semanticentity">
<title>P2</title>
<path fill="#105ba4" stroke="white" d="M519,-457.5C519,-457.5 600,-457.5 600,-457.5 606,-457.5 612,-463.5 612,-469.5 612,-469.5 612,-485.5 612,-485.5 612,-491.5 606,-497.5 600,-497.5 600,-497.5 519,-497.5 519,-497.5 513,-497.5 507,-491.5 507,-485.5 507,-485.5 507,-469.5 507,-469.5 507,-463.5 513,-457.5 519,-457.5"/>
<text text-anchor="start" x="515" y="-484.7" font-family="Roboto" font-size="11.00" fill="white">P1 is identified by</text>
<polyline fill="none" stroke="white" points="507,-477.5 612,-477.5 "/>
<text text-anchor="start" x="544.5" y="-464.7" font-family="Roboto" font-size="11.00" fill="white">96.6%</text>
</g>
<!-- N1&#45;&gt;P2 -->
<g id="edge5" class="edge">
<title>N1&#45;&gt;P2</title>
<path fill="none" stroke="black" d="M416,-503.25C416,-494.12 416,-485 416,-485 416,-485 496.88,-485 496.88,-485"/>
<polygon fill="black" stroke="black" points="496.88,-488.5 506.88,-485 496.88,-481.5 496.88,-488.5"/>
</g>
<!-- N2 -->
<g id="node3" class="node semanticentity">
<title>N2</title>
<polygon fill="#5a50c4" fill-opacity="0.666667" stroke="white" points="309,-105.5 309,-141.5 425,-141.5 425,-105.5 309,-105.5"/>
<text text-anchor="start" x="317" y="-120.7" font-family="Roboto" font-size="11.00">E19 Physical Object</text>
</g>
<!-- P7 -->
<g id="node19" class="node semanticentity">
<title>P7</title>
<path fill="#4f9bcb" stroke="white" d="M477,-162.5C477,-162.5 642,-162.5 642,-162.5 648,-162.5 654,-168.5 654,-174.5 654,-174.5 654,-190.5 654,-190.5 654,-196.5 648,-202.5 642,-202.5 642,-202.5 477,-202.5 477,-202.5 471,-202.5 465,-196.5 465,-190.5 465,-190.5 465,-174.5 465,-174.5 465,-168.5 471,-162.5 477,-162.5"/>
<text text-anchor="start" x="473" y="-189.7" font-family="Roboto" font-size="11.00">P53 has former or current location</text>
<polyline fill="none" stroke="white" points="465,-182.5 654,-182.5 "/>
<text text-anchor="start" x="544.5" y="-169.7" font-family="Roboto" font-size="11.00">66.7%</text>
</g>
<!-- N2&#45;&gt;P7 -->
<g id="edge15" class="edge">
<title>N2&#45;&gt;P7</title>
<path fill="none" stroke="black" d="M425.3,-129.67C452.51,-129.67 479,-129.67 479,-129.67 479,-129.67 479,-152.22 479,-152.22"/>
<polygon fill="black" stroke="black" points="475.5,-152.22 479,-162.22 482.5,-152.22 475.5,-152.22"/>
</g>
<!-- P17 -->
<g id="node29" class="node semanticentity">
<title>P17</title>
<path fill="#e7f0fa" stroke="white" d="M504,-103.5C504,-103.5 615,-103.5 615,-103.5 621,-103.5 627,-109.5 627,-115.5 627,-115.5 627,-131.5 627,-131.5 627,-137.5 621,-143.5 615,-143.5 615,-143.5 504,-143.5 504,-143.5 498,-143.5 492,-137.5 492,-131.5 492,-131.5 492,-115.5 492,-115.5 492,-109.5 498,-103.5 504,-103.5"/>
<text text-anchor="start" x="500" y="-130.7" font-family="Roboto" font-size="11.00">P130 shows features of</text>
<polyline fill="none" stroke="white" points="492,-123.5 627,-123.5 "/>
<text text-anchor="start" x="547.5" y="-110.7" font-family="Roboto" font-size="11.00">5.4%</text>
</g>
<!-- N2&#45;&gt;P17 -->
<g id="edge35" class="edge">
<title>N2&#45;&gt;P17</title>
<path fill="none" stroke="black" d="M425.02,-117.33C425.02,-117.33 481.79,-117.33 481.79,-117.33"/>
<polygon fill="black" stroke="black" points="481.79,-120.83 491.79,-117.33 481.79,-113.83 481.79,-120.83"/>
</g>
<!-- P18 -->
<g id="node30" class="node semanticentity">
<title>P18</title>
<path fill="#e7f0fa" stroke="white" d="M515.5,-44.5C515.5,-44.5 603.5,-44.5 603.5,-44.5 609.5,-44.5 615.5,-50.5 615.5,-56.5 615.5,-56.5 615.5,-72.5 615.5,-72.5 615.5,-78.5 609.5,-84.5 603.5,-84.5 603.5,-84.5 515.5,-84.5 515.5,-84.5 509.5,-84.5 503.5,-78.5 503.5,-72.5 503.5,-72.5 503.5,-56.5 503.5,-56.5 503.5,-50.5 509.5,-44.5 515.5,-44.5"/>
<text text-anchor="start" x="511.5" y="-71.7" font-family="Roboto" font-size="11.00">P43 has dimension</text>
<polyline fill="none" stroke="white" points="503.5,-64.5 615.5,-64.5 "/>
<text text-anchor="start" x="547.5" y="-51.7" font-family="Roboto" font-size="11.00">5.3%</text>
</g>
<!-- N2&#45;&gt;P18 -->
<g id="edge37" class="edge">
<title>N2&#45;&gt;P18</title>
<path fill="none" stroke="black" d="M387,-105.49C387,-90.64 387,-72 387,-72 387,-72 493.49,-72 493.49,-72"/>
<polygon fill="black" stroke="black" points="493.49,-75.5 503.49,-72 493.49,-68.5 493.49,-75.5"/>
</g>
<!-- N3 -->
<g id="node4" class="node semanticentity">
<title>N3</title>
<polygon fill="#06b67e" fill-opacity="0.666667" stroke="white" points="336,-407.5 336,-443.5 398,-443.5 398,-407.5 336,-407.5"/>
<text text-anchor="start" x="344" y="-422.7" font-family="Roboto" font-size="11.00">E55 Type</text>
</g>
<!-- P5 -->
<g id="node17" class="node semanticentity">
<title>P5</title>
<path fill="#3787c0" stroke="white" d="M519,-398.5C519,-398.5 600,-398.5 600,-398.5 606,-398.5 612,-404.5 612,-410.5 612,-410.5 612,-426.5 612,-426.5 612,-432.5 606,-438.5 600,-438.5 600,-438.5 519,-438.5 519,-438.5 513,-438.5 507,-432.5 507,-426.5 507,-426.5 507,-410.5 507,-410.5 507,-404.5 513,-398.5 519,-398.5"/>
<text text-anchor="start" x="515" y="-425.7" font-family="Roboto" font-size="11.00" fill="white">P1 is identified by</text>
<polyline fill="none" stroke="white" points="507,-418.5 612,-418.5 "/>
<text text-anchor="start" x="544.5" y="-405.7" font-family="Roboto" font-size="11.00" fill="white">78.6%</text>
</g>
<!-- N3&#45;&gt;P5 -->
<g id="edge11" class="edge">
<title>N3&#45;&gt;P5</title>
<path fill="none" stroke="black" d="M398.36,-423C398.36,-423 496.71,-423 496.71,-423"/>
<polygon fill="black" stroke="black" points="496.71,-426.5 506.71,-423 496.71,-419.5 496.71,-426.5"/>
</g>
<!-- N4 -->
<g id="node5" class="node semanticentity">
<title>N4</title>
<polygon fill="#debb9b" stroke="white" points="708,-400.5 708,-436.5 803,-436.5 803,-400.5 708,-400.5"/>
<text text-anchor="start" x="716" y="-415.7" font-family="Roboto" font-size="11.00">E41 Appellation</text>
</g>
<!-- N5 -->
<g id="node6" class="node semanticentity">
<title>N5</title>
<polygon fill="#3b95c4" fill-opacity="0.666667" stroke="white" points="330,-289.5 330,-325.5 404,-325.5 404,-289.5 330,-289.5"/>
<text text-anchor="start" x="338" y="-304.7" font-family="Roboto" font-size="11.00">E21 Person</text>
</g>
<!-- P8 -->
<g id="node20" class="node semanticentity">
<title>P8</title>
<path fill="#4f9bcb" stroke="white" d="M519,-339.5C519,-339.5 600,-339.5 600,-339.5 606,-339.5 612,-345.5 612,-351.5 612,-351.5 612,-367.5 612,-367.5 612,-373.5 606,-379.5 600,-379.5 600,-379.5 519,-379.5 519,-379.5 513,-379.5 507,-373.5 507,-367.5 507,-367.5 507,-351.5 507,-351.5 507,-345.5 513,-339.5 519,-339.5"/>
<text text-anchor="start" x="515" y="-366.7" font-family="Roboto" font-size="11.00">P1 is identified by</text>
<polyline fill="none" stroke="white" points="507,-359.5 612,-359.5 "/>
<text text-anchor="start" x="544.5" y="-346.7" font-family="Roboto" font-size="11.00">60.9%</text>
</g>
<!-- N5&#45;&gt;P8 -->
<g id="edge17" class="edge">
<title>N5&#45;&gt;P8</title>
<path fill="none" stroke="black" d="M367,-325.63C367,-335.81 367,-346.5 367,-346.5 367,-346.5 496.9,-346.5 496.9,-346.5"/>
<polygon fill="black" stroke="black" points="496.9,-350 506.9,-346.5 496.9,-343 496.9,-350"/>
</g>
<!-- P16 -->
<g id="node28" class="node semanticentity">
<title>P16</title>
<path fill="#e7f0fa" stroke="white" d="M477,-280.5C477,-280.5 642,-280.5 642,-280.5 648,-280.5 654,-286.5 654,-292.5 654,-292.5 654,-308.5 654,-308.5 654,-314.5 648,-320.5 642,-320.5 642,-320.5 477,-320.5 477,-320.5 471,-320.5 465,-314.5 465,-308.5 465,-308.5 465,-292.5 465,-292.5 465,-286.5 471,-280.5 477,-280.5"/>
<text text-anchor="start" x="473" y="-307.7" font-family="Roboto" font-size="11.00">P53 has former or current location</text>
<polyline fill="none" stroke="white" points="465,-300.5 654,-300.5 "/>
<text text-anchor="start" x="547.5" y="-287.7" font-family="Roboto" font-size="11.00">6.0%</text>
</g>
<!-- N5&#45;&gt;P16 -->
<g id="edge33" class="edge">
<title>N5&#45;&gt;P16</title>
<path fill="none" stroke="black" d="M404.12,-305C404.12,-305 454.94,-305 454.94,-305"/>
<polygon fill="black" stroke="black" points="454.94,-308.5 464.94,-305 454.94,-301.5 454.94,-308.5"/>
</g>
<!-- N6 -->
<g id="node7" class="node semanticentity">
<title>N6</title>
<polygon fill="#fc7715" fill-opacity="0.666667" stroke="white" points="722.5,-223.5 722.5,-259.5 788.5,-259.5 788.5,-223.5 722.5,-223.5"/>
<text text-anchor="start" x="730.5" y="-238.7" font-family="Roboto" font-size="11.00">E53 Place</text>
</g>
<!-- N7 -->
<g id="node8" class="node semanticentity">
<title>N7</title>
<polygon fill="#50c4c2" fill-opacity="0.666667" stroke="white" points="709.5,-46.5 709.5,-82.5 801.5,-82.5 801.5,-46.5 709.5,-46.5"/>
<text text-anchor="start" x="717.5" y="-61.7" font-family="Roboto" font-size="11.00">E54 Dimension</text>
</g>
<!-- N8 -->
<g id="node9" class="node semanticentity">
<title>N8</title>
<polygon fill="#5a50c4" fill-opacity="0.666667" stroke="white" points="305,-223.5 305,-259.5 429,-259.5 429,-223.5 305,-223.5"/>
<text text-anchor="start" x="313" y="-238.7" font-family="Roboto" font-size="11.00">E20 Biological Object</text>
</g>
<!-- P11 -->
<g id="node23" class="node semanticentity">
<title>P11</title>
<path fill="#d6e6f4" stroke="white" d="M477,-221.5C477,-221.5 642,-221.5 642,-221.5 648,-221.5 654,-227.5 654,-233.5 654,-233.5 654,-249.5 654,-249.5 654,-255.5 648,-261.5 642,-261.5 642,-261.5 477,-261.5 477,-261.5 471,-261.5 465,-255.5 465,-249.5 465,-249.5 465,-233.5 465,-233.5 465,-227.5 471,-221.5 477,-221.5"/>
<text text-anchor="start" x="473" y="-248.7" font-family="Roboto" font-size="11.00">P53 has former or current location</text>
<polyline fill="none" stroke="white" points="465,-241.5 654,-241.5 "/>
<text text-anchor="start" x="544.5" y="-228.7" font-family="Roboto" font-size="11.00">12.1%</text>
</g>
<!-- N8&#45;&gt;P11 -->
<g id="edge23" class="edge">
<title>N8&#45;&gt;P11</title>
<path fill="none" stroke="black" d="M429.23,-241.5C429.23,-241.5 454.94,-241.5 454.94,-241.5"/>
<polygon fill="black" stroke="black" points="454.94,-245 464.94,-241.5 454.94,-238 454.94,-245"/>
</g>
<!-- N9 -->
<g id="node10" class="node semanticentity">
<title>N9</title>
<polygon fill="#06b67e" fill-opacity="0.666667" stroke="white" points="690,-105.5 690,-141.5 821,-141.5 821,-105.5 690,-105.5"/>
<text text-anchor="start" x="698" y="-120.7" font-family="Roboto" font-size="11.00">E28 Conceptual Object</text>
</g>
<!-- N10 -->
<g id="node11" class="node semanticentity">
<title>N10</title>
<polygon fill="#fc3915" fill-opacity="0.666667" stroke="white" points="2.5,-120.5 2.5,-156.5 87.5,-156.5 87.5,-120.5 2.5,-120.5"/>
<text text-anchor="start" x="10.5" y="-135.7" font-family="Roboto" font-size="11.00">E96 Purchase</text>
</g>
<!-- P3 -->
<g id="node15" class="node semanticentity">
<title>P3</title>
<path fill="#105ba4" stroke="white" d="M145,-354.5C145,-354.5 250,-354.5 250,-354.5 256,-354.5 262,-360.5 262,-366.5 262,-366.5 262,-382.5 262,-382.5 262,-388.5 256,-394.5 250,-394.5 250,-394.5 145,-394.5 145,-394.5 139,-394.5 133,-388.5 133,-382.5 133,-382.5 133,-366.5 133,-366.5 133,-360.5 139,-354.5 145,-354.5"/>
<text text-anchor="start" x="141" y="-381.7" font-family="Roboto" font-size="11.00" fill="white">P22 transferred title to</text>
<polyline fill="none" stroke="white" points="133,-374.5 262,-374.5 "/>
<text text-anchor="start" x="182.5" y="-361.7" font-family="Roboto" font-size="11.00" fill="white">94.5%</text>
</g>
<!-- N10&#45;&gt;P3 -->
<g id="edge7" class="edge">
<title>N10&#45;&gt;P3</title>
<path fill="none" stroke="black" d="M87.62,-138.5C95.86,-138.5 102,-138.5 102,-138.5 102,-138.5 102,-363.4 102,-363.4 102,-363.4 122.74,-363.4 122.74,-363.4"/>
<polygon fill="black" stroke="black" points="122.74,-366.9 132.74,-363.4 122.74,-359.9 122.74,-366.9"/>
</g>
<!-- P10 -->
<g id="node22" class="node semanticentity">
<title>P10</title>
<path fill="#d6e6f4" stroke="white" d="M145,-0.5C145,-0.5 250,-0.5 250,-0.5 256,-0.5 262,-6.5 262,-12.5 262,-12.5 262,-28.5 262,-28.5 262,-34.5 256,-40.5 250,-40.5 250,-40.5 145,-40.5 145,-40.5 139,-40.5 133,-34.5 133,-28.5 133,-28.5 133,-12.5 133,-12.5 133,-6.5 139,-0.5 145,-0.5"/>
<text text-anchor="start" x="141" y="-27.7" font-family="Roboto" font-size="11.00">P24 transferred title of</text>
<polyline fill="none" stroke="white" points="133,-20.5 262,-20.5 "/>
<text text-anchor="start" x="182.5" y="-7.7" font-family="Roboto" font-size="11.00">13.0%</text>
</g>
<!-- N10&#45;&gt;P10 -->
<g id="edge21" class="edge">
<title>N10&#45;&gt;P10</title>
<path fill="none" stroke="black" d="M31,-120.32C31,-87.22 31,-20.5 31,-20.5 31,-20.5 122.65,-20.5 122.65,-20.5"/>
<polygon fill="black" stroke="black" points="122.65,-24 132.65,-20.5 122.65,-17 122.65,-24"/>
</g>
<!-- P13 -->
<g id="node25" class="node semanticentity">
<title>P13</title>
<path fill="#e7f0fa" stroke="white" d="M145,-59.5C145,-59.5 250,-59.5 250,-59.5 256,-59.5 262,-65.5 262,-71.5 262,-71.5 262,-87.5 262,-87.5 262,-93.5 256,-99.5 250,-99.5 250,-99.5 145,-99.5 145,-99.5 139,-99.5 133,-93.5 133,-87.5 133,-87.5 133,-71.5 133,-71.5 133,-65.5 139,-59.5 145,-59.5"/>
<text text-anchor="start" x="141" y="-86.7" font-family="Roboto" font-size="11.00">P24 transferred title of</text>
<polyline fill="none" stroke="white" points="133,-79.5 262,-79.5 "/>
<text text-anchor="start" x="185.5" y="-66.7" font-family="Roboto" font-size="11.00">7.8%</text>
</g>
<!-- N10&#45;&gt;P13 -->
<g id="edge27" class="edge">
<title>N10&#45;&gt;P13</title>
<path fill="none" stroke="black" d="M60,-120.48C60,-103.13 60,-79.5 60,-79.5 60,-79.5 122.78,-79.5 122.78,-79.5"/>
<polygon fill="black" stroke="black" points="122.78,-83 132.78,-79.5 122.78,-76 122.78,-83"/>
</g>
<!-- P15 -->
<g id="node27" class="node semanticentity">
<title>P15</title>
<path fill="#e7f0fa" stroke="white" d="M138,-177.5C138,-177.5 257,-177.5 257,-177.5 263,-177.5 269,-183.5 269,-189.5 269,-189.5 269,-205.5 269,-205.5 269,-211.5 263,-217.5 257,-217.5 257,-217.5 138,-217.5 138,-217.5 132,-217.5 126,-211.5 126,-205.5 126,-205.5 126,-189.5 126,-189.5 126,-183.5 132,-177.5 138,-177.5"/>
<text text-anchor="start" x="134" y="-204.7" font-family="Roboto" font-size="11.00">P23 transferred title from</text>
<polyline fill="none" stroke="white" points="126,-197.5 269,-197.5 "/>
<text text-anchor="start" x="185.5" y="-184.7" font-family="Roboto" font-size="11.00">6.1%</text>
</g>
<!-- N10&#45;&gt;P15 -->
<g id="edge31" class="edge">
<title>N10&#45;&gt;P15</title>
<path fill="none" stroke="black" d="M88,-129.25C109.08,-129.25 130,-129.25 130,-129.25 130,-129.25 130,-167.39 130,-167.39"/>
<polygon fill="black" stroke="black" points="126.5,-167.39 130,-177.39 133.5,-167.39 126.5,-167.39"/>
</g>
<!-- P0&#45;&gt;N1 -->
<g id="edge2" class="edge">
<title>P0&#45;&gt;N1</title>
<path fill="none" stroke="black" d="M262.06,-535.5C262.06,-535.5 297.35,-535.5 297.35,-535.5"/>
<polygon fill="black" stroke="black" points="297.35,-539 307.35,-535.5 297.35,-532 297.35,-539"/>
</g>
<!-- P1&#45;&gt;N1 -->
<g id="edge4" class="edge">
<title>P1&#45;&gt;N1</title>
<path fill="none" stroke="black" d="M500.96,-524C500.96,-524 436.59,-524 436.59,-524"/>
<polygon fill="black" stroke="black" points="436.59,-520.5 426.59,-524 436.59,-527.5 436.59,-520.5"/>
</g>
<!-- P2&#45;&gt;N4 -->
<g id="edge6" class="edge">
<title>P2&#45;&gt;N4</title>
<path fill="none" stroke="black" d="M612.16,-477.5C670.36,-477.5 756,-477.5 756,-477.5 756,-477.5 756,-446.52 756,-446.52"/>
<polygon fill="black" stroke="black" points="759.5,-446.52 756,-436.52 752.5,-446.52 759.5,-446.52"/>
</g>
<!-- P3&#45;&gt;N1 -->
<g id="edge8" class="edge">
<title>P3&#45;&gt;N1</title>
<path fill="none" stroke="black" d="M262.16,-387.5C291.18,-387.5 319,-387.5 319,-387.5 319,-387.5 319,-493.43 319,-493.43"/>
<polygon fill="black" stroke="black" points="315.5,-493.43 319,-503.43 322.5,-493.43 315.5,-493.43"/>
</g>
<!-- P4&#45;&gt;N3 -->
<g id="edge10" class="edge">
<title>P4&#45;&gt;N3</title>
<path fill="none" stroke="black" d="M234.7,-428.5C234.7,-428.5 325.85,-428.5 325.85,-428.5"/>
<polygon fill="black" stroke="black" points="325.85,-432 335.85,-428.5 325.85,-425 325.85,-432"/>
</g>
<!-- P5&#45;&gt;N4 -->
<g id="edge12" class="edge">
<title>P5&#45;&gt;N4</title>
<path fill="none" stroke="black" d="M612.02,-418.5C612.02,-418.5 697.86,-418.5 697.86,-418.5"/>
<polygon fill="black" stroke="black" points="697.86,-422 707.86,-418.5 697.86,-415 697.86,-422"/>
</g>
<!-- P6&#45;&gt;N5 -->
<g id="edge14" class="edge">
<title>P6&#45;&gt;N5</title>
<path fill="none" stroke="black" d="M269.38,-315.67C269.38,-315.67 319.67,-315.67 319.67,-315.67"/>
<polygon fill="black" stroke="black" points="319.67,-319.17 329.67,-315.67 319.67,-312.17 319.67,-319.17"/>
</g>
<!-- P7&#45;&gt;N6 -->
<g id="edge16" class="edge">
<title>P7&#45;&gt;N6</title>
<path fill="none" stroke="black" d="M654.01,-182.5C704.35,-182.5 756,-182.5 756,-182.5 756,-182.5 756,-213.48 756,-213.48"/>
<polygon fill="black" stroke="black" points="752.5,-213.48 756,-223.48 759.5,-213.48 752.5,-213.48"/>
</g>
<!-- P8&#45;&gt;N4 -->
<g id="edge18" class="edge">
<title>P8&#45;&gt;N4</title>
<path fill="none" stroke="black" d="M612.05,-359.5C657.51,-359.5 716,-359.5 716,-359.5 716,-359.5 716,-390.48 716,-390.48"/>
<polygon fill="black" stroke="black" points="712.5,-390.48 716,-400.48 719.5,-390.48 712.5,-390.48"/>
</g>
<!-- P9&#45;&gt;N2 -->
<g id="edge20" class="edge">
<title>P9&#45;&gt;N2</title>
<path fill="none" stroke="black" d="M262.06,-130C262.06,-130 298.73,-130 298.73,-130"/>
<polygon fill="black" stroke="black" points="298.73,-133.5 308.73,-130 298.73,-126.5 298.73,-133.5"/>
</g>
<!-- P10&#45;&gt;N2 -->
<g id="edge22" class="edge">
<title>P10&#45;&gt;N2</title>
<path fill="none" stroke="black" d="M262.2,-20.5C302.99,-20.5 348,-20.5 348,-20.5 348,-20.5 348,-95.09 348,-95.09"/>
<polygon fill="black" stroke="black" points="344.5,-95.09 348,-105.09 351.5,-95.09 344.5,-95.09"/>
</g>
<!-- P11&#45;&gt;N6 -->
<g id="edge24" class="edge">
<title>P11&#45;&gt;N6</title>
<path fill="none" stroke="black" d="M654.06,-241.5C654.06,-241.5 712.22,-241.5 712.22,-241.5"/>
<polygon fill="black" stroke="black" points="712.22,-245 722.22,-241.5 712.22,-238 712.22,-245"/>
</g>
<!-- P12&#45;&gt;N1 -->
<g id="edge26" class="edge">
<title>P12&#45;&gt;N1</title>
<path fill="none" stroke="black" d="M269.38,-508C269.38,-508 297.29,-508 297.29,-508"/>
<polygon fill="black" stroke="black" points="297.29,-511.5 307.29,-508 297.29,-504.5 297.29,-511.5"/>
</g>
<!-- P13&#45;&gt;N8 -->
<g id="edge28" class="edge">
<title>P13&#45;&gt;N8</title>
<path fill="none" stroke="black" d="M262.26,-92.5C279.29,-92.5 293,-92.5 293,-92.5 293,-92.5 293,-229.5 293,-229.5 293,-229.5 294.89,-229.5 294.89,-229.5"/>
<polygon fill="black" stroke="black" points="294.89,-233 304.89,-229.5 294.89,-226 294.89,-233"/>
</g>
<!-- P14&#45;&gt;N8 -->
<g id="edge30" class="edge">
<title>P14&#45;&gt;N8</title>
<path fill="none" stroke="black" d="M262.06,-248C262.06,-248 294.85,-248 294.85,-248"/>
<polygon fill="black" stroke="black" points="294.85,-251.5 304.85,-248 294.85,-244.5 294.85,-251.5"/>
</g>
<!-- P15&#45;&gt;N5 -->
<g id="edge32" class="edge">
<title>P15&#45;&gt;N5</title>
<path fill="none" stroke="black" d="M269.04,-210.5C276.26,-210.5 281,-210.5 281,-210.5 281,-210.5 281,-305.33 281,-305.33 281,-305.33 319.78,-305.33 319.78,-305.33"/>
<polygon fill="black" stroke="black" points="319.78,-308.83 329.78,-305.33 319.78,-301.83 319.78,-308.83"/>
</g>
<!-- P16&#45;&gt;N6 -->
<g id="edge34" class="edge">
<title>P16&#45;&gt;N6</title>
<path fill="none" stroke="black" d="M654.01,-300.5C704.35,-300.5 756,-300.5 756,-300.5 756,-300.5 756,-269.52 756,-269.52"/>
<polygon fill="black" stroke="black" points="759.5,-269.52 756,-259.52 752.5,-269.52 759.5,-269.52"/>
</g>
<!-- P17&#45;&gt;N9 -->
<g id="edge36" class="edge">
<title>P17&#45;&gt;N9</title>
<path fill="none" stroke="black" d="M627.23,-123.5C627.23,-123.5 679.76,-123.5 679.76,-123.5"/>
<polygon fill="black" stroke="black" points="679.76,-127 689.76,-123.5 679.76,-120 679.76,-127"/>
</g>
<!-- P18&#45;&gt;N7 -->
<g id="edge38" class="edge">
<title>P18&#45;&gt;N7</title>
<path fill="none" stroke="black" d="M615.67,-64.5C615.67,-64.5 699.24,-64.5 699.24,-64.5"/>
<polygon fill="black" stroke="black" points="699.24,-68 709.24,-64.5 699.24,-61 699.24,-68"/>
</g>
</g>
</svg>
