<?xml version="1.0" encoding="UTF-8" standalone="no"?>
<!DOCTYPE svg PUBLIC "-//W3C//DTD SVG 1.1//EN"
 "http://www.w3.org/Graphics/SVG/1.1/DTD/svg11.dtd">
<!-- Generated by graphviz version 3.0.0 (20220226.1711)
 -->
<!-- Title: Annotationen Pages: 1 -->
<svg width="829pt" height="639pt"
 viewBox="0.00 0.00 829.00 639.00" xmlns="http://www.w3.org/2000/svg" xmlns:xlink="http://www.w3.org/1999/xlink">
<g id="graph0" class="graph" transform="scale(1 1) rotate(0) translate(4 635)">
<title>Annotationen</title>
<!-- N0 -->
<g id="node1" class="node semanticentity">
<title>N0</title>
<polygon fill="#fc3915" fill-opacity="0.666667" stroke="black" points="0,-297.5 0,-333.5 90,-333.5 90,-297.5 0,-297.5"/>
<text text-anchor="start" x="8" y="-312.7" font-family="Roboto" font-size="11.00">E8 Acquisition</text>
</g>
<!-- P0 -->
<g id="node14" class="node semanticentity">
<title>P0</title>
<path fill="#105ba4" stroke="black" d="M145,-118.5C145,-118.5 250,-118.5 250,-118.5 256,-118.5 262,-124.5 262,-130.5 262,-130.5 262,-146.5 262,-146.5 262,-152.5 256,-158.5 250,-158.5 250,-158.5 145,-158.5 145,-158.5 139,-158.5 133,-152.5 133,-146.5 133,-146.5 133,-130.5 133,-130.5 133,-124.5 139,-118.5 145,-118.5"/>
<text text-anchor="start" x="141" y="-145.7" font-family="Roboto" font-size="11.00" fill="white">P22 transferred title to</text>
<polyline fill="none" stroke="black" points="133,-138.5 262,-138.5 "/>
<text text-anchor="start" x="182.5" y="-125.7" font-family="Roboto" font-size="11.00" fill="white">97.2%</text>
</g>
<!-- N0&#45;&gt;P0 -->
<g id="edge1" class="edge">
<title>N0&#45;&gt;P0</title>
<path fill="none" stroke="black" d="M31,-297.22C31,-252 31,-138.5 31,-138.5 31,-138.5 122.65,-138.5 122.65,-138.5"/>
<polygon fill="black" stroke="black" points="122.65,-142 132.65,-138.5 122.65,-135 122.65,-142"/>
</g>
<!-- P4 -->
<g id="node18" class="node semanticentity">
<title>P4</title>
<path fill="#2070b4" stroke="white" d="M138,-236.5C138,-236.5 257,-236.5 257,-236.5 263,-236.5 269,-242.5 269,-248.5 269,-248.5 269,-264.5 269,-264.5 269,-270.5 263,-276.5 257,-276.5 257,-276.5 138,-276.5 138,-276.5 132,-276.5 126,-270.5 126,-264.5 126,-264.5 126,-248.5 126,-248.5 126,-242.5 132,-236.5 138,-236.5"/>
<text text-anchor="start" x="134" y="-263.7" font-family="Roboto" font-size="11.00" fill="white">P23 transferred title from</text>
<polyline fill="none" stroke="white" points="126,-256.5 269,-256.5 "/>
<text text-anchor="start" x="182.5" y="-243.7" font-family="Roboto" font-size="11.00" fill="white">85.5%</text>
</g>
<!-- N0&#45;&gt;P4 -->
<g id="edge9" class="edge">
<title>N0&#45;&gt;P4</title>
<path fill="none" stroke="black" d="M90.49,-306.25C110.7,-306.25 130,-306.25 130,-306.25 130,-306.25 130,-286.74 130,-286.74"/>
<polygon fill="black" stroke="black" points="133.5,-286.74 130,-276.74 126.5,-286.74 133.5,-286.74"/>
</g>
<!-- P5 -->
<g id="node19" class="node semanticentity">
<title>P5</title>
<path fill="#3787c0" stroke="white" d="M145,-501.5C145,-501.5 250,-501.5 250,-501.5 256,-501.5 262,-507.5 262,-513.5 262,-513.5 262,-529.5 262,-529.5 262,-535.5 256,-541.5 250,-541.5 250,-541.5 145,-541.5 145,-541.5 139,-541.5 133,-535.5 133,-529.5 133,-529.5 133,-513.5 133,-513.5 133,-507.5 139,-501.5 145,-501.5"/>
<text text-anchor="start" x="141" y="-528.7" font-family="Roboto" font-size="11.00" fill="white">P24 transferred title of</text>
<polyline fill="none" stroke="white" points="133,-521.5 262,-521.5 "/>
<text text-anchor="start" x="182.5" y="-508.7" font-family="Roboto" font-size="11.00" fill="white">73.1%</text>
</g>
<!-- N0&#45;&gt;P5 -->
<g id="edge11" class="edge">
<title>N0&#45;&gt;P5</title>
<path fill="none" stroke="black" d="M30,-333.78C30,-384.2 30,-521.5 30,-521.5 30,-521.5 122.74,-521.5 122.74,-521.5"/>
<polygon fill="black" stroke="black" points="122.74,-525 132.74,-521.5 122.74,-518 122.74,-525"/>
</g>
<!-- P8 -->
<g id="node22" class="node semanticentity">
<title>P8</title>
<path fill="#4f9bcb" stroke="white" d="M172.5,-295.5C172.5,-295.5 222.5,-295.5 222.5,-295.5 228.5,-295.5 234.5,-301.5 234.5,-307.5 234.5,-307.5 234.5,-323.5 234.5,-323.5 234.5,-329.5 228.5,-335.5 222.5,-335.5 222.5,-335.5 172.5,-335.5 172.5,-335.5 166.5,-335.5 160.5,-329.5 160.5,-323.5 160.5,-323.5 160.5,-307.5 160.5,-307.5 160.5,-301.5 166.5,-295.5 172.5,-295.5"/>
<text text-anchor="start" x="168.5" y="-322.7" font-family="Roboto" font-size="11.00">P2 has type</text>
<polyline fill="none" stroke="white" points="160.5,-315.5 234.5,-315.5 "/>
<text text-anchor="start" x="182.5" y="-302.7" font-family="Roboto" font-size="11.00">62.0%</text>
</g>
<!-- N0&#45;&gt;P8 -->
<g id="edge17" class="edge">
<title>N0&#45;&gt;P8</title>
<path fill="none" stroke="black" d="M90.34,-315.5C90.34,-315.5 150.28,-315.5 150.28,-315.5"/>
<polygon fill="black" stroke="black" points="150.28,-319 160.28,-315.5 150.28,-312 150.28,-319"/>
</g>
<!-- P10 -->
<g id="node24" class="node semanticentity">
<title>P10</title>
<path fill="#d6e6f4" stroke="white" d="M145,-354.5C145,-354.5 250,-354.5 250,-354.5 256,-354.5 262,-360.5 262,-366.5 262,-366.5 262,-382.5 262,-382.5 262,-388.5 256,-394.5 250,-394.5 250,-394.5 145,-394.5 145,-394.5 139,-394.5 133,-388.5 133,-382.5 133,-382.5 133,-366.5 133,-366.5 133,-360.5 139,-354.5 145,-354.5"/>
<text text-anchor="start" x="141" y="-381.7" font-family="Roboto" font-size="11.00">P24 transferred title of</text>
<polyline fill="none" stroke="white" points="133,-374.5 262,-374.5 "/>
<text text-anchor="start" x="182.5" y="-361.7" font-family="Roboto" font-size="11.00">16.9%</text>
</g>
<!-- N0&#45;&gt;P10 -->
<g id="edge21" class="edge">
<title>N0&#45;&gt;P10</title>
<path fill="none" stroke="black" d="M90.04,-324.75C117.36,-324.75 147,-324.75 147,-324.75 147,-324.75 147,-344.26 147,-344.26"/>
<polygon fill="black" stroke="black" points="143.5,-344.26 147,-354.26 150.5,-344.26 143.5,-344.26"/>
</g>
<!-- P13 -->
<g id="node27" class="node semanticentity">
<title>P13</title>
<path fill="#e7f0fa" stroke="white" d="M138,-177.5C138,-177.5 257,-177.5 257,-177.5 263,-177.5 269,-183.5 269,-189.5 269,-189.5 269,-205.5 269,-205.5 269,-211.5 263,-217.5 257,-217.5 257,-217.5 138,-217.5 138,-217.5 132,-217.5 126,-211.5 126,-205.5 126,-205.5 126,-189.5 126,-189.5 126,-183.5 132,-177.5 138,-177.5"/>
<text text-anchor="start" x="134" y="-204.7" font-family="Roboto" font-size="11.00">P23 transferred title from</text>
<polyline fill="none" stroke="white" points="126,-197.5 269,-197.5 "/>
<text text-anchor="start" x="185.5" y="-184.7" font-family="Roboto" font-size="11.00">8.8%</text>
</g>
<!-- N0&#45;&gt;P13 -->
<g id="edge27" class="edge">
<title>N0&#45;&gt;P13</title>
<path fill="none" stroke="black" d="M60,-297.32C60,-264.22 60,-197.5 60,-197.5 60,-197.5 115.93,-197.5 115.93,-197.5"/>
<polygon fill="black" stroke="black" points="115.93,-201 125.93,-197.5 115.93,-194 115.93,-201"/>
</g>
<!-- P16 -->
<g id="node30" class="node semanticentity">
<title>P16</title>
<path fill="#e7f0fa" stroke="white" d="M138,-413.5C138,-413.5 257,-413.5 257,-413.5 263,-413.5 269,-419.5 269,-425.5 269,-425.5 269,-441.5 269,-441.5 269,-447.5 263,-453.5 257,-453.5 257,-453.5 138,-453.5 138,-453.5 132,-453.5 126,-447.5 126,-441.5 126,-441.5 126,-425.5 126,-425.5 126,-419.5 132,-413.5 138,-413.5"/>
<text text-anchor="start" x="134" y="-440.7" font-family="Roboto" font-size="11.00">P23 transferred title from</text>
<polyline fill="none" stroke="white" points="126,-433.5 269,-433.5 "/>
<text text-anchor="start" x="185.5" y="-420.7" font-family="Roboto" font-size="11.00">6.3%</text>
</g>
<!-- N0&#45;&gt;P16 -->
<g id="edge33" class="edge">
<title>N0&#45;&gt;P16</title>
<path fill="none" stroke="black" d="M60,-333.68C60,-366.78 60,-433.5 60,-433.5 60,-433.5 115.93,-433.5 115.93,-433.5"/>
<polygon fill="black" stroke="black" points="115.93,-437 125.93,-433.5 115.93,-430 115.93,-437"/>
</g>
<!-- N1 -->
<g id="node2" class="node semanticentity">
<title>N1</title>
<polygon fill="#06b67e" fill-opacity="0.666667" stroke="white" points="336,-297.5 336,-333.5 398,-333.5 398,-297.5 336,-297.5"/>
<text text-anchor="start" x="344" y="-312.7" font-family="Roboto" font-size="11.00">E55 Type</text>
</g>
<!-- P9 -->
<g id="node23" class="node semanticentity">
<title>P9</title>
<path fill="#4f9bcb" stroke="white" d="M519,-295.5C519,-295.5 600,-295.5 600,-295.5 606,-295.5 612,-301.5 612,-307.5 612,-307.5 612,-323.5 612,-323.5 612,-329.5 606,-335.5 600,-335.5 600,-335.5 519,-335.5 519,-335.5 513,-335.5 507,-329.5 507,-323.5 507,-323.5 507,-307.5 507,-307.5 507,-301.5 513,-295.5 519,-295.5"/>
<text text-anchor="start" x="515" y="-322.7" font-family="Roboto" font-size="11.00">P1 is identified by</text>
<polyline fill="none" stroke="white" points="507,-315.5 612,-315.5 "/>
<text text-anchor="start" x="544.5" y="-302.7" font-family="Roboto" font-size="11.00">61.7%</text>
</g>
<!-- N1&#45;&gt;P9 -->
<g id="edge19" class="edge">
<title>N1&#45;&gt;P9</title>
<path fill="none" stroke="black" d="M398.36,-315.5C398.36,-315.5 496.71,-315.5 496.71,-315.5"/>
<polygon fill="black" stroke="black" points="496.71,-319 506.71,-315.5 496.71,-312 496.71,-319"/>
</g>
<!-- N2 -->
<g id="node3" class="node semanticentity">
<title>N2</title>
<polygon fill="#5a50c4" fill-opacity="0.666667" stroke="white" points="309,-518.5 309,-554.5 425,-554.5 425,-518.5 309,-518.5"/>
<text text-anchor="start" x="317" y="-533.7" font-family="Roboto" font-size="11.00">E19 Physical Object</text>
</g>
<!-- P7 -->
<g id="node21" class="node semanticentity">
<title>P7</title>
<path fill="#4f9bcb" stroke="white" d="M477,-472.5C477,-472.5 642,-472.5 642,-472.5 648,-472.5 654,-478.5 654,-484.5 654,-484.5 654,-500.5 654,-500.5 654,-506.5 648,-512.5 642,-512.5 642,-512.5 477,-512.5 477,-512.5 471,-512.5 465,-506.5 465,-500.5 465,-500.5 465,-484.5 465,-484.5 465,-478.5 471,-472.5 477,-472.5"/>
<text text-anchor="start" x="473" y="-499.7" font-family="Roboto" font-size="11.00">P53 has former or current location</text>
<polyline fill="none" stroke="white" points="465,-492.5 654,-492.5 "/>
<text text-anchor="start" x="544.5" y="-479.7" font-family="Roboto" font-size="11.00">67.5%</text>
</g>
<!-- N2&#45;&gt;P7 -->
<g id="edge15" class="edge">
<title>N2&#45;&gt;P7</title>
<path fill="none" stroke="black" d="M417,-518.32C417,-512.25 417,-507 417,-507 417,-507 454.85,-507 454.85,-507"/>
<polygon fill="black" stroke="black" points="454.85,-510.5 464.85,-507 454.85,-503.5 454.85,-510.5"/>
</g>
<!-- P15 -->
<g id="node29" class="node semanticentity">
<title>P15</title>
<path fill="#e7f0fa" stroke="white" d="M504,-531.5C504,-531.5 615,-531.5 615,-531.5 621,-531.5 627,-537.5 627,-543.5 627,-543.5 627,-559.5 627,-559.5 627,-565.5 621,-571.5 615,-571.5 615,-571.5 504,-571.5 504,-571.5 498,-571.5 492,-565.5 492,-559.5 492,-559.5 492,-543.5 492,-543.5 492,-537.5 498,-531.5 504,-531.5"/>
<text text-anchor="start" x="500" y="-558.7" font-family="Roboto" font-size="11.00">P130 shows features of</text>
<polyline fill="none" stroke="white" points="492,-551.5 627,-551.5 "/>
<text text-anchor="start" x="547.5" y="-538.7" font-family="Roboto" font-size="11.00">7.0%</text>
</g>
<!-- N2&#45;&gt;P15 -->
<g id="edge31" class="edge">
<title>N2&#45;&gt;P15</title>
<path fill="none" stroke="black" d="M425.02,-543C425.02,-543 481.79,-543 481.79,-543"/>
<polygon fill="black" stroke="black" points="481.79,-546.5 491.79,-543 481.79,-539.5 481.79,-546.5"/>
</g>
<!-- P17 -->
<g id="node31" class="node semanticentity">
<title>P17</title>
<path fill="#e7f0fa" stroke="white" d="M515.5,-590.5C515.5,-590.5 603.5,-590.5 603.5,-590.5 609.5,-590.5 615.5,-596.5 615.5,-602.5 615.5,-602.5 615.5,-618.5 615.5,-618.5 615.5,-624.5 609.5,-630.5 603.5,-630.5 603.5,-630.5 515.5,-630.5 515.5,-630.5 509.5,-630.5 503.5,-624.5 503.5,-618.5 503.5,-618.5 503.5,-602.5 503.5,-602.5 503.5,-596.5 509.5,-590.5 515.5,-590.5"/>
<text text-anchor="start" x="511.5" y="-617.7" font-family="Roboto" font-size="11.00">P43 has dimension</text>
<polyline fill="none" stroke="white" points="503.5,-610.5 615.5,-610.5 "/>
<text text-anchor="start" x="547.5" y="-597.7" font-family="Roboto" font-size="11.00">6.2%</text>
</g>
<!-- N2&#45;&gt;P17 -->
<g id="edge35" class="edge">
<title>N2&#45;&gt;P17</title>
<path fill="none" stroke="black" d="M367,-554.79C367,-576.71 367,-610.5 367,-610.5 367,-610.5 493.3,-610.5 493.3,-610.5"/>
<polygon fill="black" stroke="black" points="493.3,-614 503.3,-610.5 493.3,-607 493.3,-614"/>
</g>
<!-- N3 -->
<g id="node4" class="node semanticentity">
<title>N3</title>
<polygon fill="#50c4c2" fill-opacity="0.666667" stroke="white" points="709.5,-592.5 709.5,-628.5 801.5,-628.5 801.5,-592.5 709.5,-592.5"/>
<text text-anchor="start" x="717.5" y="-607.7" font-family="Roboto" font-size="11.00">E54 Dimension</text>
</g>
<!-- N4 -->
<g id="node5" class="node semanticentity">
<title>N4</title>
<polygon fill="#b560d4" fill-opacity="0.666667" stroke="white" points="307.5,-120.5 307.5,-156.5 426.5,-156.5 426.5,-120.5 307.5,-120.5"/>
<text text-anchor="start" x="315.5" y="-135.7" font-family="Roboto" font-size="11.00">E78 Curated Holding</text>
</g>
<!-- P1 -->
<g id="node15" class="node semanticentity">
<title>P1</title>
<path fill="#105ba4" stroke="white" d="M519,-59.5C519,-59.5 600,-59.5 600,-59.5 606,-59.5 612,-65.5 612,-71.5 612,-71.5 612,-87.5 612,-87.5 612,-93.5 606,-99.5 600,-99.5 600,-99.5 519,-99.5 519,-99.5 513,-99.5 507,-93.5 507,-87.5 507,-87.5 507,-71.5 507,-71.5 507,-65.5 513,-59.5 519,-59.5"/>
<text text-anchor="start" x="515" y="-86.7" font-family="Roboto" font-size="11.00" fill="white">P1 is identified by</text>
<polyline fill="none" stroke="white" points="507,-79.5 612,-79.5 "/>
<text text-anchor="start" x="544.5" y="-66.7" font-family="Roboto" font-size="11.00" fill="white">96.3%</text>
</g>
<!-- N4&#45;&gt;P1 -->
<g id="edge3" class="edge">
<title>N4&#45;&gt;P1</title>
<path fill="none" stroke="black" d="M397,-120.16C397,-100.68 397,-72.67 397,-72.67 397,-72.67 496.74,-72.67 496.74,-72.67"/>
<polygon fill="black" stroke="black" points="496.74,-76.17 506.74,-72.67 496.74,-69.17 496.74,-76.17"/>
</g>
<!-- P2 -->
<g id="node16" class="node semanticentity">
<title>P2</title>
<path fill="#105ba4" stroke="white" d="M513,-118.5C513,-118.5 606,-118.5 606,-118.5 612,-118.5 618,-124.5 618,-130.5 618,-130.5 618,-146.5 618,-146.5 618,-152.5 612,-158.5 606,-158.5 606,-158.5 513,-158.5 513,-158.5 507,-158.5 501,-152.5 501,-146.5 501,-146.5 501,-130.5 501,-130.5 501,-124.5 507,-118.5 513,-118.5"/>
<text text-anchor="start" x="509" y="-145.7" font-family="Roboto" font-size="11.00" fill="white">P46 is composed of</text>
<polyline fill="none" stroke="white" points="501,-138.5 618,-138.5 "/>
<text text-anchor="start" x="544.5" y="-125.7" font-family="Roboto" font-size="11.00" fill="white">95.5%</text>
</g>
<!-- N4&#45;&gt;P2 -->
<g id="edge5" class="edge">
<title>N4&#45;&gt;P2</title>
<path fill="none" stroke="black" d="M426.59,-144.67C426.59,-144.67 490.85,-144.67 490.85,-144.67"/>
<polygon fill="black" stroke="black" points="490.85,-148.17 500.85,-144.67 490.85,-141.17 490.85,-148.17"/>
</g>
<!-- P18 -->
<g id="node32" class="node semanticentity">
<title>P18</title>
<path fill="#e7f0fa" stroke="white" d="M515.5,-0.5C515.5,-0.5 603.5,-0.5 603.5,-0.5 609.5,-0.5 615.5,-6.5 615.5,-12.5 615.5,-12.5 615.5,-28.5 615.5,-28.5 615.5,-34.5 609.5,-40.5 603.5,-40.5 603.5,-40.5 515.5,-40.5 515.5,-40.5 509.5,-40.5 503.5,-34.5 503.5,-28.5 503.5,-28.5 503.5,-12.5 503.5,-12.5 503.5,-6.5 509.5,-0.5 515.5,-0.5"/>
<text text-anchor="start" x="511.5" y="-27.7" font-family="Roboto" font-size="11.00">P43 has dimension</text>
<polyline fill="none" stroke="white" points="503.5,-20.5 615.5,-20.5 "/>
<text text-anchor="start" x="547.5" y="-7.7" font-family="Roboto" font-size="11.00">5.8%</text>
</g>
<!-- N4&#45;&gt;P18 -->
<g id="edge37" class="edge">
<title>N4&#45;&gt;P18</title>
<path fill="none" stroke="black" d="M367,-120.32C367,-87.22 367,-20.5 367,-20.5 367,-20.5 493.3,-20.5 493.3,-20.5"/>
<polygon fill="black" stroke="black" points="493.3,-24 503.3,-20.5 493.3,-17 493.3,-24"/>
</g>
<!-- N5 -->
<g id="node6" class="node semanticentity">
<title>N5</title>
<polygon fill="#3b95c4" fill-opacity="0.666667" stroke="white" points="330,-238.5 330,-274.5 404,-274.5 404,-238.5 330,-238.5"/>
<text text-anchor="start" x="338" y="-253.7" font-family="Roboto" font-size="11.00">E21 Person</text>
</g>
<!-- P6 -->
<g id="node20" class="node semanticentity">
<title>P6</title>
<path fill="#4f9bcb" stroke="white" d="M519,-177.5C519,-177.5 600,-177.5 600,-177.5 606,-177.5 612,-183.5 612,-189.5 612,-189.5 612,-205.5 612,-205.5 612,-211.5 606,-217.5 600,-217.5 600,-217.5 519,-217.5 519,-217.5 513,-217.5 507,-211.5 507,-205.5 507,-205.5 507,-189.5 507,-189.5 507,-183.5 513,-177.5 519,-177.5"/>
<text text-anchor="start" x="515" y="-204.7" font-family="Roboto" font-size="11.00">P1 is identified by</text>
<polyline fill="none" stroke="white" points="507,-197.5 612,-197.5 "/>
<text text-anchor="start" x="544.5" y="-184.7" font-family="Roboto" font-size="11.00">70.0%</text>
</g>
<!-- N5&#45;&gt;P6 -->
<g id="edge13" class="edge">
<title>N5&#45;&gt;P6</title>
<path fill="none" stroke="black" d="M367,-238.48C367,-221.13 367,-197.5 367,-197.5 367,-197.5 496.9,-197.5 496.9,-197.5"/>
<polygon fill="black" stroke="black" points="496.9,-201 506.9,-197.5 496.9,-194 496.9,-201"/>
</g>
<!-- P11 -->
<g id="node25" class="node semanticentity">
<title>P11</title>
<path fill="#d6e6f4" stroke="white" d="M477,-236.5C477,-236.5 642,-236.5 642,-236.5 648,-236.5 654,-242.5 654,-248.5 654,-248.5 654,-264.5 654,-264.5 654,-270.5 648,-276.5 642,-276.5 642,-276.5 477,-276.5 477,-276.5 471,-276.5 465,-270.5 465,-264.5 465,-264.5 465,-248.5 465,-248.5 465,-242.5 471,-236.5 477,-236.5"/>
<text text-anchor="start" x="473" y="-263.7" font-family="Roboto" font-size="11.00">P53 has former or current location</text>
<polyline fill="none" stroke="white" points="465,-256.5 654,-256.5 "/>
<text text-anchor="start" x="544.5" y="-243.7" font-family="Roboto" font-size="11.00">12.9%</text>
</g>
<!-- N5&#45;&gt;P11 -->
<g id="edge23" class="edge">
<title>N5&#45;&gt;P11</title>
<path fill="none" stroke="black" d="M404.12,-256.5C404.12,-256.5 454.94,-256.5 454.94,-256.5"/>
<polygon fill="black" stroke="black" points="454.94,-260 464.94,-256.5 454.94,-253 454.94,-260"/>
</g>
<!-- N6 -->
<g id="node7" class="node semanticentity">
<title>N6</title>
<polygon fill="#debb9b" stroke="white" points="708,-179.5 708,-215.5 803,-215.5 803,-179.5 708,-179.5"/>
<text text-anchor="start" x="716" y="-194.7" font-family="Roboto" font-size="11.00">E41 Appellation</text>
</g>
<!-- N7 -->
<g id="node8" class="node semanticentity">
<title>N7</title>
<polygon fill="#fc7715" fill-opacity="0.666667" stroke="white" points="722.5,-356.5 722.5,-392.5 788.5,-392.5 788.5,-356.5 722.5,-356.5"/>
<text text-anchor="start" x="730.5" y="-371.7" font-family="Roboto" font-size="11.00">E53 Place</text>
</g>
<!-- N8 -->
<g id="node9" class="node semanticentity">
<title>N8</title>
<polygon fill="#5a50c4" fill-opacity="0.666667" stroke="white" points="305,-356.5 305,-392.5 429,-392.5 429,-356.5 305,-356.5"/>
<text text-anchor="start" x="313" y="-371.7" font-family="Roboto" font-size="11.00">E20 Biological Object</text>
</g>
<!-- P12 -->
<g id="node26" class="node semanticentity">
<title>P12</title>
<path fill="#d6e6f4" stroke="white" d="M477,-354.5C477,-354.5 642,-354.5 642,-354.5 648,-354.5 654,-360.5 654,-366.5 654,-366.5 654,-382.5 654,-382.5 654,-388.5 648,-394.5 642,-394.5 642,-394.5 477,-394.5 477,-394.5 471,-394.5 465,-388.5 465,-382.5 465,-382.5 465,-366.5 465,-366.5 465,-360.5 471,-354.5 477,-354.5"/>
<text text-anchor="start" x="473" y="-381.7" font-family="Roboto" font-size="11.00">P53 has former or current location</text>
<polyline fill="none" stroke="white" points="465,-374.5 654,-374.5 "/>
<text text-anchor="start" x="544.5" y="-361.7" font-family="Roboto" font-size="11.00">11.8%</text>
</g>
<!-- N8&#45;&gt;P12 -->
<g id="edge25" class="edge">
<title>N8&#45;&gt;P12</title>
<path fill="none" stroke="black" d="M429.23,-374.5C429.23,-374.5 454.94,-374.5 454.94,-374.5"/>
<polygon fill="black" stroke="black" points="454.94,-378 464.94,-374.5 454.94,-371 454.94,-378"/>
</g>
<!-- P14 -->
<g id="node28" class="node semanticentity">
<title>P14</title>
<path fill="#e7f0fa" stroke="white" d="M504,-413.5C504,-413.5 615,-413.5 615,-413.5 621,-413.5 627,-419.5 627,-425.5 627,-425.5 627,-441.5 627,-441.5 627,-447.5 621,-453.5 615,-453.5 615,-453.5 504,-453.5 504,-453.5 498,-453.5 492,-447.5 492,-441.5 492,-441.5 492,-425.5 492,-425.5 492,-419.5 498,-413.5 504,-413.5"/>
<text text-anchor="start" x="500" y="-440.7" font-family="Roboto" font-size="11.00">P130 shows features of</text>
<polyline fill="none" stroke="white" points="492,-433.5 627,-433.5 "/>
<text text-anchor="start" x="547.5" y="-420.7" font-family="Roboto" font-size="11.00">8.1%</text>
</g>
<!-- N8&#45;&gt;P14 -->
<g id="edge29" class="edge">
<title>N8&#45;&gt;P14</title>
<path fill="none" stroke="black" d="M409,-392.52C409,-409.87 409,-433.5 409,-433.5 409,-433.5 481.73,-433.5 481.73,-433.5"/>
<polygon fill="black" stroke="black" points="481.73,-437 491.73,-433.5 481.73,-430 481.73,-437"/>
</g>
<!-- N9 -->
<g id="node10" class="node semanticentity">
<title>N9</title>
<polygon fill="#06b67e" fill-opacity="0.666667" stroke="white" points="690,-474.5 690,-510.5 821,-510.5 821,-474.5 690,-474.5"/>
<text text-anchor="start" x="698" y="-489.7" font-family="Roboto" font-size="11.00">E28 Conceptual Object</text>
</g>
<!-- N10 -->
<g id="node11" class="node semanticentity">
<title>N10</title>
<polygon fill="#3b95c4" fill-opacity="0.666667" stroke="white" points="333,-415.5 333,-451.5 401,-451.5 401,-415.5 333,-415.5"/>
<text text-anchor="start" x="341" y="-430.7" font-family="Roboto" font-size="11.00">E74 Group</text>
</g>
<!-- N11 -->
<g id="node12" class="node semanticentity">
<title>N11</title>
<polygon fill="#debb9b" stroke="white" points="716.5,-2.5 716.5,-38.5 794.5,-38.5 794.5,-2.5 716.5,-2.5"/>
<text text-anchor="start" x="724.5" y="-17.7" font-family="Roboto" font-size="11.00">E60 Number</text>
</g>
<!-- N12 -->
<g id="node13" class="node semanticentity">
<title>N12</title>
<polygon fill="#fc3915" fill-opacity="0.666667" stroke="white" points="2.5,-61.5 2.5,-97.5 87.5,-97.5 87.5,-61.5 2.5,-61.5"/>
<text text-anchor="start" x="10.5" y="-76.7" font-family="Roboto" font-size="11.00">E96 Purchase</text>
</g>
<!-- P3 -->
<g id="node17" class="node semanticentity">
<title>P3</title>
<path fill="#2070b4" stroke="white" d="M145,-59.5C145,-59.5 250,-59.5 250,-59.5 256,-59.5 262,-65.5 262,-71.5 262,-71.5 262,-87.5 262,-87.5 262,-93.5 256,-99.5 250,-99.5 250,-99.5 145,-99.5 145,-99.5 139,-99.5 133,-93.5 133,-87.5 133,-87.5 133,-71.5 133,-71.5 133,-65.5 139,-59.5 145,-59.5"/>
<text text-anchor="start" x="141" y="-86.7" font-family="Roboto" font-size="11.00" fill="white">P22 transferred title to</text>
<polyline fill="none" stroke="white" points="133,-79.5 262,-79.5 "/>
<text text-anchor="start" x="182.5" y="-66.7" font-family="Roboto" font-size="11.00" fill="white">88.1%</text>
</g>
<!-- N12&#45;&gt;P3 -->
<g id="edge7" class="edge">
<title>N12&#45;&gt;P3</title>
<path fill="none" stroke="black" d="M87.89,-79.5C87.89,-79.5 122.72,-79.5 122.72,-79.5"/>
<polygon fill="black" stroke="black" points="122.72,-83 132.72,-79.5 122.72,-76 122.72,-83"/>
</g>
<!-- P0&#45;&gt;N4 -->
<g id="edge2" class="edge">
<title>P0&#45;&gt;N4</title>
<path fill="none" stroke="black" d="M262.06,-132.33C262.06,-132.33 297.35,-132.33 297.35,-132.33"/>
<polygon fill="black" stroke="black" points="297.35,-135.83 307.35,-132.33 297.35,-128.83 297.35,-135.83"/>
</g>
<!-- P1&#45;&gt;N6 -->
<g id="edge4" class="edge">
<title>P1&#45;&gt;N6</title>
<path fill="none" stroke="black" d="M612.33,-79.5C656.73,-79.5 713,-79.5 713,-79.5 713,-79.5 713,-169.32 713,-169.32"/>
<polygon fill="black" stroke="black" points="709.5,-169.32 713,-179.32 716.5,-169.32 709.5,-169.32"/>
</g>
<!-- P2&#45;&gt;N4 -->
<g id="edge6" class="edge">
<title>P2&#45;&gt;N4</title>
<path fill="none" stroke="black" d="M500.96,-132.33C500.96,-132.33 436.59,-132.33 436.59,-132.33"/>
<polygon fill="black" stroke="black" points="436.59,-128.83 426.59,-132.33 436.59,-135.83 436.59,-128.83"/>
</g>
<!-- P3&#45;&gt;N4 -->
<g id="edge8" class="edge">
<title>P3&#45;&gt;N4</title>
<path fill="none" stroke="black" d="M262.4,-86.33C299.22,-86.33 338,-86.33 338,-86.33 338,-86.33 338,-110.25 338,-110.25"/>
<polygon fill="black" stroke="black" points="334.5,-110.25 338,-120.25 341.5,-110.25 334.5,-110.25"/>
</g>
<!-- P4&#45;&gt;N5 -->
<g id="edge10" class="edge">
<title>P4&#45;&gt;N5</title>
<path fill="none" stroke="black" d="M269.38,-256.5C269.38,-256.5 319.67,-256.5 319.67,-256.5"/>
<polygon fill="black" stroke="black" points="319.67,-260 329.67,-256.5 319.67,-253 319.67,-260"/>
</g>
<!-- P5&#45;&gt;N2 -->
<g id="edge12" class="edge">
<title>P5&#45;&gt;N2</title>
<path fill="none" stroke="black" d="M262.06,-530C262.06,-530 298.73,-530 298.73,-530"/>
<polygon fill="black" stroke="black" points="298.73,-533.5 308.73,-530 298.73,-526.5 298.73,-533.5"/>
</g>
<!-- P6&#45;&gt;N6 -->
<g id="edge14" class="edge">
<title>P6&#45;&gt;N6</title>
<path fill="none" stroke="black" d="M612.02,-197.5C612.02,-197.5 697.86,-197.5 697.86,-197.5"/>
<polygon fill="black" stroke="black" points="697.86,-201 707.86,-197.5 697.86,-194 697.86,-201"/>
</g>
<!-- P7&#45;&gt;N7 -->
<g id="edge16" class="edge">
<title>P7&#45;&gt;N7</title>
<path fill="none" stroke="black" d="M654.17,-492.5C664.86,-492.5 672,-492.5 672,-492.5 672,-492.5 672,-380.67 672,-380.67 672,-380.67 712.5,-380.67 712.5,-380.67"/>
<polygon fill="black" stroke="black" points="712.5,-384.17 722.5,-380.67 712.5,-377.17 712.5,-384.17"/>
</g>
<!-- P8&#45;&gt;N1 -->
<g id="edge18" class="edge">
<title>P8&#45;&gt;N1</title>
<path fill="none" stroke="black" d="M234.7,-315.5C234.7,-315.5 325.85,-315.5 325.85,-315.5"/>
<polygon fill="black" stroke="black" points="325.85,-319 335.85,-315.5 325.85,-312 325.85,-319"/>
</g>
<!-- P9&#45;&gt;N6 -->
<g id="edge20" class="edge">
<title>P9&#45;&gt;N6</title>
<path fill="none" stroke="black" d="M612.05,-315.5C657.51,-315.5 716,-315.5 716,-315.5 716,-315.5 716,-225.68 716,-225.68"/>
<polygon fill="black" stroke="black" points="719.5,-225.68 716,-215.68 712.5,-225.68 719.5,-225.68"/>
</g>
<!-- P10&#45;&gt;N8 -->
<g id="edge22" class="edge">
<title>P10&#45;&gt;N8</title>
<path fill="none" stroke="black" d="M262.06,-374.5C262.06,-374.5 294.85,-374.5 294.85,-374.5"/>
<polygon fill="black" stroke="black" points="294.85,-378 304.85,-374.5 294.85,-371 294.85,-378"/>
</g>
<!-- P11&#45;&gt;N7 -->
<g id="edge24" class="edge">
<title>P11&#45;&gt;N7</title>
<path fill="none" stroke="black" d="M654.01,-256.5C704.35,-256.5 756,-256.5 756,-256.5 756,-256.5 756,-346.32 756,-346.32"/>
<polygon fill="black" stroke="black" points="752.5,-346.32 756,-356.32 759.5,-346.32 752.5,-346.32"/>
</g>
<!-- P12&#45;&gt;N7 -->
<g id="edge26" class="edge">
<title>P12&#45;&gt;N7</title>
<path fill="none" stroke="black" d="M654.06,-368.33C654.06,-368.33 712.22,-368.33 712.22,-368.33"/>
<polygon fill="black" stroke="black" points="712.22,-371.83 722.22,-368.33 712.22,-364.83 712.22,-371.83"/>
</g>
<!-- P13&#45;&gt;N4 -->
<g id="edge28" class="edge">
<title>P13&#45;&gt;N4</title>
<path fill="none" stroke="black" d="M266,-177.22C266,-162.33 266,-144.67 266,-144.67 266,-144.67 297.37,-144.67 297.37,-144.67"/>
<polygon fill="black" stroke="black" points="297.37,-148.17 307.37,-144.67 297.37,-141.17 297.37,-148.17"/>
</g>
<!-- P14&#45;&gt;N9 -->
<g id="edge30" class="edge">
<title>P14&#45;&gt;N9</title>
<path fill="none" stroke="black" d="M627.21,-433.5C662.75,-433.5 699,-433.5 699,-433.5 699,-433.5 699,-464.48 699,-464.48"/>
<polygon fill="black" stroke="black" points="695.5,-464.48 699,-474.48 702.5,-464.48 695.5,-464.48"/>
</g>
<!-- P15&#45;&gt;N9 -->
<g id="edge32" class="edge">
<title>P15&#45;&gt;N9</title>
<path fill="none" stroke="black" d="M627.28,-551.5C663.21,-551.5 700,-551.5 700,-551.5 700,-551.5 700,-520.52 700,-520.52"/>
<polygon fill="black" stroke="black" points="703.5,-520.52 700,-510.52 696.5,-520.52 703.5,-520.52"/>
</g>
<!-- P16&#45;&gt;N10 -->
<g id="edge34" class="edge">
<title>P16&#45;&gt;N10</title>
<path fill="none" stroke="black" d="M269.38,-433.5C269.38,-433.5 322.86,-433.5 322.86,-433.5"/>
<polygon fill="black" stroke="black" points="322.86,-437 332.86,-433.5 322.86,-430 322.86,-437"/>
</g>
<!-- P17&#45;&gt;N3 -->
<g id="edge36" class="edge">
<title>P17&#45;&gt;N3</title>
<path fill="none" stroke="black" d="M615.67,-610.5C615.67,-610.5 699.24,-610.5 699.24,-610.5"/>
<polygon fill="black" stroke="black" points="699.24,-614 709.24,-610.5 699.24,-607 699.24,-614"/>
</g>
<!-- P18&#45;&gt;N11 -->
<g id="edge38" class="edge">
<title>P18&#45;&gt;N11</title>
<path fill="none" stroke="black" d="M615.67,-20.5C615.67,-20.5 706.42,-20.5 706.42,-20.5"/>
<polygon fill="black" stroke="black" points="706.42,-24 716.42,-20.5 706.42,-17 706.42,-24"/>
</g>
</g>
</svg>
