<?xml version="1.0" encoding="UTF-8" standalone="no"?>
<!DOCTYPE svg PUBLIC "-//W3C//DTD SVG 1.1//EN"
 "http://www.w3.org/Graphics/SVG/1.1/DTD/svg11.dtd">
<!-- Generated by graphviz version 3.0.0 (20220226.1711)
 -->
<!-- Title: Annotationen Pages: 1 -->
<svg width="1319pt" height="619pt"
 viewBox="0.00 0.00 1319.00 618.50" xmlns="http://www.w3.org/2000/svg" xmlns:xlink="http://www.w3.org/1999/xlink">
<g id="graph0" class="graph" transform="scale(1 1) rotate(0) translate(4 614.5)">
<title>Annotationen</title>
<polygon fill="transparent" stroke="transparent" points="-4,4 -4,-614.5 1315,-614.5 1315,4 -4,4"/>
<text text-anchor="middle" x="655.5" y="-597.7" font-family="Titillium Web" font-size="11.00">Neighbourhood for Entity No. 9774 in Zoologisches Institut und zoologische Sammlung (1903) with depth 3</text>
<!-- legend1 -->
<g id="node1" class="node">
<title>legend1</title>
<polygon fill="none" stroke="black" points="10.5,-174 10.5,-196 45.5,-196 45.5,-174 10.5,-174"/>
<text text-anchor="start" x="15.5" y="-182.2" font-family="Titillium Web" font-size="11.00">...</text>
<polygon fill="none" stroke="black" points="47.5,-174 47.5,-196 201.5,-196 201.5,-174 47.5,-174"/>
<text text-anchor="start" x="52.5" y="-182.2" font-family="Titillium Web" font-size="11.00">too many neighbours to draw</text>
<polygon fill="none" stroke="black" points="10.5,-150 10.5,-172 45.5,-172 45.5,-150 10.5,-150"/>
<text text-anchor="start" x="15.5" y="-158.2" font-family="Titillium Web" font-size="11.00">P1</text>
<polygon fill="none" stroke="black" points="47.5,-150 47.5,-172 201.5,-172 201.5,-150 47.5,-150"/>
<text text-anchor="start" x="52.5" y="-158.2" font-family="Titillium Web" font-size="11.00"> is identified by</text>
<polygon fill="none" stroke="black" points="10.5,-126 10.5,-148 45.5,-148 45.5,-126 10.5,-126"/>
<text text-anchor="start" x="15.5" y="-134.2" font-family="Titillium Web" font-size="11.00">P2</text>
<polygon fill="none" stroke="black" points="47.5,-126 47.5,-148 201.5,-148 201.5,-126 47.5,-126"/>
<text text-anchor="start" x="52.5" y="-134.2" font-family="Titillium Web" font-size="11.00"> has type</text>
<polygon fill="none" stroke="black" points="10.5,-102 10.5,-124 45.5,-124 45.5,-102 10.5,-102"/>
<text text-anchor="start" x="15.5" y="-110.2" font-family="Titillium Web" font-size="11.00">P22</text>
<polygon fill="none" stroke="black" points="47.5,-102 47.5,-124 201.5,-124 201.5,-102 47.5,-102"/>
<text text-anchor="start" x="52.5" y="-110.2" font-family="Titillium Web" font-size="11.00"> transferred title to</text>
<polygon fill="none" stroke="black" points="10.5,-78 10.5,-100 45.5,-100 45.5,-78 10.5,-78"/>
<text text-anchor="start" x="15.5" y="-86.2" font-family="Titillium Web" font-size="11.00">P23</text>
<polygon fill="none" stroke="black" points="47.5,-78 47.5,-100 201.5,-100 201.5,-78 47.5,-78"/>
<text text-anchor="start" x="52.5" y="-86.2" font-family="Titillium Web" font-size="11.00"> transferred title from</text>
<polygon fill="none" stroke="black" points="10.5,-54 10.5,-76 45.5,-76 45.5,-54 10.5,-54"/>
<text text-anchor="start" x="15.5" y="-62.2" font-family="Titillium Web" font-size="11.00">P24</text>
<polygon fill="none" stroke="black" points="47.5,-54 47.5,-76 201.5,-76 201.5,-54 47.5,-54"/>
<text text-anchor="start" x="52.5" y="-62.2" font-family="Titillium Web" font-size="11.00"> transferred title of</text>
<polygon fill="none" stroke="black" points="10.5,-30 10.5,-52 45.5,-52 45.5,-30 10.5,-30"/>
<text text-anchor="start" x="15.5" y="-38.2" font-family="Titillium Web" font-size="11.00">P53</text>
<polygon fill="none" stroke="black" points="47.5,-30 47.5,-52 201.5,-52 201.5,-30 47.5,-30"/>
<text text-anchor="start" x="52.5" y="-38.2" font-family="Titillium Web" font-size="11.00"> has former or current location</text>
<polygon fill="none" stroke="black" points="10.5,-6 10.5,-28 45.5,-28 45.5,-6 10.5,-6"/>
<text text-anchor="start" x="15.5" y="-14.2" font-family="Titillium Web" font-size="11.00">P128</text>
<polygon fill="none" stroke="black" points="47.5,-6 47.5,-28 201.5,-28 201.5,-6 47.5,-6"/>
<text text-anchor="start" x="52.5" y="-14.2" font-family="Titillium Web" font-size="11.00"> carries</text>
</g>
<!-- N9774 -->
<g id="N9774" class="node entityNode">
<title>N9774</title>
<polygon fill="#5a50c4" fill-opacity="0.666667" stroke="black" points="280,-328 280,-380 396,-380 396,-328 280,-328"/>
<text text-anchor="start" x="288.5" y="-367.2" font-family="Titillium Web" font-size="11.00">E20 Biological Object</text>
<text text-anchor="start" x="322.5" y="-355.2" font-family="Titillium Web" font-size="11.00">(9774)</text>
<polyline fill="none" stroke="black" points="280,-348 396,-348 "/>
<text text-anchor="start" x="288" y="-335.2" font-family="Titillium Web" font-size="11.00">erlegte Sula bassana</text>
</g>
<!-- N9773 -->
<g id="N9773" class="node entityNode">
<title>N9773</title>
<polygon fill="#fc7715" fill-opacity="0.666667" stroke="white" points="539,-325 539,-377 602,-377 602,-325 539,-325"/>
<text text-anchor="start" x="547" y="-364.2" font-family="Titillium Web" font-size="11.00">E53 Place</text>
<text text-anchor="start" x="555" y="-352.2" font-family="Titillium Web" font-size="11.00">(9773)</text>
<polyline fill="none" stroke="white" points="539,-345 602,-345 "/>
<text text-anchor="start" x="548" y="-332.2" font-family="Titillium Web" font-size="11.00">Aalesund</text>
</g>
<!-- N9774&#45;&gt;N9773 -->
<g id="edge16" class="edge">
<title>N9774&#45;&gt;N9773</title>
<path fill="none" stroke="black" d="M396.07,-352.5C396.07,-352.5 528.86,-352.5 528.86,-352.5"/>
<polygon fill="black" stroke="black" points="528.86,-356 538.86,-352.5 528.86,-349 528.86,-356"/>
<text text-anchor="middle" x="453.96" y="-344.5" font-family="Titillium Web" font-size="10.00">P53</text>
</g>
<!-- N9775 -->
<g id="N9775" class="node entityNode">
<title>N9775</title>
<polygon fill="#06b67e" fill-opacity="0.666667" stroke="white" points="509,-467 509,-519 632,-519 632,-467 509,-467"/>
<text text-anchor="start" x="517" y="-506.2" font-family="Titillium Web" font-size="11.00">E28 Conceptual Object</text>
<text text-anchor="start" x="555" y="-494.2" font-family="Titillium Web" font-size="11.00">(9775)</text>
<polyline fill="none" stroke="white" points="509,-487 632,-487 "/>
<text text-anchor="start" x="538.5" y="-474.2" font-family="Titillium Web" font-size="11.00">Sula bassana</text>
</g>
<!-- N9774&#45;&gt;N9775 -->
<g id="edge17" class="edge">
<title>N9774&#45;&gt;N9775</title>
<path fill="none" stroke="black" d="M338,-380.14C338,-420.41 338,-493 338,-493 338,-493 498.8,-493 498.8,-493"/>
<polygon fill="black" stroke="black" points="498.8,-496.5 508.8,-493 498.8,-489.5 498.8,-496.5"/>
<text text-anchor="middle" x="350.97" y="-485" font-family="Titillium Web" font-size="10.00">P128</text>
</g>
<!-- N9776 -->
<g id="N9776" class="node entityNode">
<title>N9776</title>
<polygon fill="#06b67e" fill-opacity="0.666667" stroke="white" points="773,-467 773,-519 833,-519 833,-467 773,-467"/>
<text text-anchor="start" x="781" y="-506.2" font-family="Titillium Web" font-size="11.00">E55 Type</text>
<text text-anchor="start" x="787.5" y="-494.2" font-family="Titillium Web" font-size="11.00">(9776)</text>
<polyline fill="none" stroke="white" points="773,-487 833,-487 "/>
<text text-anchor="start" x="788" y="-474.2" font-family="Titillium Web" font-size="11.00">Taxon</text>
</g>
<!-- N9775&#45;&gt;N9776 -->
<g id="edge9" class="edge">
<title>N9775&#45;&gt;N9776</title>
<path fill="none" stroke="black" d="M632.2,-493C632.2,-493 762.98,-493 762.98,-493"/>
<polygon fill="black" stroke="black" points="762.98,-496.5 772.98,-493 762.98,-489.5 762.98,-496.5"/>
<text text-anchor="middle" x="691.59" y="-485" font-family="Titillium Web" font-size="10.00">P2</text>
</g>
<!-- N9772 -->
<g id="N9772" class="node entityNode">
<title>N9772</title>
<polygon fill="#fc3915" fill-opacity="0.666667" stroke="white" points="64,-221 64,-273 147,-273 147,-221 64,-221"/>
<text text-anchor="start" x="72" y="-260.2" font-family="Titillium Web" font-size="11.00">E8 Acquisition</text>
<text text-anchor="start" x="90" y="-248.2" font-family="Titillium Web" font-size="11.00">(9772)</text>
<polyline fill="none" stroke="white" points="64,-241 147,-241 "/>
<text text-anchor="start" x="83.5" y="-228.2" font-family="Titillium Web" font-size="11.00">überwies</text>
</g>
<!-- N9772&#45;&gt;N9774 -->
<g id="edge15" class="edge">
<title>N9772&#45;&gt;N9774</title>
<path fill="none" stroke="black" d="M106,-273.18C106,-304.85 106,-354 106,-354 106,-354 269.76,-354 269.76,-354"/>
<polygon fill="black" stroke="black" points="269.76,-357.5 279.76,-354 269.76,-350.5 269.76,-357.5"/>
<text text-anchor="middle" x="138.97" y="-346" font-family="Titillium Web" font-size="10.00">P24</text>
</g>
<!-- N9758 -->
<g id="N9758" class="node entityNode">
<title>N9758</title>
<polygon fill="#b560d4" fill-opacity="0.666667" stroke="white" points="281.5,-257 281.5,-309 394.5,-309 394.5,-257 281.5,-257"/>
<text text-anchor="start" x="289.5" y="-296.2" font-family="Titillium Web" font-size="11.00">E78 Curated Holding</text>
<text text-anchor="start" x="322.5" y="-284.2" font-family="Titillium Web" font-size="11.00">(9758)</text>
<polyline fill="none" stroke="white" points="281.5,-277 394.5,-277 "/>
<text text-anchor="start" x="298.5" y="-264.2" font-family="Titillium Web" font-size="11.00">Vogelsammlung</text>
</g>
<!-- N9772&#45;&gt;N9758 -->
<g id="edge13" class="edge">
<title>N9772&#45;&gt;N9758</title>
<path fill="none" stroke="black" d="M147.07,-265C147.07,-265 271.07,-265 271.07,-265"/>
<polygon fill="black" stroke="black" points="271.07,-268.5 281.07,-265 271.07,-261.5 271.07,-268.5"/>
<text text-anchor="middle" x="200.57" y="-257" font-family="Titillium Web" font-size="10.00">P22</text>
</g>
<!-- N9771 -->
<g id="N9771" class="node entityNode">
<title>N9771</title>
<polygon fill="#3b95c4" fill-opacity="0.666667" stroke="white" points="269,-186 269,-238 407,-238 407,-186 269,-186"/>
<text text-anchor="start" x="310.5" y="-225.2" font-family="Titillium Web" font-size="11.00">E21 Person</text>
<text text-anchor="start" x="322.5" y="-213.2" font-family="Titillium Web" font-size="11.00">(9771)</text>
<polyline fill="none" stroke="white" points="269,-206 407,-206 "/>
<text text-anchor="start" x="277" y="-193.2" font-family="Titillium Web" font-size="11.00">Seine Majestät der Kaiser</text>
</g>
<!-- N9772&#45;&gt;N9771 -->
<g id="edge14" class="edge">
<title>N9772&#45;&gt;N9771</title>
<path fill="none" stroke="black" d="M147.07,-232.5C147.07,-232.5 258.99,-232.5 258.99,-232.5"/>
<polygon fill="black" stroke="black" points="258.99,-236 268.99,-232.5 258.99,-229 258.99,-236"/>
<text text-anchor="middle" x="194.53" y="-224.5" font-family="Titillium Web" font-size="10.00">P23</text>
</g>
<!-- N9909 -->
<g id="N9909" class="node entityNode">
<title>N9909</title>
<polygon fill="#06b67e" fill-opacity="0.666667" stroke="white" points="308,-115 308,-167 368,-167 368,-115 308,-115"/>
<text text-anchor="start" x="316" y="-154.2" font-family="Titillium Web" font-size="11.00">E55 Type</text>
<text text-anchor="start" x="322.5" y="-142.2" font-family="Titillium Web" font-size="11.00">(9909)</text>
<polyline fill="none" stroke="white" points="308,-135 368,-135 "/>
<text text-anchor="start" x="316" y="-122.2" font-family="Titillium Web" font-size="11.00">Donation</text>
</g>
<!-- N9772&#45;&gt;N9909 -->
<g id="edge10" class="edge">
<title>N9772&#45;&gt;N9909</title>
<path fill="none" stroke="black" d="M147.32,-226.5C186.8,-226.5 240,-226.5 240,-226.5 240,-226.5 240,-141 240,-141 240,-141 297.8,-141 297.8,-141"/>
<polygon fill="black" stroke="black" points="297.8,-144.5 307.8,-141 297.8,-137.5 297.8,-144.5"/>
<text text-anchor="middle" x="234" y="-193.19" font-family="Titillium Web" font-size="10.00">P2</text>
</g>
<!-- N13839 -->
<g id="N13839" class="node entityNode">
<title>N13839</title>
<polygon fill="#debb9b" stroke="white" points="990.5,-467 990.5,-519 1080.5,-519 1080.5,-467 990.5,-467"/>
<text text-anchor="start" x="998.5" y="-506.2" font-family="Titillium Web" font-size="11.00">E41 Appellation</text>
<text text-anchor="start" x="1017" y="-494.2" font-family="Titillium Web" font-size="11.00">(13839)</text>
<polyline fill="none" stroke="white" points="990.5,-487 1080.5,-487 "/>
<text text-anchor="start" x="1020.5" y="-474.2" font-family="Titillium Web" font-size="11.00">Taxon</text>
</g>
<!-- N9776&#45;&gt;N13839 -->
<g id="edge7" class="edge">
<title>N9776&#45;&gt;N13839</title>
<path fill="none" stroke="black" d="M833.4,-493C833.4,-493 980.32,-493 980.32,-493"/>
<polygon fill="black" stroke="black" points="980.32,-496.5 990.32,-493 980.32,-489.5 980.32,-496.5"/>
<text text-anchor="middle" x="900.86" y="-485" font-family="Titillium Web" font-size="10.00">P1</text>
</g>
<!-- V_9758 -->
<g id="V_9758" class="node entityNode">
<title>V_9758</title>
<polygon fill="lightgrey" stroke="white" points="530.5,-263 530.5,-303 610.5,-303 610.5,-263 530.5,-263"/>
<text text-anchor="start" x="567" y="-290.2" font-family="Titillium Web" font-size="11.00">...</text>
<polyline fill="none" stroke="white" points="530.5,-283 610.5,-283 "/>
<text text-anchor="start" x="538.5" y="-270.2" font-family="Titillium Web" font-size="11.00">9 Neighbours</text>
</g>
<!-- N9758&#45;&gt;V_9758 -->
<g id="edge4" class="edge">
<title>N9758&#45;&gt;V_9758</title>
<path fill="none" stroke="black" d="M394.58,-283C394.58,-283 520.5,-283 520.5,-283"/>
<polygon fill="black" stroke="black" points="520.5,-286.5 530.5,-283 520.5,-279.5 520.5,-286.5"/>
<text text-anchor="middle" x="454.04" y="-275" font-family="Titillium Web" font-size="10.00">...</text>
</g>
<!-- N13871 -->
<g id="N13871" class="node entityNode">
<title>N13871</title>
<polygon fill="#debb9b" stroke="white" points="525.5,-186 525.5,-238 615.5,-238 615.5,-186 525.5,-186"/>
<text text-anchor="start" x="533.5" y="-225.2" font-family="Titillium Web" font-size="11.00">E41 Appellation</text>
<text text-anchor="start" x="552" y="-213.2" font-family="Titillium Web" font-size="11.00">(13871)</text>
<polyline fill="none" stroke="white" points="525.5,-206 615.5,-206 "/>
<text text-anchor="start" x="555" y="-193.2" font-family="Titillium Web" font-size="11.00">Kaiser</text>
</g>
<!-- N9771&#45;&gt;N13871 -->
<g id="edge8" class="edge">
<title>N9771&#45;&gt;N13871</title>
<path fill="none" stroke="black" d="M407.13,-212C407.13,-212 515.48,-212 515.48,-212"/>
<polygon fill="black" stroke="black" points="515.48,-215.5 525.48,-212 515.48,-208.5 515.48,-215.5"/>
<text text-anchor="middle" x="455.31" y="-204" font-family="Titillium Web" font-size="10.00">P1</text>
</g>
<!-- V_9909 -->
<g id="V_9909" class="node entityNode">
<title>V_9909</title>
<polygon fill="lightgrey" stroke="white" points="527.5,-121 527.5,-161 613.5,-161 613.5,-121 527.5,-121"/>
<text text-anchor="start" x="567" y="-148.2" font-family="Titillium Web" font-size="11.00">...</text>
<polyline fill="none" stroke="white" points="527.5,-141 613.5,-141 "/>
<text text-anchor="start" x="535.5" y="-128.2" font-family="Titillium Web" font-size="11.00">29 Neighbours</text>
</g>
<!-- N9909&#45;&gt;V_9909 -->
<g id="edge6" class="edge">
<title>N9909&#45;&gt;V_9909</title>
<path fill="none" stroke="black" d="M368.4,-141C368.4,-141 517.44,-141 517.44,-141"/>
<polygon fill="black" stroke="black" points="517.44,-144.5 527.44,-141 517.44,-137.5 517.44,-144.5"/>
<text text-anchor="middle" x="439.42" y="-133" font-family="Titillium Web" font-size="10.00">...</text>
</g>
<!-- V_13839 -->
<g id="V_13839" class="node entityNode">
<title>V_13839</title>
<polygon fill="lightgrey" stroke="white" points="1225,-473 1225,-513 1311,-513 1311,-473 1225,-473"/>
<text text-anchor="start" x="1264.5" y="-500.2" font-family="Titillium Web" font-size="11.00">...</text>
<polyline fill="none" stroke="white" points="1225,-493 1311,-493 "/>
<text text-anchor="start" x="1233" y="-480.2" font-family="Titillium Web" font-size="11.00">32 Neighbours</text>
</g>
<!-- N13839&#45;&gt;V_13839 -->
<g id="edge1" class="edge">
<title>N13839&#45;&gt;V_13839</title>
<path fill="none" stroke="black" d="M1080.6,-493C1080.6,-493 1214.99,-493 1214.99,-493"/>
<polygon fill="black" stroke="black" points="1214.99,-496.5 1224.99,-493 1214.99,-489.5 1214.99,-496.5"/>
<text text-anchor="middle" x="1144.29" y="-485" font-family="Titillium Web" font-size="10.00">...</text>
</g>
<!-- N9892 -->
<g id="N9892" class="node entityNode">
<title>N9892</title>
<polygon fill="#06b67e" fill-opacity="0.666667" stroke="white" points="509,-538 509,-590 632,-590 632,-538 509,-538"/>
<text text-anchor="start" x="517" y="-577.2" font-family="Titillium Web" font-size="11.00">E28 Conceptual Object</text>
<text text-anchor="start" x="555" y="-565.2" font-family="Titillium Web" font-size="11.00">(9892)</text>
<polyline fill="none" stroke="white" points="509,-558 632,-558 "/>
<text text-anchor="start" x="549.5" y="-545.2" font-family="Titillium Web" font-size="11.00">Reptilien</text>
</g>
<!-- N9892&#45;&gt;N9776 -->
<g id="edge11" class="edge">
<title>N9892&#45;&gt;N9776</title>
<path fill="none" stroke="black" d="M632.2,-557.17C672.62,-557.17 718,-557.17 718,-557.17 718,-557.17 718,-506.25 718,-506.25 718,-506.25 762.79,-506.25 762.79,-506.25"/>
<polygon fill="black" stroke="black" points="762.79,-509.75 772.79,-506.25 762.79,-502.75 762.79,-509.75"/>
<text text-anchor="middle" x="712" y="-544.21" font-family="Titillium Web" font-size="10.00">P2</text>
</g>
<!-- V_9892 -->
<g id="V_9892" class="node entityNode">
<title>V_9892</title>
<polygon fill="lightgrey" stroke="white" points="763,-544 763,-584 843,-584 843,-544 763,-544"/>
<text text-anchor="start" x="799.5" y="-571.2" font-family="Titillium Web" font-size="11.00">...</text>
<polyline fill="none" stroke="white" points="763,-564 843,-564 "/>
<text text-anchor="start" x="771" y="-551.2" font-family="Titillium Web" font-size="11.00">3 Neighbours</text>
</g>
<!-- N9892&#45;&gt;V_9892 -->
<g id="edge2" class="edge">
<title>N9892&#45;&gt;V_9892</title>
<path fill="none" stroke="black" d="M632.2,-570.83C632.2,-570.83 752.99,-570.83 752.99,-570.83"/>
<polygon fill="black" stroke="black" points="752.99,-574.33 762.99,-570.83 752.99,-567.33 752.99,-574.33"/>
<text text-anchor="middle" x="689.09" y="-562.83" font-family="Titillium Web" font-size="10.00">...</text>
</g>
<!-- N9905 -->
<g id="N9905" class="node entityNode">
<title>N9905</title>
<polygon fill="#06b67e" fill-opacity="0.666667" stroke="white" points="509,-396 509,-448 632,-448 632,-396 509,-396"/>
<text text-anchor="start" x="517" y="-435.2" font-family="Titillium Web" font-size="11.00">E28 Conceptual Object</text>
<text text-anchor="start" x="555" y="-423.2" font-family="Titillium Web" font-size="11.00">(9905)</text>
<polyline fill="none" stroke="white" points="509,-416 632,-416 "/>
<text text-anchor="start" x="552.5" y="-403.2" font-family="Titillium Web" font-size="11.00">Molche</text>
</g>
<!-- N9905&#45;&gt;N9776 -->
<g id="edge12" class="edge">
<title>N9905&#45;&gt;N9776</title>
<path fill="none" stroke="black" d="M632.19,-415.17C654.82,-415.17 675,-415.17 675,-415.17 675,-415.17 675,-479.75 675,-479.75 675,-479.75 762.99,-479.75 762.99,-479.75"/>
<polygon fill="black" stroke="black" points="762.99,-483.25 772.99,-479.75 762.99,-476.25 762.99,-483.25"/>
<text text-anchor="middle" x="669" y="-462.05" font-family="Titillium Web" font-size="10.00">P2</text>
</g>
<!-- V_9905 -->
<g id="V_9905" class="node entityNode">
<title>V_9905</title>
<polygon fill="lightgrey" stroke="white" points="763,-402 763,-442 843,-442 843,-402 763,-402"/>
<text text-anchor="start" x="799.5" y="-429.2" font-family="Titillium Web" font-size="11.00">...</text>
<polyline fill="none" stroke="white" points="763,-422 843,-422 "/>
<text text-anchor="start" x="771" y="-409.2" font-family="Titillium Web" font-size="11.00">4 Neighbours</text>
</g>
<!-- N9905&#45;&gt;V_9905 -->
<g id="edge3" class="edge">
<title>N9905&#45;&gt;V_9905</title>
<path fill="none" stroke="black" d="M632.2,-428.83C632.2,-428.83 752.99,-428.83 752.99,-428.83"/>
<polygon fill="black" stroke="black" points="752.99,-432.33 762.99,-428.83 752.99,-425.33 752.99,-432.33"/>
<text text-anchor="middle" x="689.09" y="-420.83" font-family="Titillium Web" font-size="10.00">...</text>
</g>
<!-- V_13871 -->
<g id="V_13871" class="node entityNode">
<title>V_13871</title>
<polygon fill="lightgrey" stroke="white" points="760,-192 760,-232 846,-232 846,-192 760,-192"/>
<text text-anchor="start" x="799.5" y="-219.2" font-family="Titillium Web" font-size="11.00">...</text>
<polyline fill="none" stroke="white" points="760,-212 846,-212 "/>
<text text-anchor="start" x="768" y="-199.2" font-family="Titillium Web" font-size="11.00">10 Neighbours</text>
</g>
<!-- N13871&#45;&gt;V_13871 -->
<g id="edge5" class="edge">
<title>N13871&#45;&gt;V_13871</title>
<path fill="none" stroke="black" d="M615.6,-212C615.6,-212 749.99,-212 749.99,-212"/>
<polygon fill="black" stroke="black" points="749.99,-215.5 759.99,-212 749.99,-208.5 749.99,-215.5"/>
<text text-anchor="middle" x="679.29" y="-204" font-family="Titillium Web" font-size="10.00">...</text>
</g>
</g>
</svg>
