<?xml version="1.0" encoding="UTF-8" standalone="no"?>
<svg
   viewBox="0 0 120 120"
   version="1.1"
   id="svg838"
   sodipodi:docname="favicon.svg"
   inkscape:version="1.1.1 (3bf5ae0d25, 2021-09-20)"
   xmlns:inkscape="http://www.inkscape.org/namespaces/inkscape"
   xmlns:sodipodi="http://sodipodi.sourceforge.net/DTD/sodipodi-0.dtd"
   xmlns:xlink="http://www.w3.org/1999/xlink"
   xmlns="http://www.w3.org/2000/svg"
   xmlns:svg="http://www.w3.org/2000/svg">
  <defs
     id="defs842">
    <linearGradient
       inkscape:collect="always"
       id="linearGradient1666">
      <stop
         style="stop-color:#7da30b;stop-opacity:0;"
         offset="0"
         id="stop1664" />
      <stop
         style="stop-color:#7da30b;stop-opacity:1;"
         offset="1"
         id="stop1662" />
    </linearGradient>
    <radialGradient
       inkscape:collect="always"
       xlink:href="#linearGradient1666"
       id="radialGradient1668"
       cx="59.951"
       cy="51.975464"
       fx="59.951"
       fy="51.975464"
       r="59.951"
       gradientTransform="matrix(0.83483177,0,0,0.86696574,9.9020003,6.9145168)"
       gradientUnits="userSpaceOnUse" />
  </defs>
  <sodipodi:namedview
     id="namedview840"
     pagecolor="#ffffff"
     bordercolor="#666666"
     borderopacity="1.0"
     inkscape:pageshadow="2"
     inkscape:pageopacity="0.0"
     inkscape:pagecheckerboard="0"
     showgrid="true"
     inkscape:zoom="3.3708333"
     inkscape:cx="70.754018"
     inkscape:cy="76.983931"
     inkscape:window-width="1920"
     inkscape:window-height="1017"
     inkscape:window-x="-8"
     inkscape:window-y="-8"
     inkscape:window-maximized="1"
     inkscape:current-layer="svg838">
    <inkscape:grid
       type="xygrid"
       id="grid826" />
  </sodipodi:namedview>
  <path
     d="M55.875 94.89S48 83.41 27.937 83.41C9.557 83.407 0 88.75 0 88.75V14.528s9.556-5.34 27.938-5.466C48 8.927 55.875 20.668 55.875 20.668V94.89zm8.15 0s7.875-11.48 27.94-11.48c18.38 0 27.937 5.342 27.937 5.342V14.527s-9.556-5.34-27.938-5.466c-20.06-.13-27.936 11.61-27.936 11.61v74.22z"
     fill="#010101"
     id="path834"
     style="fill:url(#radialGradient1668);fill-opacity:1;stroke:none;stroke-opacity:1;stroke-width:1.0015748;stroke-miterlimit:4;stroke-dasharray:none;stroke-linejoin:miter" />
  <path
     d="M60.09 118S48 100.58 27.94 100.58c-18.382 0-27.938 5.34-27.938 5.34v-8.893s9.556-5.34 27.938-5.466c20.06-.133 32.15 17.55 32.15 17.55V118zm.002 0s12.09-17.425 32.153-17.425c18.382 0 27.938 5.343 27.938 5.343v-8.893s-9.556-5.34-27.938-5.466c-20.062-.14-32.153 17.54-32.153 17.54v8.89z"
     fill="#010101"
     id="path836"
     style="fill:#7da30b;fill-opacity:1" />
</svg>
