<?xml version="1.0" encoding="UTF-8"?>
<svg width="24" height="24" version="1.1" viewBox="0 0 24 24" xmlns="http://www.w3.org/2000/svg">
 <path d="m11.158 19.34s-1.5726-2.2925-5.5791-2.2925c-3.6704-5.98e-4 -5.5789 1.0664-5.5789 1.0664v-14.822s1.9083-1.0664 5.5791-1.0915c4.0063-0.026958 5.5789 2.3177 5.5789 2.3177zm1.6275 0s1.5726-2.2925 5.5795-2.2925c3.6704 0 5.5789 1.0668 5.5789 1.0668v-14.822s-1.9083-1.0664-5.5791-1.0915c-4.0059-0.02596-5.5787 2.3185-5.5787 2.3185v14.821z"/>
 <path d="m12 23.955s-2.4143-3.4787-6.4202-3.4787c-3.6708 0-5.5791 1.0664-5.5791 1.0664v-1.7759s1.9083-1.0664 5.5791-1.0915c4.0059-0.02656 6.4202 3.5047 6.4202 3.5047zm4e-4 0s2.4143-3.4797 6.4208-3.4797c3.6708 0 5.5791 1.067 5.5791 1.067v-1.7759s-1.9083-1.0664-5.5791-1.0915c-4.0063-0.02796-6.4208 3.5027-6.4208 3.5027v1.7753z"/>
</svg>
